<?xml version="1.0" encoding="utf-8" standalone="no"?>
<!DOCTYPE svg PUBLIC "-//W3C//DTD SVG 1.1//EN"
  "http://www.w3.org/Graphics/SVG/1.1/DTD/svg11.dtd">
<svg xmlns:xlink="http://www.w3.org/1999/xlink" width="848.944687pt" height="343.86pt" viewBox="0 0 848.944687 343.86" xmlns="http://www.w3.org/2000/svg" version="1.1">
 <metadata>
  <rdf:RDF xmlns:dc="http://purl.org/dc/elements/1.1/" xmlns:cc="http://creativecommons.org/ns#" xmlns:rdf="http://www.w3.org/1999/02/22-rdf-syntax-ns#">
   <cc:Work>
    <dc:type rdf:resource="http://purl.org/dc/dcmitype/StillImage"/>
    <dc:date>2026-07-09T20:24:30.078855</dc:date>
    <dc:format>image/svg+xml</dc:format>
    <dc:creator>
     <cc:Agent>
      <dc:title>Matplotlib v3.11.0, https://matplotlib.org/</dc:title>
     </cc:Agent>
    </dc:creator>
   </cc:Work>
  </rdf:RDF>
 </metadata>
 <defs>
  <style type="text/css">*{stroke-linejoin: round; stroke-linecap: butt}</style>
 </defs>
 <g id="figure_1">
  <g id="patch_1">
   <path d="M 0 343.86 
L 848.944687 343.86 
L 848.944687 0 
L 0 0 
L 0 343.86 
z
" style="fill: none"/>
  </g>
  <g id="axes_1">
   <g id="line2d_1">
    <path d="M 170.436 209.88 
L 379.236 209.88 
L 379.236 51.48 
L 170.436 51.48 
L 170.436 209.88 
" clip-path="url(#p637fe75f4c)" style="fill: none; stroke: #000000; stroke-width: 1.4; stroke-linecap: round"/>
   </g>
   <g id="line2d_2">
    <path d="M 170.436 181.08 
L 141.636 181.08 
" clip-path="url(#p637fe75f4c)" style="fill: none; stroke: #000000; stroke-width: 1.4; stroke-linecap: round"/>
   </g>
   <g id="line2d_3">
    <path d="M 170.436 130.68 
L 141.636 130.68 
" clip-path="url(#p637fe75f4c)" style="fill: none; stroke: #000000; stroke-width: 1.4; stroke-linecap: round"/>
   </g>
   <g id="line2d_4">
    <path d="M 170.436 80.28 
L 141.636 80.28 
" clip-path="url(#p637fe75f4c)" style="fill: none; stroke: #000000; stroke-width: 1.4; stroke-linecap: round"/>
   </g>
   <g id="line2d_5">
    <path d="M 379.236 155.88 
L 408.036 155.88 
" clip-path="url(#p637fe75f4c)" style="fill: none; stroke: #000000; stroke-width: 1.4; stroke-linecap: round"/>
   </g>
   <g id="line2d_6">
    <path d="M 379.236 105.48 
L 408.036 105.48 
" clip-path="url(#p637fe75f4c)" style="fill: none; stroke: #000000; stroke-width: 1.4; stroke-linecap: round"/>
   </g>
   <g id="line2d_7">
    <path d="M 274.836 51.48 
L 274.836 22.68 
" clip-path="url(#p637fe75f4c)" style="fill: none; stroke: #000000; stroke-width: 1.4; stroke-linecap: round"/>
   </g>
   <g id="line2d_8">
    <path d="M 199.236 209.88 
L 199.236 238.68 
" clip-path="url(#p637fe75f4c)" style="fill: none; stroke: #000000; stroke-width: 1.4; stroke-linecap: round"/>
   </g>
   <g id="line2d_9">
    <path d="M 249.636 209.88 
L 249.636 238.68 
" clip-path="url(#p637fe75f4c)" style="fill: none; stroke: #000000; stroke-width: 1.4; stroke-linecap: round"/>
   </g>
   <g id="line2d_10">
    <path d="M 300.036 209.88 
L 300.036 238.68 
" clip-path="url(#p637fe75f4c)" style="fill: none; stroke: #000000; stroke-width: 1.4; stroke-linecap: round"/>
   </g>
   <g id="line2d_11">
    <path d="M 350.436 209.88 
L 350.436 238.68 
" clip-path="url(#p637fe75f4c)" style="fill: none; stroke: #000000; stroke-width: 1.4; stroke-linecap: round"/>
   </g>
   <g id="line2d_12">
    <path d="M 141.636 181.08 
L 116.436 181.08 
L 91.236 181.08 
" clip-path="url(#p637fe75f4c)" style="fill: none; stroke: #000000; stroke-width: 1.4; stroke-linecap: round"/>
   </g>
   <g id="line2d_13">
    <path d="M 141.636 130.68 
L 116.436 130.68 
L 91.236 130.68 
" clip-path="url(#p637fe75f4c)" style="fill: none; stroke: #000000; stroke-width: 1.4; stroke-linecap: round"/>
   </g>
   <g id="line2d_14">
    <path d="M 141.636 80.28 
L 138.036 80.28 
L 135.036 89.28 
L 129.036 71.28 
L 123.036 89.28 
L 117.036 71.28 
L 111.036 89.28 
L 105.036 71.28 
L 102.036 80.28 
L 98.436 80.28 
" clip-path="url(#p637fe75f4c)" style="fill: none; stroke: #000000; stroke-width: 1.4; stroke-linecap: round"/>
   </g>
   <g id="line2d_15">
    <path d="M 98.436 80.28 
L 98.436 62.28 
L 98.436 44.28 
" clip-path="url(#p637fe75f4c)" style="fill: none; stroke: #000000; stroke-width: 1.4; stroke-linecap: round"/>
   </g>
   <g id="line2d_16">
    <path d="M 199.236 238.68 
L 199.236 247.68 
L 199.236 256.68 
" clip-path="url(#p637fe75f4c)" style="fill: none; stroke: #000000; stroke-width: 1.4; stroke-linecap: round"/>
   </g>
   <g id="line2d_17">
    <path d="M 199.236 256.68 
L 199.236 271.08 
L 190.236 271.08 
L 208.236 271.08 
M 192.936 275.4 
L 205.536 275.4 
M 197.436 279.72 
L 201.036 279.72 
" clip-path="url(#p637fe75f4c)" style="fill: none; stroke: #000000; stroke-width: 1.4; stroke-linecap: round"/>
   </g>
   <g id="line2d_18">
    <path d="M 249.636 238.68 
L 249.636 247.68 
L 249.636 256.68 
" clip-path="url(#p637fe75f4c)" style="fill: none; stroke: #000000; stroke-width: 1.4; stroke-linecap: round"/>
   </g>
   <g id="line2d_19">
    <path d="M 249.636 256.68 
L 249.636 271.08 
L 240.636 271.08 
L 258.636 271.08 
M 243.336 275.4 
L 255.936 275.4 
M 247.836 279.72 
L 251.436 279.72 
" clip-path="url(#p637fe75f4c)" style="fill: none; stroke: #000000; stroke-width: 1.4; stroke-linecap: round"/>
   </g>
   <g id="line2d_20">
    <path d="M 300.036 238.68 
L 300.036 247.68 
L 300.036 256.68 
" clip-path="url(#p637fe75f4c)" style="fill: none; stroke: #000000; stroke-width: 1.4; stroke-linecap: round"/>
   </g>
   <g id="line2d_21">
    <path d="M 300.036 256.68 
L 300.036 271.08 
L 291.036 271.08 
L 309.036 271.08 
M 293.736 275.4 
L 306.336 275.4 
M 298.236 279.72 
L 301.836 279.72 
" clip-path="url(#p637fe75f4c)" style="fill: none; stroke: #000000; stroke-width: 1.4; stroke-linecap: round"/>
   </g>
   <g id="line2d_22">
    <path d="M 350.436 238.68 
L 350.436 247.68 
L 350.436 256.68 
" clip-path="url(#p637fe75f4c)" style="fill: none; stroke: #000000; stroke-width: 1.4; stroke-linecap: round"/>
   </g>
   <g id="line2d_23">
    <path d="M 350.436 256.68 
L 350.436 271.08 
L 341.436 271.08 
L 359.436 271.08 
M 344.136 275.4 
L 356.736 275.4 
M 348.636 279.72 
L 352.236 279.72 
" clip-path="url(#p637fe75f4c)" style="fill: none; stroke: #000000; stroke-width: 1.4; stroke-linecap: round"/>
   </g>
   <g id="line2d_24">
    <path d="M 274.836 22.68 
L 274.836 13.68 
L 274.836 4.68 
" clip-path="url(#p637fe75f4c)" style="fill: none; stroke: #000000; stroke-width: 1.4; stroke-linecap: round"/>
   </g>
   <g id="line2d_25">
    <path d="M 408.036 155.88 
L 436.836 155.88 
L 465.636 155.88 
" clip-path="url(#p637fe75f4c)" style="fill: none; stroke: #000000; stroke-width: 1.4; stroke-linecap: round"/>
   </g>
   <g id="line2d_26">
    <path d="M 408.036 105.48 
L 436.836 105.48 
L 465.636 105.48 
" clip-path="url(#p637fe75f4c)" style="fill: none; stroke: #000000; stroke-width: 1.4; stroke-linecap: round"/>
   </g>
   <g id="text_1">
    <!-- 13 -->
    <g transform="translate(153.7385 176.883828) scale(0.11 -0.11)">
     <defs>
      <path id="DejaVuSans-14" d="M 794 531 
L 1825 531 
L 1825 4091 
L 703 3866 
L 703 4441 
L 1819 4666 
L 2450 4666 
L 2450 531 
L 3481 531 
L 3481 0 
L 794 0 
L 794 531 
z
" transform="scale(0.015625)"/>
      <path id="DejaVuSans-16" d="M 2597 2516 
Q 3050 2419 3304 2112 
Q 3559 1806 3559 1356 
Q 3559 666 3084 287 
Q 2609 -91 1734 -91 
Q 1441 -91 1130 -33 
Q 819 25 488 141 
L 488 750 
Q 750 597 1062 519 
Q 1375 441 1716 441 
Q 2309 441 2620 675 
Q 2931 909 2931 1356 
Q 2931 1769 2642 2001 
Q 2353 2234 1838 2234 
L 1294 2234 
L 1294 2753 
L 1863 2753 
Q 2328 2753 2575 2939 
Q 2822 3125 2822 3475 
Q 2822 3834 2567 4026 
Q 2313 4219 1838 4219 
Q 1578 4219 1281 4162 
Q 984 4106 628 3988 
L 628 4550 
Q 988 4650 1302 4700 
Q 1616 4750 1894 4750 
Q 2613 4750 3031 4423 
Q 3450 4097 3450 3541 
Q 3450 3153 3228 2886 
Q 3006 2619 2597 2516 
z
" transform="scale(0.015625)"/>
     </defs>
     <use xlink:href="#DejaVuSans-14"/>
     <use xlink:href="#DejaVuSans-16" transform="translate(63.625 0)"/>
    </g>
   </g>
   <g id="text_2">
    <!-- SDA -->
    <g transform="translate(175.836 186.175781) scale(0.14 -0.14)">
     <defs>
      <path id="DejaVuSans-36" d="M 3425 4513 
L 3425 3897 
Q 3066 4069 2747 4153 
Q 2428 4238 2131 4238 
Q 1616 4238 1336 4038 
Q 1056 3838 1056 3469 
Q 1056 3159 1242 3001 
Q 1428 2844 1947 2747 
L 2328 2669 
Q 3034 2534 3370 2195 
Q 3706 1856 3706 1288 
Q 3706 609 3251 259 
Q 2797 -91 1919 -91 
Q 1588 -91 1214 -16 
Q 841 59 441 206 
L 441 856 
Q 825 641 1194 531 
Q 1563 422 1919 422 
Q 2459 422 2753 634 
Q 3047 847 3047 1241 
Q 3047 1584 2836 1778 
Q 2625 1972 2144 2069 
L 1759 2144 
Q 1053 2284 737 2584 
Q 422 2884 422 3419 
Q 422 4038 858 4394 
Q 1294 4750 2059 4750 
Q 2388 4750 2728 4690 
Q 3069 4631 3425 4513 
z
" transform="scale(0.015625)"/>
      <path id="DejaVuSans-27" d="M 1259 4147 
L 1259 519 
L 2022 519 
Q 2988 519 3436 956 
Q 3884 1394 3884 2338 
Q 3884 3275 3436 3711 
Q 2988 4147 2022 4147 
L 1259 4147 
z
M 628 4666 
L 1925 4666 
Q 3281 4666 3915 4102 
Q 4550 3538 4550 2338 
Q 4550 1131 3912 565 
Q 3275 0 1925 0 
L 628 0 
L 628 4666 
z
" transform="scale(0.015625)"/>
      <path id="DejaVuSans-24" d="M 2188 4044 
L 1331 1722 
L 3047 1722 
L 2188 4044 
z
M 1831 4666 
L 2547 4666 
L 4325 0 
L 3669 0 
L 3244 1197 
L 1141 1197 
L 716 0 
L 50 0 
L 1831 4666 
z
" transform="scale(0.015625)"/>
     </defs>
     <use xlink:href="#DejaVuSans-36"/>
     <use xlink:href="#DejaVuSans-27" transform="translate(63.484375 0)"/>
     <use xlink:href="#DejaVuSans-24" transform="translate(138.734375 0)"/>
    </g>
   </g>
   <g id="text_3">
    <!-- 12 -->
    <g transform="translate(153.7385 126.562031) scale(0.11 -0.11)">
     <defs>
      <path id="DejaVuSans-15" d="M 1228 531 
L 3431 531 
L 3431 0 
L 469 0 
L 469 531 
Q 828 903 1448 1529 
Q 2069 2156 2228 2338 
Q 2531 2678 2651 2914 
Q 2772 3150 2772 3378 
Q 2772 3750 2511 3984 
Q 2250 4219 1831 4219 
Q 1534 4219 1204 4116 
Q 875 4013 500 3803 
L 500 4441 
Q 881 4594 1212 4672 
Q 1544 4750 1819 4750 
Q 2544 4750 2975 4387 
Q 3406 4025 3406 3419 
Q 3406 3131 3298 2873 
Q 3191 2616 2906 2266 
Q 2828 2175 2409 1742 
Q 1991 1309 1228 531 
z
" transform="scale(0.015625)"/>
     </defs>
     <use xlink:href="#DejaVuSans-14"/>
     <use xlink:href="#DejaVuSans-15" transform="translate(63.625 0)"/>
    </g>
   </g>
   <g id="text_4">
    <!-- SCL -->
    <g transform="translate(175.836 135.775781) scale(0.14 -0.14)">
     <defs>
      <path id="DejaVuSans-26" d="M 4122 4306 
L 4122 3641 
Q 3803 3938 3442 4084 
Q 3081 4231 2675 4231 
Q 1875 4231 1450 3742 
Q 1025 3253 1025 2328 
Q 1025 1406 1450 917 
Q 1875 428 2675 428 
Q 3081 428 3442 575 
Q 3803 722 4122 1019 
L 4122 359 
Q 3791 134 3420 21 
Q 3050 -91 2638 -91 
Q 1578 -91 968 557 
Q 359 1206 359 2328 
Q 359 3453 968 4101 
Q 1578 4750 2638 4750 
Q 3056 4750 3426 4639 
Q 3797 4528 4122 4306 
z
" transform="scale(0.015625)"/>
      <path id="DejaVuSans-2f" d="M 628 4666 
L 1259 4666 
L 1259 531 
L 3531 531 
L 3531 0 
L 628 0 
L 628 4666 
z
" transform="scale(0.015625)"/>
     </defs>
     <use xlink:href="#DejaVuSans-36"/>
     <use xlink:href="#DejaVuSans-26" transform="translate(63.484375 0)"/>
     <use xlink:href="#DejaVuSans-2f" transform="translate(133.3125 0)"/>
    </g>
   </g>
   <g id="text_5">
    <!-- 18 -->
    <g transform="translate(153.7385 76.083828) scale(0.11 -0.11)">
     <defs>
      <path id="DejaVuSans-1b" d="M 2034 2216 
Q 1584 2216 1326 1975 
Q 1069 1734 1069 1313 
Q 1069 891 1326 650 
Q 1584 409 2034 409 
Q 2484 409 2743 651 
Q 3003 894 3003 1313 
Q 3003 1734 2745 1975 
Q 2488 2216 2034 2216 
z
M 1403 2484 
Q 997 2584 770 2862 
Q 544 3141 544 3541 
Q 544 4100 942 4425 
Q 1341 4750 2034 4750 
Q 2731 4750 3128 4425 
Q 3525 4100 3525 3541 
Q 3525 3141 3298 2862 
Q 3072 2584 2669 2484 
Q 3125 2378 3379 2068 
Q 3634 1759 3634 1313 
Q 3634 634 3220 271 
Q 2806 -91 2034 -91 
Q 1263 -91 848 271 
Q 434 634 434 1313 
Q 434 1759 690 2068 
Q 947 2378 1403 2484 
z
M 1172 3481 
Q 1172 3119 1398 2916 
Q 1625 2713 2034 2713 
Q 2441 2713 2670 2916 
Q 2900 3119 2900 3481 
Q 2900 3844 2670 4047 
Q 2441 4250 2034 4250 
Q 1625 4250 1398 4047 
Q 1172 3844 1172 3481 
z
" transform="scale(0.015625)"/>
     </defs>
     <use xlink:href="#DejaVuSans-14"/>
     <use xlink:href="#DejaVuSans-1b" transform="translate(63.625 0)"/>
    </g>
   </g>
   <g id="text_6">
    <!-- RESETn -->
    <g transform="translate(175.836 85.375781) scale(0.14 -0.14)">
     <defs>
      <path id="DejaVuSans-35" d="M 2841 2188 
Q 3044 2119 3236 1894 
Q 3428 1669 3622 1275 
L 4263 0 
L 3584 0 
L 2988 1197 
Q 2756 1666 2539 1819 
Q 2322 1972 1947 1972 
L 1259 1972 
L 1259 0 
L 628 0 
L 628 4666 
L 2053 4666 
Q 2853 4666 3247 4331 
Q 3641 3997 3641 3322 
Q 3641 2881 3436 2590 
Q 3231 2300 2841 2188 
z
M 1259 4147 
L 1259 2491 
L 2053 2491 
Q 2509 2491 2742 2702 
Q 2975 2913 2975 3322 
Q 2975 3731 2742 3939 
Q 2509 4147 2053 4147 
L 1259 4147 
z
" transform="scale(0.015625)"/>
      <path id="DejaVuSans-28" d="M 628 4666 
L 3578 4666 
L 3578 4134 
L 1259 4134 
L 1259 2753 
L 3481 2753 
L 3481 2222 
L 1259 2222 
L 1259 531 
L 3634 531 
L 3634 0 
L 628 0 
L 628 4666 
z
" transform="scale(0.015625)"/>
      <path id="DejaVuSans-37" d="M -19 4666 
L 3928 4666 
L 3928 4134 
L 2272 4134 
L 2272 0 
L 1638 0 
L 1638 4134 
L -19 4134 
L -19 4666 
z
" transform="scale(0.015625)"/>
      <path id="DejaVuSans-51" d="M 3513 2113 
L 3513 0 
L 2938 0 
L 2938 2094 
Q 2938 2591 2744 2837 
Q 2550 3084 2163 3084 
Q 1697 3084 1428 2787 
Q 1159 2491 1159 1978 
L 1159 0 
L 581 0 
L 581 3500 
L 1159 3500 
L 1159 2956 
Q 1366 3272 1645 3428 
Q 1925 3584 2291 3584 
Q 2894 3584 3203 3211 
Q 3513 2838 3513 2113 
z
" transform="scale(0.015625)"/>
     </defs>
     <use xlink:href="#DejaVuSans-35"/>
     <use xlink:href="#DejaVuSans-28" transform="translate(69.484375 0)"/>
     <use xlink:href="#DejaVuSans-36" transform="translate(132.671875 0)"/>
     <use xlink:href="#DejaVuSans-28" transform="translate(196.15625 0)"/>
     <use xlink:href="#DejaVuSans-37" transform="translate(259.34375 0)"/>
     <use xlink:href="#DejaVuSans-51" transform="translate(320.421875 0)"/>
    </g>
   </g>
   <g id="text_7">
    <!-- 21 -->
    <g transform="translate(381.936 151.762031) scale(0.11 -0.11)">
     <use xlink:href="#DejaVuSans-15"/>
     <use xlink:href="#DejaVuSans-14" transform="translate(63.625 0)"/>
    </g>
   </g>
   <g id="text_8">
    <!-- GPA0 -->
    <g transform="translate(336.956937 160.975781) scale(0.14 -0.14)">
     <defs>
      <path id="DejaVuSans-2a" d="M 3809 666 
L 3809 1919 
L 2778 1919 
L 2778 2438 
L 4434 2438 
L 4434 434 
Q 4069 175 3628 42 
Q 3188 -91 2688 -91 
Q 1594 -91 976 548 
Q 359 1188 359 2328 
Q 359 3472 976 4111 
Q 1594 4750 2688 4750 
Q 3144 4750 3555 4637 
Q 3966 4525 4313 4306 
L 4313 3634 
Q 3963 3931 3569 4081 
Q 3175 4231 2741 4231 
Q 1884 4231 1454 3753 
Q 1025 3275 1025 2328 
Q 1025 1384 1454 906 
Q 1884 428 2741 428 
Q 3075 428 3337 486 
Q 3600 544 3809 666 
z
" transform="scale(0.015625)"/>
      <path id="DejaVuSans-33" d="M 1259 4147 
L 1259 2394 
L 2053 2394 
Q 2494 2394 2734 2622 
Q 2975 2850 2975 3272 
Q 2975 3691 2734 3919 
Q 2494 4147 2053 4147 
L 1259 4147 
z
M 628 4666 
L 2053 4666 
Q 2838 4666 3239 4311 
Q 3641 3956 3641 3272 
Q 3641 2581 3239 2228 
Q 2838 1875 2053 1875 
L 1259 1875 
L 1259 0 
L 628 0 
L 628 4666 
z
" transform="scale(0.015625)"/>
      <path id="DejaVuSans-13" d="M 2034 4250 
Q 1547 4250 1301 3770 
Q 1056 3291 1056 2328 
Q 1056 1369 1301 889 
Q 1547 409 2034 409 
Q 2525 409 2770 889 
Q 3016 1369 3016 2328 
Q 3016 3291 2770 3770 
Q 2525 4250 2034 4250 
z
M 2034 4750 
Q 2819 4750 3233 4129 
Q 3647 3509 3647 2328 
Q 3647 1150 3233 529 
Q 2819 -91 2034 -91 
Q 1250 -91 836 529 
Q 422 1150 422 2328 
Q 422 3509 836 4129 
Q 1250 4750 2034 4750 
z
" transform="scale(0.015625)"/>
     </defs>
     <use xlink:href="#DejaVuSans-2a"/>
     <use xlink:href="#DejaVuSans-33" transform="translate(77.484375 0)"/>
     <use xlink:href="#DejaVuSans-24" transform="translate(131.390625 0)"/>
     <use xlink:href="#DejaVuSans-13" transform="translate(199.796875 0)"/>
    </g>
   </g>
   <g id="text_9">
    <!-- 28 -->
    <g transform="translate(381.936 101.283828) scale(0.11 -0.11)">
     <use xlink:href="#DejaVuSans-15"/>
     <use xlink:href="#DejaVuSans-1b" transform="translate(63.625 0)"/>
    </g>
   </g>
   <g id="text_10">
    <!-- GPA7 -->
    <g transform="translate(336.956937 110.575781) scale(0.14 -0.14)">
     <defs>
      <path id="DejaVuSans-1a" d="M 525 4666 
L 3525 4666 
L 3525 4397 
L 1831 0 
L 1172 0 
L 2766 4134 
L 525 4134 
L 525 4666 
z
" transform="scale(0.015625)"/>
     </defs>
     <use xlink:href="#DejaVuSans-2a"/>
     <use xlink:href="#DejaVuSans-33" transform="translate(77.484375 0)"/>
     <use xlink:href="#DejaVuSans-24" transform="translate(131.390625 0)"/>
     <use xlink:href="#DejaVuSans-1a" transform="translate(199.796875 0)"/>
    </g>
   </g>
   <g id="text_11">
    <!-- 9 -->
    <g transform="translate(277.536 47.283828) scale(0.11 -0.11)">
     <defs>
      <path id="DejaVuSans-1c" d="M 703 97 
L 703 672 
Q 941 559 1184 500 
Q 1428 441 1663 441 
Q 2288 441 2617 861 
Q 2947 1281 2994 2138 
Q 2813 1869 2534 1725 
Q 2256 1581 1919 1581 
Q 1219 1581 811 2004 
Q 403 2428 403 3163 
Q 403 3881 828 4315 
Q 1253 4750 1959 4750 
Q 2769 4750 3195 4129 
Q 3622 3509 3622 2328 
Q 3622 1225 3098 567 
Q 2575 -91 1691 -91 
Q 1453 -91 1209 -44 
Q 966 3 703 97 
z
M 1959 2075 
Q 2384 2075 2632 2365 
Q 2881 2656 2881 3163 
Q 2881 3666 2632 3958 
Q 2384 4250 1959 4250 
Q 1534 4250 1286 3958 
Q 1038 3666 1038 3163 
Q 1038 2656 1286 2365 
Q 1534 2075 1959 2075 
z
" transform="scale(0.015625)"/>
     </defs>
     <use xlink:href="#DejaVuSans-1c"/>
    </g>
   </g>
   <g id="text_12">
    <!-- VDD -->
    <g transform="translate(259.267562 68.983437) scale(0.14 -0.14)">
     <defs>
      <path id="DejaVuSans-39" d="M 1831 0 
L 50 4666 
L 709 4666 
L 2188 738 
L 3669 4666 
L 4325 4666 
L 2547 0 
L 1831 0 
z
" transform="scale(0.015625)"/>
     </defs>
     <use xlink:href="#DejaVuSans-39"/>
     <use xlink:href="#DejaVuSans-27" transform="translate(68.40625 0)"/>
     <use xlink:href="#DejaVuSans-27" transform="translate(145.40625 0)"/>
    </g>
   </g>
   <g id="text_13">
    <!-- 15 -->
    <g transform="translate(201.936 222.011641) scale(0.11 -0.11)">
     <defs>
      <path id="DejaVuSans-18" d="M 691 4666 
L 3169 4666 
L 3169 4134 
L 1269 4134 
L 1269 2991 
Q 1406 3038 1543 3061 
Q 1681 3084 1819 3084 
Q 2600 3084 3056 2656 
Q 3513 2228 3513 1497 
Q 3513 744 3044 326 
Q 2575 -91 1722 -91 
Q 1428 -91 1123 -41 
Q 819 9 494 109 
L 494 744 
Q 775 591 1075 516 
Q 1375 441 1709 441 
Q 2250 441 2565 725 
Q 2881 1009 2881 1497 
Q 2881 1984 2565 2268 
Q 2250 2553 1709 2553 
Q 1456 2553 1204 2497 
Q 953 2441 691 2322 
L 691 4666 
z
" transform="scale(0.015625)"/>
     </defs>
     <use xlink:href="#DejaVuSans-14"/>
     <use xlink:href="#DejaVuSans-18" transform="translate(63.625 0)"/>
    </g>
   </g>
   <g id="text_14">
    <!-- A0 -->
    <g transform="translate(189.993812 202.575781) scale(0.14 -0.14)">
     <use xlink:href="#DejaVuSans-24"/>
     <use xlink:href="#DejaVuSans-13" transform="translate(68.40625 0)"/>
    </g>
   </g>
   <g id="text_15">
    <!-- 16 -->
    <g transform="translate(252.336 222.083828) scale(0.11 -0.11)">
     <defs>
      <path id="DejaVuSans-19" d="M 2113 2584 
Q 1688 2584 1439 2293 
Q 1191 2003 1191 1497 
Q 1191 994 1439 701 
Q 1688 409 2113 409 
Q 2538 409 2786 701 
Q 3034 994 3034 1497 
Q 3034 2003 2786 2293 
Q 2538 2584 2113 2584 
z
M 3366 4563 
L 3366 3988 
Q 3128 4100 2886 4159 
Q 2644 4219 2406 4219 
Q 1781 4219 1451 3797 
Q 1122 3375 1075 2522 
Q 1259 2794 1537 2939 
Q 1816 3084 2150 3084 
Q 2853 3084 3261 2657 
Q 3669 2231 3669 1497 
Q 3669 778 3244 343 
Q 2819 -91 2113 -91 
Q 1303 -91 875 529 
Q 447 1150 447 2328 
Q 447 3434 972 4092 
Q 1497 4750 2381 4750 
Q 2619 4750 2861 4703 
Q 3103 4656 3366 4563 
z
" transform="scale(0.015625)"/>
     </defs>
     <use xlink:href="#DejaVuSans-14"/>
     <use xlink:href="#DejaVuSans-19" transform="translate(63.625 0)"/>
    </g>
   </g>
   <g id="text_16">
    <!-- A1 -->
    <g transform="translate(240.393812 202.583437) scale(0.14 -0.14)">
     <use xlink:href="#DejaVuSans-24"/>
     <use xlink:href="#DejaVuSans-14" transform="translate(68.40625 0)"/>
    </g>
   </g>
   <g id="text_17">
    <!-- 17 -->
    <g transform="translate(302.736 222.089844) scale(0.11 -0.11)">
     <use xlink:href="#DejaVuSans-14"/>
     <use xlink:href="#DejaVuSans-1a" transform="translate(63.625 0)"/>
    </g>
   </g>
   <g id="text_18">
    <!-- A2 -->
    <g transform="translate(290.793812 202.675312) scale(0.14 -0.14)">
     <use xlink:href="#DejaVuSans-24"/>
     <use xlink:href="#DejaVuSans-15" transform="translate(68.40625 0)"/>
    </g>
   </g>
   <g id="text_19">
    <!-- 10 -->
    <g transform="translate(353.136 222.083828) scale(0.11 -0.11)">
     <use xlink:href="#DejaVuSans-14"/>
     <use xlink:href="#DejaVuSans-13" transform="translate(63.625 0)"/>
    </g>
   </g>
   <g id="text_20">
    <!-- VSS -->
    <g transform="translate(336.75975 202.575781) scale(0.14 -0.14)">
     <use xlink:href="#DejaVuSans-39"/>
     <use xlink:href="#DejaVuSans-36" transform="translate(68.40625 0)"/>
     <use xlink:href="#DejaVuSans-36" transform="translate(131.890625 0)"/>
    </g>
   </g>
   <g id="text_21">
    <!-- U2 -->
    <g transform="translate(270.911313 120.083828) scale(0.11 -0.11)">
     <defs>
      <path id="DejaVuSans-38" d="M 556 4666 
L 1191 4666 
L 1191 1831 
Q 1191 1081 1462 751 
Q 1734 422 2344 422 
Q 2950 422 3222 751 
Q 3494 1081 3494 1831 
L 3494 4666 
L 4128 4666 
L 4128 1753 
Q 4128 841 3676 375 
Q 3225 -91 2344 -91 
Q 1459 -91 1007 375 
Q 556 841 556 1753 
L 556 4666 
z
" transform="scale(0.015625)"/>
     </defs>
     <use xlink:href="#DejaVuSans-38"/>
     <use xlink:href="#DejaVuSans-15" transform="translate(73.1875 0)"/>
    </g>
    <!-- MCP23017 -->
    <g transform="translate(249.036781 131.083828) scale(0.11 -0.11)">
     <defs>
      <path id="DejaVuSans-30" d="M 628 4666 
L 1569 4666 
L 2759 1491 
L 3956 4666 
L 4897 4666 
L 4897 0 
L 4281 0 
L 4281 4097 
L 3078 897 
L 2444 897 
L 1241 4097 
L 1241 0 
L 628 0 
L 628 4666 
z
" transform="scale(0.015625)"/>
     </defs>
     <use xlink:href="#DejaVuSans-30"/>
     <use xlink:href="#DejaVuSans-26" transform="translate(86.28125 0)"/>
     <use xlink:href="#DejaVuSans-33" transform="translate(156.109375 0)"/>
     <use xlink:href="#DejaVuSans-15" transform="translate(216.40625 0)"/>
     <use xlink:href="#DejaVuSans-16" transform="translate(280.03125 0)"/>
     <use xlink:href="#DejaVuSans-13" transform="translate(343.65625 0)"/>
     <use xlink:href="#DejaVuSans-14" transform="translate(407.28125 0)"/>
     <use xlink:href="#DejaVuSans-1a" transform="translate(470.90625 0)"/>
    </g>
    <!-- addr 0x20 -->
    <g transform="translate(250.319828 142.180937) scale(0.11 -0.11)">
     <defs>
      <path id="DejaVuSans-44" d="M 2194 1759 
Q 1497 1759 1228 1600 
Q 959 1441 959 1056 
Q 959 750 1161 570 
Q 1363 391 1709 391 
Q 2188 391 2477 730 
Q 2766 1069 2766 1631 
L 2766 1759 
L 2194 1759 
z
M 3341 1997 
L 3341 0 
L 2766 0 
L 2766 531 
Q 2569 213 2275 61 
Q 1981 -91 1556 -91 
Q 1019 -91 701 211 
Q 384 513 384 1019 
Q 384 1609 779 1909 
Q 1175 2209 1959 2209 
L 2766 2209 
L 2766 2266 
Q 2766 2663 2505 2880 
Q 2244 3097 1772 3097 
Q 1472 3097 1187 3025 
Q 903 2953 641 2809 
L 641 3341 
Q 956 3463 1253 3523 
Q 1550 3584 1831 3584 
Q 2591 3584 2966 3190 
Q 3341 2797 3341 1997 
z
" transform="scale(0.015625)"/>
      <path id="DejaVuSans-47" d="M 2906 2969 
L 2906 4863 
L 3481 4863 
L 3481 0 
L 2906 0 
L 2906 525 
Q 2725 213 2448 61 
Q 2172 -91 1784 -91 
Q 1150 -91 751 415 
Q 353 922 353 1747 
Q 353 2572 751 3078 
Q 1150 3584 1784 3584 
Q 2172 3584 2448 3432 
Q 2725 3281 2906 2969 
z
M 947 1747 
Q 947 1113 1208 752 
Q 1469 391 1925 391 
Q 2381 391 2643 752 
Q 2906 1113 2906 1747 
Q 2906 2381 2643 2742 
Q 2381 3103 1925 3103 
Q 1469 3103 1208 2742 
Q 947 2381 947 1747 
z
" transform="scale(0.015625)"/>
      <path id="DejaVuSans-55" d="M 2631 2963 
Q 2534 3019 2420 3045 
Q 2306 3072 2169 3072 
Q 1681 3072 1420 2755 
Q 1159 2438 1159 1844 
L 1159 0 
L 581 0 
L 581 3500 
L 1159 3500 
L 1159 2956 
Q 1341 3275 1631 3429 
Q 1922 3584 2338 3584 
Q 2397 3584 2469 3576 
Q 2541 3569 2628 3553 
L 2631 2963 
z
" transform="scale(0.015625)"/>
      <path id="DejaVuSans-3" transform="scale(0.015625)"/>
      <path id="DejaVuSans-5b" d="M 3513 3500 
L 2247 1797 
L 3578 0 
L 2900 0 
L 1881 1375 
L 863 0 
L 184 0 
L 1544 1831 
L 300 3500 
L 978 3500 
L 1906 2253 
L 2834 3500 
L 3513 3500 
z
" transform="scale(0.015625)"/>
     </defs>
     <use xlink:href="#DejaVuSans-44"/>
     <use xlink:href="#DejaVuSans-47" transform="translate(61.28125 0)"/>
     <use xlink:href="#DejaVuSans-47" transform="translate(124.765625 0)"/>
     <use xlink:href="#DejaVuSans-55" transform="translate(188.25 0)"/>
     <use xlink:href="#DejaVuSans-3" transform="translate(229.359375 0)"/>
     <use xlink:href="#DejaVuSans-13" transform="translate(261.140625 0)"/>
     <use xlink:href="#DejaVuSans-5b" transform="translate(324.765625 0)"/>
     <use xlink:href="#DejaVuSans-15" transform="translate(383.953125 0)"/>
     <use xlink:href="#DejaVuSans-13" transform="translate(447.578125 0)"/>
    </g>
   </g>
   <g id="text_22">
    <!-- 10k -->
    <g transform="translate(109.852406 66.280937) scale(0.11 -0.11)">
     <defs>
      <path id="DejaVuSans-4e" d="M 581 4863 
L 1159 4863 
L 1159 1991 
L 2875 3500 
L 3609 3500 
L 1753 1863 
L 3688 0 
L 2938 0 
L 1159 1709 
L 1159 0 
L 581 0 
L 581 4863 
z
" transform="scale(0.015625)"/>
     </defs>
     <use xlink:href="#DejaVuSans-14"/>
     <use xlink:href="#DejaVuSans-13" transform="translate(63.625 0)"/>
     <use xlink:href="#DejaVuSans-4e" transform="translate(127.25 0)"/>
    </g>
   </g>
   <g id="text_23">
    <!-- +3.3V -->
    <g transform="translate(60.600219 66.283828) scale(0.11 -0.11)">
     <defs>
      <path id="DejaVuSans-e" d="M 2944 4013 
L 2944 2272 
L 4684 2272 
L 4684 1741 
L 2944 1741 
L 2944 0 
L 2419 0 
L 2419 1741 
L 678 1741 
L 678 2272 
L 2419 2272 
L 2419 4013 
L 2944 4013 
z
" transform="scale(0.015625)"/>
      <path id="DejaVuSans-11" d="M 684 794 
L 1344 794 
L 1344 0 
L 684 0 
L 684 794 
z
" transform="scale(0.015625)"/>
     </defs>
     <use xlink:href="#DejaVuSans-e"/>
     <use xlink:href="#DejaVuSans-16" transform="translate(83.796875 0)"/>
     <use xlink:href="#DejaVuSans-11" transform="translate(147.421875 0)"/>
     <use xlink:href="#DejaVuSans-16" transform="translate(179.203125 0)"/>
     <use xlink:href="#DejaVuSans-39" transform="translate(242.828125 0)"/>
    </g>
   </g>
   <g id="text_24">
    <!-- +3.3V (Pi) -->
    <g transform="translate(215.474594 17.133828) scale(0.11 -0.11)">
     <defs>
      <path id="DejaVuSans-b" d="M 1984 4856 
Q 1566 4138 1362 3434 
Q 1159 2731 1159 2009 
Q 1159 1288 1364 580 
Q 1569 -128 1984 -844 
L 1484 -844 
Q 1016 -109 783 600 
Q 550 1309 550 2009 
Q 550 2706 781 3412 
Q 1013 4119 1484 4856 
L 1984 4856 
z
" transform="scale(0.015625)"/>
      <path id="DejaVuSans-4c" d="M 603 3500 
L 1178 3500 
L 1178 0 
L 603 0 
L 603 3500 
z
M 603 4863 
L 1178 4863 
L 1178 4134 
L 603 4134 
L 603 4863 
z
" transform="scale(0.015625)"/>
      <path id="DejaVuSans-c" d="M 513 4856 
L 1013 4856 
Q 1481 4119 1714 3412 
Q 1947 2706 1947 2009 
Q 1947 1309 1714 600 
Q 1481 -109 1013 -844 
L 513 -844 
Q 928 -128 1133 580 
Q 1338 1288 1338 2009 
Q 1338 2731 1133 3434 
Q 928 4138 513 4856 
z
" transform="scale(0.015625)"/>
     </defs>
     <use xlink:href="#DejaVuSans-e"/>
     <use xlink:href="#DejaVuSans-16" transform="translate(83.796875 0)"/>
     <use xlink:href="#DejaVuSans-11" transform="translate(147.421875 0)"/>
     <use xlink:href="#DejaVuSans-16" transform="translate(179.203125 0)"/>
     <use xlink:href="#DejaVuSans-39" transform="translate(242.828125 0)"/>
     <use xlink:href="#DejaVuSans-3" transform="translate(311.234375 0)"/>
     <use xlink:href="#DejaVuSans-b" transform="translate(343.015625 0)"/>
     <use xlink:href="#DejaVuSans-33" transform="translate(382.03125 0)"/>
     <use xlink:href="#DejaVuSans-4c" transform="translate(440.125 0)"/>
     <use xlink:href="#DejaVuSans-c" transform="translate(467.90625 0)"/>
    </g>
   </g>
   <g id="text_25">
    <!-- (GPA1..6 -&gt; IN2..7) -->
    <g transform="translate(393.075844 130.214375) scale(0.1 -0.1)">
     <defs>
      <path id="DejaVuSans-10" d="M 313 2009 
L 1997 2009 
L 1997 1497 
L 313 1497 
L 313 2009 
z
" transform="scale(0.015625)"/>
      <path id="DejaVuSans-21" d="M 678 3150 
L 678 3719 
L 4684 2266 
L 4684 1747 
L 678 294 
L 678 863 
L 3897 2003 
L 678 3150 
z
" transform="scale(0.015625)"/>
      <path id="DejaVuSans-2c" d="M 628 4666 
L 1259 4666 
L 1259 0 
L 628 0 
L 628 4666 
z
" transform="scale(0.015625)"/>
      <path id="DejaVuSans-31" d="M 628 4666 
L 1478 4666 
L 3547 763 
L 3547 4666 
L 4159 4666 
L 4159 0 
L 3309 0 
L 1241 3903 
L 1241 0 
L 628 0 
L 628 4666 
z
" transform="scale(0.015625)"/>
     </defs>
     <use xlink:href="#DejaVuSans-b"/>
     <use xlink:href="#DejaVuSans-2a" transform="translate(39.015625 0)"/>
     <use xlink:href="#DejaVuSans-33" transform="translate(116.5 0)"/>
     <use xlink:href="#DejaVuSans-24" transform="translate(170.40625 0)"/>
     <use xlink:href="#DejaVuSans-14" transform="translate(238.8125 0)"/>
     <use xlink:href="#DejaVuSans-11" transform="translate(302.4375 0)"/>
     <use xlink:href="#DejaVuSans-11" transform="translate(334.21875 0)"/>
     <use xlink:href="#DejaVuSans-19" transform="translate(366 0)"/>
     <use xlink:href="#DejaVuSans-3" transform="translate(429.625 0)"/>
     <use xlink:href="#DejaVuSans-10" transform="translate(461.40625 0)"/>
     <use xlink:href="#DejaVuSans-21" transform="translate(497.484375 0)"/>
     <use xlink:href="#DejaVuSans-3" transform="translate(581.28125 0)"/>
     <use xlink:href="#DejaVuSans-2c" transform="translate(613.0625 0)"/>
     <use xlink:href="#DejaVuSans-31" transform="translate(642.5625 0)"/>
     <use xlink:href="#DejaVuSans-15" transform="translate(717.375 0)"/>
     <use xlink:href="#DejaVuSans-11" transform="translate(781 0)"/>
     <use xlink:href="#DejaVuSans-11" transform="translate(812.78125 0)"/>
     <use xlink:href="#DejaVuSans-1a" transform="translate(844.5625 0)"/>
     <use xlink:href="#DejaVuSans-c" transform="translate(908.1875 0)"/>
    </g>
   </g>
   <g id="text_26">
    <!-- active LOW = valve on;  POR: all pins hi-Z -&gt; relays OFF -->
    <g transform="translate(340.089125 302.639375) scale(0.1 -0.1)">
     <defs>
      <path id="DejaVuSans-46" d="M 3122 3366 
L 3122 2828 
Q 2878 2963 2633 3030 
Q 2388 3097 2138 3097 
Q 1578 3097 1268 2742 
Q 959 2388 959 1747 
Q 959 1106 1268 751 
Q 1578 397 2138 397 
Q 2388 397 2633 464 
Q 2878 531 3122 666 
L 3122 134 
Q 2881 22 2623 -34 
Q 2366 -91 2075 -91 
Q 1284 -91 818 406 
Q 353 903 353 1747 
Q 353 2603 823 3093 
Q 1294 3584 2113 3584 
Q 2378 3584 2631 3529 
Q 2884 3475 3122 3366 
z
" transform="scale(0.015625)"/>
      <path id="DejaVuSans-57" d="M 1172 4494 
L 1172 3500 
L 2356 3500 
L 2356 3053 
L 1172 3053 
L 1172 1153 
Q 1172 725 1289 603 
Q 1406 481 1766 481 
L 2356 481 
L 2356 0 
L 1766 0 
Q 1100 0 847 248 
Q 594 497 594 1153 
L 594 3053 
L 172 3053 
L 172 3500 
L 594 3500 
L 594 4494 
L 1172 4494 
z
" transform="scale(0.015625)"/>
      <path id="DejaVuSans-59" d="M 191 3500 
L 800 3500 
L 1894 563 
L 2988 3500 
L 3597 3500 
L 2284 0 
L 1503 0 
L 191 3500 
z
" transform="scale(0.015625)"/>
      <path id="DejaVuSans-48" d="M 3597 1894 
L 3597 1613 
L 953 1613 
Q 991 1019 1311 708 
Q 1631 397 2203 397 
Q 2534 397 2845 478 
Q 3156 559 3463 722 
L 3463 178 
Q 3153 47 2828 -22 
Q 2503 -91 2169 -91 
Q 1331 -91 842 396 
Q 353 884 353 1716 
Q 353 2575 817 3079 
Q 1281 3584 2069 3584 
Q 2775 3584 3186 3129 
Q 3597 2675 3597 1894 
z
M 3022 2063 
Q 3016 2534 2758 2815 
Q 2500 3097 2075 3097 
Q 1594 3097 1305 2825 
Q 1016 2553 972 2059 
L 3022 2063 
z
" transform="scale(0.015625)"/>
      <path id="DejaVuSans-32" d="M 2522 4238 
Q 1834 4238 1429 3725 
Q 1025 3213 1025 2328 
Q 1025 1447 1429 934 
Q 1834 422 2522 422 
Q 3209 422 3611 934 
Q 4013 1447 4013 2328 
Q 4013 3213 3611 3725 
Q 3209 4238 2522 4238 
z
M 2522 4750 
Q 3503 4750 4090 4092 
Q 4678 3434 4678 2328 
Q 4678 1225 4090 567 
Q 3503 -91 2522 -91 
Q 1538 -91 948 565 
Q 359 1222 359 2328 
Q 359 3434 948 4092 
Q 1538 4750 2522 4750 
z
" transform="scale(0.015625)"/>
      <path id="DejaVuSans-3a" d="M 213 4666 
L 850 4666 
L 1831 722 
L 2809 4666 
L 3519 4666 
L 4500 722 
L 5478 4666 
L 6119 4666 
L 4947 0 
L 4153 0 
L 3169 4050 
L 2175 0 
L 1381 0 
L 213 4666 
z
" transform="scale(0.015625)"/>
      <path id="DejaVuSans-20" d="M 678 2906 
L 4684 2906 
L 4684 2381 
L 678 2381 
L 678 2906 
z
M 678 1631 
L 4684 1631 
L 4684 1100 
L 678 1100 
L 678 1631 
z
" transform="scale(0.015625)"/>
      <path id="DejaVuSans-4f" d="M 603 4863 
L 1178 4863 
L 1178 0 
L 603 0 
L 603 4863 
z
" transform="scale(0.015625)"/>
      <path id="DejaVuSans-52" d="M 1959 3097 
Q 1497 3097 1228 2736 
Q 959 2375 959 1747 
Q 959 1119 1226 758 
Q 1494 397 1959 397 
Q 2419 397 2687 759 
Q 2956 1122 2956 1747 
Q 2956 2369 2687 2733 
Q 2419 3097 1959 3097 
z
M 1959 3584 
Q 2709 3584 3137 3096 
Q 3566 2609 3566 1747 
Q 3566 888 3137 398 
Q 2709 -91 1959 -91 
Q 1206 -91 779 398 
Q 353 888 353 1747 
Q 353 2609 779 3096 
Q 1206 3584 1959 3584 
z
" transform="scale(0.015625)"/>
      <path id="DejaVuSans-1e" d="M 750 3309 
L 1409 3309 
L 1409 2516 
L 750 2516 
L 750 3309 
z
M 750 794 
L 1409 794 
L 1409 256 
L 897 -744 
L 494 -744 
L 750 256 
L 750 794 
z
" transform="scale(0.015625)"/>
      <path id="DejaVuSans-1d" d="M 750 794 
L 1409 794 
L 1409 0 
L 750 0 
L 750 794 
z
M 750 3309 
L 1409 3309 
L 1409 2516 
L 750 2516 
L 750 3309 
z
" transform="scale(0.015625)"/>
      <path id="DejaVuSans-53" d="M 1159 525 
L 1159 -1331 
L 581 -1331 
L 581 3500 
L 1159 3500 
L 1159 2969 
Q 1341 3281 1617 3432 
Q 1894 3584 2278 3584 
Q 2916 3584 3314 3078 
Q 3713 2572 3713 1747 
Q 3713 922 3314 415 
Q 2916 -91 2278 -91 
Q 1894 -91 1617 61 
Q 1341 213 1159 525 
z
M 3116 1747 
Q 3116 2381 2855 2742 
Q 2594 3103 2138 3103 
Q 1681 3103 1420 2742 
Q 1159 2381 1159 1747 
Q 1159 1113 1420 752 
Q 1681 391 2138 391 
Q 2594 391 2855 752 
Q 3116 1113 3116 1747 
z
" transform="scale(0.015625)"/>
      <path id="DejaVuSans-56" d="M 2834 3397 
L 2834 2853 
Q 2591 2978 2328 3040 
Q 2066 3103 1784 3103 
Q 1356 3103 1142 2972 
Q 928 2841 928 2578 
Q 928 2378 1081 2264 
Q 1234 2150 1697 2047 
L 1894 2003 
Q 2506 1872 2764 1633 
Q 3022 1394 3022 966 
Q 3022 478 2636 193 
Q 2250 -91 1575 -91 
Q 1294 -91 989 -36 
Q 684 19 347 128 
L 347 722 
Q 666 556 975 473 
Q 1284 391 1588 391 
Q 1994 391 2212 530 
Q 2431 669 2431 922 
Q 2431 1156 2273 1281 
Q 2116 1406 1581 1522 
L 1381 1569 
Q 847 1681 609 1914 
Q 372 2147 372 2553 
Q 372 3047 722 3315 
Q 1072 3584 1716 3584 
Q 2034 3584 2315 3537 
Q 2597 3491 2834 3397 
z
" transform="scale(0.015625)"/>
      <path id="DejaVuSans-4b" d="M 3513 2113 
L 3513 0 
L 2938 0 
L 2938 2094 
Q 2938 2591 2744 2837 
Q 2550 3084 2163 3084 
Q 1697 3084 1428 2787 
Q 1159 2491 1159 1978 
L 1159 0 
L 581 0 
L 581 4863 
L 1159 4863 
L 1159 2956 
Q 1366 3272 1645 3428 
Q 1925 3584 2291 3584 
Q 2894 3584 3203 3211 
Q 3513 2838 3513 2113 
z
" transform="scale(0.015625)"/>
      <path id="DejaVuSans-3d" d="M 359 4666 
L 4025 4666 
L 4025 4184 
L 1075 531 
L 4097 531 
L 4097 0 
L 288 0 
L 288 481 
L 3238 4134 
L 359 4134 
L 359 4666 
z
" transform="scale(0.015625)"/>
      <path id="DejaVuSans-5c" d="M 2059 -325 
Q 1816 -950 1584 -1140 
Q 1353 -1331 966 -1331 
L 506 -1331 
L 506 -850 
L 844 -850 
Q 1081 -850 1212 -737 
Q 1344 -625 1503 -206 
L 1606 56 
L 191 3500 
L 800 3500 
L 1894 763 
L 2988 3500 
L 3597 3500 
L 2059 -325 
z
" transform="scale(0.015625)"/>
      <path id="DejaVuSans-29" d="M 628 4666 
L 3309 4666 
L 3309 4134 
L 1259 4134 
L 1259 2759 
L 3109 2759 
L 3109 2228 
L 1259 2228 
L 1259 0 
L 628 0 
L 628 4666 
z
" transform="scale(0.015625)"/>
     </defs>
     <use xlink:href="#DejaVuSans-44"/>
     <use xlink:href="#DejaVuSans-46" transform="translate(61.28125 0)"/>
     <use xlink:href="#DejaVuSans-57" transform="translate(116.265625 0)"/>
     <use xlink:href="#DejaVuSans-4c" transform="translate(155.46875 0)"/>
     <use xlink:href="#DejaVuSans-59" transform="translate(183.25 0)"/>
     <use xlink:href="#DejaVuSans-48" transform="translate(242.4375 0)"/>
     <use xlink:href="#DejaVuSans-3" transform="translate(303.96875 0)"/>
     <use xlink:href="#DejaVuSans-2f" transform="translate(335.75 0)"/>
     <use xlink:href="#DejaVuSans-32" transform="translate(387.90625 0)"/>
     <use xlink:href="#DejaVuSans-3a" transform="translate(466.625 0)"/>
     <use xlink:href="#DejaVuSans-3" transform="translate(565.5 0)"/>
     <use xlink:href="#DejaVuSans-20" transform="translate(597.28125 0)"/>
     <use xlink:href="#DejaVuSans-3" transform="translate(681.078125 0)"/>
     <use xlink:href="#DejaVuSans-59" transform="translate(712.859375 0)"/>
     <use xlink:href="#DejaVuSans-44" transform="translate(772.046875 0)"/>
     <use xlink:href="#DejaVuSans-4f" transform="translate(833.328125 0)"/>
     <use xlink:href="#DejaVuSans-59" transform="translate(861.109375 0)"/>
     <use xlink:href="#DejaVuSans-48" transform="translate(920.296875 0)"/>
     <use xlink:href="#DejaVuSans-3" transform="translate(981.828125 0)"/>
     <use xlink:href="#DejaVuSans-52" transform="translate(1013.609375 0)"/>
     <use xlink:href="#DejaVuSans-51" transform="translate(1074.796875 0)"/>
     <use xlink:href="#DejaVuSans-1e" transform="translate(1138.171875 0)"/>
     <use xlink:href="#DejaVuSans-3" transform="translate(1171.859375 0)"/>
     <use xlink:href="#DejaVuSans-3" transform="translate(1203.640625 0)"/>
     <use xlink:href="#DejaVuSans-33" transform="translate(1235.421875 0)"/>
     <use xlink:href="#DejaVuSans-32" transform="translate(1295.71875 0)"/>
     <use xlink:href="#DejaVuSans-35" transform="translate(1374.4375 0)"/>
     <use xlink:href="#DejaVuSans-1d" transform="translate(1440.84375 0)"/>
     <use xlink:href="#DejaVuSans-3" transform="translate(1474.53125 0)"/>
     <use xlink:href="#DejaVuSans-44" transform="translate(1506.3125 0)"/>
     <use xlink:href="#DejaVuSans-4f" transform="translate(1567.59375 0)"/>
     <use xlink:href="#DejaVuSans-4f" transform="translate(1595.375 0)"/>
     <use xlink:href="#DejaVuSans-3" transform="translate(1623.15625 0)"/>
     <use xlink:href="#DejaVuSans-53" transform="translate(1654.9375 0)"/>
     <use xlink:href="#DejaVuSans-4c" transform="translate(1718.421875 0)"/>
     <use xlink:href="#DejaVuSans-51" transform="translate(1746.203125 0)"/>
     <use xlink:href="#DejaVuSans-56" transform="translate(1809.578125 0)"/>
     <use xlink:href="#DejaVuSans-3" transform="translate(1861.671875 0)"/>
     <use xlink:href="#DejaVuSans-4b" transform="translate(1893.453125 0)"/>
     <use xlink:href="#DejaVuSans-4c" transform="translate(1956.828125 0)"/>
     <use xlink:href="#DejaVuSans-10" transform="translate(1984.609375 0)"/>
     <use xlink:href="#DejaVuSans-3d" transform="translate(2020.6875 0)"/>
     <use xlink:href="#DejaVuSans-3" transform="translate(2089.1875 0)"/>
     <use xlink:href="#DejaVuSans-10" transform="translate(2120.96875 0)"/>
     <use xlink:href="#DejaVuSans-21" transform="translate(2157.046875 0)"/>
     <use xlink:href="#DejaVuSans-3" transform="translate(2240.84375 0)"/>
     <use xlink:href="#DejaVuSans-55" transform="translate(2272.625 0)"/>
     <use xlink:href="#DejaVuSans-48" transform="translate(2311.53125 0)"/>
     <use xlink:href="#DejaVuSans-4f" transform="translate(2373.0625 0)"/>
     <use xlink:href="#DejaVuSans-44" transform="translate(2400.84375 0)"/>
     <use xlink:href="#DejaVuSans-5c" transform="translate(2462.125 0)"/>
     <use xlink:href="#DejaVuSans-56" transform="translate(2521.3125 0)"/>
     <use xlink:href="#DejaVuSans-3" transform="translate(2573.40625 0)"/>
     <use xlink:href="#DejaVuSans-32" transform="translate(2605.1875 0)"/>
     <use xlink:href="#DejaVuSans-29" transform="translate(2683.90625 0)"/>
     <use xlink:href="#DejaVuSans-29" transform="translate(2741.421875 0)"/>
    </g>
   </g>
   <g id="text_27">
    <!-- TURFY SIDECAR v0.1  - -  SHEET 4: ZONE DRIVE  - -  init IODIRA=0x00, OLATA=0xFF; one bit low at a time (software interlock)   (Rain Bird ESP-6Si retrofit) -->
    <g transform="translate(8.28 337.133828) scale(0.11 -0.11)">
     <defs>
      <path id="DejaVuSans-3c" d="M -13 4666 
L 666 4666 
L 1959 2747 
L 3244 4666 
L 3922 4666 
L 2272 2222 
L 2272 0 
L 1638 0 
L 1638 2222 
L -13 4666 
z
" transform="scale(0.015625)"/>
      <path id="DejaVuSans-2b" d="M 628 4666 
L 1259 4666 
L 1259 2753 
L 3553 2753 
L 3553 4666 
L 4184 4666 
L 4184 0 
L 3553 0 
L 3553 2222 
L 1259 2222 
L 1259 0 
L 628 0 
L 628 4666 
z
" transform="scale(0.015625)"/>
      <path id="DejaVuSans-17" d="M 2419 4116 
L 825 1625 
L 2419 1625 
L 2419 4116 
z
M 2253 4666 
L 3047 4666 
L 3047 1625 
L 3713 1625 
L 3713 1100 
L 3047 1100 
L 3047 0 
L 2419 0 
L 2419 1100 
L 313 1100 
L 313 1709 
L 2253 4666 
z
" transform="scale(0.015625)"/>
      <path id="DejaVuSans-f" d="M 750 794 
L 1409 794 
L 1409 256 
L 897 -744 
L 494 -744 
L 750 256 
L 750 794 
z
" transform="scale(0.015625)"/>
      <path id="DejaVuSans-45" d="M 3116 1747 
Q 3116 2381 2855 2742 
Q 2594 3103 2138 3103 
Q 1681 3103 1420 2742 
Q 1159 2381 1159 1747 
Q 1159 1113 1420 752 
Q 1681 391 2138 391 
Q 2594 391 2855 752 
Q 3116 1113 3116 1747 
z
M 1159 2969 
Q 1341 3281 1617 3432 
Q 1894 3584 2278 3584 
Q 2916 3584 3314 3078 
Q 3713 2572 3713 1747 
Q 3713 922 3314 415 
Q 2916 -91 2278 -91 
Q 1894 -91 1617 61 
Q 1341 213 1159 525 
L 1159 0 
L 581 0 
L 581 4863 
L 1159 4863 
L 1159 2969 
z
" transform="scale(0.015625)"/>
      <path id="DejaVuSans-5a" d="M 269 3500 
L 844 3500 
L 1563 769 
L 2278 3500 
L 2956 3500 
L 3675 769 
L 4391 3500 
L 4966 3500 
L 4050 0 
L 3372 0 
L 2619 2869 
L 1863 0 
L 1184 0 
L 269 3500 
z
" transform="scale(0.015625)"/>
      <path id="DejaVuSans-50" d="M 3328 2828 
Q 3544 3216 3844 3400 
Q 4144 3584 4550 3584 
Q 5097 3584 5394 3201 
Q 5691 2819 5691 2113 
L 5691 0 
L 5113 0 
L 5113 2094 
Q 5113 2597 4934 2840 
Q 4756 3084 4391 3084 
Q 3944 3084 3684 2787 
Q 3425 2491 3425 1978 
L 3425 0 
L 2847 0 
L 2847 2094 
Q 2847 2600 2669 2842 
Q 2491 3084 2119 3084 
Q 1678 3084 1418 2786 
Q 1159 2488 1159 1978 
L 1159 0 
L 581 0 
L 581 3500 
L 1159 3500 
L 1159 2956 
Q 1356 3278 1631 3431 
Q 1906 3584 2284 3584 
Q 2666 3584 2933 3390 
Q 3200 3197 3328 2828 
z
" transform="scale(0.015625)"/>
      <path id="DejaVuSans-49" d="M 2375 4863 
L 2375 4384 
L 1825 4384 
Q 1516 4384 1395 4259 
Q 1275 4134 1275 3809 
L 1275 3500 
L 2222 3500 
L 2222 3053 
L 1275 3053 
L 1275 0 
L 697 0 
L 697 3053 
L 147 3053 
L 147 3500 
L 697 3500 
L 697 3744 
Q 697 4328 969 4595 
Q 1241 4863 1831 4863 
L 2375 4863 
z
" transform="scale(0.015625)"/>
      <path id="DejaVuSans-25" d="M 1259 2228 
L 1259 519 
L 2272 519 
Q 2781 519 3026 730 
Q 3272 941 3272 1375 
Q 3272 1813 3026 2020 
Q 2781 2228 2272 2228 
L 1259 2228 
z
M 1259 4147 
L 1259 2741 
L 2194 2741 
Q 2656 2741 2882 2914 
Q 3109 3088 3109 3444 
Q 3109 3797 2882 3972 
Q 2656 4147 2194 4147 
L 1259 4147 
z
M 628 4666 
L 2241 4666 
Q 2963 4666 3353 4366 
Q 3744 4066 3744 3513 
Q 3744 3084 3544 2831 
Q 3344 2578 2956 2516 
Q 3422 2416 3680 2098 
Q 3938 1781 3938 1306 
Q 3938 681 3513 340 
Q 3088 0 2303 0 
L 628 0 
L 628 4666 
z
" transform="scale(0.015625)"/>
      <path id="DejaVuSans-13af" d="M 3431 3500 
L 3431 0 
L 2853 0 
L 2853 3053 
L 1275 3053 
L 1275 0 
L 697 0 
L 697 3053 
L 147 3053 
L 147 3500 
L 697 3500 
L 697 3744 
Q 697 4316 967 4589 
Q 1238 4863 1797 4863 
L 2375 4863 
L 2375 4384 
L 1825 4384 
Q 1516 4384 1395 4259 
Q 1275 4134 1275 3809 
L 1275 3500 
L 3431 3500 
z
M 2853 4856 
L 3431 4856 
L 3431 4128 
L 2853 4128 
L 2853 4856 
z
" transform="scale(0.015625)"/>
     </defs>
     <use xlink:href="#DejaVuSans-37"/>
     <use xlink:href="#DejaVuSans-38" transform="translate(61.078125 0)"/>
     <use xlink:href="#DejaVuSans-35" transform="translate(134.265625 0)"/>
     <use xlink:href="#DejaVuSans-29" transform="translate(203.75 0)"/>
     <use xlink:href="#DejaVuSans-3c" transform="translate(261.265625 0)"/>
     <use xlink:href="#DejaVuSans-3" transform="translate(322.34375 0)"/>
     <use xlink:href="#DejaVuSans-36" transform="translate(354.125 0)"/>
     <use xlink:href="#DejaVuSans-2c" transform="translate(417.609375 0)"/>
     <use xlink:href="#DejaVuSans-27" transform="translate(447.109375 0)"/>
     <use xlink:href="#DejaVuSans-28" transform="translate(524.109375 0)"/>
     <use xlink:href="#DejaVuSans-26" transform="translate(587.296875 0)"/>
     <use xlink:href="#DejaVuSans-24" transform="translate(657.125 0)"/>
     <use xlink:href="#DejaVuSans-35" transform="translate(725.53125 0)"/>
     <use xlink:href="#DejaVuSans-3" transform="translate(795.015625 0)"/>
     <use xlink:href="#DejaVuSans-59" transform="translate(826.796875 0)"/>
     <use xlink:href="#DejaVuSans-13" transform="translate(885.984375 0)"/>
     <use xlink:href="#DejaVuSans-11" transform="translate(949.609375 0)"/>
     <use xlink:href="#DejaVuSans-14" transform="translate(981.390625 0)"/>
     <use xlink:href="#DejaVuSans-3" transform="translate(1045.015625 0)"/>
     <use xlink:href="#DejaVuSans-3" transform="translate(1076.796875 0)"/>
     <use xlink:href="#DejaVuSans-10" transform="translate(1108.578125 0)"/>
     <use xlink:href="#DejaVuSans-10" transform="translate(1144.65625 0)"/>
     <use xlink:href="#DejaVuSans-3" transform="translate(1180.734375 0)"/>
     <use xlink:href="#DejaVuSans-3" transform="translate(1212.515625 0)"/>
     <use xlink:href="#DejaVuSans-36" transform="translate(1244.296875 0)"/>
     <use xlink:href="#DejaVuSans-2b" transform="translate(1307.78125 0)"/>
     <use xlink:href="#DejaVuSans-28" transform="translate(1382.984375 0)"/>
     <use xlink:href="#DejaVuSans-28" transform="translate(1446.171875 0)"/>
     <use xlink:href="#DejaVuSans-37" transform="translate(1509.359375 0)"/>
     <use xlink:href="#DejaVuSans-3" transform="translate(1570.4375 0)"/>
     <use xlink:href="#DejaVuSans-17" transform="translate(1602.21875 0)"/>
     <use xlink:href="#DejaVuSans-1d" transform="translate(1665.84375 0)"/>
     <use xlink:href="#DejaVuSans-3" transform="translate(1699.53125 0)"/>
     <use xlink:href="#DejaVuSans-3d" transform="translate(1731.3125 0)"/>
     <use xlink:href="#DejaVuSans-32" transform="translate(1799.8125 0)"/>
     <use xlink:href="#DejaVuSans-31" transform="translate(1878.53125 0)"/>
     <use xlink:href="#DejaVuSans-28" transform="translate(1953.34375 0)"/>
     <use xlink:href="#DejaVuSans-3" transform="translate(2016.53125 0)"/>
     <use xlink:href="#DejaVuSans-27" transform="translate(2048.3125 0)"/>
     <use xlink:href="#DejaVuSans-35" transform="translate(2125.3125 0)"/>
     <use xlink:href="#DejaVuSans-2c" transform="translate(2194.796875 0)"/>
     <use xlink:href="#DejaVuSans-39" transform="translate(2224.296875 0)"/>
     <use xlink:href="#DejaVuSans-28" transform="translate(2292.703125 0)"/>
     <use xlink:href="#DejaVuSans-3" transform="translate(2355.890625 0)"/>
     <use xlink:href="#DejaVuSans-3" transform="translate(2387.671875 0)"/>
     <use xlink:href="#DejaVuSans-10" transform="translate(2419.453125 0)"/>
     <use xlink:href="#DejaVuSans-10" transform="translate(2455.53125 0)"/>
     <use xlink:href="#DejaVuSans-3" transform="translate(2491.609375 0)"/>
     <use xlink:href="#DejaVuSans-3" transform="translate(2523.390625 0)"/>
     <use xlink:href="#DejaVuSans-4c" transform="translate(2555.171875 0)"/>
     <use xlink:href="#DejaVuSans-51" transform="translate(2582.953125 0)"/>
     <use xlink:href="#DejaVuSans-4c" transform="translate(2646.328125 0)"/>
     <use xlink:href="#DejaVuSans-57" transform="translate(2674.109375 0)"/>
     <use xlink:href="#DejaVuSans-3" transform="translate(2713.3125 0)"/>
     <use xlink:href="#DejaVuSans-2c" transform="translate(2745.09375 0)"/>
     <use xlink:href="#DejaVuSans-32" transform="translate(2774.59375 0)"/>
     <use xlink:href="#DejaVuSans-27" transform="translate(2853.3125 0)"/>
     <use xlink:href="#DejaVuSans-2c" transform="translate(2930.3125 0)"/>
     <use xlink:href="#DejaVuSans-35" transform="translate(2959.8125 0)"/>
     <use xlink:href="#DejaVuSans-24" transform="translate(3025.25 0)"/>
     <use xlink:href="#DejaVuSans-20" transform="translate(3093.65625 0)"/>
     <use xlink:href="#DejaVuSans-13" transform="translate(3177.453125 0)"/>
     <use xlink:href="#DejaVuSans-5b" transform="translate(3241.078125 0)"/>
     <use xlink:href="#DejaVuSans-13" transform="translate(3300.265625 0)"/>
     <use xlink:href="#DejaVuSans-13" transform="translate(3363.890625 0)"/>
     <use xlink:href="#DejaVuSans-f" transform="translate(3427.515625 0)"/>
     <use xlink:href="#DejaVuSans-3" transform="translate(3459.296875 0)"/>
     <use xlink:href="#DejaVuSans-32" transform="translate(3491.078125 0)"/>
     <use xlink:href="#DejaVuSans-2f" transform="translate(3569.796875 0)"/>
     <use xlink:href="#DejaVuSans-24" transform="translate(3627.8125 0)"/>
     <use xlink:href="#DejaVuSans-37" transform="translate(3688.453125 0)"/>
     <use xlink:href="#DejaVuSans-24" transform="translate(3741.765625 0)"/>
     <use xlink:href="#DejaVuSans-20" transform="translate(3810.171875 0)"/>
     <use xlink:href="#DejaVuSans-13" transform="translate(3893.96875 0)"/>
     <use xlink:href="#DejaVuSans-5b" transform="translate(3957.59375 0)"/>
     <use xlink:href="#DejaVuSans-29" transform="translate(4016.78125 0)"/>
     <use xlink:href="#DejaVuSans-29" transform="translate(4074.296875 0)"/>
     <use xlink:href="#DejaVuSans-1e" transform="translate(4131.8125 0)"/>
     <use xlink:href="#DejaVuSans-3" transform="translate(4165.5 0)"/>
     <use xlink:href="#DejaVuSans-52" transform="translate(4197.28125 0)"/>
     <use xlink:href="#DejaVuSans-51" transform="translate(4258.46875 0)"/>
     <use xlink:href="#DejaVuSans-48" transform="translate(4321.84375 0)"/>
     <use xlink:href="#DejaVuSans-3" transform="translate(4383.375 0)"/>
     <use xlink:href="#DejaVuSans-45" transform="translate(4415.15625 0)"/>
     <use xlink:href="#DejaVuSans-4c" transform="translate(4478.640625 0)"/>
     <use xlink:href="#DejaVuSans-57" transform="translate(4506.421875 0)"/>
     <use xlink:href="#DejaVuSans-3" transform="translate(4545.625 0)"/>
     <use xlink:href="#DejaVuSans-4f" transform="translate(4577.40625 0)"/>
     <use xlink:href="#DejaVuSans-52" transform="translate(4605.1875 0)"/>
     <use xlink:href="#DejaVuSans-5a" transform="translate(4666.375 0)"/>
     <use xlink:href="#DejaVuSans-3" transform="translate(4748.15625 0)"/>
     <use xlink:href="#DejaVuSans-44" transform="translate(4779.9375 0)"/>
     <use xlink:href="#DejaVuSans-57" transform="translate(4841.21875 0)"/>
     <use xlink:href="#DejaVuSans-3" transform="translate(4880.421875 0)"/>
     <use xlink:href="#DejaVuSans-44" transform="translate(4912.203125 0)"/>
     <use xlink:href="#DejaVuSans-3" transform="translate(4973.484375 0)"/>
     <use xlink:href="#DejaVuSans-57" transform="translate(5005.265625 0)"/>
     <use xlink:href="#DejaVuSans-4c" transform="translate(5044.46875 0)"/>
     <use xlink:href="#DejaVuSans-50" transform="translate(5072.25 0)"/>
     <use xlink:href="#DejaVuSans-48" transform="translate(5169.65625 0)"/>
     <use xlink:href="#DejaVuSans-3" transform="translate(5231.1875 0)"/>
     <use xlink:href="#DejaVuSans-b" transform="translate(5262.96875 0)"/>
     <use xlink:href="#DejaVuSans-56" transform="translate(5301.984375 0)"/>
     <use xlink:href="#DejaVuSans-52" transform="translate(5354.078125 0)"/>
     <use xlink:href="#DejaVuSans-49" transform="translate(5415.265625 0)"/>
     <use xlink:href="#DejaVuSans-57" transform="translate(5448.71875 0)"/>
     <use xlink:href="#DejaVuSans-5a" transform="translate(5487.921875 0)"/>
     <use xlink:href="#DejaVuSans-44" transform="translate(5569.703125 0)"/>
     <use xlink:href="#DejaVuSans-55" transform="translate(5630.984375 0)"/>
     <use xlink:href="#DejaVuSans-48" transform="translate(5669.890625 0)"/>
     <use xlink:href="#DejaVuSans-3" transform="translate(5731.421875 0)"/>
     <use xlink:href="#DejaVuSans-4c" transform="translate(5763.203125 0)"/>
     <use xlink:href="#DejaVuSans-51" transform="translate(5790.984375 0)"/>
     <use xlink:href="#DejaVuSans-57" transform="translate(5854.359375 0)"/>
     <use xlink:href="#DejaVuSans-48" transform="translate(5893.5625 0)"/>
     <use xlink:href="#DejaVuSans-55" transform="translate(5955.09375 0)"/>
     <use xlink:href="#DejaVuSans-4f" transform="translate(5996.203125 0)"/>
     <use xlink:href="#DejaVuSans-52" transform="translate(6023.984375 0)"/>
     <use xlink:href="#DejaVuSans-46" transform="translate(6085.171875 0)"/>
     <use xlink:href="#DejaVuSans-4e" transform="translate(6140.15625 0)"/>
     <use xlink:href="#DejaVuSans-c" transform="translate(6198.0625 0)"/>
     <use xlink:href="#DejaVuSans-3" transform="translate(6237.078125 0)"/>
     <use xlink:href="#DejaVuSans-3" transform="translate(6268.859375 0)"/>
     <use xlink:href="#DejaVuSans-3" transform="translate(6300.640625 0)"/>
     <use xlink:href="#DejaVuSans-b" transform="translate(6332.421875 0)"/>
     <use xlink:href="#DejaVuSans-35" transform="translate(6371.4375 0)"/>
     <use xlink:href="#DejaVuSans-44" transform="translate(6438.71875 0)"/>
     <use xlink:href="#DejaVuSans-4c" transform="translate(6500 0)"/>
     <use xlink:href="#DejaVuSans-51" transform="translate(6527.78125 0)"/>
     <use xlink:href="#DejaVuSans-3" transform="translate(6591.15625 0)"/>
     <use xlink:href="#DejaVuSans-25" transform="translate(6622.9375 0)"/>
     <use xlink:href="#DejaVuSans-4c" transform="translate(6691.546875 0)"/>
     <use xlink:href="#DejaVuSans-55" transform="translate(6719.328125 0)"/>
     <use xlink:href="#DejaVuSans-47" transform="translate(6758.6875 0)"/>
     <use xlink:href="#DejaVuSans-3" transform="translate(6822.171875 0)"/>
     <use xlink:href="#DejaVuSans-28" transform="translate(6853.953125 0)"/>
     <use xlink:href="#DejaVuSans-36" transform="translate(6917.140625 0)"/>
     <use xlink:href="#DejaVuSans-33" transform="translate(6980.625 0)"/>
     <use xlink:href="#DejaVuSans-10" transform="translate(7038.71875 0)"/>
     <use xlink:href="#DejaVuSans-19" transform="translate(7074.796875 0)"/>
     <use xlink:href="#DejaVuSans-36" transform="translate(7138.421875 0)"/>
     <use xlink:href="#DejaVuSans-4c" transform="translate(7201.90625 0)"/>
     <use xlink:href="#DejaVuSans-3" transform="translate(7229.6875 0)"/>
     <use xlink:href="#DejaVuSans-55" transform="translate(7261.46875 0)"/>
     <use xlink:href="#DejaVuSans-48" transform="translate(7300.375 0)"/>
     <use xlink:href="#DejaVuSans-57" transform="translate(7361.90625 0)"/>
     <use xlink:href="#DejaVuSans-55" transform="translate(7401.109375 0)"/>
     <use xlink:href="#DejaVuSans-52" transform="translate(7440.015625 0)"/>
     <use xlink:href="#DejaVuSans-13af" transform="translate(7501.203125 0)"/>
     <use xlink:href="#DejaVuSans-57" transform="translate(7564.1875 0)"/>
     <use xlink:href="#DejaVuSans-c" transform="translate(7603.390625 0)"/>
    </g>
   </g>
   <g id="patch_2">
    <path d="M 91.236 183.78 
C 91.952048 183.78 92.638866 183.495511 93.145188 182.989188 
C 93.651511 182.482866 93.936 181.796048 93.936 181.08 
C 93.936 180.363952 93.651511 179.677134 93.145188 179.170812 
C 92.638866 178.664489 91.952048 178.38 91.236 178.38 
C 90.519952 178.38 89.833134 178.664489 89.326812 179.170812 
C 88.820489 179.677134 88.536 180.363952 88.536 181.08 
C 88.536 181.796048 88.820489 182.482866 89.326812 182.989188 
C 89.833134 183.495511 90.519952 183.78 91.236 183.78 
z
" clip-path="url(#p637fe75f4c)" style="fill: #ffffff; stroke: #000000; stroke-width: 1.4; stroke-linejoin: miter"/>
   </g>
   <g id="text_28">
    <!-- Pi SDA (GPIO2) -->
    <g transform="translate(3.070219 184.533828) scale(0.11 -0.11)">
     <use xlink:href="#DejaVuSans-33"/>
     <use xlink:href="#DejaVuSans-4c" transform="translate(58.09375 0)"/>
     <use xlink:href="#DejaVuSans-3" transform="translate(85.875 0)"/>
     <use xlink:href="#DejaVuSans-36" transform="translate(117.65625 0)"/>
     <use xlink:href="#DejaVuSans-27" transform="translate(181.140625 0)"/>
     <use xlink:href="#DejaVuSans-24" transform="translate(256.390625 0)"/>
     <use xlink:href="#DejaVuSans-3" transform="translate(324.796875 0)"/>
     <use xlink:href="#DejaVuSans-b" transform="translate(356.578125 0)"/>
     <use xlink:href="#DejaVuSans-2a" transform="translate(395.59375 0)"/>
     <use xlink:href="#DejaVuSans-33" transform="translate(473.078125 0)"/>
     <use xlink:href="#DejaVuSans-2c" transform="translate(533.375 0)"/>
     <use xlink:href="#DejaVuSans-32" transform="translate(562.875 0)"/>
     <use xlink:href="#DejaVuSans-15" transform="translate(641.59375 0)"/>
     <use xlink:href="#DejaVuSans-c" transform="translate(705.21875 0)"/>
    </g>
   </g>
   <g id="patch_3">
    <path d="M 91.236 133.38 
C 91.952048 133.38 92.638866 133.095511 93.145188 132.589188 
C 93.651511 132.082866 93.936 131.396048 93.936 130.68 
C 93.936 129.963952 93.651511 129.277134 93.145188 128.770812 
C 92.638866 128.264489 91.952048 127.98 91.236 127.98 
C 90.519952 127.98 89.833134 128.264489 89.326812 128.770812 
C 88.820489 129.277134 88.536 129.963952 88.536 130.68 
C 88.536 131.396048 88.820489 132.082866 89.326812 132.589188 
C 89.833134 133.095511 90.519952 133.38 91.236 133.38 
z
" clip-path="url(#p637fe75f4c)" style="fill: #ffffff; stroke: #000000; stroke-width: 1.4; stroke-linejoin: miter"/>
   </g>
   <g id="text_29">
    <!-- Pi SCL (GPIO3) -->
    <g transform="translate(5.06225 134.133828) scale(0.11 -0.11)">
     <use xlink:href="#DejaVuSans-33"/>
     <use xlink:href="#DejaVuSans-4c" transform="translate(58.09375 0)"/>
     <use xlink:href="#DejaVuSans-3" transform="translate(85.875 0)"/>
     <use xlink:href="#DejaVuSans-36" transform="translate(117.65625 0)"/>
     <use xlink:href="#DejaVuSans-26" transform="translate(181.140625 0)"/>
     <use xlink:href="#DejaVuSans-2f" transform="translate(250.96875 0)"/>
     <use xlink:href="#DejaVuSans-3" transform="translate(306.6875 0)"/>
     <use xlink:href="#DejaVuSans-b" transform="translate(338.46875 0)"/>
     <use xlink:href="#DejaVuSans-2a" transform="translate(377.484375 0)"/>
     <use xlink:href="#DejaVuSans-33" transform="translate(454.96875 0)"/>
     <use xlink:href="#DejaVuSans-2c" transform="translate(515.265625 0)"/>
     <use xlink:href="#DejaVuSans-32" transform="translate(544.765625 0)"/>
     <use xlink:href="#DejaVuSans-16" transform="translate(623.484375 0)"/>
     <use xlink:href="#DejaVuSans-c" transform="translate(687.109375 0)"/>
    </g>
   </g>
   <g id="patch_4">
    <path d="M 465.636 158.58 
C 466.352048 158.58 467.038866 158.295511 467.545188 157.789188 
C 468.051511 157.282866 468.336 156.596048 468.336 155.88 
C 468.336 155.163952 468.051511 154.477134 467.545188 153.970812 
C 467.038866 153.464489 466.352048 153.18 465.636 153.18 
C 464.919952 153.18 464.233134 153.464489 463.726812 153.970812 
C 463.220489 154.477134 462.936 155.163952 462.936 155.88 
C 462.936 156.596048 463.220489 157.282866 463.726812 157.789188 
C 464.233134 158.295511 464.919952 158.58 465.636 158.58 
z
" clip-path="url(#p637fe75f4c)" style="fill: #ffffff; stroke: #000000; stroke-width: 1.4; stroke-linejoin: miter"/>
   </g>
   <g id="text_30">
    <!-- -&gt; ZONE BANK IN1  (ZDRV1) -->
    <g transform="translate(471.936 159.327812) scale(0.11 -0.11)">
     <defs>
      <path id="DejaVuSans-2e" d="M 628 4666 
L 1259 4666 
L 1259 2694 
L 3353 4666 
L 4166 4666 
L 1850 2491 
L 4331 0 
L 3500 0 
L 1259 2247 
L 1259 0 
L 628 0 
L 628 4666 
z
" transform="scale(0.015625)"/>
     </defs>
     <use xlink:href="#DejaVuSans-10"/>
     <use xlink:href="#DejaVuSans-21" transform="translate(36.078125 0)"/>
     <use xlink:href="#DejaVuSans-3" transform="translate(119.875 0)"/>
     <use xlink:href="#DejaVuSans-3d" transform="translate(151.65625 0)"/>
     <use xlink:href="#DejaVuSans-32" transform="translate(220.15625 0)"/>
     <use xlink:href="#DejaVuSans-31" transform="translate(298.875 0)"/>
     <use xlink:href="#DejaVuSans-28" transform="translate(373.6875 0)"/>
     <use xlink:href="#DejaVuSans-3" transform="translate(436.875 0)"/>
     <use xlink:href="#DejaVuSans-25" transform="translate(468.65625 0)"/>
     <use xlink:href="#DejaVuSans-24" transform="translate(537.265625 0)"/>
     <use xlink:href="#DejaVuSans-31" transform="translate(605.671875 0)"/>
     <use xlink:href="#DejaVuSans-2e" transform="translate(680.484375 0)"/>
     <use xlink:href="#DejaVuSans-3" transform="translate(746.0625 0)"/>
     <use xlink:href="#DejaVuSans-2c" transform="translate(777.84375 0)"/>
     <use xlink:href="#DejaVuSans-31" transform="translate(807.34375 0)"/>
     <use xlink:href="#DejaVuSans-14" transform="translate(882.15625 0)"/>
     <use xlink:href="#DejaVuSans-3" transform="translate(945.78125 0)"/>
     <use xlink:href="#DejaVuSans-3" transform="translate(977.5625 0)"/>
     <use xlink:href="#DejaVuSans-b" transform="translate(1009.34375 0)"/>
     <use xlink:href="#DejaVuSans-3d" transform="translate(1048.359375 0)"/>
     <use xlink:href="#DejaVuSans-27" transform="translate(1116.859375 0)"/>
     <use xlink:href="#DejaVuSans-35" transform="translate(1193.859375 0)"/>
     <use xlink:href="#DejaVuSans-39" transform="translate(1257.875 0)"/>
     <use xlink:href="#DejaVuSans-14" transform="translate(1326.28125 0)"/>
     <use xlink:href="#DejaVuSans-c" transform="translate(1389.90625 0)"/>
    </g>
   </g>
   <g id="patch_5">
    <path d="M 465.636 108.18 
C 466.352048 108.18 467.038866 107.895511 467.545188 107.389188 
C 468.051511 106.882866 468.336 106.196048 468.336 105.48 
C 468.336 104.763952 468.051511 104.077134 467.545188 103.570812 
C 467.038866 103.064489 466.352048 102.78 465.636 102.78 
C 464.919952 102.78 464.233134 103.064489 463.726812 103.570812 
C 463.220489 104.077134 462.936 104.763952 462.936 105.48 
C 462.936 106.196048 463.220489 106.882866 463.726812 107.389188 
C 464.233134 107.895511 464.919952 108.18 465.636 108.18 
z
" clip-path="url(#p637fe75f4c)" style="fill: #ffffff; stroke: #000000; stroke-width: 1.4; stroke-linejoin: miter"/>
   </g>
   <g id="text_31">
    <!-- -&gt; ZONE BANK IN8  (GPA0..7 -&gt; IN1..8) -->
    <g transform="translate(471.936 108.927812) scale(0.11 -0.11)">
     <use xlink:href="#DejaVuSans-10"/>
     <use xlink:href="#DejaVuSans-21" transform="translate(36.078125 0)"/>
     <use xlink:href="#DejaVuSans-3" transform="translate(119.875 0)"/>
     <use xlink:href="#DejaVuSans-3d" transform="translate(151.65625 0)"/>
     <use xlink:href="#DejaVuSans-32" transform="translate(220.15625 0)"/>
     <use xlink:href="#DejaVuSans-31" transform="translate(298.875 0)"/>
     <use xlink:href="#DejaVuSans-28" transform="translate(373.6875 0)"/>
     <use xlink:href="#DejaVuSans-3" transform="translate(436.875 0)"/>
     <use xlink:href="#DejaVuSans-25" transform="translate(468.65625 0)"/>
     <use xlink:href="#DejaVuSans-24" transform="translate(537.265625 0)"/>
     <use xlink:href="#DejaVuSans-31" transform="translate(605.671875 0)"/>
     <use xlink:href="#DejaVuSans-2e" transform="translate(680.484375 0)"/>
     <use xlink:href="#DejaVuSans-3" transform="translate(746.0625 0)"/>
     <use xlink:href="#DejaVuSans-2c" transform="translate(777.84375 0)"/>
     <use xlink:href="#DejaVuSans-31" transform="translate(807.34375 0)"/>
     <use xlink:href="#DejaVuSans-1b" transform="translate(882.15625 0)"/>
     <use xlink:href="#DejaVuSans-3" transform="translate(945.78125 0)"/>
     <use xlink:href="#DejaVuSans-3" transform="translate(977.5625 0)"/>
     <use xlink:href="#DejaVuSans-b" transform="translate(1009.34375 0)"/>
     <use xlink:href="#DejaVuSans-2a" transform="translate(1048.359375 0)"/>
     <use xlink:href="#DejaVuSans-33" transform="translate(1125.84375 0)"/>
     <use xlink:href="#DejaVuSans-24" transform="translate(1179.75 0)"/>
     <use xlink:href="#DejaVuSans-13" transform="translate(1248.15625 0)"/>
     <use xlink:href="#DejaVuSans-11" transform="translate(1311.78125 0)"/>
     <use xlink:href="#DejaVuSans-11" transform="translate(1343.5625 0)"/>
     <use xlink:href="#DejaVuSans-1a" transform="translate(1375.34375 0)"/>
     <use xlink:href="#DejaVuSans-3" transform="translate(1438.96875 0)"/>
     <use xlink:href="#DejaVuSans-10" transform="translate(1470.75 0)"/>
     <use xlink:href="#DejaVuSans-21" transform="translate(1506.828125 0)"/>
     <use xlink:href="#DejaVuSans-3" transform="translate(1590.625 0)"/>
     <use xlink:href="#DejaVuSans-2c" transform="translate(1622.40625 0)"/>
     <use xlink:href="#DejaVuSans-31" transform="translate(1651.90625 0)"/>
     <use xlink:href="#DejaVuSans-14" transform="translate(1726.71875 0)"/>
     <use xlink:href="#DejaVuSans-11" transform="translate(1790.34375 0)"/>
     <use xlink:href="#DejaVuSans-11" transform="translate(1822.125 0)"/>
     <use xlink:href="#DejaVuSans-1b" transform="translate(1853.90625 0)"/>
     <use xlink:href="#DejaVuSans-c" transform="translate(1917.53125 0)"/>
    </g>
   </g>
  </g>
 </g>
 <defs>
  <clipPath id="p637fe75f4c">
   <rect x="0" y="-0" width="770.904" height="343.86"/>
  </clipPath>
 </defs>
</svg>
