<?xml version="1.0" encoding="utf-8" standalone="no"?>
<!DOCTYPE svg PUBLIC "-//W3C//DTD SVG 1.1//EN"
  "http://www.w3.org/Graphics/SVG/1.1/DTD/svg11.dtd">
<svg xmlns:xlink="http://www.w3.org/1999/xlink" width="900.6925pt" height="405.06pt" viewBox="0 0 900.6925 405.06" xmlns="http://www.w3.org/2000/svg" version="1.1">
 <metadata>
  <rdf:RDF xmlns:dc="http://purl.org/dc/elements/1.1/" xmlns:cc="http://creativecommons.org/ns#" xmlns:rdf="http://www.w3.org/1999/02/22-rdf-syntax-ns#">
   <cc:Work>
    <dc:type rdf:resource="http://purl.org/dc/dcmitype/StillImage"/>
    <dc:date>2026-07-09T20:24:29.981725</dc:date>
    <dc:format>image/svg+xml</dc:format>
    <dc:creator>
     <cc:Agent>
      <dc:title>Matplotlib v3.11.0, https://matplotlib.org/</dc:title>
     </cc:Agent>
    </dc:creator>
   </cc:Work>
  </rdf:RDF>
 </metadata>
 <defs>
  <style type="text/css">*{stroke-linejoin: round; stroke-linecap: butt}</style>
 </defs>
 <g id="figure_1">
  <g id="patch_1">
   <path d="M 0 405.06 
L 900.6925 405.06 
L 900.6925 0 
L 0 0 
L 0 405.06 
z
" style="fill: none"/>
  </g>
  <g id="axes_1">
   <g id="patch_2">
    <path d="M 214.046406 133 
C 219.297428 133 224.334088 130.913747 228.047121 127.200714 
C 231.760153 123.487681 233.846406 118.451021 233.846406 113.2 
C 233.846406 107.948979 231.760153 102.912319 228.047121 99.199286 
C 224.334088 95.486253 219.297428 93.4 214.046406 93.4 
C 208.795385 93.4 203.758725 95.486253 200.045692 99.199286 
C 196.332659 102.912319 194.246406 107.948979 194.246406 113.2 
C 194.246406 118.451021 196.332659 123.487681 200.045692 127.200714 
C 203.758725 130.913747 208.795385 133 214.046406 133 
L 214.046406 133 
z
" clip-path="url(#p5f65e0073b)" style="fill: none; stroke: #000000; stroke-width: 1.4; stroke-linejoin: miter"/>
   </g>
   <g id="patch_3">
    <path d="M 680.306406 185.08 
C 685.557428 185.08 690.594088 182.993747 694.307121 179.280714 
C 698.020153 175.567681 700.106406 170.531021 700.106406 165.28 
C 700.106406 160.028979 698.020153 154.992319 694.307121 151.279286 
C 690.594088 147.566253 685.557428 145.48 680.306406 145.48 
C 675.055385 145.48 670.018725 147.566253 666.305692 151.279286 
C 662.592659 154.992319 660.506406 160.028979 660.506406 165.28 
C 660.506406 170.531021 662.592659 175.567681 666.305692 179.280714 
C 670.018725 182.993747 675.055385 185.08 680.306406 185.08 
L 680.306406 185.08 
z
" clip-path="url(#p5f65e0073b)" style="fill: none; stroke: #000000; stroke-width: 1.4; stroke-linejoin: miter"/>
   </g>
   <g id="patch_4">
    <path d="M 680.306406 235.24 
C 685.557428 235.24 690.594088 233.153747 694.307121 229.440714 
C 698.020153 225.727681 700.106406 220.691021 700.106406 215.44 
C 700.106406 210.188979 698.020153 205.152319 694.307121 201.439286 
C 690.594088 197.726253 685.557428 195.64 680.306406 195.64 
C 675.055385 195.64 670.018725 197.726253 666.305692 201.439286 
C 662.592659 205.152319 660.506406 210.188979 660.506406 215.44 
C 660.506406 220.691021 662.592659 225.727681 666.305692 229.440714 
C 670.018725 233.153747 675.055385 235.24 680.306406 235.24 
L 680.306406 235.24 
z
" clip-path="url(#p5f65e0073b)" style="fill: none; stroke: #000000; stroke-width: 1.4; stroke-linejoin: miter"/>
   </g>
   <g id="line2d_1">
    <path d="M 383.306406 282.28 
L 509.306406 282.28 
L 509.306406 102.28 
L 383.306406 102.28 
L 383.306406 282.28 
" clip-path="url(#p5f65e0073b)" style="fill: none; stroke: #000000; stroke-width: 1.4; stroke-linecap: round"/>
   </g>
   <g id="line2d_2">
    <path d="M 383.306406 246.28 
L 347.306406 246.28 
" clip-path="url(#p5f65e0073b)" style="fill: none; stroke: #000000; stroke-width: 1.4; stroke-linecap: round"/>
   </g>
   <g id="line2d_3">
    <path d="M 383.306406 192.28 
L 347.306406 192.28 
" clip-path="url(#p5f65e0073b)" style="fill: none; stroke: #000000; stroke-width: 1.4; stroke-linecap: round"/>
   </g>
   <g id="line2d_4">
    <path d="M 383.306406 138.28 
L 347.306406 138.28 
" clip-path="url(#p5f65e0073b)" style="fill: none; stroke: #000000; stroke-width: 1.4; stroke-linecap: round"/>
   </g>
   <g id="line2d_5">
    <path d="M 509.306406 219.28 
L 545.306406 219.28 
" clip-path="url(#p5f65e0073b)" style="fill: none; stroke: #000000; stroke-width: 1.4; stroke-linecap: round"/>
   </g>
   <g id="line2d_6">
    <path d="M 509.306406 165.28 
L 545.306406 165.28 
" clip-path="url(#p5f65e0073b)" style="fill: none; stroke: #000000; stroke-width: 1.4; stroke-linecap: round"/>
   </g>
   <g id="line2d_7">
    <path d="M 419.306406 102.28 
L 419.306406 66.28 
" clip-path="url(#p5f65e0073b)" style="fill: none; stroke: #000000; stroke-width: 1.4; stroke-linecap: round"/>
   </g>
   <g id="line2d_8">
    <path d="M 473.306406 102.28 
L 473.306406 66.28 
" clip-path="url(#p5f65e0073b)" style="fill: none; stroke: #000000; stroke-width: 1.4; stroke-linecap: round"/>
   </g>
   <g id="line2d_9">
    <path d="M 446.306406 282.28 
L 446.306406 318.28 
" clip-path="url(#p5f65e0073b)" style="fill: none; stroke: #000000; stroke-width: 1.4; stroke-linecap: round"/>
   </g>
   <g id="line2d_10">
    <path d="M 473.306406 66.28 
L 473.306406 48.28 
L 473.306406 30.28 
" clip-path="url(#p5f65e0073b)" style="fill: none; stroke: #000000; stroke-width: 1.4; stroke-linecap: round"/>
   </g>
   <g id="line2d_11">
    <path d="M 419.306406 66.28 
L 419.306406 48.28 
L 419.306406 30.28 
" clip-path="url(#p5f65e0073b)" style="fill: none; stroke: #000000; stroke-width: 1.4; stroke-linecap: round"/>
   </g>
   <g id="line2d_12">
    <path d="M 95.306406 30.28 
L 284.306406 30.28 
L 473.306406 30.28 
" clip-path="url(#p5f65e0073b)" style="fill: none; stroke: #000000; stroke-width: 1.4; stroke-linecap: round"/>
   </g>
   <g id="line2d_13">
    <path d="M 473.306406 30.28 
L 473.306406 23.08 
L 473.306406 15.88 
" clip-path="url(#p5f65e0073b)" style="fill: none; stroke: #000000; stroke-width: 1.4; stroke-linecap: round"/>
   </g>
   <g id="line2d_14">
    <path d="M 95.306406 30.28 
L 95.306406 52.24 
M 104.306406 52.24 
L 86.306406 52.24 
M 104.306406 58.72 
L 86.306406 58.72 
M 95.306406 58.72 
L 95.306406 80.68 
" clip-path="url(#p5f65e0073b)" style="fill: none; stroke: #000000; stroke-width: 1.4; stroke-linecap: round"/>
   </g>
   <g id="line2d_15">
    <path d="M 95.306406 80.68 
L 95.306406 95.08 
L 86.306406 95.08 
L 104.306406 95.08 
M 89.006406 99.4 
L 101.606406 99.4 
M 93.506406 103.72 
L 97.106406 103.72 
" clip-path="url(#p5f65e0073b)" style="fill: none; stroke: #000000; stroke-width: 1.4; stroke-linecap: round"/>
   </g>
   <g id="line2d_16">
    <path d="M 275.306406 30.28 
L 275.306406 66.28 
L 284.306406 69.28 
L 266.306406 75.28 
L 284.306406 81.28 
L 266.306406 87.28 
L 284.306406 93.28 
L 266.306406 99.28 
L 275.306406 102.28 
L 275.306406 138.28 
" clip-path="url(#p5f65e0073b)" style="fill: none; stroke: #000000; stroke-width: 1.4; stroke-linecap: round"/>
   </g>
   <g id="line2d_17">
    <path d="M 275.306406 138.28 
L 311.306406 138.28 
L 347.306406 138.28 
" clip-path="url(#p5f65e0073b)" style="fill: none; stroke: #000000; stroke-width: 1.4; stroke-linecap: round"/>
   </g>
   <g id="line2d_18">
    <path d="M 275.306406 138.28 
L 275.306406 165.28 
L 275.306406 192.28 
" clip-path="url(#p5f65e0073b)" style="fill: none; stroke: #000000; stroke-width: 1.4; stroke-linecap: round"/>
   </g>
   <g id="line2d_19">
    <path d="M 275.306406 192.28 
L 311.306406 192.28 
L 347.306406 192.28 
" clip-path="url(#p5f65e0073b)" style="fill: none; stroke: #000000; stroke-width: 1.4; stroke-linecap: round"/>
   </g>
   <g id="line2d_20">
    <path d="M 275.306406 192.28 
L 275.306406 214.24 
M 284.306406 214.24 
L 266.306406 214.24 
M 284.306406 220.72 
L 266.306406 220.72 
M 275.306406 220.72 
L 275.306406 242.68 
" clip-path="url(#p5f65e0073b)" style="fill: none; stroke: #000000; stroke-width: 1.4; stroke-linecap: round"/>
   </g>
   <g id="line2d_21">
    <path d="M 275.306406 242.68 
L 275.306406 257.08 
L 266.306406 257.08 
L 284.306406 257.08 
M 269.006406 261.4 
L 281.606406 261.4 
M 273.506406 265.72 
L 277.106406 265.72 
" clip-path="url(#p5f65e0073b)" style="fill: none; stroke: #000000; stroke-width: 1.4; stroke-linecap: round"/>
   </g>
   <g id="line2d_22">
    <path d="M 275.306406 138.28 
L 248.306406 138.28 
L 221.306406 138.28 
" clip-path="url(#p5f65e0073b)" style="fill: none; stroke: #000000; stroke-width: 1.4; stroke-linecap: round"/>
   </g>
   <g id="line2d_23">
    <path d="M 194.246406 113.2 
L 207.446406 113.2 
" clip-path="url(#p5f65e0073b)" style="fill: none; stroke: #000000; stroke-width: 1.4; stroke-linecap: round"/>
   </g>
   <g id="line2d_24">
    <path d="M 207.446406 126.4 
L 207.446406 100 
" clip-path="url(#p5f65e0073b)" style="fill: none; stroke: #000000; stroke-width: 1.4; stroke-linecap: round"/>
   </g>
   <g id="line2d_25">
    <path d="M 207.446406 119.8 
L 221.306406 131.68 
L 221.306406 138.28 
" clip-path="url(#p5f65e0073b)" style="fill: none; stroke: #000000; stroke-width: 1.4; stroke-linecap: round"/>
   </g>
   <g id="line2d_26">
    <path d="M 207.446406 106.6 
L 221.306406 94.72 
L 221.306406 88.12 
" clip-path="url(#p5f65e0073b)" style="fill: none; stroke: #000000; stroke-width: 1.4; stroke-linecap: round"/>
   </g>
   <g id="line2d_27">
    <path d="M 221.306406 131.68 
L 214.279716 125.657122 
" clip-path="url(#p5f65e0073b)" style="fill: none; stroke: #000000; stroke-width: 1.4; stroke-linecap: round"/>
   </g>
   <g id="patch_5">
    <path d="M 211.936867 128.390446 
L 207.446406 119.8 
L 216.622565 122.923799 
z
" clip-path="url(#p5f65e0073b)"/>
   </g>
   <g id="line2d_28">
    <path d="M 221.306406 88.12 
L 221.306406 92.62 
L 221.306406 97.12 
" clip-path="url(#p5f65e0073b)" style="fill: none; stroke: #000000; stroke-width: 1.4; stroke-linecap: round"/>
   </g>
   <g id="line2d_29">
    <path d="M 221.306406 97.12 
L 221.306406 111.52 
L 212.306406 111.52 
L 230.306406 111.52 
M 215.006406 115.84 
L 227.606406 115.84 
M 219.506406 120.16 
L 223.106406 120.16 
" clip-path="url(#p5f65e0073b)" style="fill: none; stroke: #000000; stroke-width: 1.4; stroke-linecap: round"/>
   </g>
   <g id="line2d_30">
    <path d="M 194.246406 113.2 
L 185.246406 113.2 
L 182.246406 122.2 
L 176.246406 104.2 
L 170.246406 122.2 
L 164.246406 104.2 
L 158.246406 122.2 
L 152.246406 104.2 
L 149.246406 113.2 
L 140.246406 113.2 
" clip-path="url(#p5f65e0073b)" style="fill: none; stroke: #000000; stroke-width: 1.4; stroke-linecap: round"/>
   </g>
   <g id="line2d_31">
    <path d="M 140.246406 113.2 
L 122.246406 113.2 
L 104.246406 113.2 
" clip-path="url(#p5f65e0073b)" style="fill: none; stroke: #000000; stroke-width: 1.4; stroke-linecap: round"/>
   </g>
   <g id="line2d_32">
    <path d="M 104.246406 113.2 
L 104.246406 142 
L 104.246406 170.8 
" clip-path="url(#p5f65e0073b)" style="fill: none; stroke: #000000; stroke-width: 1.4; stroke-linecap: round"/>
   </g>
   <g id="line2d_33">
    <path d="M 140.246406 113.2 
L 140.246406 219.34 
L 140.246406 325.48 
" clip-path="url(#p5f65e0073b)" style="fill: none; stroke: #000000; stroke-width: 1.4; stroke-linecap: round"/>
   </g>
   <g id="line2d_34">
    <path d="M 140.246406 325.48 
L 229.376406 325.48 
L 318.506406 325.48 
" clip-path="url(#p5f65e0073b)" style="fill: none; stroke: #000000; stroke-width: 1.4; stroke-linecap: round"/>
   </g>
   <g id="line2d_35">
    <path d="M 318.506406 325.48 
L 318.506406 285.88 
L 318.506406 246.28 
" clip-path="url(#p5f65e0073b)" style="fill: none; stroke: #000000; stroke-width: 1.4; stroke-linecap: round"/>
   </g>
   <g id="line2d_36">
    <path d="M 318.506406 246.28 
L 332.906406 246.28 
L 347.306406 246.28 
" clip-path="url(#p5f65e0073b)" style="fill: none; stroke: #000000; stroke-width: 1.4; stroke-linecap: round"/>
   </g>
   <g id="line2d_37">
    <path d="M 545.306406 219.28 
L 545.306406 237.64 
M 554.306406 237.64 
L 536.306406 237.64 
M 554.306406 244.12 
L 536.306406 244.12 
M 545.306406 244.12 
L 545.306406 262.48 
" clip-path="url(#p5f65e0073b)" style="fill: none; stroke: #000000; stroke-width: 1.4; stroke-linecap: round"/>
   </g>
   <g id="line2d_38">
    <path d="M 545.306406 262.48 
L 545.306406 276.88 
L 536.306406 276.88 
L 554.306406 276.88 
M 539.006406 281.2 
L 551.606406 281.2 
M 543.506406 285.52 
L 547.106406 285.52 
" clip-path="url(#p5f65e0073b)" style="fill: none; stroke: #000000; stroke-width: 1.4; stroke-linecap: round"/>
   </g>
   <g id="line2d_39">
    <path d="M 446.306406 318.28 
L 446.306406 325.48 
L 446.306406 332.68 
" clip-path="url(#p5f65e0073b)" style="fill: none; stroke: #000000; stroke-width: 1.4; stroke-linecap: round"/>
   </g>
   <g id="line2d_40">
    <path d="M 446.306406 332.68 
L 446.306406 347.08 
L 437.306406 347.08 
L 455.306406 347.08 
M 440.006406 351.4 
L 452.606406 351.4 
M 444.506406 355.72 
L 448.106406 355.72 
" clip-path="url(#p5f65e0073b)" style="fill: none; stroke: #000000; stroke-width: 1.4; stroke-linecap: round"/>
   </g>
   <g id="line2d_41">
    <path d="M 545.306406 165.28 
L 566.906406 165.28 
L 588.506406 165.28 
" clip-path="url(#p5f65e0073b)" style="fill: none; stroke: #000000; stroke-width: 1.4; stroke-linecap: round"/>
   </g>
   <g id="line2d_42">
    <path d="M 588.506406 165.28 
L 606.506406 165.28 
L 609.506406 156.28 
L 615.506406 174.28 
L 621.506406 156.28 
L 627.506406 174.28 
L 633.506406 156.28 
L 639.506406 174.28 
L 642.506406 165.28 
L 660.506406 165.28 
" clip-path="url(#p5f65e0073b)" style="fill: none; stroke: #000000; stroke-width: 1.4; stroke-linecap: round"/>
   </g>
   <g id="line2d_43">
    <path d="M 660.506406 165.28 
L 673.706406 165.28 
" clip-path="url(#p5f65e0073b)" style="fill: none; stroke: #000000; stroke-width: 1.4; stroke-linecap: round"/>
   </g>
   <g id="line2d_44">
    <path d="M 673.706406 152.08 
L 673.706406 178.48 
" clip-path="url(#p5f65e0073b)" style="fill: none; stroke: #000000; stroke-width: 1.4; stroke-linecap: round"/>
   </g>
   <g id="line2d_45">
    <path d="M 673.706406 158.68 
L 687.566406 146.8 
L 687.566406 140.2 
" clip-path="url(#p5f65e0073b)" style="fill: none; stroke: #000000; stroke-width: 1.4; stroke-linecap: round"/>
   </g>
   <g id="line2d_46">
    <path d="M 673.706406 171.88 
L 687.566406 183.76 
L 687.566406 190.36 
" clip-path="url(#p5f65e0073b)" style="fill: none; stroke: #000000; stroke-width: 1.4; stroke-linecap: round"/>
   </g>
   <g id="line2d_47">
    <path d="M 673.706406 171.88 
L 680.733097 177.902878 
" clip-path="url(#p5f65e0073b)" style="fill: none; stroke: #000000; stroke-width: 1.4; stroke-linecap: round"/>
   </g>
   <g id="patch_6">
    <path d="M 683.075946 175.169554 
L 687.566406 183.76 
L 678.390248 180.636201 
z
" clip-path="url(#p5f65e0073b)"/>
   </g>
   <g id="line2d_48">
    <path d="M 687.566406 140.2 
L 687.566406 118.6 
L 687.566406 97 
" clip-path="url(#p5f65e0073b)" style="fill: none; stroke: #000000; stroke-width: 1.4; stroke-linecap: round"/>
   </g>
   <g id="line2d_49">
    <path d="M 687.566406 97 
L 714.566406 97 
L 741.566406 97 
" clip-path="url(#p5f65e0073b)" style="fill: none; stroke: #000000; stroke-width: 1.4; stroke-linecap: round"/>
   </g>
   <g id="line2d_50">
    <path d="M 660.506406 215.44 
L 673.706406 215.44 
" clip-path="url(#p5f65e0073b)" style="fill: none; stroke: #000000; stroke-width: 1.4; stroke-linecap: round"/>
   </g>
   <g id="line2d_51">
    <path d="M 673.706406 202.24 
L 673.706406 228.64 
" clip-path="url(#p5f65e0073b)" style="fill: none; stroke: #000000; stroke-width: 1.4; stroke-linecap: round"/>
   </g>
   <g id="line2d_52">
    <path d="M 673.706406 208.84 
L 687.566406 196.96 
L 687.566406 190.36 
" clip-path="url(#p5f65e0073b)" style="fill: none; stroke: #000000; stroke-width: 1.4; stroke-linecap: round"/>
   </g>
   <g id="line2d_53">
    <path d="M 673.706406 222.04 
L 687.566406 233.92 
L 687.566406 240.52 
" clip-path="url(#p5f65e0073b)" style="fill: none; stroke: #000000; stroke-width: 1.4; stroke-linecap: round"/>
   </g>
   <g id="line2d_54">
    <path d="M 673.706406 222.04 
L 680.733097 228.062878 
" clip-path="url(#p5f65e0073b)" style="fill: none; stroke: #000000; stroke-width: 1.4; stroke-linecap: round"/>
   </g>
   <g id="patch_7">
    <path d="M 683.075946 225.329554 
L 687.566406 233.92 
L 678.390248 230.796201 
z
" clip-path="url(#p5f65e0073b)"/>
   </g>
   <g id="line2d_55">
    <path d="M 660.506406 215.44 
L 642.506406 215.44 
L 639.506406 224.44 
L 633.506406 206.44 
L 627.506406 224.44 
L 621.506406 206.44 
L 615.506406 224.44 
L 609.506406 206.44 
L 606.506406 215.44 
L 588.506406 215.44 
" clip-path="url(#p5f65e0073b)" style="fill: none; stroke: #000000; stroke-width: 1.4; stroke-linecap: round"/>
   </g>
   <g id="line2d_56">
    <path d="M 588.506406 215.44 
L 588.506406 281.26 
L 588.506406 347.08 
" clip-path="url(#p5f65e0073b)" style="fill: none; stroke: #000000; stroke-width: 1.4; stroke-linecap: round"/>
   </g>
   <g id="line2d_57">
    <path d="M 687.566406 240.52 
L 687.566406 245.92 
L 687.566406 251.32 
" clip-path="url(#p5f65e0073b)" style="fill: none; stroke: #000000; stroke-width: 1.4; stroke-linecap: round"/>
   </g>
   <g id="line2d_58">
    <path d="M 687.566406 251.32 
L 687.566406 265.72 
L 678.566406 265.72 
L 696.566406 265.72 
M 681.266406 270.04 
L 693.866406 270.04 
M 685.766406 274.36 
L 689.366406 274.36 
" clip-path="url(#p5f65e0073b)" style="fill: none; stroke: #000000; stroke-width: 1.4; stroke-linecap: round"/>
   </g>
   <g id="text_1">
    <!-- 2 -->
    <g transform="translate(373.607656 242.162031) scale(0.11 -0.11)">
     <defs>
      <path id="DejaVuSans-15" d="M 1228 531 
L 3431 531 
L 3431 0 
L 469 0 
L 469 531 
Q 828 903 1448 1529 
Q 2069 2156 2228 2338 
Q 2531 2678 2651 2914 
Q 2772 3150 2772 3378 
Q 2772 3750 2511 3984 
Q 2250 4219 1831 4219 
Q 1534 4219 1204 4116 
Q 875 4013 500 3803 
L 500 4441 
Q 881 4594 1212 4672 
Q 1544 4750 1819 4750 
Q 2544 4750 2975 4387 
Q 3406 4025 3406 3419 
Q 3406 3131 3298 2873 
Q 3191 2616 2906 2266 
Q 2828 2175 2409 1742 
Q 1991 1309 1228 531 
z
" transform="scale(0.015625)"/>
     </defs>
     <use xlink:href="#DejaVuSans-15"/>
    </g>
   </g>
   <g id="text_2">
    <!-- TRG -->
    <g transform="translate(388.706406 251.375781) scale(0.14 -0.14)">
     <defs>
      <path id="DejaVuSans-37" d="M -19 4666 
L 3928 4666 
L 3928 4134 
L 2272 4134 
L 2272 0 
L 1638 0 
L 1638 4134 
L -19 4134 
L -19 4666 
z
" transform="scale(0.015625)"/>
      <path id="DejaVuSans-35" d="M 2841 2188 
Q 3044 2119 3236 1894 
Q 3428 1669 3622 1275 
L 4263 0 
L 3584 0 
L 2988 1197 
Q 2756 1666 2539 1819 
Q 2322 1972 1947 1972 
L 1259 1972 
L 1259 0 
L 628 0 
L 628 4666 
L 2053 4666 
Q 2853 4666 3247 4331 
Q 3641 3997 3641 3322 
Q 3641 2881 3436 2590 
Q 3231 2300 2841 2188 
z
M 1259 4147 
L 1259 2491 
L 2053 2491 
Q 2509 2491 2742 2702 
Q 2975 2913 2975 3322 
Q 2975 3731 2742 3939 
Q 2509 4147 2053 4147 
L 1259 4147 
z
" transform="scale(0.015625)"/>
      <path id="DejaVuSans-2a" d="M 3809 666 
L 3809 1919 
L 2778 1919 
L 2778 2438 
L 4434 2438 
L 4434 434 
Q 4069 175 3628 42 
Q 3188 -91 2688 -91 
Q 1594 -91 976 548 
Q 359 1188 359 2328 
Q 359 3472 976 4111 
Q 1594 4750 2688 4750 
Q 3144 4750 3555 4637 
Q 3966 4525 4313 4306 
L 4313 3634 
Q 3963 3931 3569 4081 
Q 3175 4231 2741 4231 
Q 1884 4231 1454 3753 
Q 1025 3275 1025 2328 
Q 1025 1384 1454 906 
Q 1884 428 2741 428 
Q 3075 428 3337 486 
Q 3600 544 3809 666 
z
" transform="scale(0.015625)"/>
     </defs>
     <use xlink:href="#DejaVuSans-37"/>
     <use xlink:href="#DejaVuSans-35" transform="translate(61.078125 0)"/>
     <use xlink:href="#DejaVuSans-2a" transform="translate(130.5625 0)"/>
    </g>
   </g>
   <g id="text_3">
    <!-- 6 -->
    <g transform="translate(373.607656 188.083828) scale(0.11 -0.11)">
     <defs>
      <path id="DejaVuSans-19" d="M 2113 2584 
Q 1688 2584 1439 2293 
Q 1191 2003 1191 1497 
Q 1191 994 1439 701 
Q 1688 409 2113 409 
Q 2538 409 2786 701 
Q 3034 994 3034 1497 
Q 3034 2003 2786 2293 
Q 2538 2584 2113 2584 
z
M 3366 4563 
L 3366 3988 
Q 3128 4100 2886 4159 
Q 2644 4219 2406 4219 
Q 1781 4219 1451 3797 
Q 1122 3375 1075 2522 
Q 1259 2794 1537 2939 
Q 1816 3084 2150 3084 
Q 2853 3084 3261 2657 
Q 3669 2231 3669 1497 
Q 3669 778 3244 343 
Q 2819 -91 2113 -91 
Q 1303 -91 875 529 
Q 447 1150 447 2328 
Q 447 3434 972 4092 
Q 1497 4750 2381 4750 
Q 2619 4750 2861 4703 
Q 3103 4656 3366 4563 
z
" transform="scale(0.015625)"/>
     </defs>
     <use xlink:href="#DejaVuSans-19"/>
    </g>
   </g>
   <g id="text_4">
    <!-- THR -->
    <g transform="translate(388.706406 197.383437) scale(0.14 -0.14)">
     <defs>
      <path id="DejaVuSans-2b" d="M 628 4666 
L 1259 4666 
L 1259 2753 
L 3553 2753 
L 3553 4666 
L 4184 4666 
L 4184 0 
L 3553 0 
L 3553 2222 
L 1259 2222 
L 1259 0 
L 628 0 
L 628 4666 
z
" transform="scale(0.015625)"/>
     </defs>
     <use xlink:href="#DejaVuSans-37"/>
     <use xlink:href="#DejaVuSans-2b" transform="translate(61.078125 0)"/>
     <use xlink:href="#DejaVuSans-35" transform="translate(136.28125 0)"/>
    </g>
   </g>
   <g id="text_5">
    <!-- 7 -->
    <g transform="translate(373.607656 134.089844) scale(0.11 -0.11)">
     <defs>
      <path id="DejaVuSans-1a" d="M 525 4666 
L 3525 4666 
L 3525 4397 
L 1831 0 
L 1172 0 
L 2766 4134 
L 525 4134 
L 525 4666 
z
" transform="scale(0.015625)"/>
     </defs>
     <use xlink:href="#DejaVuSans-1a"/>
    </g>
   </g>
   <g id="text_6">
    <!-- DIS -->
    <g transform="translate(388.706406 143.375781) scale(0.14 -0.14)">
     <defs>
      <path id="DejaVuSans-27" d="M 1259 4147 
L 1259 519 
L 2022 519 
Q 2988 519 3436 956 
Q 3884 1394 3884 2338 
Q 3884 3275 3436 3711 
Q 2988 4147 2022 4147 
L 1259 4147 
z
M 628 4666 
L 1925 4666 
Q 3281 4666 3915 4102 
Q 4550 3538 4550 2338 
Q 4550 1131 3912 565 
Q 3275 0 1925 0 
L 628 0 
L 628 4666 
z
" transform="scale(0.015625)"/>
      <path id="DejaVuSans-2c" d="M 628 4666 
L 1259 4666 
L 1259 0 
L 628 0 
L 628 4666 
z
" transform="scale(0.015625)"/>
      <path id="DejaVuSans-36" d="M 3425 4513 
L 3425 3897 
Q 3066 4069 2747 4153 
Q 2428 4238 2131 4238 
Q 1616 4238 1336 4038 
Q 1056 3838 1056 3469 
Q 1056 3159 1242 3001 
Q 1428 2844 1947 2747 
L 2328 2669 
Q 3034 2534 3370 2195 
Q 3706 1856 3706 1288 
Q 3706 609 3251 259 
Q 2797 -91 1919 -91 
Q 1588 -91 1214 -16 
Q 841 59 441 206 
L 441 856 
Q 825 641 1194 531 
Q 1563 422 1919 422 
Q 2459 422 2753 634 
Q 3047 847 3047 1241 
Q 3047 1584 2836 1778 
Q 2625 1972 2144 2069 
L 1759 2144 
Q 1053 2284 737 2584 
Q 422 2884 422 3419 
Q 422 4038 858 4394 
Q 1294 4750 2059 4750 
Q 2388 4750 2728 4690 
Q 3069 4631 3425 4513 
z
" transform="scale(0.015625)"/>
     </defs>
     <use xlink:href="#DejaVuSans-27"/>
     <use xlink:href="#DejaVuSans-2c" transform="translate(77 0)"/>
     <use xlink:href="#DejaVuSans-36" transform="translate(106.5 0)"/>
    </g>
   </g>
   <g id="text_7">
    <!-- 5 -->
    <g transform="translate(512.006406 215.011641) scale(0.11 -0.11)">
     <defs>
      <path id="DejaVuSans-18" d="M 691 4666 
L 3169 4666 
L 3169 4134 
L 1269 4134 
L 1269 2991 
Q 1406 3038 1543 3061 
Q 1681 3084 1819 3084 
Q 2600 3084 3056 2656 
Q 3513 2228 3513 1497 
Q 3513 744 3044 326 
Q 2575 -91 1722 -91 
Q 1428 -91 1123 -41 
Q 819 9 494 109 
L 494 744 
Q 775 591 1075 516 
Q 1375 441 1709 441 
Q 2250 441 2565 725 
Q 2881 1009 2881 1497 
Q 2881 1984 2565 2268 
Q 2250 2553 1709 2553 
Q 1456 2553 1204 2497 
Q 953 2441 691 2322 
L 691 4666 
z
" transform="scale(0.015625)"/>
     </defs>
     <use xlink:href="#DejaVuSans-18"/>
    </g>
   </g>
   <g id="text_8">
    <!-- CTL -->
    <g transform="translate(477.778906 224.375781) scale(0.14 -0.14)">
     <defs>
      <path id="DejaVuSans-26" d="M 4122 4306 
L 4122 3641 
Q 3803 3938 3442 4084 
Q 3081 4231 2675 4231 
Q 1875 4231 1450 3742 
Q 1025 3253 1025 2328 
Q 1025 1406 1450 917 
Q 1875 428 2675 428 
Q 3081 428 3442 575 
Q 3803 722 4122 1019 
L 4122 359 
Q 3791 134 3420 21 
Q 3050 -91 2638 -91 
Q 1578 -91 968 557 
Q 359 1206 359 2328 
Q 359 3453 968 4101 
Q 1578 4750 2638 4750 
Q 3056 4750 3426 4639 
Q 3797 4528 4122 4306 
z
" transform="scale(0.015625)"/>
      <path id="DejaVuSans-2f" d="M 628 4666 
L 1259 4666 
L 1259 531 
L 3531 531 
L 3531 0 
L 628 0 
L 628 4666 
z
" transform="scale(0.015625)"/>
     </defs>
     <use xlink:href="#DejaVuSans-26"/>
     <use xlink:href="#DejaVuSans-37" transform="translate(69.828125 0)"/>
     <use xlink:href="#DejaVuSans-2f" transform="translate(130.90625 0)"/>
    </g>
   </g>
   <g id="text_9">
    <!-- 3 -->
    <g transform="translate(512.006406 161.083828) scale(0.11 -0.11)">
     <defs>
      <path id="DejaVuSans-16" d="M 2597 2516 
Q 3050 2419 3304 2112 
Q 3559 1806 3559 1356 
Q 3559 666 3084 287 
Q 2609 -91 1734 -91 
Q 1441 -91 1130 -33 
Q 819 25 488 141 
L 488 750 
Q 750 597 1062 519 
Q 1375 441 1716 441 
Q 2309 441 2620 675 
Q 2931 909 2931 1356 
Q 2931 1769 2642 2001 
Q 2353 2234 1838 2234 
L 1294 2234 
L 1294 2753 
L 1863 2753 
Q 2328 2753 2575 2939 
Q 2822 3125 2822 3475 
Q 2822 3834 2567 4026 
Q 2313 4219 1838 4219 
Q 1578 4219 1281 4162 
Q 984 4106 628 3988 
L 628 4550 
Q 988 4650 1302 4700 
Q 1616 4750 1894 4750 
Q 2613 4750 3031 4423 
Q 3450 4097 3450 3541 
Q 3450 3153 3228 2886 
Q 3006 2619 2597 2516 
z
" transform="scale(0.015625)"/>
     </defs>
     <use xlink:href="#DejaVuSans-16"/>
    </g>
   </g>
   <g id="text_10">
    <!-- OUT -->
    <g transform="translate(474.088594 170.375781) scale(0.14 -0.14)">
     <defs>
      <path id="DejaVuSans-32" d="M 2522 4238 
Q 1834 4238 1429 3725 
Q 1025 3213 1025 2328 
Q 1025 1447 1429 934 
Q 1834 422 2522 422 
Q 3209 422 3611 934 
Q 4013 1447 4013 2328 
Q 4013 3213 3611 3725 
Q 3209 4238 2522 4238 
z
M 2522 4750 
Q 3503 4750 4090 4092 
Q 4678 3434 4678 2328 
Q 4678 1225 4090 567 
Q 3503 -91 2522 -91 
Q 1538 -91 948 565 
Q 359 1222 359 2328 
Q 359 3434 948 4092 
Q 1538 4750 2522 4750 
z
" transform="scale(0.015625)"/>
      <path id="DejaVuSans-38" d="M 556 4666 
L 1191 4666 
L 1191 1831 
Q 1191 1081 1462 751 
Q 1734 422 2344 422 
Q 2950 422 3222 751 
Q 3494 1081 3494 1831 
L 3494 4666 
L 4128 4666 
L 4128 1753 
Q 4128 841 3676 375 
Q 3225 -91 2344 -91 
Q 1459 -91 1007 375 
Q 556 841 556 1753 
L 556 4666 
z
" transform="scale(0.015625)"/>
     </defs>
     <use xlink:href="#DejaVuSans-32"/>
     <use xlink:href="#DejaVuSans-38" transform="translate(78.71875 0)"/>
     <use xlink:href="#DejaVuSans-37" transform="translate(151.90625 0)"/>
    </g>
   </g>
   <g id="text_11">
    <!-- 4 -->
    <g transform="translate(422.006406 98.089844) scale(0.11 -0.11)">
     <defs>
      <path id="DejaVuSans-17" d="M 2419 4116 
L 825 1625 
L 2419 1625 
L 2419 4116 
z
M 2253 4666 
L 3047 4666 
L 3047 1625 
L 3713 1625 
L 3713 1100 
L 3047 1100 
L 3047 0 
L 2419 0 
L 2419 1100 
L 313 1100 
L 313 1709 
L 2253 4666 
z
" transform="scale(0.015625)"/>
     </defs>
     <use xlink:href="#DejaVuSans-17"/>
    </g>
   </g>
   <g id="text_12">
    <!-- RST -->
    <g transform="translate(405.723125 119.775781) scale(0.14 -0.14)">
     <use xlink:href="#DejaVuSans-35"/>
     <use xlink:href="#DejaVuSans-36" transform="translate(69.484375 0)"/>
     <use xlink:href="#DejaVuSans-37" transform="translate(132.96875 0)"/>
    </g>
   </g>
   <g id="text_13">
    <!-- 8 -->
    <g transform="translate(476.006406 98.083828) scale(0.11 -0.11)">
     <defs>
      <path id="DejaVuSans-1b" d="M 2034 2216 
Q 1584 2216 1326 1975 
Q 1069 1734 1069 1313 
Q 1069 891 1326 650 
Q 1584 409 2034 409 
Q 2484 409 2743 651 
Q 3003 894 3003 1313 
Q 3003 1734 2745 1975 
Q 2488 2216 2034 2216 
z
M 1403 2484 
Q 997 2584 770 2862 
Q 544 3141 544 3541 
Q 544 4100 942 4425 
Q 1341 4750 2034 4750 
Q 2731 4750 3128 4425 
Q 3525 4100 3525 3541 
Q 3525 3141 3298 2862 
Q 3072 2584 2669 2484 
Q 3125 2378 3379 2068 
Q 3634 1759 3634 1313 
Q 3634 634 3220 271 
Q 2806 -91 2034 -91 
Q 1263 -91 848 271 
Q 434 634 434 1313 
Q 434 1759 690 2068 
Q 947 2378 1403 2484 
z
M 1172 3481 
Q 1172 3119 1398 2916 
Q 1625 2713 2034 2713 
Q 2441 2713 2670 2916 
Q 2900 3119 2900 3481 
Q 2900 3844 2670 4047 
Q 2441 4250 2034 4250 
Q 1625 4250 1398 4047 
Q 1172 3844 1172 3481 
z
" transform="scale(0.015625)"/>
     </defs>
     <use xlink:href="#DejaVuSans-1b"/>
    </g>
   </g>
   <g id="text_14">
    <!-- Vcc -->
    <g transform="translate(460.820156 119.683906) scale(0.14 -0.14)">
     <defs>
      <path id="DejaVuSans-39" d="M 1831 0 
L 50 4666 
L 709 4666 
L 2188 738 
L 3669 4666 
L 4325 4666 
L 2547 0 
L 1831 0 
z
" transform="scale(0.015625)"/>
      <path id="DejaVuSans-46" d="M 3122 3366 
L 3122 2828 
Q 2878 2963 2633 3030 
Q 2388 3097 2138 3097 
Q 1578 3097 1268 2742 
Q 959 2388 959 1747 
Q 959 1106 1268 751 
Q 1578 397 2138 397 
Q 2388 397 2633 464 
Q 2878 531 3122 666 
L 3122 134 
Q 2881 22 2623 -34 
Q 2366 -91 2075 -91 
Q 1284 -91 818 406 
Q 353 903 353 1747 
Q 353 2603 823 3093 
Q 1294 3584 2113 3584 
Q 2378 3584 2631 3529 
Q 2884 3475 3122 3366 
z
" transform="scale(0.015625)"/>
     </defs>
     <use xlink:href="#DejaVuSans-39"/>
     <use xlink:href="#DejaVuSans-46" transform="translate(68.40625 0)"/>
     <use xlink:href="#DejaVuSans-46" transform="translate(123.390625 0)"/>
    </g>
   </g>
   <g id="text_15">
    <!-- 1 -->
    <g transform="translate(449.006406 294.489844) scale(0.11 -0.11)">
     <defs>
      <path id="DejaVuSans-14" d="M 794 531 
L 1825 531 
L 1825 4091 
L 703 3866 
L 703 4441 
L 1819 4666 
L 2450 4666 
L 2450 531 
L 3481 531 
L 3481 0 
L 794 0 
L 794 531 
z
" transform="scale(0.015625)"/>
     </defs>
     <use xlink:href="#DejaVuSans-14"/>
    </g>
   </g>
   <g id="text_16">
    <!-- GND -->
    <g transform="translate(430.255625 274.975781) scale(0.14 -0.14)">
     <defs>
      <path id="DejaVuSans-31" d="M 628 4666 
L 1478 4666 
L 3547 763 
L 3547 4666 
L 4159 4666 
L 4159 0 
L 3309 0 
L 1241 3903 
L 1241 0 
L 628 0 
L 628 4666 
z
" transform="scale(0.015625)"/>
     </defs>
     <use xlink:href="#DejaVuSans-2a"/>
     <use xlink:href="#DejaVuSans-31" transform="translate(77.484375 0)"/>
     <use xlink:href="#DejaVuSans-27" transform="translate(152.296875 0)"/>
    </g>
   </g>
   <g id="text_17">
    <!-- U1 -->
    <g transform="translate(438.781719 42.911641) scale(0.11 -0.11)">
     <use xlink:href="#DejaVuSans-38"/>
     <use xlink:href="#DejaVuSans-14" transform="translate(73.1875 0)"/>
    </g>
    <!-- NE555 -->
    <g transform="translate(428.218281 53.911641) scale(0.11 -0.11)">
     <defs>
      <path id="DejaVuSans-28" d="M 628 4666 
L 3578 4666 
L 3578 4134 
L 1259 4134 
L 1259 2753 
L 3481 2753 
L 3481 2222 
L 1259 2222 
L 1259 531 
L 3634 531 
L 3634 0 
L 628 0 
L 628 4666 
z
" transform="scale(0.015625)"/>
     </defs>
     <use xlink:href="#DejaVuSans-31"/>
     <use xlink:href="#DejaVuSans-28" transform="translate(74.8125 0)"/>
     <use xlink:href="#DejaVuSans-18" transform="translate(138 0)"/>
     <use xlink:href="#DejaVuSans-18" transform="translate(201.625 0)"/>
     <use xlink:href="#DejaVuSans-18" transform="translate(265.25 0)"/>
    </g>
   </g>
   <g id="text_18">
    <!-- 555 -->
    <g transform="translate(439.408281 192.611641) scale(0.11 -0.11)">
     <use xlink:href="#DejaVuSans-18"/>
     <use xlink:href="#DejaVuSans-18" transform="translate(63.625 0)"/>
     <use xlink:href="#DejaVuSans-18" transform="translate(127.25 0)"/>
    </g>
   </g>
   <g id="text_19">
    <!-- +5V -->
    <g transform="translate(445.965312 27.011641) scale(0.11 -0.11)">
     <defs>
      <path id="DejaVuSans-e" d="M 2944 4013 
L 2944 2272 
L 4684 2272 
L 4684 1741 
L 2944 1741 
L 2944 0 
L 2419 0 
L 2419 1741 
L 678 1741 
L 678 2272 
L 2419 2272 
L 2419 4013 
L 2944 4013 
z
" transform="scale(0.015625)"/>
     </defs>
     <use xlink:href="#DejaVuSans-e"/>
     <use xlink:href="#DejaVuSans-18" transform="translate(83.796875 0)"/>
     <use xlink:href="#DejaVuSans-39" transform="translate(147.421875 0)"/>
    </g>
   </g>
   <g id="text_20">
    <!-- C3 -->
    <g transform="translate(87.966484 14.183828) scale(0.11 -0.11)">
     <use xlink:href="#DejaVuSans-26"/>
     <use xlink:href="#DejaVuSans-16" transform="translate(69.828125 0)"/>
    </g>
    <!-- 100n -->
    <g transform="translate(81.322656 25.183828) scale(0.11 -0.11)">
     <defs>
      <path id="DejaVuSans-13" d="M 2034 4250 
Q 1547 4250 1301 3770 
Q 1056 3291 1056 2328 
Q 1056 1369 1301 889 
Q 1547 409 2034 409 
Q 2525 409 2770 889 
Q 3016 1369 3016 2328 
Q 3016 3291 2770 3770 
Q 2525 4250 2034 4250 
z
M 2034 4750 
Q 2819 4750 3233 4129 
Q 3647 3509 3647 2328 
Q 3647 1150 3233 529 
Q 2819 -91 2034 -91 
Q 1250 -91 836 529 
Q 422 1150 422 2328 
Q 422 3509 836 4129 
Q 1250 4750 2034 4750 
z
" transform="scale(0.015625)"/>
      <path id="DejaVuSans-51" d="M 3513 2113 
L 3513 0 
L 2938 0 
L 2938 2094 
Q 2938 2591 2744 2837 
Q 2550 3084 2163 3084 
Q 1697 3084 1428 2787 
Q 1159 2491 1159 1978 
L 1159 0 
L 581 0 
L 581 3500 
L 1159 3500 
L 1159 2956 
Q 1366 3272 1645 3428 
Q 1925 3584 2291 3584 
Q 2894 3584 3203 3211 
Q 3513 2838 3513 2113 
z
" transform="scale(0.015625)"/>
     </defs>
     <use xlink:href="#DejaVuSans-14"/>
     <use xlink:href="#DejaVuSans-13" transform="translate(63.625 0)"/>
     <use xlink:href="#DejaVuSans-13" transform="translate(127.25 0)"/>
     <use xlink:href="#DejaVuSans-51" transform="translate(190.875 0)"/>
    </g>
   </g>
   <g id="text_21">
    <!-- R1 -->
    <g transform="translate(242.664375 75.589844) scale(0.11 -0.11)">
     <use xlink:href="#DejaVuSans-35"/>
     <use xlink:href="#DejaVuSans-14" transform="translate(69.484375 0)"/>
    </g>
    <!-- 220k -->
    <g transform="translate(229.940469 86.680937) scale(0.11 -0.11)">
     <defs>
      <path id="DejaVuSans-4e" d="M 581 4863 
L 1159 4863 
L 1159 1991 
L 2875 3500 
L 3609 3500 
L 1753 1863 
L 3688 0 
L 2938 0 
L 1159 1709 
L 1159 0 
L 581 0 
L 581 4863 
z
" transform="scale(0.015625)"/>
     </defs>
     <use xlink:href="#DejaVuSans-15"/>
     <use xlink:href="#DejaVuSans-15" transform="translate(63.625 0)"/>
     <use xlink:href="#DejaVuSans-13" transform="translate(127.25 0)"/>
     <use xlink:href="#DejaVuSans-4e" transform="translate(190.875 0)"/>
    </g>
   </g>
   <g id="text_22">
    <!-- C1 -->
    <g transform="translate(246.226563 221.283828) scale(0.11 -0.11)">
     <use xlink:href="#DejaVuSans-26"/>
     <use xlink:href="#DejaVuSans-14" transform="translate(69.828125 0)"/>
    </g>
    <!-- 100uF -->
    <g transform="translate(226.612188 232.283828) scale(0.11 -0.11)">
     <defs>
      <path id="DejaVuSans-58" d="M 544 1381 
L 544 3500 
L 1119 3500 
L 1119 1403 
Q 1119 906 1312 657 
Q 1506 409 1894 409 
Q 2359 409 2629 706 
Q 2900 1003 2900 1516 
L 2900 3500 
L 3475 3500 
L 3475 0 
L 2900 0 
L 2900 538 
Q 2691 219 2414 64 
Q 2138 -91 1772 -91 
Q 1169 -91 856 284 
Q 544 659 544 1381 
z
M 1991 3584 
L 1991 3584 
z
" transform="scale(0.015625)"/>
      <path id="DejaVuSans-29" d="M 628 4666 
L 3309 4666 
L 3309 4134 
L 1259 4134 
L 1259 2759 
L 3109 2759 
L 3109 2228 
L 1259 2228 
L 1259 0 
L 628 0 
L 628 4666 
z
" transform="scale(0.015625)"/>
     </defs>
     <use xlink:href="#DejaVuSans-14"/>
     <use xlink:href="#DejaVuSans-13" transform="translate(63.625 0)"/>
     <use xlink:href="#DejaVuSans-13" transform="translate(127.25 0)"/>
     <use xlink:href="#DejaVuSans-58" transform="translate(190.875 0)"/>
     <use xlink:href="#DejaVuSans-29" transform="translate(254.25 0)"/>
    </g>
    <!-- low-leak -->
    <g transform="translate(215.220313 243.380937) scale(0.11 -0.11)">
     <defs>
      <path id="DejaVuSans-4f" d="M 603 4863 
L 1178 4863 
L 1178 0 
L 603 0 
L 603 4863 
z
" transform="scale(0.015625)"/>
      <path id="DejaVuSans-52" d="M 1959 3097 
Q 1497 3097 1228 2736 
Q 959 2375 959 1747 
Q 959 1119 1226 758 
Q 1494 397 1959 397 
Q 2419 397 2687 759 
Q 2956 1122 2956 1747 
Q 2956 2369 2687 2733 
Q 2419 3097 1959 3097 
z
M 1959 3584 
Q 2709 3584 3137 3096 
Q 3566 2609 3566 1747 
Q 3566 888 3137 398 
Q 2709 -91 1959 -91 
Q 1206 -91 779 398 
Q 353 888 353 1747 
Q 353 2609 779 3096 
Q 1206 3584 1959 3584 
z
" transform="scale(0.015625)"/>
      <path id="DejaVuSans-5a" d="M 269 3500 
L 844 3500 
L 1563 769 
L 2278 3500 
L 2956 3500 
L 3675 769 
L 4391 3500 
L 4966 3500 
L 4050 0 
L 3372 0 
L 2619 2869 
L 1863 0 
L 1184 0 
L 269 3500 
z
" transform="scale(0.015625)"/>
      <path id="DejaVuSans-10" d="M 313 2009 
L 1997 2009 
L 1997 1497 
L 313 1497 
L 313 2009 
z
" transform="scale(0.015625)"/>
      <path id="DejaVuSans-48" d="M 3597 1894 
L 3597 1613 
L 953 1613 
Q 991 1019 1311 708 
Q 1631 397 2203 397 
Q 2534 397 2845 478 
Q 3156 559 3463 722 
L 3463 178 
Q 3153 47 2828 -22 
Q 2503 -91 2169 -91 
Q 1331 -91 842 396 
Q 353 884 353 1716 
Q 353 2575 817 3079 
Q 1281 3584 2069 3584 
Q 2775 3584 3186 3129 
Q 3597 2675 3597 1894 
z
M 3022 2063 
Q 3016 2534 2758 2815 
Q 2500 3097 2075 3097 
Q 1594 3097 1305 2825 
Q 1016 2553 972 2059 
L 3022 2063 
z
" transform="scale(0.015625)"/>
      <path id="DejaVuSans-44" d="M 2194 1759 
Q 1497 1759 1228 1600 
Q 959 1441 959 1056 
Q 959 750 1161 570 
Q 1363 391 1709 391 
Q 2188 391 2477 730 
Q 2766 1069 2766 1631 
L 2766 1759 
L 2194 1759 
z
M 3341 1997 
L 3341 0 
L 2766 0 
L 2766 531 
Q 2569 213 2275 61 
Q 1981 -91 1556 -91 
Q 1019 -91 701 211 
Q 384 513 384 1019 
Q 384 1609 779 1909 
Q 1175 2209 1959 2209 
L 2766 2209 
L 2766 2266 
Q 2766 2663 2505 2880 
Q 2244 3097 1772 3097 
Q 1472 3097 1187 3025 
Q 903 2953 641 2809 
L 641 3341 
Q 956 3463 1253 3523 
Q 1550 3584 1831 3584 
Q 2591 3584 2966 3190 
Q 3341 2797 3341 1997 
z
" transform="scale(0.015625)"/>
     </defs>
     <use xlink:href="#DejaVuSans-4f"/>
     <use xlink:href="#DejaVuSans-52" transform="translate(27.78125 0)"/>
     <use xlink:href="#DejaVuSans-5a" transform="translate(88.96875 0)"/>
     <use xlink:href="#DejaVuSans-10" transform="translate(170.75 0)"/>
     <use xlink:href="#DejaVuSans-4f" transform="translate(206.828125 0)"/>
     <use xlink:href="#DejaVuSans-48" transform="translate(234.609375 0)"/>
     <use xlink:href="#DejaVuSans-44" transform="translate(296.140625 0)"/>
     <use xlink:href="#DejaVuSans-4e" transform="translate(357.421875 0)"/>
    </g>
   </g>
   <g id="text_23">
    <!-- Q3 -->
    <g transform="translate(206.2175 60.593047) scale(0.11 -0.11)">
     <defs>
      <path id="DejaVuSans-34" d="M 2522 4238 
Q 1834 4238 1429 3725 
Q 1025 3213 1025 2328 
Q 1025 1447 1429 934 
Q 1834 422 2522 422 
Q 3209 422 3611 934 
Q 4013 1447 4013 2328 
Q 4013 3213 3611 3725 
Q 3209 4238 2522 4238 
z
M 3406 84 
L 4238 -825 
L 3475 -825 
L 2784 -78 
Q 2681 -84 2626 -87 
Q 2572 -91 2522 -91 
Q 1538 -91 948 567 
Q 359 1225 359 2328 
Q 359 3434 948 4092 
Q 1538 4750 2522 4750 
Q 3503 4750 4090 4092 
Q 4678 3434 4678 2328 
Q 4678 1516 4351 937 
Q 4025 359 3406 84 
z
" transform="scale(0.015625)"/>
     </defs>
     <use xlink:href="#DejaVuSans-34"/>
     <use xlink:href="#DejaVuSans-16" transform="translate(78.71875 0)"/>
    </g>
    <!-- 2N3906 -->
    <g transform="translate(192.434844 72.223828) scale(0.11 -0.11)">
     <defs>
      <path id="DejaVuSans-1c" d="M 703 97 
L 703 672 
Q 941 559 1184 500 
Q 1428 441 1663 441 
Q 2288 441 2617 861 
Q 2947 1281 2994 2138 
Q 2813 1869 2534 1725 
Q 2256 1581 1919 1581 
Q 1219 1581 811 2004 
Q 403 2428 403 3163 
Q 403 3881 828 4315 
Q 1253 4750 1959 4750 
Q 2769 4750 3195 4129 
Q 3622 3509 3622 2328 
Q 3622 1225 3098 567 
Q 2575 -91 1691 -91 
Q 1453 -91 1209 -44 
Q 966 3 703 97 
z
M 1959 2075 
Q 2384 2075 2632 2365 
Q 2881 2656 2881 3163 
Q 2881 3666 2632 3958 
Q 2384 4250 1959 4250 
Q 1534 4250 1286 3958 
Q 1038 3666 1038 3163 
Q 1038 2656 1286 2365 
Q 1534 2075 1959 2075 
z
" transform="scale(0.015625)"/>
     </defs>
     <use xlink:href="#DejaVuSans-15"/>
     <use xlink:href="#DejaVuSans-31" transform="translate(63.625 0)"/>
     <use xlink:href="#DejaVuSans-16" transform="translate(138.4375 0)"/>
     <use xlink:href="#DejaVuSans-1c" transform="translate(202.0625 0)"/>
     <use xlink:href="#DejaVuSans-13" transform="translate(265.6875 0)"/>
     <use xlink:href="#DejaVuSans-19" transform="translate(329.3125 0)"/>
    </g>
   </g>
   <g id="text_24">
    <!-- R2 -->
    <g transform="translate(159.925391 135.382031) scale(0.11 -0.11)">
     <use xlink:href="#DejaVuSans-35"/>
     <use xlink:href="#DejaVuSans-15" transform="translate(69.484375 0)"/>
    </g>
    <!-- 10k -->
    <g transform="translate(157.062813 146.400937) scale(0.11 -0.11)">
     <use xlink:href="#DejaVuSans-14"/>
     <use xlink:href="#DejaVuSans-13" transform="translate(63.625 0)"/>
     <use xlink:href="#DejaVuSans-4e" transform="translate(127.25 0)"/>
    </g>
   </g>
   <g id="text_25">
    <!-- C2 -->
    <g transform="translate(537.966484 203.183828) scale(0.11 -0.11)">
     <use xlink:href="#DejaVuSans-26"/>
     <use xlink:href="#DejaVuSans-15" transform="translate(69.828125 0)"/>
    </g>
    <!-- 10n -->
    <g transform="translate(534.822031 214.183828) scale(0.11 -0.11)">
     <use xlink:href="#DejaVuSans-14"/>
     <use xlink:href="#DejaVuSans-13" transform="translate(63.625 0)"/>
     <use xlink:href="#DejaVuSans-51" transform="translate(127.25 0)"/>
    </g>
   </g>
   <g id="text_26">
    <!-- R3 10k -->
    <g transform="translate(605.253828 151.280937) scale(0.11 -0.11)">
     <defs>
      <path id="DejaVuSans-3" transform="scale(0.015625)"/>
     </defs>
     <use xlink:href="#DejaVuSans-35"/>
     <use xlink:href="#DejaVuSans-16" transform="translate(69.484375 0)"/>
     <use xlink:href="#DejaVuSans-3" transform="translate(133.109375 0)"/>
     <use xlink:href="#DejaVuSans-14" transform="translate(164.890625 0)"/>
     <use xlink:href="#DejaVuSans-13" transform="translate(228.515625 0)"/>
     <use xlink:href="#DejaVuSans-4e" transform="translate(292.140625 0)"/>
    </g>
   </g>
   <g id="text_27">
    <!-- Q1 -->
    <g transform="translate(710.906406 163.453047) scale(0.11 -0.11)">
     <use xlink:href="#DejaVuSans-34"/>
     <use xlink:href="#DejaVuSans-14" transform="translate(78.71875 0)"/>
    </g>
    <!-- 2N2222 -->
    <g transform="translate(710.906406 175.162031) scale(0.11 -0.11)">
     <use xlink:href="#DejaVuSans-15"/>
     <use xlink:href="#DejaVuSans-31" transform="translate(63.625 0)"/>
     <use xlink:href="#DejaVuSans-15" transform="translate(138.4375 0)"/>
     <use xlink:href="#DejaVuSans-15" transform="translate(202.0625 0)"/>
     <use xlink:href="#DejaVuSans-15" transform="translate(265.6875 0)"/>
     <use xlink:href="#DejaVuSans-15" transform="translate(329.3125 0)"/>
    </g>
   </g>
   <g id="text_28">
    <!-- Q2 -->
    <g transform="translate(710.906406 213.613047) scale(0.11 -0.11)">
     <use xlink:href="#DejaVuSans-34"/>
     <use xlink:href="#DejaVuSans-15" transform="translate(78.71875 0)"/>
    </g>
    <!-- 2N2222 -->
    <g transform="translate(710.906406 225.322031) scale(0.11 -0.11)">
     <use xlink:href="#DejaVuSans-15"/>
     <use xlink:href="#DejaVuSans-31" transform="translate(63.625 0)"/>
     <use xlink:href="#DejaVuSans-15" transform="translate(138.4375 0)"/>
     <use xlink:href="#DejaVuSans-15" transform="translate(202.0625 0)"/>
     <use xlink:href="#DejaVuSans-15" transform="translate(265.6875 0)"/>
     <use xlink:href="#DejaVuSans-15" transform="translate(329.3125 0)"/>
    </g>
   </g>
   <g id="text_29">
    <!-- R4 10k -->
    <g transform="translate(605.253828 201.440937) scale(0.11 -0.11)">
     <use xlink:href="#DejaVuSans-35"/>
     <use xlink:href="#DejaVuSans-17" transform="translate(69.484375 0)"/>
     <use xlink:href="#DejaVuSans-3" transform="translate(133.109375 0)"/>
     <use xlink:href="#DejaVuSans-14" transform="translate(164.890625 0)"/>
     <use xlink:href="#DejaVuSans-13" transform="translate(228.515625 0)"/>
     <use xlink:href="#DejaVuSans-4e" transform="translate(292.140625 0)"/>
    </g>
   </g>
   <g id="text_30">
    <!-- TURFY SIDECAR v0.1  - -  SHEET 2: WATCHDOG (missing-pulse detector, t=1.1*R1*C1 ~ 24 s) + AUTHORITY AND GATE   (Rain Bird ESP-6Si retrofit) -->
    <g transform="translate(11.060406 397.915312) scale(0.11 -0.11)">
     <defs>
      <path id="DejaVuSans-3c" d="M -13 4666 
L 666 4666 
L 1959 2747 
L 3244 4666 
L 3922 4666 
L 2272 2222 
L 2272 0 
L 1638 0 
L 1638 2222 
L -13 4666 
z
" transform="scale(0.015625)"/>
      <path id="DejaVuSans-24" d="M 2188 4044 
L 1331 1722 
L 3047 1722 
L 2188 4044 
z
M 1831 4666 
L 2547 4666 
L 4325 0 
L 3669 0 
L 3244 1197 
L 1141 1197 
L 716 0 
L 50 0 
L 1831 4666 
z
" transform="scale(0.015625)"/>
      <path id="DejaVuSans-59" d="M 191 3500 
L 800 3500 
L 1894 563 
L 2988 3500 
L 3597 3500 
L 2284 0 
L 1503 0 
L 191 3500 
z
" transform="scale(0.015625)"/>
      <path id="DejaVuSans-11" d="M 684 794 
L 1344 794 
L 1344 0 
L 684 0 
L 684 794 
z
" transform="scale(0.015625)"/>
      <path id="DejaVuSans-1d" d="M 750 794 
L 1409 794 
L 1409 0 
L 750 0 
L 750 794 
z
M 750 3309 
L 1409 3309 
L 1409 2516 
L 750 2516 
L 750 3309 
z
" transform="scale(0.015625)"/>
      <path id="DejaVuSans-3a" d="M 213 4666 
L 850 4666 
L 1831 722 
L 2809 4666 
L 3519 4666 
L 4500 722 
L 5478 4666 
L 6119 4666 
L 4947 0 
L 4153 0 
L 3169 4050 
L 2175 0 
L 1381 0 
L 213 4666 
z
" transform="scale(0.015625)"/>
      <path id="DejaVuSans-b" d="M 1984 4856 
Q 1566 4138 1362 3434 
Q 1159 2731 1159 2009 
Q 1159 1288 1364 580 
Q 1569 -128 1984 -844 
L 1484 -844 
Q 1016 -109 783 600 
Q 550 1309 550 2009 
Q 550 2706 781 3412 
Q 1013 4119 1484 4856 
L 1984 4856 
z
" transform="scale(0.015625)"/>
      <path id="DejaVuSans-50" d="M 3328 2828 
Q 3544 3216 3844 3400 
Q 4144 3584 4550 3584 
Q 5097 3584 5394 3201 
Q 5691 2819 5691 2113 
L 5691 0 
L 5113 0 
L 5113 2094 
Q 5113 2597 4934 2840 
Q 4756 3084 4391 3084 
Q 3944 3084 3684 2787 
Q 3425 2491 3425 1978 
L 3425 0 
L 2847 0 
L 2847 2094 
Q 2847 2600 2669 2842 
Q 2491 3084 2119 3084 
Q 1678 3084 1418 2786 
Q 1159 2488 1159 1978 
L 1159 0 
L 581 0 
L 581 3500 
L 1159 3500 
L 1159 2956 
Q 1356 3278 1631 3431 
Q 1906 3584 2284 3584 
Q 2666 3584 2933 3390 
Q 3200 3197 3328 2828 
z
" transform="scale(0.015625)"/>
      <path id="DejaVuSans-4c" d="M 603 3500 
L 1178 3500 
L 1178 0 
L 603 0 
L 603 3500 
z
M 603 4863 
L 1178 4863 
L 1178 4134 
L 603 4134 
L 603 4863 
z
" transform="scale(0.015625)"/>
      <path id="DejaVuSans-56" d="M 2834 3397 
L 2834 2853 
Q 2591 2978 2328 3040 
Q 2066 3103 1784 3103 
Q 1356 3103 1142 2972 
Q 928 2841 928 2578 
Q 928 2378 1081 2264 
Q 1234 2150 1697 2047 
L 1894 2003 
Q 2506 1872 2764 1633 
Q 3022 1394 3022 966 
Q 3022 478 2636 193 
Q 2250 -91 1575 -91 
Q 1294 -91 989 -36 
Q 684 19 347 128 
L 347 722 
Q 666 556 975 473 
Q 1284 391 1588 391 
Q 1994 391 2212 530 
Q 2431 669 2431 922 
Q 2431 1156 2273 1281 
Q 2116 1406 1581 1522 
L 1381 1569 
Q 847 1681 609 1914 
Q 372 2147 372 2553 
Q 372 3047 722 3315 
Q 1072 3584 1716 3584 
Q 2034 3584 2315 3537 
Q 2597 3491 2834 3397 
z
" transform="scale(0.015625)"/>
      <path id="DejaVuSans-4a" d="M 2906 1791 
Q 2906 2416 2648 2759 
Q 2391 3103 1925 3103 
Q 1463 3103 1205 2759 
Q 947 2416 947 1791 
Q 947 1169 1205 825 
Q 1463 481 1925 481 
Q 2391 481 2648 825 
Q 2906 1169 2906 1791 
z
M 3481 434 
Q 3481 -459 3084 -895 
Q 2688 -1331 1869 -1331 
Q 1566 -1331 1297 -1286 
Q 1028 -1241 775 -1147 
L 775 -588 
Q 1028 -725 1275 -790 
Q 1522 -856 1778 -856 
Q 2344 -856 2625 -561 
Q 2906 -266 2906 331 
L 2906 616 
Q 2728 306 2450 153 
Q 2172 0 1784 0 
Q 1141 0 747 490 
Q 353 981 353 1791 
Q 353 2603 747 3093 
Q 1141 3584 1784 3584 
Q 2172 3584 2450 3431 
Q 2728 3278 2906 2969 
L 2906 3500 
L 3481 3500 
L 3481 434 
z
" transform="scale(0.015625)"/>
      <path id="DejaVuSans-53" d="M 1159 525 
L 1159 -1331 
L 581 -1331 
L 581 3500 
L 1159 3500 
L 1159 2969 
Q 1341 3281 1617 3432 
Q 1894 3584 2278 3584 
Q 2916 3584 3314 3078 
Q 3713 2572 3713 1747 
Q 3713 922 3314 415 
Q 2916 -91 2278 -91 
Q 1894 -91 1617 61 
Q 1341 213 1159 525 
z
M 3116 1747 
Q 3116 2381 2855 2742 
Q 2594 3103 2138 3103 
Q 1681 3103 1420 2742 
Q 1159 2381 1159 1747 
Q 1159 1113 1420 752 
Q 1681 391 2138 391 
Q 2594 391 2855 752 
Q 3116 1113 3116 1747 
z
" transform="scale(0.015625)"/>
      <path id="DejaVuSans-47" d="M 2906 2969 
L 2906 4863 
L 3481 4863 
L 3481 0 
L 2906 0 
L 2906 525 
Q 2725 213 2448 61 
Q 2172 -91 1784 -91 
Q 1150 -91 751 415 
Q 353 922 353 1747 
Q 353 2572 751 3078 
Q 1150 3584 1784 3584 
Q 2172 3584 2448 3432 
Q 2725 3281 2906 2969 
z
M 947 1747 
Q 947 1113 1208 752 
Q 1469 391 1925 391 
Q 2381 391 2643 752 
Q 2906 1113 2906 1747 
Q 2906 2381 2643 2742 
Q 2381 3103 1925 3103 
Q 1469 3103 1208 2742 
Q 947 2381 947 1747 
z
" transform="scale(0.015625)"/>
      <path id="DejaVuSans-57" d="M 1172 4494 
L 1172 3500 
L 2356 3500 
L 2356 3053 
L 1172 3053 
L 1172 1153 
Q 1172 725 1289 603 
Q 1406 481 1766 481 
L 2356 481 
L 2356 0 
L 1766 0 
Q 1100 0 847 248 
Q 594 497 594 1153 
L 594 3053 
L 172 3053 
L 172 3500 
L 594 3500 
L 594 4494 
L 1172 4494 
z
" transform="scale(0.015625)"/>
      <path id="DejaVuSans-55" d="M 2631 2963 
Q 2534 3019 2420 3045 
Q 2306 3072 2169 3072 
Q 1681 3072 1420 2755 
Q 1159 2438 1159 1844 
L 1159 0 
L 581 0 
L 581 3500 
L 1159 3500 
L 1159 2956 
Q 1341 3275 1631 3429 
Q 1922 3584 2338 3584 
Q 2397 3584 2469 3576 
Q 2541 3569 2628 3553 
L 2631 2963 
z
" transform="scale(0.015625)"/>
      <path id="DejaVuSans-f" d="M 750 794 
L 1409 794 
L 1409 256 
L 897 -744 
L 494 -744 
L 750 256 
L 750 794 
z
" transform="scale(0.015625)"/>
      <path id="DejaVuSans-20" d="M 678 2906 
L 4684 2906 
L 4684 2381 
L 678 2381 
L 678 2906 
z
M 678 1631 
L 4684 1631 
L 4684 1100 
L 678 1100 
L 678 1631 
z
" transform="scale(0.015625)"/>
      <path id="DejaVuSans-d" d="M 3009 3897 
L 1888 3291 
L 3009 2681 
L 2828 2375 
L 1778 3009 
L 1778 1831 
L 1422 1831 
L 1422 3009 
L 372 2375 
L 191 2681 
L 1313 3291 
L 191 3897 
L 372 4206 
L 1422 3572 
L 1422 4750 
L 1778 4750 
L 1778 3572 
L 2828 4206 
L 3009 3897 
z
" transform="scale(0.015625)"/>
      <path id="DejaVuSans-61" d="M 4684 2553 
L 4684 1997 
Q 4356 1750 4076 1644 
Q 3797 1538 3494 1538 
Q 3150 1538 2694 1722 
Q 2659 1734 2644 1741 
Q 2622 1750 2575 1766 
Q 2091 1959 1797 1959 
Q 1522 1959 1253 1839 
Q 984 1719 678 1459 
L 678 2016 
Q 1006 2263 1286 2370 
Q 1566 2478 1869 2478 
Q 2213 2478 2672 2291 
Q 2703 2278 2719 2272 
Q 2744 2263 2788 2247 
Q 3272 2053 3566 2053 
Q 3834 2053 4098 2172 
Q 4363 2291 4684 2553 
z
" transform="scale(0.015625)"/>
      <path id="DejaVuSans-c" d="M 513 4856 
L 1013 4856 
Q 1481 4119 1714 3412 
Q 1947 2706 1947 2009 
Q 1947 1309 1714 600 
Q 1481 -109 1013 -844 
L 513 -844 
Q 928 -128 1133 580 
Q 1338 1288 1338 2009 
Q 1338 2731 1133 3434 
Q 928 4138 513 4856 
z
" transform="scale(0.015625)"/>
      <path id="DejaVuSans-25" d="M 1259 2228 
L 1259 519 
L 2272 519 
Q 2781 519 3026 730 
Q 3272 941 3272 1375 
Q 3272 1813 3026 2020 
Q 2781 2228 2272 2228 
L 1259 2228 
z
M 1259 4147 
L 1259 2741 
L 2194 2741 
Q 2656 2741 2882 2914 
Q 3109 3088 3109 3444 
Q 3109 3797 2882 3972 
Q 2656 4147 2194 4147 
L 1259 4147 
z
M 628 4666 
L 2241 4666 
Q 2963 4666 3353 4366 
Q 3744 4066 3744 3513 
Q 3744 3084 3544 2831 
Q 3344 2578 2956 2516 
Q 3422 2416 3680 2098 
Q 3938 1781 3938 1306 
Q 3938 681 3513 340 
Q 3088 0 2303 0 
L 628 0 
L 628 4666 
z
" transform="scale(0.015625)"/>
      <path id="DejaVuSans-33" d="M 1259 4147 
L 1259 2394 
L 2053 2394 
Q 2494 2394 2734 2622 
Q 2975 2850 2975 3272 
Q 2975 3691 2734 3919 
Q 2494 4147 2053 4147 
L 1259 4147 
z
M 628 4666 
L 2053 4666 
Q 2838 4666 3239 4311 
Q 3641 3956 3641 3272 
Q 3641 2581 3239 2228 
Q 2838 1875 2053 1875 
L 1259 1875 
L 1259 0 
L 628 0 
L 628 4666 
z
" transform="scale(0.015625)"/>
      <path id="DejaVuSans-13af" d="M 3431 3500 
L 3431 0 
L 2853 0 
L 2853 3053 
L 1275 3053 
L 1275 0 
L 697 0 
L 697 3053 
L 147 3053 
L 147 3500 
L 697 3500 
L 697 3744 
Q 697 4316 967 4589 
Q 1238 4863 1797 4863 
L 2375 4863 
L 2375 4384 
L 1825 4384 
Q 1516 4384 1395 4259 
Q 1275 4134 1275 3809 
L 1275 3500 
L 3431 3500 
z
M 2853 4856 
L 3431 4856 
L 3431 4128 
L 2853 4128 
L 2853 4856 
z
" transform="scale(0.015625)"/>
     </defs>
     <use xlink:href="#DejaVuSans-37"/>
     <use xlink:href="#DejaVuSans-38" transform="translate(61.078125 0)"/>
     <use xlink:href="#DejaVuSans-35" transform="translate(134.265625 0)"/>
     <use xlink:href="#DejaVuSans-29" transform="translate(203.75 0)"/>
     <use xlink:href="#DejaVuSans-3c" transform="translate(261.265625 0)"/>
     <use xlink:href="#DejaVuSans-3" transform="translate(322.34375 0)"/>
     <use xlink:href="#DejaVuSans-36" transform="translate(354.125 0)"/>
     <use xlink:href="#DejaVuSans-2c" transform="translate(417.609375 0)"/>
     <use xlink:href="#DejaVuSans-27" transform="translate(447.109375 0)"/>
     <use xlink:href="#DejaVuSans-28" transform="translate(524.109375 0)"/>
     <use xlink:href="#DejaVuSans-26" transform="translate(587.296875 0)"/>
     <use xlink:href="#DejaVuSans-24" transform="translate(657.125 0)"/>
     <use xlink:href="#DejaVuSans-35" transform="translate(725.53125 0)"/>
     <use xlink:href="#DejaVuSans-3" transform="translate(795.015625 0)"/>
     <use xlink:href="#DejaVuSans-59" transform="translate(826.796875 0)"/>
     <use xlink:href="#DejaVuSans-13" transform="translate(885.984375 0)"/>
     <use xlink:href="#DejaVuSans-11" transform="translate(949.609375 0)"/>
     <use xlink:href="#DejaVuSans-14" transform="translate(981.390625 0)"/>
     <use xlink:href="#DejaVuSans-3" transform="translate(1045.015625 0)"/>
     <use xlink:href="#DejaVuSans-3" transform="translate(1076.796875 0)"/>
     <use xlink:href="#DejaVuSans-10" transform="translate(1108.578125 0)"/>
     <use xlink:href="#DejaVuSans-10" transform="translate(1144.65625 0)"/>
     <use xlink:href="#DejaVuSans-3" transform="translate(1180.734375 0)"/>
     <use xlink:href="#DejaVuSans-3" transform="translate(1212.515625 0)"/>
     <use xlink:href="#DejaVuSans-36" transform="translate(1244.296875 0)"/>
     <use xlink:href="#DejaVuSans-2b" transform="translate(1307.78125 0)"/>
     <use xlink:href="#DejaVuSans-28" transform="translate(1382.984375 0)"/>
     <use xlink:href="#DejaVuSans-28" transform="translate(1446.171875 0)"/>
     <use xlink:href="#DejaVuSans-37" transform="translate(1509.359375 0)"/>
     <use xlink:href="#DejaVuSans-3" transform="translate(1570.4375 0)"/>
     <use xlink:href="#DejaVuSans-15" transform="translate(1602.21875 0)"/>
     <use xlink:href="#DejaVuSans-1d" transform="translate(1665.84375 0)"/>
     <use xlink:href="#DejaVuSans-3" transform="translate(1699.53125 0)"/>
     <use xlink:href="#DejaVuSans-3a" transform="translate(1731.3125 0)"/>
     <use xlink:href="#DejaVuSans-24" transform="translate(1824.71875 0)"/>
     <use xlink:href="#DejaVuSans-37" transform="translate(1885.359375 0)"/>
     <use xlink:href="#DejaVuSans-26" transform="translate(1940.578125 0)"/>
     <use xlink:href="#DejaVuSans-2b" transform="translate(2010.40625 0)"/>
     <use xlink:href="#DejaVuSans-27" transform="translate(2085.609375 0)"/>
     <use xlink:href="#DejaVuSans-32" transform="translate(2162.609375 0)"/>
     <use xlink:href="#DejaVuSans-2a" transform="translate(2241.328125 0)"/>
     <use xlink:href="#DejaVuSans-3" transform="translate(2318.8125 0)"/>
     <use xlink:href="#DejaVuSans-b" transform="translate(2350.59375 0)"/>
     <use xlink:href="#DejaVuSans-50" transform="translate(2389.609375 0)"/>
     <use xlink:href="#DejaVuSans-4c" transform="translate(2487.015625 0)"/>
     <use xlink:href="#DejaVuSans-56" transform="translate(2514.796875 0)"/>
     <use xlink:href="#DejaVuSans-56" transform="translate(2566.890625 0)"/>
     <use xlink:href="#DejaVuSans-4c" transform="translate(2618.984375 0)"/>
     <use xlink:href="#DejaVuSans-51" transform="translate(2646.765625 0)"/>
     <use xlink:href="#DejaVuSans-4a" transform="translate(2710.140625 0)"/>
     <use xlink:href="#DejaVuSans-10" transform="translate(2773.625 0)"/>
     <use xlink:href="#DejaVuSans-53" transform="translate(2809.703125 0)"/>
     <use xlink:href="#DejaVuSans-58" transform="translate(2873.1875 0)"/>
     <use xlink:href="#DejaVuSans-4f" transform="translate(2936.5625 0)"/>
     <use xlink:href="#DejaVuSans-56" transform="translate(2964.34375 0)"/>
     <use xlink:href="#DejaVuSans-48" transform="translate(3016.4375 0)"/>
     <use xlink:href="#DejaVuSans-3" transform="translate(3077.96875 0)"/>
     <use xlink:href="#DejaVuSans-47" transform="translate(3109.75 0)"/>
     <use xlink:href="#DejaVuSans-48" transform="translate(3173.234375 0)"/>
     <use xlink:href="#DejaVuSans-57" transform="translate(3234.765625 0)"/>
     <use xlink:href="#DejaVuSans-48" transform="translate(3273.96875 0)"/>
     <use xlink:href="#DejaVuSans-46" transform="translate(3335.5 0)"/>
     <use xlink:href="#DejaVuSans-57" transform="translate(3390.484375 0)"/>
     <use xlink:href="#DejaVuSans-52" transform="translate(3429.6875 0)"/>
     <use xlink:href="#DejaVuSans-55" transform="translate(3490.875 0)"/>
     <use xlink:href="#DejaVuSans-f" transform="translate(3531.984375 0)"/>
     <use xlink:href="#DejaVuSans-3" transform="translate(3563.765625 0)"/>
     <use xlink:href="#DejaVuSans-57" transform="translate(3595.546875 0)"/>
     <use xlink:href="#DejaVuSans-20" transform="translate(3634.75 0)"/>
     <use xlink:href="#DejaVuSans-14" transform="translate(3718.546875 0)"/>
     <use xlink:href="#DejaVuSans-11" transform="translate(3782.171875 0)"/>
     <use xlink:href="#DejaVuSans-14" transform="translate(3813.953125 0)"/>
     <use xlink:href="#DejaVuSans-d" transform="translate(3877.578125 0)"/>
     <use xlink:href="#DejaVuSans-35" transform="translate(3927.578125 0)"/>
     <use xlink:href="#DejaVuSans-14" transform="translate(3997.0625 0)"/>
     <use xlink:href="#DejaVuSans-d" transform="translate(4060.6875 0)"/>
     <use xlink:href="#DejaVuSans-26" transform="translate(4110.6875 0)"/>
     <use xlink:href="#DejaVuSans-14" transform="translate(4180.515625 0)"/>
     <use xlink:href="#DejaVuSans-3" transform="translate(4244.140625 0)"/>
     <use xlink:href="#DejaVuSans-61" transform="translate(4275.921875 0)"/>
     <use xlink:href="#DejaVuSans-3" transform="translate(4359.71875 0)"/>
     <use xlink:href="#DejaVuSans-15" transform="translate(4391.5 0)"/>
     <use xlink:href="#DejaVuSans-17" transform="translate(4455.125 0)"/>
     <use xlink:href="#DejaVuSans-3" transform="translate(4518.75 0)"/>
     <use xlink:href="#DejaVuSans-56" transform="translate(4550.53125 0)"/>
     <use xlink:href="#DejaVuSans-c" transform="translate(4602.625 0)"/>
     <use xlink:href="#DejaVuSans-3" transform="translate(4641.640625 0)"/>
     <use xlink:href="#DejaVuSans-e" transform="translate(4673.421875 0)"/>
     <use xlink:href="#DejaVuSans-3" transform="translate(4757.21875 0)"/>
     <use xlink:href="#DejaVuSans-24" transform="translate(4789 0)"/>
     <use xlink:href="#DejaVuSans-38" transform="translate(4857.40625 0)"/>
     <use xlink:href="#DejaVuSans-37" transform="translate(4930.59375 0)"/>
     <use xlink:href="#DejaVuSans-2b" transform="translate(4991.671875 0)"/>
     <use xlink:href="#DejaVuSans-32" transform="translate(5066.875 0)"/>
     <use xlink:href="#DejaVuSans-35" transform="translate(5145.59375 0)"/>
     <use xlink:href="#DejaVuSans-2c" transform="translate(5215.078125 0)"/>
     <use xlink:href="#DejaVuSans-37" transform="translate(5244.578125 0)"/>
     <use xlink:href="#DejaVuSans-3c" transform="translate(5305.65625 0)"/>
     <use xlink:href="#DejaVuSans-3" transform="translate(5366.734375 0)"/>
     <use xlink:href="#DejaVuSans-24" transform="translate(5398.515625 0)"/>
     <use xlink:href="#DejaVuSans-31" transform="translate(5466.921875 0)"/>
     <use xlink:href="#DejaVuSans-27" transform="translate(5541.734375 0)"/>
     <use xlink:href="#DejaVuSans-3" transform="translate(5618.734375 0)"/>
     <use xlink:href="#DejaVuSans-2a" transform="translate(5650.515625 0)"/>
     <use xlink:href="#DejaVuSans-24" transform="translate(5728 0)"/>
     <use xlink:href="#DejaVuSans-37" transform="translate(5788.640625 0)"/>
     <use xlink:href="#DejaVuSans-28" transform="translate(5849.71875 0)"/>
     <use xlink:href="#DejaVuSans-3" transform="translate(5912.90625 0)"/>
     <use xlink:href="#DejaVuSans-3" transform="translate(5944.6875 0)"/>
     <use xlink:href="#DejaVuSans-3" transform="translate(5976.46875 0)"/>
     <use xlink:href="#DejaVuSans-b" transform="translate(6008.25 0)"/>
     <use xlink:href="#DejaVuSans-35" transform="translate(6047.265625 0)"/>
     <use xlink:href="#DejaVuSans-44" transform="translate(6114.546875 0)"/>
     <use xlink:href="#DejaVuSans-4c" transform="translate(6175.828125 0)"/>
     <use xlink:href="#DejaVuSans-51" transform="translate(6203.609375 0)"/>
     <use xlink:href="#DejaVuSans-3" transform="translate(6266.984375 0)"/>
     <use xlink:href="#DejaVuSans-25" transform="translate(6298.765625 0)"/>
     <use xlink:href="#DejaVuSans-4c" transform="translate(6367.375 0)"/>
     <use xlink:href="#DejaVuSans-55" transform="translate(6395.15625 0)"/>
     <use xlink:href="#DejaVuSans-47" transform="translate(6434.515625 0)"/>
     <use xlink:href="#DejaVuSans-3" transform="translate(6498 0)"/>
     <use xlink:href="#DejaVuSans-28" transform="translate(6529.78125 0)"/>
     <use xlink:href="#DejaVuSans-36" transform="translate(6592.96875 0)"/>
     <use xlink:href="#DejaVuSans-33" transform="translate(6656.453125 0)"/>
     <use xlink:href="#DejaVuSans-10" transform="translate(6714.546875 0)"/>
     <use xlink:href="#DejaVuSans-19" transform="translate(6750.625 0)"/>
     <use xlink:href="#DejaVuSans-36" transform="translate(6814.25 0)"/>
     <use xlink:href="#DejaVuSans-4c" transform="translate(6877.734375 0)"/>
     <use xlink:href="#DejaVuSans-3" transform="translate(6905.515625 0)"/>
     <use xlink:href="#DejaVuSans-55" transform="translate(6937.296875 0)"/>
     <use xlink:href="#DejaVuSans-48" transform="translate(6976.203125 0)"/>
     <use xlink:href="#DejaVuSans-57" transform="translate(7037.734375 0)"/>
     <use xlink:href="#DejaVuSans-55" transform="translate(7076.9375 0)"/>
     <use xlink:href="#DejaVuSans-52" transform="translate(7115.84375 0)"/>
     <use xlink:href="#DejaVuSans-13af" transform="translate(7177.03125 0)"/>
     <use xlink:href="#DejaVuSans-57" transform="translate(7240.015625 0)"/>
     <use xlink:href="#DejaVuSans-c" transform="translate(7279.21875 0)"/>
    </g>
   </g>
   <g id="patch_8">
    <path d="M 419.306406 32.98 
C 420.022455 32.98 420.709272 32.695511 421.215595 32.189188 
C 421.721917 31.682866 422.006406 30.996048 422.006406 30.28 
C 422.006406 29.563952 421.721917 28.877134 421.215595 28.370812 
C 420.709272 27.864489 420.022455 27.58 419.306406 27.58 
C 418.590358 27.58 417.903541 27.864489 417.397218 28.370812 
C 416.890895 28.877134 416.606406 29.563952 416.606406 30.28 
C 416.606406 30.996048 416.890895 31.682866 417.397218 32.189188 
C 417.903541 32.695511 418.590358 32.98 419.306406 32.98 
z
" clip-path="url(#p5f65e0073b)" style="stroke: #000000; stroke-width: 1.4; stroke-linejoin: miter"/>
   </g>
   <g id="patch_9">
    <path d="M 275.306406 32.98 
C 276.022455 32.98 276.709272 32.695511 277.215595 32.189188 
C 277.721917 31.682866 278.006406 30.996048 278.006406 30.28 
C 278.006406 29.563952 277.721917 28.877134 277.215595 28.370812 
C 276.709272 27.864489 276.022455 27.58 275.306406 27.58 
C 274.590358 27.58 273.903541 27.864489 273.397218 28.370812 
C 272.890895 28.877134 272.606406 29.563952 272.606406 30.28 
C 272.606406 30.996048 272.890895 31.682866 273.397218 32.189188 
C 273.903541 32.695511 274.590358 32.98 275.306406 32.98 
z
" clip-path="url(#p5f65e0073b)" style="stroke: #000000; stroke-width: 1.4; stroke-linejoin: miter"/>
   </g>
   <g id="patch_10">
    <path d="M 275.306406 140.98 
C 276.022455 140.98 276.709272 140.695511 277.215595 140.189188 
C 277.721917 139.682866 278.006406 138.996048 278.006406 138.28 
C 278.006406 137.563952 277.721917 136.877134 277.215595 136.370812 
C 276.709272 135.864489 276.022455 135.58 275.306406 135.58 
C 274.590358 135.58 273.903541 135.864489 273.397218 136.370812 
C 272.890895 136.877134 272.606406 137.563952 272.606406 138.28 
C 272.606406 138.996048 272.890895 139.682866 273.397218 140.189188 
C 273.903541 140.695511 274.590358 140.98 275.306406 140.98 
z
" clip-path="url(#p5f65e0073b)" style="stroke: #000000; stroke-width: 1.4; stroke-linejoin: miter"/>
   </g>
   <g id="patch_11">
    <path d="M 275.306406 194.98 
C 276.022455 194.98 276.709272 194.695511 277.215595 194.189188 
C 277.721917 193.682866 278.006406 192.996048 278.006406 192.28 
C 278.006406 191.563952 277.721917 190.877134 277.215595 190.370812 
C 276.709272 189.864489 276.022455 189.58 275.306406 189.58 
C 274.590358 189.58 273.903541 189.864489 273.397218 190.370812 
C 272.890895 190.877134 272.606406 191.563952 272.606406 192.28 
C 272.606406 192.996048 272.890895 193.682866 273.397218 194.189188 
C 273.903541 194.695511 274.590358 194.98 275.306406 194.98 
z
" clip-path="url(#p5f65e0073b)" style="stroke: #000000; stroke-width: 1.4; stroke-linejoin: miter"/>
   </g>
   <g id="patch_12">
    <path d="M 140.246406 115.9 
C 140.962455 115.9 141.649272 115.615511 142.155595 115.109188 
C 142.661917 114.602866 142.946406 113.916048 142.946406 113.2 
C 142.946406 112.483952 142.661917 111.797134 142.155595 111.290812 
C 141.649272 110.784489 140.962455 110.5 140.246406 110.5 
C 139.530358 110.5 138.843541 110.784489 138.337218 111.290812 
C 137.830895 111.797134 137.546406 112.483952 137.546406 113.2 
C 137.546406 113.916048 137.830895 114.602866 138.337218 115.109188 
C 138.843541 115.615511 139.530358 115.9 140.246406 115.9 
z
" clip-path="url(#p5f65e0073b)" style="stroke: #000000; stroke-width: 1.4; stroke-linejoin: miter"/>
   </g>
   <g id="patch_13">
    <path d="M 104.246406 173.5 
C 104.962455 173.5 105.649272 173.215511 106.155595 172.709188 
C 106.661917 172.202866 106.946406 171.516048 106.946406 170.8 
C 106.946406 170.083952 106.661917 169.397134 106.155595 168.890812 
C 105.649272 168.384489 104.962455 168.1 104.246406 168.1 
C 103.530358 168.1 102.843541 168.384489 102.337218 168.890812 
C 101.830895 169.397134 101.546406 170.083952 101.546406 170.8 
C 101.546406 171.516048 101.830895 172.202866 102.337218 172.709188 
C 102.843541 173.215511 103.530358 173.5 104.246406 173.5 
z
" clip-path="url(#p5f65e0073b)" style="fill: #ffffff; stroke: #000000; stroke-width: 1.4; stroke-linejoin: miter"/>
   </g>
   <g id="text_31">
    <!-- HEARTBEAT -->
    <g transform="translate(33.751094 158.309844) scale(0.11 -0.11)">
     <use xlink:href="#DejaVuSans-2b"/>
     <use xlink:href="#DejaVuSans-28" transform="translate(75.203125 0)"/>
     <use xlink:href="#DejaVuSans-24" transform="translate(138.390625 0)"/>
     <use xlink:href="#DejaVuSans-35" transform="translate(206.796875 0)"/>
     <use xlink:href="#DejaVuSans-37" transform="translate(269 0)"/>
     <use xlink:href="#DejaVuSans-25" transform="translate(330.078125 0)"/>
     <use xlink:href="#DejaVuSans-28" transform="translate(398.6875 0)"/>
     <use xlink:href="#DejaVuSans-24" transform="translate(461.875 0)"/>
     <use xlink:href="#DejaVuSans-37" transform="translate(522.515625 0)"/>
    </g>
    <!-- Pi GPIO27 -->
    <g transform="translate(43.946719 169.400937) scale(0.11 -0.11)">
     <use xlink:href="#DejaVuSans-33"/>
     <use xlink:href="#DejaVuSans-4c" transform="translate(58.09375 0)"/>
     <use xlink:href="#DejaVuSans-3" transform="translate(85.875 0)"/>
     <use xlink:href="#DejaVuSans-2a" transform="translate(117.65625 0)"/>
     <use xlink:href="#DejaVuSans-33" transform="translate(195.140625 0)"/>
     <use xlink:href="#DejaVuSans-2c" transform="translate(255.4375 0)"/>
     <use xlink:href="#DejaVuSans-32" transform="translate(284.9375 0)"/>
     <use xlink:href="#DejaVuSans-15" transform="translate(363.65625 0)"/>
     <use xlink:href="#DejaVuSans-1a" transform="translate(427.28125 0)"/>
    </g>
    <!-- idle HIGH -->
    <g transform="translate(46.273906 180.400937) scale(0.11 -0.11)">
     <use xlink:href="#DejaVuSans-4c"/>
     <use xlink:href="#DejaVuSans-47" transform="translate(27.78125 0)"/>
     <use xlink:href="#DejaVuSans-4f" transform="translate(91.265625 0)"/>
     <use xlink:href="#DejaVuSans-48" transform="translate(119.046875 0)"/>
     <use xlink:href="#DejaVuSans-3" transform="translate(180.578125 0)"/>
     <use xlink:href="#DejaVuSans-2b" transform="translate(212.359375 0)"/>
     <use xlink:href="#DejaVuSans-2c" transform="translate(287.5625 0)"/>
     <use xlink:href="#DejaVuSans-2a" transform="translate(317.0625 0)"/>
     <use xlink:href="#DejaVuSans-2b" transform="translate(394.546875 0)"/>
    </g>
    <!-- 50ms LOW pulses -->
    <g transform="translate(0 190.335312) scale(0.11 -0.11)">
     <use xlink:href="#DejaVuSans-18"/>
     <use xlink:href="#DejaVuSans-13" transform="translate(63.625 0)"/>
     <use xlink:href="#DejaVuSans-50" transform="translate(127.25 0)"/>
     <use xlink:href="#DejaVuSans-56" transform="translate(224.65625 0)"/>
     <use xlink:href="#DejaVuSans-3" transform="translate(276.75 0)"/>
     <use xlink:href="#DejaVuSans-2f" transform="translate(308.53125 0)"/>
     <use xlink:href="#DejaVuSans-32" transform="translate(360.6875 0)"/>
     <use xlink:href="#DejaVuSans-3a" transform="translate(439.40625 0)"/>
     <use xlink:href="#DejaVuSans-3" transform="translate(538.28125 0)"/>
     <use xlink:href="#DejaVuSans-53" transform="translate(570.0625 0)"/>
     <use xlink:href="#DejaVuSans-58" transform="translate(633.546875 0)"/>
     <use xlink:href="#DejaVuSans-4f" transform="translate(696.921875 0)"/>
     <use xlink:href="#DejaVuSans-56" transform="translate(724.703125 0)"/>
     <use xlink:href="#DejaVuSans-48" transform="translate(776.796875 0)"/>
     <use xlink:href="#DejaVuSans-56" transform="translate(838.328125 0)"/>
    </g>
   </g>
   <g id="patch_14">
    <path d="M 741.566406 99.7 
C 742.282455 99.7 742.969272 99.415511 743.475595 98.909188 
C 743.981917 98.402866 744.266406 97.716048 744.266406 97 
C 744.266406 96.283952 743.981917 95.597134 743.475595 95.090812 
C 742.969272 94.584489 742.282455 94.3 741.566406 94.3 
C 740.850358 94.3 740.163541 94.584489 739.657218 95.090812 
C 739.150895 95.597134 738.866406 96.283952 738.866406 97 
C 738.866406 97.716048 739.150895 98.402866 739.657218 98.909188 
C 740.163541 99.415511 740.850358 99.7 741.566406 99.7 
z
" clip-path="url(#p5f65e0073b)" style="fill: #ffffff; stroke: #000000; stroke-width: 1.4; stroke-linejoin: miter"/>
   </g>
   <g id="text_32">
    <!-- AUTH_BUS -&gt; transfer bank -->
    <g transform="translate(747.866406 94.382344) scale(0.11 -0.11)">
     <defs>
      <path id="DejaVuSans-42" d="M 3263 -1063 
L 3263 -1509 
L -63 -1509 
L -63 -1063 
L 3263 -1063 
z
" transform="scale(0.015625)"/>
      <path id="DejaVuSans-21" d="M 678 3150 
L 678 3719 
L 4684 2266 
L 4684 1747 
L 678 294 
L 678 863 
L 3897 2003 
L 678 3150 
z
" transform="scale(0.015625)"/>
      <path id="DejaVuSans-49" d="M 2375 4863 
L 2375 4384 
L 1825 4384 
Q 1516 4384 1395 4259 
Q 1275 4134 1275 3809 
L 1275 3500 
L 2222 3500 
L 2222 3053 
L 1275 3053 
L 1275 0 
L 697 0 
L 697 3053 
L 147 3053 
L 147 3500 
L 697 3500 
L 697 3744 
Q 697 4328 969 4595 
Q 1241 4863 1831 4863 
L 2375 4863 
z
" transform="scale(0.015625)"/>
      <path id="DejaVuSans-45" d="M 3116 1747 
Q 3116 2381 2855 2742 
Q 2594 3103 2138 3103 
Q 1681 3103 1420 2742 
Q 1159 2381 1159 1747 
Q 1159 1113 1420 752 
Q 1681 391 2138 391 
Q 2594 391 2855 752 
Q 3116 1113 3116 1747 
z
M 1159 2969 
Q 1341 3281 1617 3432 
Q 1894 3584 2278 3584 
Q 2916 3584 3314 3078 
Q 3713 2572 3713 1747 
Q 3713 922 3314 415 
Q 2916 -91 2278 -91 
Q 1894 -91 1617 61 
Q 1341 213 1159 525 
L 1159 0 
L 581 0 
L 581 4863 
L 1159 4863 
L 1159 2969 
z
" transform="scale(0.015625)"/>
     </defs>
     <use xlink:href="#DejaVuSans-24"/>
     <use xlink:href="#DejaVuSans-38" transform="translate(68.40625 0)"/>
     <use xlink:href="#DejaVuSans-37" transform="translate(141.59375 0)"/>
     <use xlink:href="#DejaVuSans-2b" transform="translate(202.671875 0)"/>
     <use xlink:href="#DejaVuSans-42" transform="translate(277.875 0)"/>
     <use xlink:href="#DejaVuSans-25" transform="translate(327.875 0)"/>
     <use xlink:href="#DejaVuSans-38" transform="translate(396.484375 0)"/>
     <use xlink:href="#DejaVuSans-36" transform="translate(469.671875 0)"/>
     <use xlink:href="#DejaVuSans-3" transform="translate(533.15625 0)"/>
     <use xlink:href="#DejaVuSans-10" transform="translate(564.9375 0)"/>
     <use xlink:href="#DejaVuSans-21" transform="translate(601.015625 0)"/>
     <use xlink:href="#DejaVuSans-3" transform="translate(684.8125 0)"/>
     <use xlink:href="#DejaVuSans-57" transform="translate(716.59375 0)"/>
     <use xlink:href="#DejaVuSans-55" transform="translate(755.796875 0)"/>
     <use xlink:href="#DejaVuSans-44" transform="translate(796.90625 0)"/>
     <use xlink:href="#DejaVuSans-51" transform="translate(858.1875 0)"/>
     <use xlink:href="#DejaVuSans-56" transform="translate(921.5625 0)"/>
     <use xlink:href="#DejaVuSans-49" transform="translate(973.65625 0)"/>
     <use xlink:href="#DejaVuSans-48" transform="translate(1008.859375 0)"/>
     <use xlink:href="#DejaVuSans-55" transform="translate(1070.390625 0)"/>
     <use xlink:href="#DejaVuSans-3" transform="translate(1111.5 0)"/>
     <use xlink:href="#DejaVuSans-45" transform="translate(1143.28125 0)"/>
     <use xlink:href="#DejaVuSans-44" transform="translate(1206.765625 0)"/>
     <use xlink:href="#DejaVuSans-51" transform="translate(1268.046875 0)"/>
     <use xlink:href="#DejaVuSans-4e" transform="translate(1331.421875 0)"/>
    </g>
    <!-- IN1..8 tied (active LOW) -->
    <g transform="translate(747.866406 105.953828) scale(0.11 -0.11)">
     <use xlink:href="#DejaVuSans-2c"/>
     <use xlink:href="#DejaVuSans-31" transform="translate(29.5 0)"/>
     <use xlink:href="#DejaVuSans-14" transform="translate(104.3125 0)"/>
     <use xlink:href="#DejaVuSans-11" transform="translate(167.9375 0)"/>
     <use xlink:href="#DejaVuSans-11" transform="translate(199.71875 0)"/>
     <use xlink:href="#DejaVuSans-1b" transform="translate(231.5 0)"/>
     <use xlink:href="#DejaVuSans-3" transform="translate(295.125 0)"/>
     <use xlink:href="#DejaVuSans-57" transform="translate(326.90625 0)"/>
     <use xlink:href="#DejaVuSans-4c" transform="translate(366.109375 0)"/>
     <use xlink:href="#DejaVuSans-48" transform="translate(393.890625 0)"/>
     <use xlink:href="#DejaVuSans-47" transform="translate(455.421875 0)"/>
     <use xlink:href="#DejaVuSans-3" transform="translate(518.90625 0)"/>
     <use xlink:href="#DejaVuSans-b" transform="translate(550.6875 0)"/>
     <use xlink:href="#DejaVuSans-44" transform="translate(589.703125 0)"/>
     <use xlink:href="#DejaVuSans-46" transform="translate(650.984375 0)"/>
     <use xlink:href="#DejaVuSans-57" transform="translate(705.96875 0)"/>
     <use xlink:href="#DejaVuSans-4c" transform="translate(745.171875 0)"/>
     <use xlink:href="#DejaVuSans-59" transform="translate(772.953125 0)"/>
     <use xlink:href="#DejaVuSans-48" transform="translate(832.140625 0)"/>
     <use xlink:href="#DejaVuSans-3" transform="translate(893.671875 0)"/>
     <use xlink:href="#DejaVuSans-2f" transform="translate(925.453125 0)"/>
     <use xlink:href="#DejaVuSans-32" transform="translate(977.609375 0)"/>
     <use xlink:href="#DejaVuSans-3a" transform="translate(1056.328125 0)"/>
     <use xlink:href="#DejaVuSans-c" transform="translate(1155.203125 0)"/>
    </g>
   </g>
   <g id="patch_15">
    <path d="M 588.506406 349.78 
C 589.222455 349.78 589.909272 349.495511 590.415595 348.989188 
C 590.921917 348.482866 591.206406 347.796048 591.206406 347.08 
C 591.206406 346.363952 590.921917 345.677134 590.415595 345.170812 
C 589.909272 344.664489 589.222455 344.38 588.506406 344.38 
C 587.790358 344.38 587.103541 344.664489 586.597218 345.170812 
C 586.090895 345.677134 585.806406 346.363952 585.806406 347.08 
C 585.806406 347.796048 586.090895 348.482866 586.597218 348.989188 
C 587.103541 349.495511 587.790358 349.78 588.506406 349.78 
z
" clip-path="url(#p5f65e0073b)" style="fill: #ffffff; stroke: #000000; stroke-width: 1.4; stroke-linejoin: miter"/>
   </g>
   <g id="text_33">
    <!-- AUTHORITY  Pi GPIO17 (pull-down, active HIGH) -->
    <g transform="translate(457.218828 361.915312) scale(0.11 -0.11)">
     <use xlink:href="#DejaVuSans-24"/>
     <use xlink:href="#DejaVuSans-38" transform="translate(68.40625 0)"/>
     <use xlink:href="#DejaVuSans-37" transform="translate(141.59375 0)"/>
     <use xlink:href="#DejaVuSans-2b" transform="translate(202.671875 0)"/>
     <use xlink:href="#DejaVuSans-32" transform="translate(277.875 0)"/>
     <use xlink:href="#DejaVuSans-35" transform="translate(356.59375 0)"/>
     <use xlink:href="#DejaVuSans-2c" transform="translate(426.078125 0)"/>
     <use xlink:href="#DejaVuSans-37" transform="translate(455.578125 0)"/>
     <use xlink:href="#DejaVuSans-3c" transform="translate(516.65625 0)"/>
     <use xlink:href="#DejaVuSans-3" transform="translate(577.734375 0)"/>
     <use xlink:href="#DejaVuSans-3" transform="translate(609.515625 0)"/>
     <use xlink:href="#DejaVuSans-33" transform="translate(641.296875 0)"/>
     <use xlink:href="#DejaVuSans-4c" transform="translate(699.390625 0)"/>
     <use xlink:href="#DejaVuSans-3" transform="translate(727.171875 0)"/>
     <use xlink:href="#DejaVuSans-2a" transform="translate(758.953125 0)"/>
     <use xlink:href="#DejaVuSans-33" transform="translate(836.4375 0)"/>
     <use xlink:href="#DejaVuSans-2c" transform="translate(896.734375 0)"/>
     <use xlink:href="#DejaVuSans-32" transform="translate(926.234375 0)"/>
     <use xlink:href="#DejaVuSans-14" transform="translate(1004.953125 0)"/>
     <use xlink:href="#DejaVuSans-1a" transform="translate(1068.578125 0)"/>
     <use xlink:href="#DejaVuSans-3" transform="translate(1132.203125 0)"/>
     <use xlink:href="#DejaVuSans-b" transform="translate(1163.984375 0)"/>
     <use xlink:href="#DejaVuSans-53" transform="translate(1203 0)"/>
     <use xlink:href="#DejaVuSans-58" transform="translate(1266.484375 0)"/>
     <use xlink:href="#DejaVuSans-4f" transform="translate(1329.859375 0)"/>
     <use xlink:href="#DejaVuSans-4f" transform="translate(1357.640625 0)"/>
     <use xlink:href="#DejaVuSans-10" transform="translate(1385.421875 0)"/>
     <use xlink:href="#DejaVuSans-47" transform="translate(1421.5 0)"/>
     <use xlink:href="#DejaVuSans-52" transform="translate(1484.984375 0)"/>
     <use xlink:href="#DejaVuSans-5a" transform="translate(1546.171875 0)"/>
     <use xlink:href="#DejaVuSans-51" transform="translate(1627.953125 0)"/>
     <use xlink:href="#DejaVuSans-f" transform="translate(1691.328125 0)"/>
     <use xlink:href="#DejaVuSans-3" transform="translate(1723.109375 0)"/>
     <use xlink:href="#DejaVuSans-44" transform="translate(1754.890625 0)"/>
     <use xlink:href="#DejaVuSans-46" transform="translate(1816.171875 0)"/>
     <use xlink:href="#DejaVuSans-57" transform="translate(1871.15625 0)"/>
     <use xlink:href="#DejaVuSans-4c" transform="translate(1910.359375 0)"/>
     <use xlink:href="#DejaVuSans-59" transform="translate(1938.140625 0)"/>
     <use xlink:href="#DejaVuSans-48" transform="translate(1997.328125 0)"/>
     <use xlink:href="#DejaVuSans-3" transform="translate(2058.859375 0)"/>
     <use xlink:href="#DejaVuSans-2b" transform="translate(2090.640625 0)"/>
     <use xlink:href="#DejaVuSans-2c" transform="translate(2165.84375 0)"/>
     <use xlink:href="#DejaVuSans-2a" transform="translate(2195.34375 0)"/>
     <use xlink:href="#DejaVuSans-2b" transform="translate(2272.828125 0)"/>
     <use xlink:href="#DejaVuSans-c" transform="translate(2348.03125 0)"/>
    </g>
   </g>
  </g>
 </g>
 <defs>
  <clipPath id="p5f65e0073b">
   <rect x="2.780406" y="0" width="887.574" height="405.06"/>
  </clipPath>
 </defs>
</svg>
