<?xml version="1.0" encoding="utf-8" standalone="no"?>
<!DOCTYPE svg PUBLIC "-//W3C//DTD SVG 1.1//EN"
  "http://www.w3.org/Graphics/SVG/1.1/DTD/svg11.dtd">
<svg xmlns:xlink="http://www.w3.org/1999/xlink" width="831.232094pt" height="313.2pt" viewBox="0 0 831.232094 313.2" xmlns="http://www.w3.org/2000/svg" version="1.1">
 <metadata>
  <rdf:RDF xmlns:dc="http://purl.org/dc/elements/1.1/" xmlns:cc="http://creativecommons.org/ns#" xmlns:rdf="http://www.w3.org/1999/02/22-rdf-syntax-ns#">
   <cc:Work>
    <dc:type rdf:resource="http://purl.org/dc/dcmitype/StillImage"/>
    <dc:date>2026-07-09T20:24:30.035522</dc:date>
    <dc:format>image/svg+xml</dc:format>
    <dc:creator>
     <cc:Agent>
      <dc:title>Matplotlib v3.11.0, https://matplotlib.org/</dc:title>
     </cc:Agent>
    </dc:creator>
   </cc:Work>
  </rdf:RDF>
 </metadata>
 <defs>
  <style type="text/css">*{stroke-linejoin: round; stroke-linecap: butt}</style>
 </defs>
 <g id="figure_1">
  <g id="patch_1">
   <path d="M 0 313.2 
L 831.232094 313.2 
L 831.232094 0 
L 0 0 
L 0 313.2 
z
" style="fill: none"/>
  </g>
  <g id="axes_1">
   <g id="line2d_1">
    <path d="M 85.207813 141.48 
L 121.207813 141.48 
L 124.207813 132.48 
L 130.207813 150.48 
L 136.207813 132.48 
L 142.207813 150.48 
L 148.207813 132.48 
L 154.207813 150.48 
L 157.207813 141.48 
L 193.207813 141.48 
" clip-path="url(#pdd85c3f5f1)" style="fill: none; stroke: #000000; stroke-width: 1.4; stroke-linecap: round"/>
   </g>
   <g id="line2d_2">
    <path d="M 214.807813 161.28 
L 315.607813 161.28 
L 315.607813 71.28 
L 214.807813 71.28 
L 214.807813 161.28 
" clip-path="url(#pdd85c3f5f1)" style="fill: none; stroke: #000000; stroke-width: 1.4; stroke-linecap: round"/>
   </g>
   <g id="line2d_3">
    <path d="M 214.807813 141.48 
L 193.207813 141.48 
" clip-path="url(#pdd85c3f5f1)" style="fill: none; stroke: #000000; stroke-width: 1.4; stroke-linecap: round"/>
   </g>
   <g id="line2d_4">
    <path d="M 214.807813 91.08 
L 193.207813 91.08 
" clip-path="url(#pdd85c3f5f1)" style="fill: none; stroke: #000000; stroke-width: 1.4; stroke-linecap: round"/>
   </g>
   <g id="line2d_5">
    <path d="M 315.607813 141.48 
L 337.207813 141.48 
" clip-path="url(#pdd85c3f5f1)" style="fill: none; stroke: #000000; stroke-width: 1.4; stroke-linecap: round"/>
   </g>
   <g id="line2d_6">
    <path d="M 315.607813 91.08 
L 337.207813 91.08 
" clip-path="url(#pdd85c3f5f1)" style="fill: none; stroke: #000000; stroke-width: 1.4; stroke-linecap: round"/>
   </g>
   <g id="line2d_7">
    <path d="M 193.207813 91.08 
L 164.407813 91.08 
L 135.607813 91.08 
" clip-path="url(#pdd85c3f5f1)" style="fill: none; stroke: #000000; stroke-width: 1.4; stroke-linecap: round"/>
   </g>
   <g id="line2d_8">
    <path d="M 135.607813 91.08 
L 135.607813 137.88 
L 135.607813 184.68 
" clip-path="url(#pdd85c3f5f1)" style="fill: none; stroke: #000000; stroke-width: 1.4; stroke-linecap: round"/>
   </g>
   <g id="line2d_9">
    <path d="M 135.607813 184.68 
L 110.407813 184.68 
L 85.207813 184.68 
" clip-path="url(#pdd85c3f5f1)" style="fill: none; stroke: #000000; stroke-width: 1.4; stroke-linecap: round"/>
   </g>
   <g id="line2d_10">
    <path d="M 337.207813 141.48 
L 355.207813 141.48 
L 373.207813 141.48 
" clip-path="url(#pdd85c3f5f1)" style="fill: none; stroke: #000000; stroke-width: 1.4; stroke-linecap: round"/>
   </g>
   <g id="line2d_11">
    <path d="M 373.207813 141.48 
L 373.207813 105.48 
L 364.207813 102.48 
L 382.207813 96.48 
L 364.207813 90.48 
L 382.207813 84.48 
L 364.207813 78.48 
L 382.207813 72.48 
L 373.207813 69.48 
L 373.207813 33.48 
" clip-path="url(#pdd85c3f5f1)" style="fill: none; stroke: #000000; stroke-width: 1.4; stroke-linecap: round"/>
   </g>
   <g id="line2d_12">
    <path d="M 373.207813 33.48 
L 373.207813 19.08 
L 373.207813 4.68 
" clip-path="url(#pdd85c3f5f1)" style="fill: none; stroke: #000000; stroke-width: 1.4; stroke-linecap: round"/>
   </g>
   <g id="line2d_13">
    <path d="M 373.207813 141.48 
L 373.207813 192.24 
M 382.207813 192.24 
L 364.207813 192.24 
M 382.207813 198.72 
L 364.207813 198.72 
M 373.207813 198.72 
L 373.207813 249.48 
" clip-path="url(#pdd85c3f5f1)" style="fill: none; stroke: #000000; stroke-width: 1.4; stroke-linecap: round"/>
   </g>
   <g id="line2d_14">
    <path d="M 373.207813 249.48 
L 373.207813 263.88 
L 364.207813 263.88 
L 382.207813 263.88 
M 366.907813 268.2 
L 379.507812 268.2 
M 371.407813 272.52 
L 375.007812 272.52 
" clip-path="url(#pdd85c3f5f1)" style="fill: none; stroke: #000000; stroke-width: 1.4; stroke-linecap: round"/>
   </g>
   <g id="line2d_15">
    <path d="M 373.207813 141.48 
L 402.007813 141.48 
L 430.807813 141.48 
" clip-path="url(#pdd85c3f5f1)" style="fill: none; stroke: #000000; stroke-width: 1.4; stroke-linecap: round"/>
   </g>
   <g id="line2d_16">
    <path d="M 337.207813 91.08 
L 348.007813 91.08 
L 358.807813 91.08 
" clip-path="url(#pdd85c3f5f1)" style="fill: none; stroke: #000000; stroke-width: 1.4; stroke-linecap: round"/>
   </g>
   <g id="line2d_17">
    <path d="M 358.807813 91.08 
L 358.807813 119.88 
L 358.807813 148.68 
" clip-path="url(#pdd85c3f5f1)" style="fill: none; stroke: #000000; stroke-width: 1.4; stroke-linecap: round"/>
   </g>
   <g id="line2d_18">
    <path d="M 358.807813 148.68 
L 358.807813 163.08 
L 349.807813 163.08 
L 367.807813 163.08 
M 352.507813 167.4 
L 365.107813 167.4 
M 357.007813 171.72 
L 360.607813 171.72 
" clip-path="url(#pdd85c3f5f1)" style="fill: none; stroke: #000000; stroke-width: 1.4; stroke-linecap: round"/>
   </g>
   <g id="text_1">
    <!-- Rs -->
    <g transform="translate(132.521016 116.311641) scale(0.11 -0.11)">
     <defs>
      <path id="DejaVuSans-35" d="M 2841 2188 
Q 3044 2119 3236 1894 
Q 3428 1669 3622 1275 
L 4263 0 
L 3584 0 
L 2988 1197 
Q 2756 1666 2539 1819 
Q 2322 1972 1947 1972 
L 1259 1972 
L 1259 0 
L 628 0 
L 628 4666 
L 2053 4666 
Q 2853 4666 3247 4331 
Q 3641 3997 3641 3322 
Q 3641 2881 3436 2590 
Q 3231 2300 2841 2188 
z
M 1259 4147 
L 1259 2491 
L 2053 2491 
Q 2509 2491 2742 2702 
Q 2975 2913 2975 3322 
Q 2975 3731 2742 3939 
Q 2509 4147 2053 4147 
L 1259 4147 
z
" transform="scale(0.015625)"/>
      <path id="DejaVuSans-56" d="M 2834 3397 
L 2834 2853 
Q 2591 2978 2328 3040 
Q 2066 3103 1784 3103 
Q 1356 3103 1142 2972 
Q 928 2841 928 2578 
Q 928 2378 1081 2264 
Q 1234 2150 1697 2047 
L 1894 2003 
Q 2506 1872 2764 1633 
Q 3022 1394 3022 966 
Q 3022 478 2636 193 
Q 2250 -91 1575 -91 
Q 1294 -91 989 -36 
Q 684 19 347 128 
L 347 722 
Q 666 556 975 473 
Q 1284 391 1588 391 
Q 1994 391 2212 530 
Q 2431 669 2431 922 
Q 2431 1156 2273 1281 
Q 2116 1406 1581 1522 
L 1381 1569 
Q 847 1681 609 1914 
Q 372 2147 372 2553 
Q 372 3047 722 3315 
Q 1072 3584 1716 3584 
Q 2034 3584 2315 3537 
Q 2597 3491 2834 3397 
z
" transform="scale(0.015625)"/>
     </defs>
     <use xlink:href="#DejaVuSans-35"/>
     <use xlink:href="#DejaVuSans-56" transform="translate(69.484375 0)"/>
    </g>
    <!-- 2.2k 1W -->
    <g transform="translate(116.590781 127.559141) scale(0.11 -0.11)">
     <defs>
      <path id="DejaVuSans-15" d="M 1228 531 
L 3431 531 
L 3431 0 
L 469 0 
L 469 531 
Q 828 903 1448 1529 
Q 2069 2156 2228 2338 
Q 2531 2678 2651 2914 
Q 2772 3150 2772 3378 
Q 2772 3750 2511 3984 
Q 2250 4219 1831 4219 
Q 1534 4219 1204 4116 
Q 875 4013 500 3803 
L 500 4441 
Q 881 4594 1212 4672 
Q 1544 4750 1819 4750 
Q 2544 4750 2975 4387 
Q 3406 4025 3406 3419 
Q 3406 3131 3298 2873 
Q 3191 2616 2906 2266 
Q 2828 2175 2409 1742 
Q 1991 1309 1228 531 
z
" transform="scale(0.015625)"/>
      <path id="DejaVuSans-11" d="M 684 794 
L 1344 794 
L 1344 0 
L 684 0 
L 684 794 
z
" transform="scale(0.015625)"/>
      <path id="DejaVuSans-4e" d="M 581 4863 
L 1159 4863 
L 1159 1991 
L 2875 3500 
L 3609 3500 
L 1753 1863 
L 3688 0 
L 2938 0 
L 1159 1709 
L 1159 0 
L 581 0 
L 581 4863 
z
" transform="scale(0.015625)"/>
      <path id="DejaVuSans-3" transform="scale(0.015625)"/>
      <path id="DejaVuSans-14" d="M 794 531 
L 1825 531 
L 1825 4091 
L 703 3866 
L 703 4441 
L 1819 4666 
L 2450 4666 
L 2450 531 
L 3481 531 
L 3481 0 
L 794 0 
L 794 531 
z
" transform="scale(0.015625)"/>
      <path id="DejaVuSans-3a" d="M 213 4666 
L 850 4666 
L 1831 722 
L 2809 4666 
L 3519 4666 
L 4500 722 
L 5478 4666 
L 6119 4666 
L 4947 0 
L 4153 0 
L 3169 4050 
L 2175 0 
L 1381 0 
L 213 4666 
z
" transform="scale(0.015625)"/>
     </defs>
     <use xlink:href="#DejaVuSans-15"/>
     <use xlink:href="#DejaVuSans-11" transform="translate(63.625 0)"/>
     <use xlink:href="#DejaVuSans-15" transform="translate(95.40625 0)"/>
     <use xlink:href="#DejaVuSans-4e" transform="translate(159.03125 0)"/>
     <use xlink:href="#DejaVuSans-3" transform="translate(216.9375 0)"/>
     <use xlink:href="#DejaVuSans-14" transform="translate(248.71875 0)"/>
     <use xlink:href="#DejaVuSans-3a" transform="translate(312.34375 0)"/>
    </g>
   </g>
   <g id="text_2">
    <!-- 1 -->
    <g transform="translate(205.109063 137.289844) scale(0.11 -0.11)">
     <use xlink:href="#DejaVuSans-14"/>
    </g>
   </g>
   <g id="text_3">
    <!-- A1 -->
    <g transform="translate(220.207813 146.583438) scale(0.14 -0.14)">
     <defs>
      <path id="DejaVuSans-24" d="M 2188 4044 
L 1331 1722 
L 3047 1722 
L 2188 4044 
z
M 1831 4666 
L 2547 4666 
L 4325 0 
L 3669 0 
L 3244 1197 
L 1141 1197 
L 716 0 
L 50 0 
L 1831 4666 
z
" transform="scale(0.015625)"/>
     </defs>
     <use xlink:href="#DejaVuSans-24"/>
     <use xlink:href="#DejaVuSans-14" transform="translate(68.40625 0)"/>
    </g>
   </g>
   <g id="text_4">
    <!-- 2 -->
    <g transform="translate(205.109063 86.962031) scale(0.11 -0.11)">
     <use xlink:href="#DejaVuSans-15"/>
    </g>
   </g>
   <g id="text_5">
    <!-- A2 -->
    <g transform="translate(220.207813 96.275312) scale(0.14 -0.14)">
     <use xlink:href="#DejaVuSans-24"/>
     <use xlink:href="#DejaVuSans-15" transform="translate(68.40625 0)"/>
    </g>
   </g>
   <g id="text_6">
    <!-- 5 -->
    <g transform="translate(318.307813 137.211641) scale(0.11 -0.11)">
     <defs>
      <path id="DejaVuSans-18" d="M 691 4666 
L 3169 4666 
L 3169 4134 
L 1269 4134 
L 1269 2991 
Q 1406 3038 1543 3061 
Q 1681 3084 1819 3084 
Q 2600 3084 3056 2656 
Q 3513 2228 3513 1497 
Q 3513 744 3044 326 
Q 2575 -91 1722 -91 
Q 1428 -91 1123 -41 
Q 819 9 494 109 
L 494 744 
Q 775 591 1075 516 
Q 1375 441 1709 441 
Q 2250 441 2565 725 
Q 2881 1009 2881 1497 
Q 2881 1984 2565 2268 
Q 2250 2553 1709 2553 
Q 1456 2553 1204 2497 
Q 953 2441 691 2322 
L 691 4666 
z
" transform="scale(0.015625)"/>
     </defs>
     <use xlink:href="#DejaVuSans-18"/>
    </g>
   </g>
   <g id="text_7">
    <!-- C -->
    <g transform="translate(300.431875 146.575781) scale(0.14 -0.14)">
     <defs>
      <path id="DejaVuSans-26" d="M 4122 4306 
L 4122 3641 
Q 3803 3938 3442 4084 
Q 3081 4231 2675 4231 
Q 1875 4231 1450 3742 
Q 1025 3253 1025 2328 
Q 1025 1406 1450 917 
Q 1875 428 2675 428 
Q 3081 428 3442 575 
Q 3803 722 4122 1019 
L 4122 359 
Q 3791 134 3420 21 
Q 3050 -91 2638 -91 
Q 1578 -91 968 557 
Q 359 1206 359 2328 
Q 359 3453 968 4101 
Q 1578 4750 2638 4750 
Q 3056 4750 3426 4639 
Q 3797 4528 4122 4306 
z
" transform="scale(0.015625)"/>
     </defs>
     <use xlink:href="#DejaVuSans-26"/>
    </g>
   </g>
   <g id="text_8">
    <!-- 4 -->
    <g transform="translate(318.307813 86.889844) scale(0.11 -0.11)">
     <defs>
      <path id="DejaVuSans-17" d="M 2419 4116 
L 825 1625 
L 2419 1625 
L 2419 4116 
z
M 2253 4666 
L 3047 4666 
L 3047 1625 
L 3713 1625 
L 3713 1100 
L 3047 1100 
L 3047 0 
L 2419 0 
L 2419 1100 
L 313 1100 
L 313 1709 
L 2253 4666 
z
" transform="scale(0.015625)"/>
     </defs>
     <use xlink:href="#DejaVuSans-17"/>
    </g>
   </g>
   <g id="text_9">
    <!-- E -->
    <g transform="translate(301.361563 96.183437) scale(0.14 -0.14)">
     <defs>
      <path id="DejaVuSans-28" d="M 628 4666 
L 3578 4666 
L 3578 4134 
L 1259 4134 
L 1259 2753 
L 3481 2753 
L 3481 2222 
L 1259 2222 
L 1259 531 
L 3634 531 
L 3634 0 
L 628 0 
L 628 4666 
z
" transform="scale(0.015625)"/>
     </defs>
     <use xlink:href="#DejaVuSans-28"/>
    </g>
   </g>
   <g id="text_10">
    <!-- U_n -->
    <g transform="translate(258.546875 104.393047) scale(0.11 -0.11)">
     <defs>
      <path id="DejaVuSans-38" d="M 556 4666 
L 1191 4666 
L 1191 1831 
Q 1191 1081 1462 751 
Q 1734 422 2344 422 
Q 2950 422 3222 751 
Q 3494 1081 3494 1831 
L 3494 4666 
L 4128 4666 
L 4128 1753 
Q 4128 841 3676 375 
Q 3225 -91 2344 -91 
Q 1459 -91 1007 375 
Q 556 841 556 1753 
L 556 4666 
z
" transform="scale(0.015625)"/>
      <path id="DejaVuSans-42" d="M 3263 -1063 
L 3263 -1509 
L -63 -1509 
L -63 -1063 
L 3263 -1063 
z
" transform="scale(0.015625)"/>
      <path id="DejaVuSans-51" d="M 3513 2113 
L 3513 0 
L 2938 0 
L 2938 2094 
Q 2938 2591 2744 2837 
Q 2550 3084 2163 3084 
Q 1697 3084 1428 2787 
Q 1159 2491 1159 1978 
L 1159 0 
L 581 0 
L 581 3500 
L 1159 3500 
L 1159 2956 
Q 1366 3272 1645 3428 
Q 1925 3584 2291 3584 
Q 2894 3584 3203 3211 
Q 3513 2838 3513 2113 
z
" transform="scale(0.015625)"/>
     </defs>
     <use xlink:href="#DejaVuSans-38"/>
     <use xlink:href="#DejaVuSans-42" transform="translate(73.1875 0)"/>
     <use xlink:href="#DejaVuSans-51" transform="translate(123.1875 0)"/>
    </g>
    <!-- H11AA1 -->
    <g transform="translate(246.495859 116.689844) scale(0.11 -0.11)">
     <defs>
      <path id="DejaVuSans-2b" d="M 628 4666 
L 1259 4666 
L 1259 2753 
L 3553 2753 
L 3553 4666 
L 4184 4666 
L 4184 0 
L 3553 0 
L 3553 2222 
L 1259 2222 
L 1259 0 
L 628 0 
L 628 4666 
z
" transform="scale(0.015625)"/>
     </defs>
     <use xlink:href="#DejaVuSans-2b"/>
     <use xlink:href="#DejaVuSans-14" transform="translate(75.203125 0)"/>
     <use xlink:href="#DejaVuSans-14" transform="translate(138.828125 0)"/>
     <use xlink:href="#DejaVuSans-24" transform="translate(202.453125 0)"/>
     <use xlink:href="#DejaVuSans-24" transform="translate(273.640625 0)"/>
     <use xlink:href="#DejaVuSans-14" transform="translate(342.046875 0)"/>
    </g>
    <!-- (AC-input opto) -->
    <g transform="translate(226.751719 126.715312) scale(0.11 -0.11)">
     <defs>
      <path id="DejaVuSans-b" d="M 1984 4856 
Q 1566 4138 1362 3434 
Q 1159 2731 1159 2009 
Q 1159 1288 1364 580 
Q 1569 -128 1984 -844 
L 1484 -844 
Q 1016 -109 783 600 
Q 550 1309 550 2009 
Q 550 2706 781 3412 
Q 1013 4119 1484 4856 
L 1984 4856 
z
" transform="scale(0.015625)"/>
      <path id="DejaVuSans-10" d="M 313 2009 
L 1997 2009 
L 1997 1497 
L 313 1497 
L 313 2009 
z
" transform="scale(0.015625)"/>
      <path id="DejaVuSans-4c" d="M 603 3500 
L 1178 3500 
L 1178 0 
L 603 0 
L 603 3500 
z
M 603 4863 
L 1178 4863 
L 1178 4134 
L 603 4134 
L 603 4863 
z
" transform="scale(0.015625)"/>
      <path id="DejaVuSans-53" d="M 1159 525 
L 1159 -1331 
L 581 -1331 
L 581 3500 
L 1159 3500 
L 1159 2969 
Q 1341 3281 1617 3432 
Q 1894 3584 2278 3584 
Q 2916 3584 3314 3078 
Q 3713 2572 3713 1747 
Q 3713 922 3314 415 
Q 2916 -91 2278 -91 
Q 1894 -91 1617 61 
Q 1341 213 1159 525 
z
M 3116 1747 
Q 3116 2381 2855 2742 
Q 2594 3103 2138 3103 
Q 1681 3103 1420 2742 
Q 1159 2381 1159 1747 
Q 1159 1113 1420 752 
Q 1681 391 2138 391 
Q 2594 391 2855 752 
Q 3116 1113 3116 1747 
z
" transform="scale(0.015625)"/>
      <path id="DejaVuSans-58" d="M 544 1381 
L 544 3500 
L 1119 3500 
L 1119 1403 
Q 1119 906 1312 657 
Q 1506 409 1894 409 
Q 2359 409 2629 706 
Q 2900 1003 2900 1516 
L 2900 3500 
L 3475 3500 
L 3475 0 
L 2900 0 
L 2900 538 
Q 2691 219 2414 64 
Q 2138 -91 1772 -91 
Q 1169 -91 856 284 
Q 544 659 544 1381 
z
M 1991 3584 
L 1991 3584 
z
" transform="scale(0.015625)"/>
      <path id="DejaVuSans-57" d="M 1172 4494 
L 1172 3500 
L 2356 3500 
L 2356 3053 
L 1172 3053 
L 1172 1153 
Q 1172 725 1289 603 
Q 1406 481 1766 481 
L 2356 481 
L 2356 0 
L 1766 0 
Q 1100 0 847 248 
Q 594 497 594 1153 
L 594 3053 
L 172 3053 
L 172 3500 
L 594 3500 
L 594 4494 
L 1172 4494 
z
" transform="scale(0.015625)"/>
      <path id="DejaVuSans-52" d="M 1959 3097 
Q 1497 3097 1228 2736 
Q 959 2375 959 1747 
Q 959 1119 1226 758 
Q 1494 397 1959 397 
Q 2419 397 2687 759 
Q 2956 1122 2956 1747 
Q 2956 2369 2687 2733 
Q 2419 3097 1959 3097 
z
M 1959 3584 
Q 2709 3584 3137 3096 
Q 3566 2609 3566 1747 
Q 3566 888 3137 398 
Q 2709 -91 1959 -91 
Q 1206 -91 779 398 
Q 353 888 353 1747 
Q 353 2609 779 3096 
Q 1206 3584 1959 3584 
z
" transform="scale(0.015625)"/>
      <path id="DejaVuSans-c" d="M 513 4856 
L 1013 4856 
Q 1481 4119 1714 3412 
Q 1947 2706 1947 2009 
Q 1947 1309 1714 600 
Q 1481 -109 1013 -844 
L 513 -844 
Q 928 -128 1133 580 
Q 1338 1288 1338 2009 
Q 1338 2731 1133 3434 
Q 928 4138 513 4856 
z
" transform="scale(0.015625)"/>
     </defs>
     <use xlink:href="#DejaVuSans-b"/>
     <use xlink:href="#DejaVuSans-24" transform="translate(39.015625 0)"/>
     <use xlink:href="#DejaVuSans-26" transform="translate(105.671875 0)"/>
     <use xlink:href="#DejaVuSans-10" transform="translate(175.5 0)"/>
     <use xlink:href="#DejaVuSans-4c" transform="translate(211.578125 0)"/>
     <use xlink:href="#DejaVuSans-51" transform="translate(239.359375 0)"/>
     <use xlink:href="#DejaVuSans-53" transform="translate(302.734375 0)"/>
     <use xlink:href="#DejaVuSans-58" transform="translate(366.21875 0)"/>
     <use xlink:href="#DejaVuSans-57" transform="translate(429.59375 0)"/>
     <use xlink:href="#DejaVuSans-3" transform="translate(468.796875 0)"/>
     <use xlink:href="#DejaVuSans-52" transform="translate(500.578125 0)"/>
     <use xlink:href="#DejaVuSans-53" transform="translate(561.765625 0)"/>
     <use xlink:href="#DejaVuSans-57" transform="translate(625.25 0)"/>
     <use xlink:href="#DejaVuSans-52" transform="translate(664.453125 0)"/>
     <use xlink:href="#DejaVuSans-c" transform="translate(725.640625 0)"/>
    </g>
   </g>
   <g id="text_11">
    <!-- +3.3V (Pi) -->
    <g transform="translate(313.846406 22.533828) scale(0.11 -0.11)">
     <defs>
      <path id="DejaVuSans-e" d="M 2944 4013 
L 2944 2272 
L 4684 2272 
L 4684 1741 
L 2944 1741 
L 2944 0 
L 2419 0 
L 2419 1741 
L 678 1741 
L 678 2272 
L 2419 2272 
L 2419 4013 
L 2944 4013 
z
" transform="scale(0.015625)"/>
      <path id="DejaVuSans-16" d="M 2597 2516 
Q 3050 2419 3304 2112 
Q 3559 1806 3559 1356 
Q 3559 666 3084 287 
Q 2609 -91 1734 -91 
Q 1441 -91 1130 -33 
Q 819 25 488 141 
L 488 750 
Q 750 597 1062 519 
Q 1375 441 1716 441 
Q 2309 441 2620 675 
Q 2931 909 2931 1356 
Q 2931 1769 2642 2001 
Q 2353 2234 1838 2234 
L 1294 2234 
L 1294 2753 
L 1863 2753 
Q 2328 2753 2575 2939 
Q 2822 3125 2822 3475 
Q 2822 3834 2567 4026 
Q 2313 4219 1838 4219 
Q 1578 4219 1281 4162 
Q 984 4106 628 3988 
L 628 4550 
Q 988 4650 1302 4700 
Q 1616 4750 1894 4750 
Q 2613 4750 3031 4423 
Q 3450 4097 3450 3541 
Q 3450 3153 3228 2886 
Q 3006 2619 2597 2516 
z
" transform="scale(0.015625)"/>
      <path id="DejaVuSans-39" d="M 1831 0 
L 50 4666 
L 709 4666 
L 2188 738 
L 3669 4666 
L 4325 4666 
L 2547 0 
L 1831 0 
z
" transform="scale(0.015625)"/>
      <path id="DejaVuSans-33" d="M 1259 4147 
L 1259 2394 
L 2053 2394 
Q 2494 2394 2734 2622 
Q 2975 2850 2975 3272 
Q 2975 3691 2734 3919 
Q 2494 4147 2053 4147 
L 1259 4147 
z
M 628 4666 
L 2053 4666 
Q 2838 4666 3239 4311 
Q 3641 3956 3641 3272 
Q 3641 2581 3239 2228 
Q 2838 1875 2053 1875 
L 1259 1875 
L 1259 0 
L 628 0 
L 628 4666 
z
" transform="scale(0.015625)"/>
     </defs>
     <use xlink:href="#DejaVuSans-e"/>
     <use xlink:href="#DejaVuSans-16" transform="translate(83.796875 0)"/>
     <use xlink:href="#DejaVuSans-11" transform="translate(147.421875 0)"/>
     <use xlink:href="#DejaVuSans-16" transform="translate(179.203125 0)"/>
     <use xlink:href="#DejaVuSans-39" transform="translate(242.828125 0)"/>
     <use xlink:href="#DejaVuSans-3" transform="translate(311.234375 0)"/>
     <use xlink:href="#DejaVuSans-b" transform="translate(343.015625 0)"/>
     <use xlink:href="#DejaVuSans-33" transform="translate(382.03125 0)"/>
     <use xlink:href="#DejaVuSans-4c" transform="translate(440.125 0)"/>
     <use xlink:href="#DejaVuSans-c" transform="translate(467.90625 0)"/>
    </g>
   </g>
   <g id="text_12">
    <!-- Rp 10k -->
    <g transform="translate(393.007812 108.515312) scale(0.11 -0.11)">
     <defs>
      <path id="DejaVuSans-13" d="M 2034 4250 
Q 1547 4250 1301 3770 
Q 1056 3291 1056 2328 
Q 1056 1369 1301 889 
Q 1547 409 2034 409 
Q 2525 409 2770 889 
Q 3016 1369 3016 2328 
Q 3016 3291 2770 3770 
Q 2525 4250 2034 4250 
z
M 2034 4750 
Q 2819 4750 3233 4129 
Q 3647 3509 3647 2328 
Q 3647 1150 3233 529 
Q 2819 -91 2034 -91 
Q 1250 -91 836 529 
Q 422 1150 422 2328 
Q 422 3509 836 4129 
Q 1250 4750 2034 4750 
z
" transform="scale(0.015625)"/>
     </defs>
     <use xlink:href="#DejaVuSans-35"/>
     <use xlink:href="#DejaVuSans-53" transform="translate(69.484375 0)"/>
     <use xlink:href="#DejaVuSans-3" transform="translate(132.96875 0)"/>
     <use xlink:href="#DejaVuSans-14" transform="translate(164.75 0)"/>
     <use xlink:href="#DejaVuSans-13" transform="translate(228.375 0)"/>
     <use xlink:href="#DejaVuSans-4e" transform="translate(292 0)"/>
    </g>
   </g>
   <g id="text_13">
    <!-- Cf 1uF -->
    <g transform="translate(393.007812 188.780937) scale(0.11 -0.11)">
     <defs>
      <path id="DejaVuSans-49" d="M 2375 4863 
L 2375 4384 
L 1825 4384 
Q 1516 4384 1395 4259 
Q 1275 4134 1275 3809 
L 1275 3500 
L 2222 3500 
L 2222 3053 
L 1275 3053 
L 1275 0 
L 697 0 
L 697 3053 
L 147 3053 
L 147 3500 
L 697 3500 
L 697 3744 
Q 697 4328 969 4595 
Q 1241 4863 1831 4863 
L 2375 4863 
z
" transform="scale(0.015625)"/>
      <path id="DejaVuSans-29" d="M 628 4666 
L 3309 4666 
L 3309 4134 
L 1259 4134 
L 1259 2759 
L 3109 2759 
L 3109 2228 
L 1259 2228 
L 1259 0 
L 628 0 
L 628 4666 
z
" transform="scale(0.015625)"/>
     </defs>
     <use xlink:href="#DejaVuSans-26"/>
     <use xlink:href="#DejaVuSans-49" transform="translate(69.828125 0)"/>
     <use xlink:href="#DejaVuSans-3" transform="translate(105.03125 0)"/>
     <use xlink:href="#DejaVuSans-14" transform="translate(136.8125 0)"/>
     <use xlink:href="#DejaVuSans-58" transform="translate(200.4375 0)"/>
     <use xlink:href="#DejaVuSans-29" transform="translate(263.8125 0)"/>
    </g>
   </g>
   <g id="text_14">
    <!-- TURFY SIDECAR v0.1  - -  SHEET 3: SENSE FRONT-END (typ. of 7)  - -  n: ST1..ST6 -&gt; GPIO 5,6,13,19,26,16;  MV -&gt; GPIO 20   (Rain Bird ESP-6Si retrofit) -->
    <g transform="translate(9.313812 306.055312) scale(0.11 -0.11)">
     <defs>
      <path id="DejaVuSans-37" d="M -19 4666 
L 3928 4666 
L 3928 4134 
L 2272 4134 
L 2272 0 
L 1638 0 
L 1638 4134 
L -19 4134 
L -19 4666 
z
" transform="scale(0.015625)"/>
      <path id="DejaVuSans-3c" d="M -13 4666 
L 666 4666 
L 1959 2747 
L 3244 4666 
L 3922 4666 
L 2272 2222 
L 2272 0 
L 1638 0 
L 1638 2222 
L -13 4666 
z
" transform="scale(0.015625)"/>
      <path id="DejaVuSans-36" d="M 3425 4513 
L 3425 3897 
Q 3066 4069 2747 4153 
Q 2428 4238 2131 4238 
Q 1616 4238 1336 4038 
Q 1056 3838 1056 3469 
Q 1056 3159 1242 3001 
Q 1428 2844 1947 2747 
L 2328 2669 
Q 3034 2534 3370 2195 
Q 3706 1856 3706 1288 
Q 3706 609 3251 259 
Q 2797 -91 1919 -91 
Q 1588 -91 1214 -16 
Q 841 59 441 206 
L 441 856 
Q 825 641 1194 531 
Q 1563 422 1919 422 
Q 2459 422 2753 634 
Q 3047 847 3047 1241 
Q 3047 1584 2836 1778 
Q 2625 1972 2144 2069 
L 1759 2144 
Q 1053 2284 737 2584 
Q 422 2884 422 3419 
Q 422 4038 858 4394 
Q 1294 4750 2059 4750 
Q 2388 4750 2728 4690 
Q 3069 4631 3425 4513 
z
" transform="scale(0.015625)"/>
      <path id="DejaVuSans-2c" d="M 628 4666 
L 1259 4666 
L 1259 0 
L 628 0 
L 628 4666 
z
" transform="scale(0.015625)"/>
      <path id="DejaVuSans-27" d="M 1259 4147 
L 1259 519 
L 2022 519 
Q 2988 519 3436 956 
Q 3884 1394 3884 2338 
Q 3884 3275 3436 3711 
Q 2988 4147 2022 4147 
L 1259 4147 
z
M 628 4666 
L 1925 4666 
Q 3281 4666 3915 4102 
Q 4550 3538 4550 2338 
Q 4550 1131 3912 565 
Q 3275 0 1925 0 
L 628 0 
L 628 4666 
z
" transform="scale(0.015625)"/>
      <path id="DejaVuSans-59" d="M 191 3500 
L 800 3500 
L 1894 563 
L 2988 3500 
L 3597 3500 
L 2284 0 
L 1503 0 
L 191 3500 
z
" transform="scale(0.015625)"/>
      <path id="DejaVuSans-1d" d="M 750 794 
L 1409 794 
L 1409 0 
L 750 0 
L 750 794 
z
M 750 3309 
L 1409 3309 
L 1409 2516 
L 750 2516 
L 750 3309 
z
" transform="scale(0.015625)"/>
      <path id="DejaVuSans-31" d="M 628 4666 
L 1478 4666 
L 3547 763 
L 3547 4666 
L 4159 4666 
L 4159 0 
L 3309 0 
L 1241 3903 
L 1241 0 
L 628 0 
L 628 4666 
z
" transform="scale(0.015625)"/>
      <path id="DejaVuSans-32" d="M 2522 4238 
Q 1834 4238 1429 3725 
Q 1025 3213 1025 2328 
Q 1025 1447 1429 934 
Q 1834 422 2522 422 
Q 3209 422 3611 934 
Q 4013 1447 4013 2328 
Q 4013 3213 3611 3725 
Q 3209 4238 2522 4238 
z
M 2522 4750 
Q 3503 4750 4090 4092 
Q 4678 3434 4678 2328 
Q 4678 1225 4090 567 
Q 3503 -91 2522 -91 
Q 1538 -91 948 565 
Q 359 1222 359 2328 
Q 359 3434 948 4092 
Q 1538 4750 2522 4750 
z
" transform="scale(0.015625)"/>
      <path id="DejaVuSans-5c" d="M 2059 -325 
Q 1816 -950 1584 -1140 
Q 1353 -1331 966 -1331 
L 506 -1331 
L 506 -850 
L 844 -850 
Q 1081 -850 1212 -737 
Q 1344 -625 1503 -206 
L 1606 56 
L 191 3500 
L 800 3500 
L 1894 763 
L 2988 3500 
L 3597 3500 
L 2059 -325 
z
" transform="scale(0.015625)"/>
      <path id="DejaVuSans-1a" d="M 525 4666 
L 3525 4666 
L 3525 4397 
L 1831 0 
L 1172 0 
L 2766 4134 
L 525 4134 
L 525 4666 
z
" transform="scale(0.015625)"/>
      <path id="DejaVuSans-19" d="M 2113 2584 
Q 1688 2584 1439 2293 
Q 1191 2003 1191 1497 
Q 1191 994 1439 701 
Q 1688 409 2113 409 
Q 2538 409 2786 701 
Q 3034 994 3034 1497 
Q 3034 2003 2786 2293 
Q 2538 2584 2113 2584 
z
M 3366 4563 
L 3366 3988 
Q 3128 4100 2886 4159 
Q 2644 4219 2406 4219 
Q 1781 4219 1451 3797 
Q 1122 3375 1075 2522 
Q 1259 2794 1537 2939 
Q 1816 3084 2150 3084 
Q 2853 3084 3261 2657 
Q 3669 2231 3669 1497 
Q 3669 778 3244 343 
Q 2819 -91 2113 -91 
Q 1303 -91 875 529 
Q 447 1150 447 2328 
Q 447 3434 972 4092 
Q 1497 4750 2381 4750 
Q 2619 4750 2861 4703 
Q 3103 4656 3366 4563 
z
" transform="scale(0.015625)"/>
      <path id="DejaVuSans-21" d="M 678 3150 
L 678 3719 
L 4684 2266 
L 4684 1747 
L 678 294 
L 678 863 
L 3897 2003 
L 678 3150 
z
" transform="scale(0.015625)"/>
      <path id="DejaVuSans-2a" d="M 3809 666 
L 3809 1919 
L 2778 1919 
L 2778 2438 
L 4434 2438 
L 4434 434 
Q 4069 175 3628 42 
Q 3188 -91 2688 -91 
Q 1594 -91 976 548 
Q 359 1188 359 2328 
Q 359 3472 976 4111 
Q 1594 4750 2688 4750 
Q 3144 4750 3555 4637 
Q 3966 4525 4313 4306 
L 4313 3634 
Q 3963 3931 3569 4081 
Q 3175 4231 2741 4231 
Q 1884 4231 1454 3753 
Q 1025 3275 1025 2328 
Q 1025 1384 1454 906 
Q 1884 428 2741 428 
Q 3075 428 3337 486 
Q 3600 544 3809 666 
z
" transform="scale(0.015625)"/>
      <path id="DejaVuSans-f" d="M 750 794 
L 1409 794 
L 1409 256 
L 897 -744 
L 494 -744 
L 750 256 
L 750 794 
z
" transform="scale(0.015625)"/>
      <path id="DejaVuSans-1c" d="M 703 97 
L 703 672 
Q 941 559 1184 500 
Q 1428 441 1663 441 
Q 2288 441 2617 861 
Q 2947 1281 2994 2138 
Q 2813 1869 2534 1725 
Q 2256 1581 1919 1581 
Q 1219 1581 811 2004 
Q 403 2428 403 3163 
Q 403 3881 828 4315 
Q 1253 4750 1959 4750 
Q 2769 4750 3195 4129 
Q 3622 3509 3622 2328 
Q 3622 1225 3098 567 
Q 2575 -91 1691 -91 
Q 1453 -91 1209 -44 
Q 966 3 703 97 
z
M 1959 2075 
Q 2384 2075 2632 2365 
Q 2881 2656 2881 3163 
Q 2881 3666 2632 3958 
Q 2384 4250 1959 4250 
Q 1534 4250 1286 3958 
Q 1038 3666 1038 3163 
Q 1038 2656 1286 2365 
Q 1534 2075 1959 2075 
z
" transform="scale(0.015625)"/>
      <path id="DejaVuSans-1e" d="M 750 3309 
L 1409 3309 
L 1409 2516 
L 750 2516 
L 750 3309 
z
M 750 794 
L 1409 794 
L 1409 256 
L 897 -744 
L 494 -744 
L 750 256 
L 750 794 
z
" transform="scale(0.015625)"/>
      <path id="DejaVuSans-30" d="M 628 4666 
L 1569 4666 
L 2759 1491 
L 3956 4666 
L 4897 4666 
L 4897 0 
L 4281 0 
L 4281 4097 
L 3078 897 
L 2444 897 
L 1241 4097 
L 1241 0 
L 628 0 
L 628 4666 
z
" transform="scale(0.015625)"/>
      <path id="DejaVuSans-44" d="M 2194 1759 
Q 1497 1759 1228 1600 
Q 959 1441 959 1056 
Q 959 750 1161 570 
Q 1363 391 1709 391 
Q 2188 391 2477 730 
Q 2766 1069 2766 1631 
L 2766 1759 
L 2194 1759 
z
M 3341 1997 
L 3341 0 
L 2766 0 
L 2766 531 
Q 2569 213 2275 61 
Q 1981 -91 1556 -91 
Q 1019 -91 701 211 
Q 384 513 384 1019 
Q 384 1609 779 1909 
Q 1175 2209 1959 2209 
L 2766 2209 
L 2766 2266 
Q 2766 2663 2505 2880 
Q 2244 3097 1772 3097 
Q 1472 3097 1187 3025 
Q 903 2953 641 2809 
L 641 3341 
Q 956 3463 1253 3523 
Q 1550 3584 1831 3584 
Q 2591 3584 2966 3190 
Q 3341 2797 3341 1997 
z
" transform="scale(0.015625)"/>
      <path id="DejaVuSans-25" d="M 1259 2228 
L 1259 519 
L 2272 519 
Q 2781 519 3026 730 
Q 3272 941 3272 1375 
Q 3272 1813 3026 2020 
Q 2781 2228 2272 2228 
L 1259 2228 
z
M 1259 4147 
L 1259 2741 
L 2194 2741 
Q 2656 2741 2882 2914 
Q 3109 3088 3109 3444 
Q 3109 3797 2882 3972 
Q 2656 4147 2194 4147 
L 1259 4147 
z
M 628 4666 
L 2241 4666 
Q 2963 4666 3353 4366 
Q 3744 4066 3744 3513 
Q 3744 3084 3544 2831 
Q 3344 2578 2956 2516 
Q 3422 2416 3680 2098 
Q 3938 1781 3938 1306 
Q 3938 681 3513 340 
Q 3088 0 2303 0 
L 628 0 
L 628 4666 
z
" transform="scale(0.015625)"/>
      <path id="DejaVuSans-55" d="M 2631 2963 
Q 2534 3019 2420 3045 
Q 2306 3072 2169 3072 
Q 1681 3072 1420 2755 
Q 1159 2438 1159 1844 
L 1159 0 
L 581 0 
L 581 3500 
L 1159 3500 
L 1159 2956 
Q 1341 3275 1631 3429 
Q 1922 3584 2338 3584 
Q 2397 3584 2469 3576 
Q 2541 3569 2628 3553 
L 2631 2963 
z
" transform="scale(0.015625)"/>
      <path id="DejaVuSans-47" d="M 2906 2969 
L 2906 4863 
L 3481 4863 
L 3481 0 
L 2906 0 
L 2906 525 
Q 2725 213 2448 61 
Q 2172 -91 1784 -91 
Q 1150 -91 751 415 
Q 353 922 353 1747 
Q 353 2572 751 3078 
Q 1150 3584 1784 3584 
Q 2172 3584 2448 3432 
Q 2725 3281 2906 2969 
z
M 947 1747 
Q 947 1113 1208 752 
Q 1469 391 1925 391 
Q 2381 391 2643 752 
Q 2906 1113 2906 1747 
Q 2906 2381 2643 2742 
Q 2381 3103 1925 3103 
Q 1469 3103 1208 2742 
Q 947 2381 947 1747 
z
" transform="scale(0.015625)"/>
      <path id="DejaVuSans-48" d="M 3597 1894 
L 3597 1613 
L 953 1613 
Q 991 1019 1311 708 
Q 1631 397 2203 397 
Q 2534 397 2845 478 
Q 3156 559 3463 722 
L 3463 178 
Q 3153 47 2828 -22 
Q 2503 -91 2169 -91 
Q 1331 -91 842 396 
Q 353 884 353 1716 
Q 353 2575 817 3079 
Q 1281 3584 2069 3584 
Q 2775 3584 3186 3129 
Q 3597 2675 3597 1894 
z
M 3022 2063 
Q 3016 2534 2758 2815 
Q 2500 3097 2075 3097 
Q 1594 3097 1305 2825 
Q 1016 2553 972 2059 
L 3022 2063 
z
" transform="scale(0.015625)"/>
      <path id="DejaVuSans-13af" d="M 3431 3500 
L 3431 0 
L 2853 0 
L 2853 3053 
L 1275 3053 
L 1275 0 
L 697 0 
L 697 3053 
L 147 3053 
L 147 3500 
L 697 3500 
L 697 3744 
Q 697 4316 967 4589 
Q 1238 4863 1797 4863 
L 2375 4863 
L 2375 4384 
L 1825 4384 
Q 1516 4384 1395 4259 
Q 1275 4134 1275 3809 
L 1275 3500 
L 3431 3500 
z
M 2853 4856 
L 3431 4856 
L 3431 4128 
L 2853 4128 
L 2853 4856 
z
" transform="scale(0.015625)"/>
     </defs>
     <use xlink:href="#DejaVuSans-37"/>
     <use xlink:href="#DejaVuSans-38" transform="translate(61.078125 0)"/>
     <use xlink:href="#DejaVuSans-35" transform="translate(134.265625 0)"/>
     <use xlink:href="#DejaVuSans-29" transform="translate(203.75 0)"/>
     <use xlink:href="#DejaVuSans-3c" transform="translate(261.265625 0)"/>
     <use xlink:href="#DejaVuSans-3" transform="translate(322.34375 0)"/>
     <use xlink:href="#DejaVuSans-36" transform="translate(354.125 0)"/>
     <use xlink:href="#DejaVuSans-2c" transform="translate(417.609375 0)"/>
     <use xlink:href="#DejaVuSans-27" transform="translate(447.109375 0)"/>
     <use xlink:href="#DejaVuSans-28" transform="translate(524.109375 0)"/>
     <use xlink:href="#DejaVuSans-26" transform="translate(587.296875 0)"/>
     <use xlink:href="#DejaVuSans-24" transform="translate(657.125 0)"/>
     <use xlink:href="#DejaVuSans-35" transform="translate(725.53125 0)"/>
     <use xlink:href="#DejaVuSans-3" transform="translate(795.015625 0)"/>
     <use xlink:href="#DejaVuSans-59" transform="translate(826.796875 0)"/>
     <use xlink:href="#DejaVuSans-13" transform="translate(885.984375 0)"/>
     <use xlink:href="#DejaVuSans-11" transform="translate(949.609375 0)"/>
     <use xlink:href="#DejaVuSans-14" transform="translate(981.390625 0)"/>
     <use xlink:href="#DejaVuSans-3" transform="translate(1045.015625 0)"/>
     <use xlink:href="#DejaVuSans-3" transform="translate(1076.796875 0)"/>
     <use xlink:href="#DejaVuSans-10" transform="translate(1108.578125 0)"/>
     <use xlink:href="#DejaVuSans-10" transform="translate(1144.65625 0)"/>
     <use xlink:href="#DejaVuSans-3" transform="translate(1180.734375 0)"/>
     <use xlink:href="#DejaVuSans-3" transform="translate(1212.515625 0)"/>
     <use xlink:href="#DejaVuSans-36" transform="translate(1244.296875 0)"/>
     <use xlink:href="#DejaVuSans-2b" transform="translate(1307.78125 0)"/>
     <use xlink:href="#DejaVuSans-28" transform="translate(1382.984375 0)"/>
     <use xlink:href="#DejaVuSans-28" transform="translate(1446.171875 0)"/>
     <use xlink:href="#DejaVuSans-37" transform="translate(1509.359375 0)"/>
     <use xlink:href="#DejaVuSans-3" transform="translate(1570.4375 0)"/>
     <use xlink:href="#DejaVuSans-16" transform="translate(1602.21875 0)"/>
     <use xlink:href="#DejaVuSans-1d" transform="translate(1665.84375 0)"/>
     <use xlink:href="#DejaVuSans-3" transform="translate(1699.53125 0)"/>
     <use xlink:href="#DejaVuSans-36" transform="translate(1731.3125 0)"/>
     <use xlink:href="#DejaVuSans-28" transform="translate(1794.796875 0)"/>
     <use xlink:href="#DejaVuSans-31" transform="translate(1857.984375 0)"/>
     <use xlink:href="#DejaVuSans-36" transform="translate(1932.796875 0)"/>
     <use xlink:href="#DejaVuSans-28" transform="translate(1996.28125 0)"/>
     <use xlink:href="#DejaVuSans-3" transform="translate(2059.46875 0)"/>
     <use xlink:href="#DejaVuSans-29" transform="translate(2091.25 0)"/>
     <use xlink:href="#DejaVuSans-35" transform="translate(2148.765625 0)"/>
     <use xlink:href="#DejaVuSans-32" transform="translate(2218.25 0)"/>
     <use xlink:href="#DejaVuSans-31" transform="translate(2296.96875 0)"/>
     <use xlink:href="#DejaVuSans-37" transform="translate(2371.78125 0)"/>
     <use xlink:href="#DejaVuSans-10" transform="translate(2423.6875 0)"/>
     <use xlink:href="#DejaVuSans-28" transform="translate(2459.765625 0)"/>
     <use xlink:href="#DejaVuSans-31" transform="translate(2522.953125 0)"/>
     <use xlink:href="#DejaVuSans-27" transform="translate(2597.765625 0)"/>
     <use xlink:href="#DejaVuSans-3" transform="translate(2674.765625 0)"/>
     <use xlink:href="#DejaVuSans-b" transform="translate(2706.546875 0)"/>
     <use xlink:href="#DejaVuSans-57" transform="translate(2745.5625 0)"/>
     <use xlink:href="#DejaVuSans-5c" transform="translate(2784.765625 0)"/>
     <use xlink:href="#DejaVuSans-53" transform="translate(2843.953125 0)"/>
     <use xlink:href="#DejaVuSans-11" transform="translate(2907.4375 0)"/>
     <use xlink:href="#DejaVuSans-3" transform="translate(2939.21875 0)"/>
     <use xlink:href="#DejaVuSans-52" transform="translate(2971 0)"/>
     <use xlink:href="#DejaVuSans-49" transform="translate(3032.1875 0)"/>
     <use xlink:href="#DejaVuSans-3" transform="translate(3067.390625 0)"/>
     <use xlink:href="#DejaVuSans-1a" transform="translate(3099.171875 0)"/>
     <use xlink:href="#DejaVuSans-c" transform="translate(3162.796875 0)"/>
     <use xlink:href="#DejaVuSans-3" transform="translate(3201.8125 0)"/>
     <use xlink:href="#DejaVuSans-3" transform="translate(3233.59375 0)"/>
     <use xlink:href="#DejaVuSans-10" transform="translate(3265.375 0)"/>
     <use xlink:href="#DejaVuSans-10" transform="translate(3301.453125 0)"/>
     <use xlink:href="#DejaVuSans-3" transform="translate(3337.53125 0)"/>
     <use xlink:href="#DejaVuSans-3" transform="translate(3369.3125 0)"/>
     <use xlink:href="#DejaVuSans-51" transform="translate(3401.09375 0)"/>
     <use xlink:href="#DejaVuSans-1d" transform="translate(3464.46875 0)"/>
     <use xlink:href="#DejaVuSans-3" transform="translate(3498.15625 0)"/>
     <use xlink:href="#DejaVuSans-36" transform="translate(3529.9375 0)"/>
     <use xlink:href="#DejaVuSans-37" transform="translate(3593.421875 0)"/>
     <use xlink:href="#DejaVuSans-14" transform="translate(3654.5 0)"/>
     <use xlink:href="#DejaVuSans-11" transform="translate(3718.125 0)"/>
     <use xlink:href="#DejaVuSans-11" transform="translate(3749.90625 0)"/>
     <use xlink:href="#DejaVuSans-36" transform="translate(3781.6875 0)"/>
     <use xlink:href="#DejaVuSans-37" transform="translate(3845.171875 0)"/>
     <use xlink:href="#DejaVuSans-19" transform="translate(3906.25 0)"/>
     <use xlink:href="#DejaVuSans-3" transform="translate(3969.875 0)"/>
     <use xlink:href="#DejaVuSans-10" transform="translate(4001.65625 0)"/>
     <use xlink:href="#DejaVuSans-21" transform="translate(4037.734375 0)"/>
     <use xlink:href="#DejaVuSans-3" transform="translate(4121.53125 0)"/>
     <use xlink:href="#DejaVuSans-2a" transform="translate(4153.3125 0)"/>
     <use xlink:href="#DejaVuSans-33" transform="translate(4230.796875 0)"/>
     <use xlink:href="#DejaVuSans-2c" transform="translate(4291.09375 0)"/>
     <use xlink:href="#DejaVuSans-32" transform="translate(4320.59375 0)"/>
     <use xlink:href="#DejaVuSans-3" transform="translate(4399.3125 0)"/>
     <use xlink:href="#DejaVuSans-18" transform="translate(4431.09375 0)"/>
     <use xlink:href="#DejaVuSans-f" transform="translate(4494.71875 0)"/>
     <use xlink:href="#DejaVuSans-19" transform="translate(4526.5 0)"/>
     <use xlink:href="#DejaVuSans-f" transform="translate(4590.125 0)"/>
     <use xlink:href="#DejaVuSans-14" transform="translate(4621.90625 0)"/>
     <use xlink:href="#DejaVuSans-16" transform="translate(4685.53125 0)"/>
     <use xlink:href="#DejaVuSans-f" transform="translate(4749.15625 0)"/>
     <use xlink:href="#DejaVuSans-14" transform="translate(4780.9375 0)"/>
     <use xlink:href="#DejaVuSans-1c" transform="translate(4844.5625 0)"/>
     <use xlink:href="#DejaVuSans-f" transform="translate(4908.1875 0)"/>
     <use xlink:href="#DejaVuSans-15" transform="translate(4939.96875 0)"/>
     <use xlink:href="#DejaVuSans-19" transform="translate(5003.59375 0)"/>
     <use xlink:href="#DejaVuSans-f" transform="translate(5067.21875 0)"/>
     <use xlink:href="#DejaVuSans-14" transform="translate(5099 0)"/>
     <use xlink:href="#DejaVuSans-19" transform="translate(5162.625 0)"/>
     <use xlink:href="#DejaVuSans-1e" transform="translate(5226.25 0)"/>
     <use xlink:href="#DejaVuSans-3" transform="translate(5259.9375 0)"/>
     <use xlink:href="#DejaVuSans-3" transform="translate(5291.71875 0)"/>
     <use xlink:href="#DejaVuSans-30" transform="translate(5323.5 0)"/>
     <use xlink:href="#DejaVuSans-39" transform="translate(5409.78125 0)"/>
     <use xlink:href="#DejaVuSans-3" transform="translate(5478.1875 0)"/>
     <use xlink:href="#DejaVuSans-10" transform="translate(5509.96875 0)"/>
     <use xlink:href="#DejaVuSans-21" transform="translate(5546.046875 0)"/>
     <use xlink:href="#DejaVuSans-3" transform="translate(5629.84375 0)"/>
     <use xlink:href="#DejaVuSans-2a" transform="translate(5661.625 0)"/>
     <use xlink:href="#DejaVuSans-33" transform="translate(5739.109375 0)"/>
     <use xlink:href="#DejaVuSans-2c" transform="translate(5799.40625 0)"/>
     <use xlink:href="#DejaVuSans-32" transform="translate(5828.90625 0)"/>
     <use xlink:href="#DejaVuSans-3" transform="translate(5907.625 0)"/>
     <use xlink:href="#DejaVuSans-15" transform="translate(5939.40625 0)"/>
     <use xlink:href="#DejaVuSans-13" transform="translate(6003.03125 0)"/>
     <use xlink:href="#DejaVuSans-3" transform="translate(6066.65625 0)"/>
     <use xlink:href="#DejaVuSans-3" transform="translate(6098.4375 0)"/>
     <use xlink:href="#DejaVuSans-3" transform="translate(6130.21875 0)"/>
     <use xlink:href="#DejaVuSans-b" transform="translate(6162 0)"/>
     <use xlink:href="#DejaVuSans-35" transform="translate(6201.015625 0)"/>
     <use xlink:href="#DejaVuSans-44" transform="translate(6268.296875 0)"/>
     <use xlink:href="#DejaVuSans-4c" transform="translate(6329.578125 0)"/>
     <use xlink:href="#DejaVuSans-51" transform="translate(6357.359375 0)"/>
     <use xlink:href="#DejaVuSans-3" transform="translate(6420.734375 0)"/>
     <use xlink:href="#DejaVuSans-25" transform="translate(6452.515625 0)"/>
     <use xlink:href="#DejaVuSans-4c" transform="translate(6521.125 0)"/>
     <use xlink:href="#DejaVuSans-55" transform="translate(6548.90625 0)"/>
     <use xlink:href="#DejaVuSans-47" transform="translate(6588.265625 0)"/>
     <use xlink:href="#DejaVuSans-3" transform="translate(6651.75 0)"/>
     <use xlink:href="#DejaVuSans-28" transform="translate(6683.53125 0)"/>
     <use xlink:href="#DejaVuSans-36" transform="translate(6746.71875 0)"/>
     <use xlink:href="#DejaVuSans-33" transform="translate(6810.203125 0)"/>
     <use xlink:href="#DejaVuSans-10" transform="translate(6868.296875 0)"/>
     <use xlink:href="#DejaVuSans-19" transform="translate(6904.375 0)"/>
     <use xlink:href="#DejaVuSans-36" transform="translate(6968 0)"/>
     <use xlink:href="#DejaVuSans-4c" transform="translate(7031.484375 0)"/>
     <use xlink:href="#DejaVuSans-3" transform="translate(7059.265625 0)"/>
     <use xlink:href="#DejaVuSans-55" transform="translate(7091.046875 0)"/>
     <use xlink:href="#DejaVuSans-48" transform="translate(7129.953125 0)"/>
     <use xlink:href="#DejaVuSans-57" transform="translate(7191.484375 0)"/>
     <use xlink:href="#DejaVuSans-55" transform="translate(7230.6875 0)"/>
     <use xlink:href="#DejaVuSans-52" transform="translate(7269.59375 0)"/>
     <use xlink:href="#DejaVuSans-13af" transform="translate(7330.78125 0)"/>
     <use xlink:href="#DejaVuSans-57" transform="translate(7393.765625 0)"/>
     <use xlink:href="#DejaVuSans-c" transform="translate(7432.96875 0)"/>
    </g>
   </g>
   <g id="patch_2">
    <path d="M 85.207813 144.18 
C 85.923861 144.18 86.610678 143.895511 87.117001 143.389188 
C 87.623323 142.882866 87.907813 142.196048 87.907813 141.48 
C 87.907813 140.763952 87.623323 140.077134 87.117001 139.570812 
C 86.610678 139.064489 85.923861 138.78 85.207813 138.78 
C 84.491764 138.78 83.804947 139.064489 83.298624 139.570812 
C 82.792302 140.077134 82.507813 140.763952 82.507813 141.48 
C 82.507813 142.196048 82.792302 142.882866 83.298624 143.389188 
C 83.804947 143.895511 84.491764 144.18 85.207813 144.18 
z
" clip-path="url(#pdd85c3f5f1)" style="fill: #ffffff; stroke: #000000; stroke-width: 1.4; stroke-linejoin: miter"/>
   </g>
   <g id="text_15">
    <!-- Rain Bird STn -->
    <g transform="translate(5.157969 145.580938) scale(0.11 -0.11)">
     <use xlink:href="#DejaVuSans-35"/>
     <use xlink:href="#DejaVuSans-44" transform="translate(67.28125 0)"/>
     <use xlink:href="#DejaVuSans-4c" transform="translate(128.5625 0)"/>
     <use xlink:href="#DejaVuSans-51" transform="translate(156.34375 0)"/>
     <use xlink:href="#DejaVuSans-3" transform="translate(219.71875 0)"/>
     <use xlink:href="#DejaVuSans-25" transform="translate(251.5 0)"/>
     <use xlink:href="#DejaVuSans-4c" transform="translate(320.109375 0)"/>
     <use xlink:href="#DejaVuSans-55" transform="translate(347.890625 0)"/>
     <use xlink:href="#DejaVuSans-47" transform="translate(387.25 0)"/>
     <use xlink:href="#DejaVuSans-3" transform="translate(450.734375 0)"/>
     <use xlink:href="#DejaVuSans-36" transform="translate(482.515625 0)"/>
     <use xlink:href="#DejaVuSans-37" transform="translate(546 0)"/>
     <use xlink:href="#DejaVuSans-51" transform="translate(607.078125 0)"/>
    </g>
   </g>
   <g id="patch_3">
    <path d="M 85.207813 187.38 
C 85.923861 187.38 86.610678 187.095511 87.117001 186.589188 
C 87.623323 186.082866 87.907813 185.396048 87.907813 184.68 
C 87.907813 183.963952 87.623323 183.277134 87.117001 182.770812 
C 86.610678 182.264489 85.923861 181.98 85.207813 181.98 
C 84.491764 181.98 83.804947 182.264489 83.298624 182.770812 
C 82.792302 183.277134 82.507812 183.963952 82.507812 184.68 
C 82.507812 185.396048 82.792302 186.082866 83.298624 186.589188 
C 83.804947 187.095511 84.491764 187.38 85.207813 187.38 
z
" clip-path="url(#pdd85c3f5f1)" style="fill: #ffffff; stroke: #000000; stroke-width: 1.4; stroke-linejoin: miter"/>
   </g>
   <g id="text_16">
    <!-- Rain Bird COM -->
    <g transform="translate(0 188.780937) scale(0.11 -0.11)">
     <use xlink:href="#DejaVuSans-35"/>
     <use xlink:href="#DejaVuSans-44" transform="translate(67.28125 0)"/>
     <use xlink:href="#DejaVuSans-4c" transform="translate(128.5625 0)"/>
     <use xlink:href="#DejaVuSans-51" transform="translate(156.34375 0)"/>
     <use xlink:href="#DejaVuSans-3" transform="translate(219.71875 0)"/>
     <use xlink:href="#DejaVuSans-25" transform="translate(251.5 0)"/>
     <use xlink:href="#DejaVuSans-4c" transform="translate(320.109375 0)"/>
     <use xlink:href="#DejaVuSans-55" transform="translate(347.890625 0)"/>
     <use xlink:href="#DejaVuSans-47" transform="translate(387.25 0)"/>
     <use xlink:href="#DejaVuSans-3" transform="translate(450.734375 0)"/>
     <use xlink:href="#DejaVuSans-26" transform="translate(482.515625 0)"/>
     <use xlink:href="#DejaVuSans-32" transform="translate(552.34375 0)"/>
     <use xlink:href="#DejaVuSans-30" transform="translate(631.0625 0)"/>
    </g>
   </g>
   <g id="patch_4">
    <path d="M 373.207813 144.18 
C 373.923861 144.18 374.610678 143.895511 375.117001 143.389188 
C 375.623323 142.882866 375.907813 142.196048 375.907813 141.48 
C 375.907813 140.763952 375.623323 140.077134 375.117001 139.570812 
C 374.610678 139.064489 373.923861 138.78 373.207813 138.78 
C 372.491764 138.78 371.804947 139.064489 371.298624 139.570812 
C 370.792302 140.077134 370.507813 140.763952 370.507813 141.48 
C 370.507813 142.196048 370.792302 142.882866 371.298624 143.389188 
C 371.804947 143.895511 372.491764 144.18 373.207813 144.18 
z
" clip-path="url(#pdd85c3f5f1)" style="stroke: #000000; stroke-width: 1.4; stroke-linejoin: miter"/>
   </g>
   <g id="patch_5">
    <path d="M 430.807813 144.18 
C 431.523861 144.18 432.210678 143.895511 432.717001 143.389188 
C 433.223323 142.882866 433.507813 142.196048 433.507813 141.48 
C 433.507813 140.763952 433.223323 140.077134 432.717001 139.570812 
C 432.210678 139.064489 431.523861 138.78 430.807813 138.78 
C 430.091764 138.78 429.404947 139.064489 428.898624 139.570812 
C 428.392302 140.077134 428.107813 140.763952 428.107813 141.48 
C 428.107813 142.196048 428.392302 142.882866 428.898624 143.389188 
C 429.404947 143.895511 430.091764 144.18 430.807813 144.18 
z
" clip-path="url(#pdd85c3f5f1)" style="fill: #ffffff; stroke: #000000; stroke-width: 1.4; stroke-linejoin: miter"/>
   </g>
   <g id="text_17">
    <!-- SENSE_n -&gt; Pi GPIO -->
    <g transform="translate(437.107813 138.862344) scale(0.11 -0.11)">
     <use xlink:href="#DejaVuSans-36"/>
     <use xlink:href="#DejaVuSans-28" transform="translate(63.484375 0)"/>
     <use xlink:href="#DejaVuSans-31" transform="translate(126.671875 0)"/>
     <use xlink:href="#DejaVuSans-36" transform="translate(201.484375 0)"/>
     <use xlink:href="#DejaVuSans-28" transform="translate(264.96875 0)"/>
     <use xlink:href="#DejaVuSans-42" transform="translate(328.15625 0)"/>
     <use xlink:href="#DejaVuSans-51" transform="translate(378.15625 0)"/>
     <use xlink:href="#DejaVuSans-3" transform="translate(441.53125 0)"/>
     <use xlink:href="#DejaVuSans-10" transform="translate(473.3125 0)"/>
     <use xlink:href="#DejaVuSans-21" transform="translate(509.390625 0)"/>
     <use xlink:href="#DejaVuSans-3" transform="translate(593.1875 0)"/>
     <use xlink:href="#DejaVuSans-33" transform="translate(624.96875 0)"/>
     <use xlink:href="#DejaVuSans-4c" transform="translate(683.0625 0)"/>
     <use xlink:href="#DejaVuSans-3" transform="translate(710.84375 0)"/>
     <use xlink:href="#DejaVuSans-2a" transform="translate(742.625 0)"/>
     <use xlink:href="#DejaVuSans-33" transform="translate(820.109375 0)"/>
     <use xlink:href="#DejaVuSans-2c" transform="translate(880.40625 0)"/>
     <use xlink:href="#DejaVuSans-32" transform="translate(909.90625 0)"/>
    </g>
    <!-- (LOW = station energized) -->
    <g transform="translate(437.107813 150.015312) scale(0.11 -0.11)">
     <defs>
      <path id="DejaVuSans-2f" d="M 628 4666 
L 1259 4666 
L 1259 531 
L 3531 531 
L 3531 0 
L 628 0 
L 628 4666 
z
" transform="scale(0.015625)"/>
      <path id="DejaVuSans-20" d="M 678 2906 
L 4684 2906 
L 4684 2381 
L 678 2381 
L 678 2906 
z
M 678 1631 
L 4684 1631 
L 4684 1100 
L 678 1100 
L 678 1631 
z
" transform="scale(0.015625)"/>
      <path id="DejaVuSans-4a" d="M 2906 1791 
Q 2906 2416 2648 2759 
Q 2391 3103 1925 3103 
Q 1463 3103 1205 2759 
Q 947 2416 947 1791 
Q 947 1169 1205 825 
Q 1463 481 1925 481 
Q 2391 481 2648 825 
Q 2906 1169 2906 1791 
z
M 3481 434 
Q 3481 -459 3084 -895 
Q 2688 -1331 1869 -1331 
Q 1566 -1331 1297 -1286 
Q 1028 -1241 775 -1147 
L 775 -588 
Q 1028 -725 1275 -790 
Q 1522 -856 1778 -856 
Q 2344 -856 2625 -561 
Q 2906 -266 2906 331 
L 2906 616 
Q 2728 306 2450 153 
Q 2172 0 1784 0 
Q 1141 0 747 490 
Q 353 981 353 1791 
Q 353 2603 747 3093 
Q 1141 3584 1784 3584 
Q 2172 3584 2450 3431 
Q 2728 3278 2906 2969 
L 2906 3500 
L 3481 3500 
L 3481 434 
z
" transform="scale(0.015625)"/>
      <path id="DejaVuSans-5d" d="M 353 3500 
L 3084 3500 
L 3084 2975 
L 922 459 
L 3084 459 
L 3084 0 
L 275 0 
L 275 525 
L 2438 3041 
L 353 3041 
L 353 3500 
z
" transform="scale(0.015625)"/>
     </defs>
     <use xlink:href="#DejaVuSans-b"/>
     <use xlink:href="#DejaVuSans-2f" transform="translate(39.015625 0)"/>
     <use xlink:href="#DejaVuSans-32" transform="translate(91.171875 0)"/>
     <use xlink:href="#DejaVuSans-3a" transform="translate(169.890625 0)"/>
     <use xlink:href="#DejaVuSans-3" transform="translate(268.765625 0)"/>
     <use xlink:href="#DejaVuSans-20" transform="translate(300.546875 0)"/>
     <use xlink:href="#DejaVuSans-3" transform="translate(384.34375 0)"/>
     <use xlink:href="#DejaVuSans-56" transform="translate(416.125 0)"/>
     <use xlink:href="#DejaVuSans-57" transform="translate(468.21875 0)"/>
     <use xlink:href="#DejaVuSans-44" transform="translate(507.421875 0)"/>
     <use xlink:href="#DejaVuSans-57" transform="translate(568.703125 0)"/>
     <use xlink:href="#DejaVuSans-4c" transform="translate(607.90625 0)"/>
     <use xlink:href="#DejaVuSans-52" transform="translate(635.6875 0)"/>
     <use xlink:href="#DejaVuSans-51" transform="translate(696.875 0)"/>
     <use xlink:href="#DejaVuSans-3" transform="translate(760.25 0)"/>
     <use xlink:href="#DejaVuSans-48" transform="translate(792.03125 0)"/>
     <use xlink:href="#DejaVuSans-51" transform="translate(853.5625 0)"/>
     <use xlink:href="#DejaVuSans-48" transform="translate(916.9375 0)"/>
     <use xlink:href="#DejaVuSans-55" transform="translate(978.46875 0)"/>
     <use xlink:href="#DejaVuSans-4a" transform="translate(1017.828125 0)"/>
     <use xlink:href="#DejaVuSans-4c" transform="translate(1081.3125 0)"/>
     <use xlink:href="#DejaVuSans-5d" transform="translate(1109.09375 0)"/>
     <use xlink:href="#DejaVuSans-48" transform="translate(1161.578125 0)"/>
     <use xlink:href="#DejaVuSans-47" transform="translate(1223.109375 0)"/>
     <use xlink:href="#DejaVuSans-c" transform="translate(1286.59375 0)"/>
    </g>
   </g>
  </g>
 </g>
 <defs>
  <clipPath id="pdd85c3f5f1">
   <rect x="1.033812" y="0" width="767.538" height="313.2"/>
  </clipPath>
 </defs>
</svg>
