<?xml version="1.0" encoding="utf-8" standalone="no"?>
<!DOCTYPE svg PUBLIC "-//W3C//DTD SVG 1.1//EN"
  "http://www.w3.org/Graphics/SVG/1.1/DTD/svg11.dtd">
<svg xmlns:xlink="http://www.w3.org/1999/xlink" width="1228.494472pt" height="382.06pt" viewBox="0 0 1228.494472 382.06" xmlns="http://www.w3.org/2000/svg" version="1.1">
 <metadata>
  <rdf:RDF xmlns:dc="http://purl.org/dc/elements/1.1/" xmlns:cc="http://creativecommons.org/ns#" xmlns:rdf="http://www.w3.org/1999/02/22-rdf-syntax-ns#">
   <cc:Work>
    <dc:type rdf:resource="http://purl.org/dc/dcmitype/StillImage"/>
    <dc:date>2026-07-09T20:24:29.916999</dc:date>
    <dc:format>image/svg+xml</dc:format>
    <dc:creator>
     <cc:Agent>
      <dc:title>Matplotlib v3.11.0, https://matplotlib.org/</dc:title>
     </cc:Agent>
    </dc:creator>
   </cc:Work>
  </rdf:RDF>
 </metadata>
 <defs>
  <style type="text/css">*{stroke-linejoin: round; stroke-linecap: butt}</style>
 </defs>
 <g id="figure_1">
  <g id="patch_1">
   <path d="M 0 382.06 
L 1228.494472 382.06 
L 1228.494472 0 
L 0 0 
L 0 382.06 
z
" style="fill: none"/>
  </g>
  <g id="axes_1">
   <g id="line2d_1">
    <path d="M 204.267656 177.48 
L 225.867656 177.48 
L 247.467656 177.48 
" clip-path="url(#p82a5a7ee80)" style="fill: none; stroke: #000000; stroke-width: 1.4; stroke-linecap: round"/>
   </g>
   <g id="line2d_2">
    <path d="M 247.467656 177.48 
L 283.467656 177.48 
L 283.467656 168.48 
L 319.467656 168.48 
L 319.467656 186.48 
L 283.467656 186.48 
L 283.467656 177.48 
M 319.467656 177.48 
L 355.467656 177.48 
" clip-path="url(#p82a5a7ee80)" style="fill: none; stroke: #000000; stroke-width: 1.4; stroke-linecap: round"/>
   </g>
   <g id="line2d_3">
    <path d="M 283.467656 177.48 
L 319.467656 177.48 
" clip-path="url(#p82a5a7ee80)" style="fill: none; stroke: #000000; stroke-width: 1.4; stroke-linecap: round"/>
   </g>
   <g id="line2d_4">
    <path d="M 355.467656 177.48 
L 373.467656 177.48 
L 391.467656 177.48 
" clip-path="url(#p82a5a7ee80)" style="fill: none; stroke: #000000; stroke-width: 1.4; stroke-linecap: round"/>
   </g>
   <g id="line2d_5">
    <path d="M 391.467656 177.48 
L 391.467656 193.68 
L 391.467656 209.88 
" clip-path="url(#p82a5a7ee80)" style="fill: none; stroke: #000000; stroke-width: 1.4; stroke-linecap: round"/>
   </g>
   <g id="line2d_6">
    <path d="M 391.467656 209.88 
L 391.467656 245.88 
L 400.467656 245.88 
L 400.467656 281.88 
L 382.467656 281.88 
L 382.467656 245.88 
L 391.467656 245.88 
M 391.467656 281.88 
L 391.467656 317.88 
" clip-path="url(#p82a5a7ee80)" style="fill: none; stroke: #000000; stroke-width: 1.4; stroke-linecap: round"/>
   </g>
   <g id="line2d_7">
    <path d="M 391.467656 317.88 
L 391.467656 326.88 
L 391.467656 335.88 
" clip-path="url(#p82a5a7ee80)" style="fill: none; stroke: #000000; stroke-width: 1.4; stroke-linecap: round"/>
   </g>
   <g id="line2d_8">
    <path d="M 391.467656 335.88 
L 290.667656 335.88 
L 189.867656 335.88 
" clip-path="url(#p82a5a7ee80)" style="fill: none; stroke: #000000; stroke-width: 1.4; stroke-linecap: round"/>
   </g>
   <g id="line2d_9">
    <path d="M 391.467656 177.48 
L 434.667656 177.48 
L 477.867656 177.48 
" clip-path="url(#p82a5a7ee80)" style="fill: none; stroke: #000000; stroke-width: 1.4; stroke-linecap: round"/>
   </g>
   <g id="line2d_10">
    <path d="M 510.267656 235.08 
L 668.667656 235.08 
L 668.667656 119.88 
L 510.267656 119.88 
L 510.267656 235.08 
" clip-path="url(#p82a5a7ee80)" style="fill: none; stroke: #000000; stroke-width: 1.4; stroke-linecap: round"/>
   </g>
   <g id="line2d_11">
    <path d="M 510.267656 177.48 
L 477.867656 177.48 
" clip-path="url(#p82a5a7ee80)" style="fill: none; stroke: #000000; stroke-width: 1.4; stroke-linecap: round"/>
   </g>
   <g id="line2d_12">
    <path d="M 668.667656 177.48 
L 701.067656 177.48 
" clip-path="url(#p82a5a7ee80)" style="fill: none; stroke: #000000; stroke-width: 1.4; stroke-linecap: round"/>
   </g>
   <g id="line2d_13">
    <path d="M 589.467656 119.88 
L 589.467656 87.48 
" clip-path="url(#p82a5a7ee80)" style="fill: none; stroke: #000000; stroke-width: 1.4; stroke-linecap: round"/>
   </g>
   <g id="line2d_14">
    <path d="M 553.467656 235.08 
L 553.467656 267.48 
" clip-path="url(#p82a5a7ee80)" style="fill: none; stroke: #000000; stroke-width: 1.4; stroke-linecap: round"/>
   </g>
   <g id="line2d_15">
    <path d="M 625.467656 235.08 
L 625.467656 267.48 
" clip-path="url(#p82a5a7ee80)" style="fill: none; stroke: #000000; stroke-width: 1.4; stroke-linecap: round"/>
   </g>
   <g id="line2d_16">
    <path d="M 701.067656 177.48 
L 740.667656 177.48 
L 780.267656 177.48 
" clip-path="url(#p82a5a7ee80)" style="fill: none; stroke: #000000; stroke-width: 1.4; stroke-linecap: round"/>
   </g>
   <g id="line2d_17">
    <path d="M 812.667656 227.88 
L 985.467656 227.88 
L 985.467656 55.08 
L 812.667656 55.08 
L 812.667656 227.88 
" clip-path="url(#p82a5a7ee80)" style="fill: none; stroke: #000000; stroke-width: 1.4; stroke-linecap: round"/>
   </g>
   <g id="line2d_18">
    <path d="M 812.667656 177.48 
L 780.267656 177.48 
" clip-path="url(#p82a5a7ee80)" style="fill: none; stroke: #000000; stroke-width: 1.4; stroke-linecap: round"/>
   </g>
   <g id="line2d_19">
    <path d="M 812.667656 105.48 
L 780.267656 105.48 
" clip-path="url(#p82a5a7ee80)" style="fill: none; stroke: #000000; stroke-width: 1.4; stroke-linecap: round"/>
   </g>
   <g id="line2d_20">
    <path d="M 985.467656 141.48 
L 1017.867656 141.48 
" clip-path="url(#p82a5a7ee80)" style="fill: none; stroke: #000000; stroke-width: 1.4; stroke-linecap: round"/>
   </g>
   <g id="line2d_21">
    <path d="M 899.067656 55.08 
L 899.067656 22.68 
" clip-path="url(#p82a5a7ee80)" style="fill: none; stroke: #000000; stroke-width: 1.4; stroke-linecap: round"/>
   </g>
   <g id="line2d_22">
    <path d="M 863.067656 227.88 
L 863.067656 260.28 
" clip-path="url(#p82a5a7ee80)" style="fill: none; stroke: #000000; stroke-width: 1.4; stroke-linecap: round"/>
   </g>
   <g id="line2d_23">
    <path d="M 935.067656 227.88 
L 935.067656 260.28 
" clip-path="url(#p82a5a7ee80)" style="fill: none; stroke: #000000; stroke-width: 1.4; stroke-linecap: round"/>
   </g>
   <g id="line2d_24">
    <path d="M 780.267656 105.48 
L 733.467656 105.48 
L 686.667656 105.48 
" clip-path="url(#p82a5a7ee80)" style="fill: none; stroke: #000000; stroke-width: 1.4; stroke-linecap: round"/>
   </g>
   <g id="line2d_25">
    <path d="M 1017.867656 141.48 
L 1039.467656 141.48 
L 1061.067656 141.48 
" clip-path="url(#p82a5a7ee80)" style="fill: none; stroke: #000000; stroke-width: 1.4; stroke-linecap: round"/>
   </g>
   <g id="line2d_26">
    <path d="M 1061.067656 141.48 
L 1093.467656 141.48 
L 1125.867656 141.48 
" clip-path="url(#p82a5a7ee80)" style="fill: none; stroke: #000000; stroke-width: 1.4; stroke-linecap: round"/>
   </g>
   <g id="line2d_27">
    <path d="M 1125.867656 141.48 
L 1125.867656 177.48 
L 1128.968202 177.658789 
L 1132.085388 178.202061 
L 1134.933705 179.09503 
L 1136.173871 179.659174 
L 1137.25227 180.290881 
L 1138.144067 180.98 
L 1138.828723 181.715058 
L 1139.29047 182.483521 
L 1139.518674 183.272091 
L 1139.508078 184.067001 
L 1139.258927 184.854342 
L 1138.776959 185.620378 
L 1138.073274 186.351864 
L 1137.164079 187.03635 
L 1136.070312 187.66247 
L 1134.817163 188.2202 
L 1133.433494 188.701093 
L 1130.404332 189.407576 
L 1127.260273 189.752186 
L 1124.289285 189.738333 
L 1121.763488 189.402259 
L 1119.914223 188.809719 
L 1119.299112 188.444458 
L 1118.910869 188.049959 
L 1118.758436 187.639705 
L 1118.845323 187.22754 
L 1119.16953 186.827355 
L 1119.72359 186.452763 
L 1120.494742 186.116788 
L 1122.612694 185.608059 
L 1125.329398 185.382736 
L 1128.396026 185.496432 
L 1131.531701 185.973706 
L 1134.44922 186.805818 
L 1135.741192 187.343235 
L 1136.881363 187.951526 
L 1137.843473 188.621077 
L 1138.605365 189.340866 
L 1139.149492 190.098713 
L 1139.463322 190.881561 
L 1139.539628 191.675778 
L 1139.376652 192.467469 
L 1138.978148 193.242798 
L 1138.353294 193.988307 
L 1137.516479 194.691222 
L 1136.486978 195.339752 
L 1135.288498 195.923359 
L 1133.948643 196.432998 
L 1130.970781 197.202885 
L 1127.82614 197.613871 
L 1124.802741 197.663287 
L 1122.177505 197.381582 
L 1120.19088 196.829529 
L 1119.496694 196.478088 
L 1119.024826 196.092667 
L 1118.786144 195.686541 
L 1118.786144 195.273459 
L 1119.024826 194.867333 
L 1119.496694 194.481912 
L 1120.19088 194.130471 
L 1121.091397 193.825499 
L 1123.42419 193.399316 
L 1126.281409 193.27737 
L 1129.401356 193.505804 
L 1132.49827 194.098671 
L 1135.288498 195.036641 
L 1136.486978 195.620248 
L 1137.516479 196.268778 
L 1138.353294 196.971693 
L 1138.978148 197.717202 
L 1139.376652 198.492531 
L 1139.539628 199.284222 
L 1139.463322 200.078439 
L 1139.149492 200.861287 
L 1138.605365 201.619134 
L 1137.843473 202.338923 
L 1136.881363 203.008474 
L 1135.741192 203.616765 
L 1134.44922 204.154182 
L 1131.531701 204.986294 
L 1128.396026 205.463568 
L 1125.329398 205.577264 
L 1122.612694 205.351941 
L 1120.494742 204.843212 
L 1119.72359 204.507237 
L 1119.16953 204.132645 
L 1118.845323 203.73246 
L 1118.758436 203.320295 
L 1118.910869 202.910041 
L 1119.299112 202.515542 
L 1119.914223 202.150281 
L 1120.742037 201.827067 
L 1122.955051 201.352903 
L 1125.735461 201.171453 
L 1128.828603 201.33431 
L 1131.951171 201.86153 
L 1134.817163 202.7398 
L 1136.070312 203.29753 
L 1137.164079 203.92365 
L 1138.073274 204.608136 
L 1138.776959 205.339622 
L 1139.258927 206.105658 
L 1139.508078 206.892999 
L 1139.518674 207.687909 
L 1139.29047 208.476479 
L 1138.828723 209.244942 
L 1138.144067 209.98 
L 1137.25227 210.669119 
L 1136.173871 211.300826 
L 1134.933705 211.86497 
L 1133.560334 212.352955 
L 1130.542835 213.074992 
L 1127.397753 213.435781 
L 1125.867656 213.48 
L 1125.867656 249.48 
L 1125.867656 249.48 
" clip-path="url(#p82a5a7ee80)" style="fill: none; stroke: #000000; stroke-width: 1.4; stroke-linecap: round"/>
   </g>
   <g id="line2d_28">
    <path d="M 1125.867656 249.48 
L 1125.867656 278.28 
L 1125.867656 307.08 
" clip-path="url(#p82a5a7ee80)" style="fill: none; stroke: #000000; stroke-width: 1.4; stroke-linecap: round"/>
   </g>
   <g id="line2d_29">
    <path d="M 1125.867656 307.08 
L 1068.267656 307.08 
L 1010.667656 307.08 
" clip-path="url(#p82a5a7ee80)" style="fill: none; stroke: #000000; stroke-width: 1.4; stroke-linecap: round"/>
   </g>
   <g id="line2d_30">
    <path d="M 863.067656 260.28 
L 863.067656 274.68 
L 863.067656 289.08 
" clip-path="url(#p82a5a7ee80)" style="fill: none; stroke: #000000; stroke-width: 1.4; stroke-linecap: round"/>
   </g>
   <g id="line2d_31">
    <path d="M 553.467656 267.48 
L 553.467656 281.88 
L 553.467656 296.28 
" clip-path="url(#p82a5a7ee80)" style="fill: none; stroke: #000000; stroke-width: 1.4; stroke-linecap: round"/>
   </g>
   <g id="line2d_32">
    <path d="M 589.467656 87.48 
L 589.467656 78.48 
L 589.467656 69.48 
" clip-path="url(#p82a5a7ee80)" style="fill: none; stroke: #000000; stroke-width: 1.4; stroke-linecap: round"/>
   </g>
   <g id="line2d_33">
    <path d="M 899.067656 22.68 
L 899.067656 13.68 
L 899.067656 4.68 
" clip-path="url(#p82a5a7ee80)" style="fill: none; stroke: #000000; stroke-width: 1.4; stroke-linecap: round"/>
   </g>
   <g id="line2d_34">
    <path d="M 625.467656 267.48 
L 625.467656 274.68 
L 625.467656 281.88 
" clip-path="url(#p82a5a7ee80)" style="fill: none; stroke: #000000; stroke-width: 1.4; stroke-linecap: round"/>
   </g>
   <g id="line2d_35">
    <path d="M 625.467656 281.88 
L 625.467656 296.28 
L 616.467656 296.28 
L 634.467656 296.28 
M 619.167656 300.6 
L 631.767656 300.6 
M 623.667656 304.92 
L 627.267656 304.92 
" clip-path="url(#p82a5a7ee80)" style="fill: none; stroke: #000000; stroke-width: 1.4; stroke-linecap: round"/>
   </g>
   <g id="line2d_36">
    <path d="M 935.067656 260.28 
L 935.067656 267.48 
L 935.067656 274.68 
" clip-path="url(#p82a5a7ee80)" style="fill: none; stroke: #000000; stroke-width: 1.4; stroke-linecap: round"/>
   </g>
   <g id="line2d_37">
    <path d="M 935.067656 274.68 
L 935.067656 289.08 
L 926.067656 289.08 
L 944.067656 289.08 
M 928.767656 293.4 
L 941.367656 293.4 
M 933.267656 297.72 
L 936.867656 297.72 
" clip-path="url(#p82a5a7ee80)" style="fill: none; stroke: #000000; stroke-width: 1.4; stroke-linecap: round"/>
   </g>
   <g id="text_1">
    <!-- F1 -->
    <g transform="translate(294.804922 152.389844) scale(0.11 -0.11)">
     <defs>
      <path id="DejaVuSans-29" d="M 628 4666 
L 3309 4666 
L 3309 4134 
L 1259 4134 
L 1259 2759 
L 3109 2759 
L 3109 2228 
L 1259 2228 
L 1259 0 
L 628 0 
L 628 4666 
z
" transform="scale(0.015625)"/>
      <path id="DejaVuSans-14" d="M 794 531 
L 1825 531 
L 1825 4091 
L 703 3866 
L 703 4441 
L 1819 4666 
L 2450 4666 
L 2450 531 
L 3481 531 
L 3481 0 
L 794 0 
L 794 531 
z
" transform="scale(0.015625)"/>
     </defs>
     <use xlink:href="#DejaVuSans-29"/>
     <use xlink:href="#DejaVuSans-14" transform="translate(57.515625 0)"/>
    </g>
    <!-- 1 A -->
    <g transform="translate(292.457969 163.389844) scale(0.11 -0.11)">
     <defs>
      <path id="DejaVuSans-3" transform="scale(0.015625)"/>
      <path id="DejaVuSans-24" d="M 2188 4044 
L 1331 1722 
L 3047 1722 
L 2188 4044 
z
M 1831 4666 
L 2547 4666 
L 4325 0 
L 3669 0 
L 3244 1197 
L 1141 1197 
L 716 0 
L 50 0 
L 1831 4666 
z
" transform="scale(0.015625)"/>
     </defs>
     <use xlink:href="#DejaVuSans-14"/>
     <use xlink:href="#DejaVuSans-3" transform="translate(63.625 0)"/>
     <use xlink:href="#DejaVuSans-24" transform="translate(95.40625 0)"/>
    </g>
   </g>
   <g id="text_2">
    <!-- RV1 -->
    <g transform="translate(404.067656 262.389844) scale(0.11 -0.11)">
     <defs>
      <path id="DejaVuSans-35" d="M 2841 2188 
Q 3044 2119 3236 1894 
Q 3428 1669 3622 1275 
L 4263 0 
L 3584 0 
L 2988 1197 
Q 2756 1666 2539 1819 
Q 2322 1972 1947 1972 
L 1259 1972 
L 1259 0 
L 628 0 
L 628 4666 
L 2053 4666 
Q 2853 4666 3247 4331 
Q 3641 3997 3641 3322 
Q 3641 2881 3436 2590 
Q 3231 2300 2841 2188 
z
M 1259 4147 
L 1259 2491 
L 2053 2491 
Q 2509 2491 2742 2702 
Q 2975 2913 2975 3322 
Q 2975 3731 2742 3939 
Q 2509 4147 2053 4147 
L 1259 4147 
z
" transform="scale(0.015625)"/>
      <path id="DejaVuSans-39" d="M 1831 0 
L 50 4666 
L 709 4666 
L 2188 738 
L 3669 4666 
L 4325 4666 
L 2547 0 
L 1831 0 
z
" transform="scale(0.015625)"/>
     </defs>
     <use xlink:href="#DejaVuSans-35"/>
     <use xlink:href="#DejaVuSans-39" transform="translate(64.015625 0)"/>
     <use xlink:href="#DejaVuSans-14" transform="translate(132.421875 0)"/>
    </g>
    <!-- MOV 39V -->
    <g transform="translate(404.067656 273.383828) scale(0.11 -0.11)">
     <defs>
      <path id="DejaVuSans-30" d="M 628 4666 
L 1569 4666 
L 2759 1491 
L 3956 4666 
L 4897 4666 
L 4897 0 
L 4281 0 
L 4281 4097 
L 3078 897 
L 2444 897 
L 1241 4097 
L 1241 0 
L 628 0 
L 628 4666 
z
" transform="scale(0.015625)"/>
      <path id="DejaVuSans-32" d="M 2522 4238 
Q 1834 4238 1429 3725 
Q 1025 3213 1025 2328 
Q 1025 1447 1429 934 
Q 1834 422 2522 422 
Q 3209 422 3611 934 
Q 4013 1447 4013 2328 
Q 4013 3213 3611 3725 
Q 3209 4238 2522 4238 
z
M 2522 4750 
Q 3503 4750 4090 4092 
Q 4678 3434 4678 2328 
Q 4678 1225 4090 567 
Q 3503 -91 2522 -91 
Q 1538 -91 948 565 
Q 359 1222 359 2328 
Q 359 3434 948 4092 
Q 1538 4750 2522 4750 
z
" transform="scale(0.015625)"/>
      <path id="DejaVuSans-16" d="M 2597 2516 
Q 3050 2419 3304 2112 
Q 3559 1806 3559 1356 
Q 3559 666 3084 287 
Q 2609 -91 1734 -91 
Q 1441 -91 1130 -33 
Q 819 25 488 141 
L 488 750 
Q 750 597 1062 519 
Q 1375 441 1716 441 
Q 2309 441 2620 675 
Q 2931 909 2931 1356 
Q 2931 1769 2642 2001 
Q 2353 2234 1838 2234 
L 1294 2234 
L 1294 2753 
L 1863 2753 
Q 2328 2753 2575 2939 
Q 2822 3125 2822 3475 
Q 2822 3834 2567 4026 
Q 2313 4219 1838 4219 
Q 1578 4219 1281 4162 
Q 984 4106 628 3988 
L 628 4550 
Q 988 4650 1302 4700 
Q 1616 4750 1894 4750 
Q 2613 4750 3031 4423 
Q 3450 4097 3450 3541 
Q 3450 3153 3228 2886 
Q 3006 2619 2597 2516 
z
" transform="scale(0.015625)"/>
      <path id="DejaVuSans-1c" d="M 703 97 
L 703 672 
Q 941 559 1184 500 
Q 1428 441 1663 441 
Q 2288 441 2617 861 
Q 2947 1281 2994 2138 
Q 2813 1869 2534 1725 
Q 2256 1581 1919 1581 
Q 1219 1581 811 2004 
Q 403 2428 403 3163 
Q 403 3881 828 4315 
Q 1253 4750 1959 4750 
Q 2769 4750 3195 4129 
Q 3622 3509 3622 2328 
Q 3622 1225 3098 567 
Q 2575 -91 1691 -91 
Q 1453 -91 1209 -44 
Q 966 3 703 97 
z
M 1959 2075 
Q 2384 2075 2632 2365 
Q 2881 2656 2881 3163 
Q 2881 3666 2632 3958 
Q 2384 4250 1959 4250 
Q 1534 4250 1286 3958 
Q 1038 3666 1038 3163 
Q 1038 2656 1286 2365 
Q 1534 2075 1959 2075 
z
" transform="scale(0.015625)"/>
     </defs>
     <use xlink:href="#DejaVuSans-30"/>
     <use xlink:href="#DejaVuSans-32" transform="translate(86.28125 0)"/>
     <use xlink:href="#DejaVuSans-39" transform="translate(163.25 0)"/>
     <use xlink:href="#DejaVuSans-3" transform="translate(231.65625 0)"/>
     <use xlink:href="#DejaVuSans-16" transform="translate(263.4375 0)"/>
     <use xlink:href="#DejaVuSans-1c" transform="translate(327.0625 0)"/>
     <use xlink:href="#DejaVuSans-39" transform="translate(390.6875 0)"/>
    </g>
   </g>
   <g id="text_3">
    <!-- 24VAC_HOT -->
    <g transform="translate(402.176406 171.165234) scale(0.11 -0.11)">
     <defs>
      <path id="DejaVuSans-15" d="M 1228 531 
L 3431 531 
L 3431 0 
L 469 0 
L 469 531 
Q 828 903 1448 1529 
Q 2069 2156 2228 2338 
Q 2531 2678 2651 2914 
Q 2772 3150 2772 3378 
Q 2772 3750 2511 3984 
Q 2250 4219 1831 4219 
Q 1534 4219 1204 4116 
Q 875 4013 500 3803 
L 500 4441 
Q 881 4594 1212 4672 
Q 1544 4750 1819 4750 
Q 2544 4750 2975 4387 
Q 3406 4025 3406 3419 
Q 3406 3131 3298 2873 
Q 3191 2616 2906 2266 
Q 2828 2175 2409 1742 
Q 1991 1309 1228 531 
z
" transform="scale(0.015625)"/>
      <path id="DejaVuSans-17" d="M 2419 4116 
L 825 1625 
L 2419 1625 
L 2419 4116 
z
M 2253 4666 
L 3047 4666 
L 3047 1625 
L 3713 1625 
L 3713 1100 
L 3047 1100 
L 3047 0 
L 2419 0 
L 2419 1100 
L 313 1100 
L 313 1709 
L 2253 4666 
z
" transform="scale(0.015625)"/>
      <path id="DejaVuSans-26" d="M 4122 4306 
L 4122 3641 
Q 3803 3938 3442 4084 
Q 3081 4231 2675 4231 
Q 1875 4231 1450 3742 
Q 1025 3253 1025 2328 
Q 1025 1406 1450 917 
Q 1875 428 2675 428 
Q 3081 428 3442 575 
Q 3803 722 4122 1019 
L 4122 359 
Q 3791 134 3420 21 
Q 3050 -91 2638 -91 
Q 1578 -91 968 557 
Q 359 1206 359 2328 
Q 359 3453 968 4101 
Q 1578 4750 2638 4750 
Q 3056 4750 3426 4639 
Q 3797 4528 4122 4306 
z
" transform="scale(0.015625)"/>
      <path id="DejaVuSans-42" d="M 3263 -1063 
L 3263 -1509 
L -63 -1509 
L -63 -1063 
L 3263 -1063 
z
" transform="scale(0.015625)"/>
      <path id="DejaVuSans-2b" d="M 628 4666 
L 1259 4666 
L 1259 2753 
L 3553 2753 
L 3553 4666 
L 4184 4666 
L 4184 0 
L 3553 0 
L 3553 2222 
L 1259 2222 
L 1259 0 
L 628 0 
L 628 4666 
z
" transform="scale(0.015625)"/>
      <path id="DejaVuSans-37" d="M -19 4666 
L 3928 4666 
L 3928 4134 
L 2272 4134 
L 2272 0 
L 1638 0 
L 1638 4134 
L -19 4134 
L -19 4666 
z
" transform="scale(0.015625)"/>
     </defs>
     <use xlink:href="#DejaVuSans-15"/>
     <use xlink:href="#DejaVuSans-17" transform="translate(63.625 0)"/>
     <use xlink:href="#DejaVuSans-39" transform="translate(127.25 0)"/>
     <use xlink:href="#DejaVuSans-24" transform="translate(189.265625 0)"/>
     <use xlink:href="#DejaVuSans-26" transform="translate(255.921875 0)"/>
     <use xlink:href="#DejaVuSans-42" transform="translate(325.75 0)"/>
     <use xlink:href="#DejaVuSans-2b" transform="translate(375.75 0)"/>
     <use xlink:href="#DejaVuSans-32" transform="translate(450.953125 0)"/>
     <use xlink:href="#DejaVuSans-37" transform="translate(529.671875 0)"/>
    </g>
   </g>
   <g id="text_4">
    <!-- C1 -->
    <g transform="translate(492.887812 173.283828) scale(0.11 -0.11)">
     <use xlink:href="#DejaVuSans-26"/>
     <use xlink:href="#DejaVuSans-14" transform="translate(69.828125 0)"/>
    </g>
   </g>
   <g id="text_5">
    <!-- COM1 -->
    <g transform="translate(515.667656 182.575781) scale(0.14 -0.14)">
     <use xlink:href="#DejaVuSans-26"/>
     <use xlink:href="#DejaVuSans-32" transform="translate(69.828125 0)"/>
     <use xlink:href="#DejaVuSans-30" transform="translate(148.546875 0)"/>
     <use xlink:href="#DejaVuSans-14" transform="translate(234.828125 0)"/>
    </g>
   </g>
   <g id="text_6">
    <!-- NO1 -->
    <g transform="translate(632.865781 182.575781) scale(0.14 -0.14)">
     <defs>
      <path id="DejaVuSans-31" d="M 628 4666 
L 1478 4666 
L 3547 763 
L 3547 4666 
L 4159 4666 
L 4159 0 
L 3309 0 
L 1241 3903 
L 1241 0 
L 628 0 
L 628 4666 
z
" transform="scale(0.015625)"/>
     </defs>
     <use xlink:href="#DejaVuSans-31"/>
     <use xlink:href="#DejaVuSans-32" transform="translate(74.8125 0)"/>
     <use xlink:href="#DejaVuSans-14" transform="translate(153.53125 0)"/>
    </g>
   </g>
   <g id="text_7">
    <!-- VCC -->
    <g transform="translate(574.903281 137.375781) scale(0.14 -0.14)">
     <use xlink:href="#DejaVuSans-39"/>
     <use xlink:href="#DejaVuSans-26" transform="translate(68.40625 0)"/>
     <use xlink:href="#DejaVuSans-26" transform="translate(138.234375 0)"/>
    </g>
   </g>
   <g id="text_8">
    <!-- IN1 -->
    <g transform="translate(541.712031 227.783438) scale(0.14 -0.14)">
     <defs>
      <path id="DejaVuSans-2c" d="M 628 4666 
L 1259 4666 
L 1259 0 
L 628 0 
L 628 4666 
z
" transform="scale(0.015625)"/>
     </defs>
     <use xlink:href="#DejaVuSans-2c"/>
     <use xlink:href="#DejaVuSans-31" transform="translate(29.5 0)"/>
     <use xlink:href="#DejaVuSans-14" transform="translate(104.3125 0)"/>
    </g>
   </g>
   <g id="text_9">
    <!-- GND -->
    <g transform="translate(609.416875 227.775781) scale(0.14 -0.14)">
     <defs>
      <path id="DejaVuSans-2a" d="M 3809 666 
L 3809 1919 
L 2778 1919 
L 2778 2438 
L 4434 2438 
L 4434 434 
Q 4069 175 3628 42 
Q 3188 -91 2688 -91 
Q 1594 -91 976 548 
Q 359 1188 359 2328 
Q 359 3472 976 4111 
Q 1594 4750 2688 4750 
Q 3144 4750 3555 4637 
Q 3966 4525 4313 4306 
L 4313 3634 
Q 3963 3931 3569 4081 
Q 3175 4231 2741 4231 
Q 1884 4231 1454 3753 
Q 1025 3275 1025 2328 
Q 1025 1384 1454 906 
Q 1884 428 2741 428 
Q 3075 428 3337 486 
Q 3600 544 3809 666 
z
" transform="scale(0.015625)"/>
      <path id="DejaVuSans-27" d="M 1259 4147 
L 1259 519 
L 2022 519 
Q 2988 519 3436 956 
Q 3884 1394 3884 2338 
Q 3884 3275 3436 3711 
Q 2988 4147 2022 4147 
L 1259 4147 
z
M 628 4666 
L 1925 4666 
Q 3281 4666 3915 4102 
Q 4550 3538 4550 2338 
Q 4550 1131 3912 565 
Q 3275 0 1925 0 
L 628 0 
L 628 4666 
z
" transform="scale(0.015625)"/>
     </defs>
     <use xlink:href="#DejaVuSans-2a"/>
     <use xlink:href="#DejaVuSans-31" transform="translate(77.484375 0)"/>
     <use xlink:href="#DejaVuSans-27" transform="translate(152.296875 0)"/>
    </g>
   </g>
   <g id="text_10">
    <!-- ZONE BANK -->
    <g transform="translate(566.319375 163.655859) scale(0.09 -0.09)">
     <defs>
      <path id="DejaVuSans-3d" d="M 359 4666 
L 4025 4666 
L 4025 4184 
L 1075 531 
L 4097 531 
L 4097 0 
L 288 0 
L 288 481 
L 3238 4134 
L 359 4134 
L 359 4666 
z
" transform="scale(0.015625)"/>
      <path id="DejaVuSans-28" d="M 628 4666 
L 3578 4666 
L 3578 4134 
L 1259 4134 
L 1259 2753 
L 3481 2753 
L 3481 2222 
L 1259 2222 
L 1259 531 
L 3634 531 
L 3634 0 
L 628 0 
L 628 4666 
z
" transform="scale(0.015625)"/>
      <path id="DejaVuSans-25" d="M 1259 2228 
L 1259 519 
L 2272 519 
Q 2781 519 3026 730 
Q 3272 941 3272 1375 
Q 3272 1813 3026 2020 
Q 2781 2228 2272 2228 
L 1259 2228 
z
M 1259 4147 
L 1259 2741 
L 2194 2741 
Q 2656 2741 2882 2914 
Q 3109 3088 3109 3444 
Q 3109 3797 2882 3972 
Q 2656 4147 2194 4147 
L 1259 4147 
z
M 628 4666 
L 2241 4666 
Q 2963 4666 3353 4366 
Q 3744 4066 3744 3513 
Q 3744 3084 3544 2831 
Q 3344 2578 2956 2516 
Q 3422 2416 3680 2098 
Q 3938 1781 3938 1306 
Q 3938 681 3513 340 
Q 3088 0 2303 0 
L 628 0 
L 628 4666 
z
" transform="scale(0.015625)"/>
      <path id="DejaVuSans-2e" d="M 628 4666 
L 1259 4666 
L 1259 2694 
L 3353 4666 
L 4166 4666 
L 1850 2491 
L 4331 0 
L 3500 0 
L 1259 2247 
L 1259 0 
L 628 0 
L 628 4666 
z
" transform="scale(0.015625)"/>
     </defs>
     <use xlink:href="#DejaVuSans-3d"/>
     <use xlink:href="#DejaVuSans-32" transform="translate(68.5 0)"/>
     <use xlink:href="#DejaVuSans-31" transform="translate(147.21875 0)"/>
     <use xlink:href="#DejaVuSans-28" transform="translate(222.03125 0)"/>
     <use xlink:href="#DejaVuSans-3" transform="translate(285.21875 0)"/>
     <use xlink:href="#DejaVuSans-25" transform="translate(317 0)"/>
     <use xlink:href="#DejaVuSans-24" transform="translate(385.609375 0)"/>
     <use xlink:href="#DejaVuSans-31" transform="translate(454.015625 0)"/>
     <use xlink:href="#DejaVuSans-2e" transform="translate(528.828125 0)"/>
    </g>
    <!-- 8-ch relay board -->
    <g transform="translate(556.207734 171.863438) scale(0.09 -0.09)">
     <defs>
      <path id="DejaVuSans-1b" d="M 2034 2216 
Q 1584 2216 1326 1975 
Q 1069 1734 1069 1313 
Q 1069 891 1326 650 
Q 1584 409 2034 409 
Q 2484 409 2743 651 
Q 3003 894 3003 1313 
Q 3003 1734 2745 1975 
Q 2488 2216 2034 2216 
z
M 1403 2484 
Q 997 2584 770 2862 
Q 544 3141 544 3541 
Q 544 4100 942 4425 
Q 1341 4750 2034 4750 
Q 2731 4750 3128 4425 
Q 3525 4100 3525 3541 
Q 3525 3141 3298 2862 
Q 3072 2584 2669 2484 
Q 3125 2378 3379 2068 
Q 3634 1759 3634 1313 
Q 3634 634 3220 271 
Q 2806 -91 2034 -91 
Q 1263 -91 848 271 
Q 434 634 434 1313 
Q 434 1759 690 2068 
Q 947 2378 1403 2484 
z
M 1172 3481 
Q 1172 3119 1398 2916 
Q 1625 2713 2034 2713 
Q 2441 2713 2670 2916 
Q 2900 3119 2900 3481 
Q 2900 3844 2670 4047 
Q 2441 4250 2034 4250 
Q 1625 4250 1398 4047 
Q 1172 3844 1172 3481 
z
" transform="scale(0.015625)"/>
      <path id="DejaVuSans-10" d="M 313 2009 
L 1997 2009 
L 1997 1497 
L 313 1497 
L 313 2009 
z
" transform="scale(0.015625)"/>
      <path id="DejaVuSans-46" d="M 3122 3366 
L 3122 2828 
Q 2878 2963 2633 3030 
Q 2388 3097 2138 3097 
Q 1578 3097 1268 2742 
Q 959 2388 959 1747 
Q 959 1106 1268 751 
Q 1578 397 2138 397 
Q 2388 397 2633 464 
Q 2878 531 3122 666 
L 3122 134 
Q 2881 22 2623 -34 
Q 2366 -91 2075 -91 
Q 1284 -91 818 406 
Q 353 903 353 1747 
Q 353 2603 823 3093 
Q 1294 3584 2113 3584 
Q 2378 3584 2631 3529 
Q 2884 3475 3122 3366 
z
" transform="scale(0.015625)"/>
      <path id="DejaVuSans-4b" d="M 3513 2113 
L 3513 0 
L 2938 0 
L 2938 2094 
Q 2938 2591 2744 2837 
Q 2550 3084 2163 3084 
Q 1697 3084 1428 2787 
Q 1159 2491 1159 1978 
L 1159 0 
L 581 0 
L 581 4863 
L 1159 4863 
L 1159 2956 
Q 1366 3272 1645 3428 
Q 1925 3584 2291 3584 
Q 2894 3584 3203 3211 
Q 3513 2838 3513 2113 
z
" transform="scale(0.015625)"/>
      <path id="DejaVuSans-55" d="M 2631 2963 
Q 2534 3019 2420 3045 
Q 2306 3072 2169 3072 
Q 1681 3072 1420 2755 
Q 1159 2438 1159 1844 
L 1159 0 
L 581 0 
L 581 3500 
L 1159 3500 
L 1159 2956 
Q 1341 3275 1631 3429 
Q 1922 3584 2338 3584 
Q 2397 3584 2469 3576 
Q 2541 3569 2628 3553 
L 2631 2963 
z
" transform="scale(0.015625)"/>
      <path id="DejaVuSans-48" d="M 3597 1894 
L 3597 1613 
L 953 1613 
Q 991 1019 1311 708 
Q 1631 397 2203 397 
Q 2534 397 2845 478 
Q 3156 559 3463 722 
L 3463 178 
Q 3153 47 2828 -22 
Q 2503 -91 2169 -91 
Q 1331 -91 842 396 
Q 353 884 353 1716 
Q 353 2575 817 3079 
Q 1281 3584 2069 3584 
Q 2775 3584 3186 3129 
Q 3597 2675 3597 1894 
z
M 3022 2063 
Q 3016 2534 2758 2815 
Q 2500 3097 2075 3097 
Q 1594 3097 1305 2825 
Q 1016 2553 972 2059 
L 3022 2063 
z
" transform="scale(0.015625)"/>
      <path id="DejaVuSans-4f" d="M 603 4863 
L 1178 4863 
L 1178 0 
L 603 0 
L 603 4863 
z
" transform="scale(0.015625)"/>
      <path id="DejaVuSans-44" d="M 2194 1759 
Q 1497 1759 1228 1600 
Q 959 1441 959 1056 
Q 959 750 1161 570 
Q 1363 391 1709 391 
Q 2188 391 2477 730 
Q 2766 1069 2766 1631 
L 2766 1759 
L 2194 1759 
z
M 3341 1997 
L 3341 0 
L 2766 0 
L 2766 531 
Q 2569 213 2275 61 
Q 1981 -91 1556 -91 
Q 1019 -91 701 211 
Q 384 513 384 1019 
Q 384 1609 779 1909 
Q 1175 2209 1959 2209 
L 2766 2209 
L 2766 2266 
Q 2766 2663 2505 2880 
Q 2244 3097 1772 3097 
Q 1472 3097 1187 3025 
Q 903 2953 641 2809 
L 641 3341 
Q 956 3463 1253 3523 
Q 1550 3584 1831 3584 
Q 2591 3584 2966 3190 
Q 3341 2797 3341 1997 
z
" transform="scale(0.015625)"/>
      <path id="DejaVuSans-5c" d="M 2059 -325 
Q 1816 -950 1584 -1140 
Q 1353 -1331 966 -1331 
L 506 -1331 
L 506 -850 
L 844 -850 
Q 1081 -850 1212 -737 
Q 1344 -625 1503 -206 
L 1606 56 
L 191 3500 
L 800 3500 
L 1894 763 
L 2988 3500 
L 3597 3500 
L 2059 -325 
z
" transform="scale(0.015625)"/>
      <path id="DejaVuSans-45" d="M 3116 1747 
Q 3116 2381 2855 2742 
Q 2594 3103 2138 3103 
Q 1681 3103 1420 2742 
Q 1159 2381 1159 1747 
Q 1159 1113 1420 752 
Q 1681 391 2138 391 
Q 2594 391 2855 752 
Q 3116 1113 3116 1747 
z
M 1159 2969 
Q 1341 3281 1617 3432 
Q 1894 3584 2278 3584 
Q 2916 3584 3314 3078 
Q 3713 2572 3713 1747 
Q 3713 922 3314 415 
Q 2916 -91 2278 -91 
Q 1894 -91 1617 61 
Q 1341 213 1159 525 
L 1159 0 
L 581 0 
L 581 4863 
L 1159 4863 
L 1159 2969 
z
" transform="scale(0.015625)"/>
      <path id="DejaVuSans-52" d="M 1959 3097 
Q 1497 3097 1228 2736 
Q 959 2375 959 1747 
Q 959 1119 1226 758 
Q 1494 397 1959 397 
Q 2419 397 2687 759 
Q 2956 1122 2956 1747 
Q 2956 2369 2687 2733 
Q 2419 3097 1959 3097 
z
M 1959 3584 
Q 2709 3584 3137 3096 
Q 3566 2609 3566 1747 
Q 3566 888 3137 398 
Q 2709 -91 1959 -91 
Q 1206 -91 779 398 
Q 353 888 353 1747 
Q 353 2609 779 3096 
Q 1206 3584 1959 3584 
z
" transform="scale(0.015625)"/>
      <path id="DejaVuSans-47" d="M 2906 2969 
L 2906 4863 
L 3481 4863 
L 3481 0 
L 2906 0 
L 2906 525 
Q 2725 213 2448 61 
Q 2172 -91 1784 -91 
Q 1150 -91 751 415 
Q 353 922 353 1747 
Q 353 2572 751 3078 
Q 1150 3584 1784 3584 
Q 2172 3584 2448 3432 
Q 2725 3281 2906 2969 
z
M 947 1747 
Q 947 1113 1208 752 
Q 1469 391 1925 391 
Q 2381 391 2643 752 
Q 2906 1113 2906 1747 
Q 2906 2381 2643 2742 
Q 2381 3103 1925 3103 
Q 1469 3103 1208 2742 
Q 947 2381 947 1747 
z
" transform="scale(0.015625)"/>
     </defs>
     <use xlink:href="#DejaVuSans-1b"/>
     <use xlink:href="#DejaVuSans-10" transform="translate(63.625 0)"/>
     <use xlink:href="#DejaVuSans-46" transform="translate(99.703125 0)"/>
     <use xlink:href="#DejaVuSans-4b" transform="translate(154.6875 0)"/>
     <use xlink:href="#DejaVuSans-3" transform="translate(218.0625 0)"/>
     <use xlink:href="#DejaVuSans-55" transform="translate(249.84375 0)"/>
     <use xlink:href="#DejaVuSans-48" transform="translate(288.75 0)"/>
     <use xlink:href="#DejaVuSans-4f" transform="translate(350.28125 0)"/>
     <use xlink:href="#DejaVuSans-44" transform="translate(378.0625 0)"/>
     <use xlink:href="#DejaVuSans-5c" transform="translate(439.34375 0)"/>
     <use xlink:href="#DejaVuSans-3" transform="translate(498.53125 0)"/>
     <use xlink:href="#DejaVuSans-45" transform="translate(530.3125 0)"/>
     <use xlink:href="#DejaVuSans-52" transform="translate(593.796875 0)"/>
     <use xlink:href="#DejaVuSans-44" transform="translate(654.984375 0)"/>
     <use xlink:href="#DejaVuSans-55" transform="translate(716.265625 0)"/>
     <use xlink:href="#DejaVuSans-47" transform="translate(755.625 0)"/>
    </g>
    <!-- relay K1 shown -->
    <g transform="translate(558.720703 180.863438) scale(0.09 -0.09)">
     <defs>
      <path id="DejaVuSans-56" d="M 2834 3397 
L 2834 2853 
Q 2591 2978 2328 3040 
Q 2066 3103 1784 3103 
Q 1356 3103 1142 2972 
Q 928 2841 928 2578 
Q 928 2378 1081 2264 
Q 1234 2150 1697 2047 
L 1894 2003 
Q 2506 1872 2764 1633 
Q 3022 1394 3022 966 
Q 3022 478 2636 193 
Q 2250 -91 1575 -91 
Q 1294 -91 989 -36 
Q 684 19 347 128 
L 347 722 
Q 666 556 975 473 
Q 1284 391 1588 391 
Q 1994 391 2212 530 
Q 2431 669 2431 922 
Q 2431 1156 2273 1281 
Q 2116 1406 1581 1522 
L 1381 1569 
Q 847 1681 609 1914 
Q 372 2147 372 2553 
Q 372 3047 722 3315 
Q 1072 3584 1716 3584 
Q 2034 3584 2315 3537 
Q 2597 3491 2834 3397 
z
" transform="scale(0.015625)"/>
      <path id="DejaVuSans-5a" d="M 269 3500 
L 844 3500 
L 1563 769 
L 2278 3500 
L 2956 3500 
L 3675 769 
L 4391 3500 
L 4966 3500 
L 4050 0 
L 3372 0 
L 2619 2869 
L 1863 0 
L 1184 0 
L 269 3500 
z
" transform="scale(0.015625)"/>
      <path id="DejaVuSans-51" d="M 3513 2113 
L 3513 0 
L 2938 0 
L 2938 2094 
Q 2938 2591 2744 2837 
Q 2550 3084 2163 3084 
Q 1697 3084 1428 2787 
Q 1159 2491 1159 1978 
L 1159 0 
L 581 0 
L 581 3500 
L 1159 3500 
L 1159 2956 
Q 1366 3272 1645 3428 
Q 1925 3584 2291 3584 
Q 2894 3584 3203 3211 
Q 3513 2838 3513 2113 
z
" transform="scale(0.015625)"/>
     </defs>
     <use xlink:href="#DejaVuSans-55"/>
     <use xlink:href="#DejaVuSans-48" transform="translate(38.90625 0)"/>
     <use xlink:href="#DejaVuSans-4f" transform="translate(100.4375 0)"/>
     <use xlink:href="#DejaVuSans-44" transform="translate(128.21875 0)"/>
     <use xlink:href="#DejaVuSans-5c" transform="translate(189.5 0)"/>
     <use xlink:href="#DejaVuSans-3" transform="translate(248.6875 0)"/>
     <use xlink:href="#DejaVuSans-2e" transform="translate(280.46875 0)"/>
     <use xlink:href="#DejaVuSans-14" transform="translate(346.046875 0)"/>
     <use xlink:href="#DejaVuSans-3" transform="translate(409.671875 0)"/>
     <use xlink:href="#DejaVuSans-56" transform="translate(441.453125 0)"/>
     <use xlink:href="#DejaVuSans-4b" transform="translate(493.546875 0)"/>
     <use xlink:href="#DejaVuSans-52" transform="translate(556.921875 0)"/>
     <use xlink:href="#DejaVuSans-5a" transform="translate(618.109375 0)"/>
     <use xlink:href="#DejaVuSans-51" transform="translate(699.890625 0)"/>
    </g>
    <!-- (typ. of 7) -->
    <g transform="translate(570.780703 189.863438) scale(0.09 -0.09)">
     <defs>
      <path id="DejaVuSans-b" d="M 1984 4856 
Q 1566 4138 1362 3434 
Q 1159 2731 1159 2009 
Q 1159 1288 1364 580 
Q 1569 -128 1984 -844 
L 1484 -844 
Q 1016 -109 783 600 
Q 550 1309 550 2009 
Q 550 2706 781 3412 
Q 1013 4119 1484 4856 
L 1984 4856 
z
" transform="scale(0.015625)"/>
      <path id="DejaVuSans-57" d="M 1172 4494 
L 1172 3500 
L 2356 3500 
L 2356 3053 
L 1172 3053 
L 1172 1153 
Q 1172 725 1289 603 
Q 1406 481 1766 481 
L 2356 481 
L 2356 0 
L 1766 0 
Q 1100 0 847 248 
Q 594 497 594 1153 
L 594 3053 
L 172 3053 
L 172 3500 
L 594 3500 
L 594 4494 
L 1172 4494 
z
" transform="scale(0.015625)"/>
      <path id="DejaVuSans-53" d="M 1159 525 
L 1159 -1331 
L 581 -1331 
L 581 3500 
L 1159 3500 
L 1159 2969 
Q 1341 3281 1617 3432 
Q 1894 3584 2278 3584 
Q 2916 3584 3314 3078 
Q 3713 2572 3713 1747 
Q 3713 922 3314 415 
Q 2916 -91 2278 -91 
Q 1894 -91 1617 61 
Q 1341 213 1159 525 
z
M 3116 1747 
Q 3116 2381 2855 2742 
Q 2594 3103 2138 3103 
Q 1681 3103 1420 2742 
Q 1159 2381 1159 1747 
Q 1159 1113 1420 752 
Q 1681 391 2138 391 
Q 2594 391 2855 752 
Q 3116 1113 3116 1747 
z
" transform="scale(0.015625)"/>
      <path id="DejaVuSans-11" d="M 684 794 
L 1344 794 
L 1344 0 
L 684 0 
L 684 794 
z
" transform="scale(0.015625)"/>
      <path id="DejaVuSans-49" d="M 2375 4863 
L 2375 4384 
L 1825 4384 
Q 1516 4384 1395 4259 
Q 1275 4134 1275 3809 
L 1275 3500 
L 2222 3500 
L 2222 3053 
L 1275 3053 
L 1275 0 
L 697 0 
L 697 3053 
L 147 3053 
L 147 3500 
L 697 3500 
L 697 3744 
Q 697 4328 969 4595 
Q 1241 4863 1831 4863 
L 2375 4863 
z
" transform="scale(0.015625)"/>
      <path id="DejaVuSans-1a" d="M 525 4666 
L 3525 4666 
L 3525 4397 
L 1831 0 
L 1172 0 
L 2766 4134 
L 525 4134 
L 525 4666 
z
" transform="scale(0.015625)"/>
      <path id="DejaVuSans-c" d="M 513 4856 
L 1013 4856 
Q 1481 4119 1714 3412 
Q 1947 2706 1947 2009 
Q 1947 1309 1714 600 
Q 1481 -109 1013 -844 
L 513 -844 
Q 928 -128 1133 580 
Q 1338 1288 1338 2009 
Q 1338 2731 1133 3434 
Q 928 4138 513 4856 
z
" transform="scale(0.015625)"/>
     </defs>
     <use xlink:href="#DejaVuSans-b"/>
     <use xlink:href="#DejaVuSans-57" transform="translate(39.015625 0)"/>
     <use xlink:href="#DejaVuSans-5c" transform="translate(78.21875 0)"/>
     <use xlink:href="#DejaVuSans-53" transform="translate(137.40625 0)"/>
     <use xlink:href="#DejaVuSans-11" transform="translate(200.890625 0)"/>
     <use xlink:href="#DejaVuSans-3" transform="translate(232.671875 0)"/>
     <use xlink:href="#DejaVuSans-52" transform="translate(264.453125 0)"/>
     <use xlink:href="#DejaVuSans-49" transform="translate(325.640625 0)"/>
     <use xlink:href="#DejaVuSans-3" transform="translate(360.84375 0)"/>
     <use xlink:href="#DejaVuSans-1a" transform="translate(392.625 0)"/>
     <use xlink:href="#DejaVuSans-c" transform="translate(456.25 0)"/>
    </g>
   </g>
   <g id="text_11">
    <!-- NO1 -->
    <g transform="translate(818.067656 182.575781) scale(0.14 -0.14)">
     <use xlink:href="#DejaVuSans-31"/>
     <use xlink:href="#DejaVuSans-32" transform="translate(74.8125 0)"/>
     <use xlink:href="#DejaVuSans-14" transform="translate(153.53125 0)"/>
    </g>
   </g>
   <g id="text_12">
    <!-- NC1 -->
    <g transform="translate(818.067656 110.575781) scale(0.14 -0.14)">
     <use xlink:href="#DejaVuSans-31"/>
     <use xlink:href="#DejaVuSans-26" transform="translate(74.8125 0)"/>
     <use xlink:href="#DejaVuSans-14" transform="translate(144.640625 0)"/>
    </g>
   </g>
   <g id="text_13">
    <!-- COM1 -->
    <g transform="translate(988.167656 137.283828) scale(0.11 -0.11)">
     <use xlink:href="#DejaVuSans-26"/>
     <use xlink:href="#DejaVuSans-32" transform="translate(69.828125 0)"/>
     <use xlink:href="#DejaVuSans-30" transform="translate(148.546875 0)"/>
     <use xlink:href="#DejaVuSans-14" transform="translate(234.828125 0)"/>
    </g>
   </g>
   <g id="text_14">
    <!-- C1 -->
    <g transform="translate(961.384219 146.575781) scale(0.14 -0.14)">
     <use xlink:href="#DejaVuSans-26"/>
     <use xlink:href="#DejaVuSans-14" transform="translate(69.828125 0)"/>
    </g>
   </g>
   <g id="text_15">
    <!-- VCC -->
    <g transform="translate(884.503281 72.575781) scale(0.14 -0.14)">
     <use xlink:href="#DejaVuSans-39"/>
     <use xlink:href="#DejaVuSans-26" transform="translate(68.40625 0)"/>
     <use xlink:href="#DejaVuSans-26" transform="translate(138.234375 0)"/>
    </g>
   </g>
   <g id="text_16">
    <!-- IN1..8 -->
    <g transform="translate(865.767656 240.083828) scale(0.11 -0.11)">
     <use xlink:href="#DejaVuSans-2c"/>
     <use xlink:href="#DejaVuSans-31" transform="translate(29.5 0)"/>
     <use xlink:href="#DejaVuSans-14" transform="translate(104.3125 0)"/>
     <use xlink:href="#DejaVuSans-11" transform="translate(167.9375 0)"/>
     <use xlink:href="#DejaVuSans-11" transform="translate(199.71875 0)"/>
     <use xlink:href="#DejaVuSans-1b" transform="translate(231.5 0)"/>
    </g>
    <!-- (tied) -->
    <g transform="translate(865.767656 250.533828) scale(0.11 -0.11)">
     <defs>
      <path id="DejaVuSans-4c" d="M 603 3500 
L 1178 3500 
L 1178 0 
L 603 0 
L 603 3500 
z
M 603 4863 
L 1178 4863 
L 1178 4134 
L 603 4134 
L 603 4863 
z
" transform="scale(0.015625)"/>
     </defs>
     <use xlink:href="#DejaVuSans-b"/>
     <use xlink:href="#DejaVuSans-57" transform="translate(39.015625 0)"/>
     <use xlink:href="#DejaVuSans-4c" transform="translate(78.21875 0)"/>
     <use xlink:href="#DejaVuSans-48" transform="translate(106 0)"/>
     <use xlink:href="#DejaVuSans-47" transform="translate(167.53125 0)"/>
     <use xlink:href="#DejaVuSans-c" transform="translate(231.015625 0)"/>
    </g>
   </g>
   <g id="text_17">
    <!-- IN -->
    <g transform="translate(855.765781 220.583438) scale(0.14 -0.14)">
     <use xlink:href="#DejaVuSans-2c"/>
     <use xlink:href="#DejaVuSans-31" transform="translate(29.5 0)"/>
    </g>
   </g>
   <g id="text_18">
    <!-- GND -->
    <g transform="translate(919.016875 220.575781) scale(0.14 -0.14)">
     <use xlink:href="#DejaVuSans-2a"/>
     <use xlink:href="#DejaVuSans-31" transform="translate(77.484375 0)"/>
     <use xlink:href="#DejaVuSans-27" transform="translate(152.296875 0)"/>
    </g>
   </g>
   <g id="text_19">
    <!-- TRANSFER BANK -->
    <g transform="translate(865.200938 127.655859) scale(0.09 -0.09)">
     <defs>
      <path id="DejaVuSans-36" d="M 3425 4513 
L 3425 3897 
Q 3066 4069 2747 4153 
Q 2428 4238 2131 4238 
Q 1616 4238 1336 4038 
Q 1056 3838 1056 3469 
Q 1056 3159 1242 3001 
Q 1428 2844 1947 2747 
L 2328 2669 
Q 3034 2534 3370 2195 
Q 3706 1856 3706 1288 
Q 3706 609 3251 259 
Q 2797 -91 1919 -91 
Q 1588 -91 1214 -16 
Q 841 59 441 206 
L 441 856 
Q 825 641 1194 531 
Q 1563 422 1919 422 
Q 2459 422 2753 634 
Q 3047 847 3047 1241 
Q 3047 1584 2836 1778 
Q 2625 1972 2144 2069 
L 1759 2144 
Q 1053 2284 737 2584 
Q 422 2884 422 3419 
Q 422 4038 858 4394 
Q 1294 4750 2059 4750 
Q 2388 4750 2728 4690 
Q 3069 4631 3425 4513 
z
" transform="scale(0.015625)"/>
     </defs>
     <use xlink:href="#DejaVuSans-37"/>
     <use xlink:href="#DejaVuSans-35" transform="translate(61.078125 0)"/>
     <use xlink:href="#DejaVuSans-24" transform="translate(126.515625 0)"/>
     <use xlink:href="#DejaVuSans-31" transform="translate(194.921875 0)"/>
     <use xlink:href="#DejaVuSans-36" transform="translate(269.734375 0)"/>
     <use xlink:href="#DejaVuSans-29" transform="translate(333.21875 0)"/>
     <use xlink:href="#DejaVuSans-28" transform="translate(390.734375 0)"/>
     <use xlink:href="#DejaVuSans-35" transform="translate(453.921875 0)"/>
     <use xlink:href="#DejaVuSans-3" transform="translate(523.40625 0)"/>
     <use xlink:href="#DejaVuSans-25" transform="translate(555.1875 0)"/>
     <use xlink:href="#DejaVuSans-24" transform="translate(623.796875 0)"/>
     <use xlink:href="#DejaVuSans-31" transform="translate(692.203125 0)"/>
     <use xlink:href="#DejaVuSans-2e" transform="translate(767.015625 0)"/>
    </g>
    <!-- 8-ch relay board -->
    <g transform="translate(865.807734 135.863438) scale(0.09 -0.09)">
     <use xlink:href="#DejaVuSans-1b"/>
     <use xlink:href="#DejaVuSans-10" transform="translate(63.625 0)"/>
     <use xlink:href="#DejaVuSans-46" transform="translate(99.703125 0)"/>
     <use xlink:href="#DejaVuSans-4b" transform="translate(154.6875 0)"/>
     <use xlink:href="#DejaVuSans-3" transform="translate(218.0625 0)"/>
     <use xlink:href="#DejaVuSans-55" transform="translate(249.84375 0)"/>
     <use xlink:href="#DejaVuSans-48" transform="translate(288.75 0)"/>
     <use xlink:href="#DejaVuSans-4f" transform="translate(350.28125 0)"/>
     <use xlink:href="#DejaVuSans-44" transform="translate(378.0625 0)"/>
     <use xlink:href="#DejaVuSans-5c" transform="translate(439.34375 0)"/>
     <use xlink:href="#DejaVuSans-3" transform="translate(498.53125 0)"/>
     <use xlink:href="#DejaVuSans-45" transform="translate(530.3125 0)"/>
     <use xlink:href="#DejaVuSans-52" transform="translate(593.796875 0)"/>
     <use xlink:href="#DejaVuSans-44" transform="translate(654.984375 0)"/>
     <use xlink:href="#DejaVuSans-55" transform="translate(716.265625 0)"/>
     <use xlink:href="#DejaVuSans-47" transform="translate(755.625 0)"/>
    </g>
    <!-- relay K1 shown -->
    <g transform="translate(868.320703 144.863438) scale(0.09 -0.09)">
     <use xlink:href="#DejaVuSans-55"/>
     <use xlink:href="#DejaVuSans-48" transform="translate(38.90625 0)"/>
     <use xlink:href="#DejaVuSans-4f" transform="translate(100.4375 0)"/>
     <use xlink:href="#DejaVuSans-44" transform="translate(128.21875 0)"/>
     <use xlink:href="#DejaVuSans-5c" transform="translate(189.5 0)"/>
     <use xlink:href="#DejaVuSans-3" transform="translate(248.6875 0)"/>
     <use xlink:href="#DejaVuSans-2e" transform="translate(280.46875 0)"/>
     <use xlink:href="#DejaVuSans-14" transform="translate(346.046875 0)"/>
     <use xlink:href="#DejaVuSans-3" transform="translate(409.671875 0)"/>
     <use xlink:href="#DejaVuSans-56" transform="translate(441.453125 0)"/>
     <use xlink:href="#DejaVuSans-4b" transform="translate(493.546875 0)"/>
     <use xlink:href="#DejaVuSans-52" transform="translate(556.921875 0)"/>
     <use xlink:href="#DejaVuSans-5a" transform="translate(618.109375 0)"/>
     <use xlink:href="#DejaVuSans-51" transform="translate(699.890625 0)"/>
    </g>
    <!-- (typ. of 7) -->
    <g transform="translate(880.380703 153.863438) scale(0.09 -0.09)">
     <use xlink:href="#DejaVuSans-b"/>
     <use xlink:href="#DejaVuSans-57" transform="translate(39.015625 0)"/>
     <use xlink:href="#DejaVuSans-5c" transform="translate(78.21875 0)"/>
     <use xlink:href="#DejaVuSans-53" transform="translate(137.40625 0)"/>
     <use xlink:href="#DejaVuSans-11" transform="translate(200.890625 0)"/>
     <use xlink:href="#DejaVuSans-3" transform="translate(232.671875 0)"/>
     <use xlink:href="#DejaVuSans-52" transform="translate(264.453125 0)"/>
     <use xlink:href="#DejaVuSans-49" transform="translate(325.640625 0)"/>
     <use xlink:href="#DejaVuSans-3" transform="translate(360.84375 0)"/>
     <use xlink:href="#DejaVuSans-1a" transform="translate(392.625 0)"/>
     <use xlink:href="#DejaVuSans-c" transform="translate(456.25 0)"/>
    </g>
   </g>
   <g id="text_20">
    <!-- valve field wire 1 -->
    <g transform="translate(1046.513125 136.480938) scale(0.11 -0.11)">
     <defs>
      <path id="DejaVuSans-59" d="M 191 3500 
L 800 3500 
L 1894 563 
L 2988 3500 
L 3597 3500 
L 2284 0 
L 1503 0 
L 191 3500 
z
" transform="scale(0.015625)"/>
      <path id="DejaVuSans-13af" d="M 3431 3500 
L 3431 0 
L 2853 0 
L 2853 3053 
L 1275 3053 
L 1275 0 
L 697 0 
L 697 3053 
L 147 3053 
L 147 3500 
L 697 3500 
L 697 3744 
Q 697 4316 967 4589 
Q 1238 4863 1797 4863 
L 2375 4863 
L 2375 4384 
L 1825 4384 
Q 1516 4384 1395 4259 
Q 1275 4134 1275 3809 
L 1275 3500 
L 3431 3500 
z
M 2853 4856 
L 3431 4856 
L 3431 4128 
L 2853 4128 
L 2853 4856 
z
" transform="scale(0.015625)"/>
     </defs>
     <use xlink:href="#DejaVuSans-59"/>
     <use xlink:href="#DejaVuSans-44" transform="translate(59.1875 0)"/>
     <use xlink:href="#DejaVuSans-4f" transform="translate(120.46875 0)"/>
     <use xlink:href="#DejaVuSans-59" transform="translate(148.25 0)"/>
     <use xlink:href="#DejaVuSans-48" transform="translate(207.4375 0)"/>
     <use xlink:href="#DejaVuSans-3" transform="translate(268.96875 0)"/>
     <use xlink:href="#DejaVuSans-13af" transform="translate(300.75 0)"/>
     <use xlink:href="#DejaVuSans-48" transform="translate(363.734375 0)"/>
     <use xlink:href="#DejaVuSans-4f" transform="translate(425.265625 0)"/>
     <use xlink:href="#DejaVuSans-47" transform="translate(453.046875 0)"/>
     <use xlink:href="#DejaVuSans-3" transform="translate(516.53125 0)"/>
     <use xlink:href="#DejaVuSans-5a" transform="translate(548.3125 0)"/>
     <use xlink:href="#DejaVuSans-4c" transform="translate(630.09375 0)"/>
     <use xlink:href="#DejaVuSans-55" transform="translate(657.875 0)"/>
     <use xlink:href="#DejaVuSans-48" transform="translate(696.78125 0)"/>
     <use xlink:href="#DejaVuSans-3" transform="translate(758.3125 0)"/>
     <use xlink:href="#DejaVuSans-14" transform="translate(790.09375 0)"/>
    </g>
   </g>
   <g id="text_21">
    <!-- V1 -->
    <g transform="translate(1143.139628 193.989844) scale(0.11 -0.11)">
     <use xlink:href="#DejaVuSans-39"/>
     <use xlink:href="#DejaVuSans-14" transform="translate(68.40625 0)"/>
    </g>
    <!-- 24VAC solenoid -->
    <g transform="translate(1143.139628 205.080938) scale(0.11 -0.11)">
     <use xlink:href="#DejaVuSans-15"/>
     <use xlink:href="#DejaVuSans-17" transform="translate(63.625 0)"/>
     <use xlink:href="#DejaVuSans-39" transform="translate(127.25 0)"/>
     <use xlink:href="#DejaVuSans-24" transform="translate(189.265625 0)"/>
     <use xlink:href="#DejaVuSans-26" transform="translate(255.921875 0)"/>
     <use xlink:href="#DejaVuSans-3" transform="translate(325.75 0)"/>
     <use xlink:href="#DejaVuSans-56" transform="translate(357.53125 0)"/>
     <use xlink:href="#DejaVuSans-52" transform="translate(409.625 0)"/>
     <use xlink:href="#DejaVuSans-4f" transform="translate(470.8125 0)"/>
     <use xlink:href="#DejaVuSans-48" transform="translate(498.59375 0)"/>
     <use xlink:href="#DejaVuSans-51" transform="translate(560.125 0)"/>
     <use xlink:href="#DejaVuSans-52" transform="translate(623.5 0)"/>
     <use xlink:href="#DejaVuSans-4c" transform="translate(684.6875 0)"/>
     <use xlink:href="#DejaVuSans-47" transform="translate(712.46875 0)"/>
    </g>
   </g>
   <g id="text_22">
    <!-- +5V (relay PSU) -->
    <g transform="translate(497.529063 81.515312) scale(0.11 -0.11)">
     <defs>
      <path id="DejaVuSans-e" d="M 2944 4013 
L 2944 2272 
L 4684 2272 
L 4684 1741 
L 2944 1741 
L 2944 0 
L 2419 0 
L 2419 1741 
L 678 1741 
L 678 2272 
L 2419 2272 
L 2419 4013 
L 2944 4013 
z
" transform="scale(0.015625)"/>
      <path id="DejaVuSans-18" d="M 691 4666 
L 3169 4666 
L 3169 4134 
L 1269 4134 
L 1269 2991 
Q 1406 3038 1543 3061 
Q 1681 3084 1819 3084 
Q 2600 3084 3056 2656 
Q 3513 2228 3513 1497 
Q 3513 744 3044 326 
Q 2575 -91 1722 -91 
Q 1428 -91 1123 -41 
Q 819 9 494 109 
L 494 744 
Q 775 591 1075 516 
Q 1375 441 1709 441 
Q 2250 441 2565 725 
Q 2881 1009 2881 1497 
Q 2881 1984 2565 2268 
Q 2250 2553 1709 2553 
Q 1456 2553 1204 2497 
Q 953 2441 691 2322 
L 691 4666 
z
" transform="scale(0.015625)"/>
      <path id="DejaVuSans-33" d="M 1259 4147 
L 1259 2394 
L 2053 2394 
Q 2494 2394 2734 2622 
Q 2975 2850 2975 3272 
Q 2975 3691 2734 3919 
Q 2494 4147 2053 4147 
L 1259 4147 
z
M 628 4666 
L 2053 4666 
Q 2838 4666 3239 4311 
Q 3641 3956 3641 3272 
Q 3641 2581 3239 2228 
Q 2838 1875 2053 1875 
L 1259 1875 
L 1259 0 
L 628 0 
L 628 4666 
z
" transform="scale(0.015625)"/>
      <path id="DejaVuSans-38" d="M 556 4666 
L 1191 4666 
L 1191 1831 
Q 1191 1081 1462 751 
Q 1734 422 2344 422 
Q 2950 422 3222 751 
Q 3494 1081 3494 1831 
L 3494 4666 
L 4128 4666 
L 4128 1753 
Q 4128 841 3676 375 
Q 3225 -91 2344 -91 
Q 1459 -91 1007 375 
Q 556 841 556 1753 
L 556 4666 
z
" transform="scale(0.015625)"/>
     </defs>
     <use xlink:href="#DejaVuSans-e"/>
     <use xlink:href="#DejaVuSans-18" transform="translate(83.796875 0)"/>
     <use xlink:href="#DejaVuSans-39" transform="translate(147.421875 0)"/>
     <use xlink:href="#DejaVuSans-3" transform="translate(215.828125 0)"/>
     <use xlink:href="#DejaVuSans-b" transform="translate(247.609375 0)"/>
     <use xlink:href="#DejaVuSans-55" transform="translate(286.625 0)"/>
     <use xlink:href="#DejaVuSans-48" transform="translate(325.53125 0)"/>
     <use xlink:href="#DejaVuSans-4f" transform="translate(387.0625 0)"/>
     <use xlink:href="#DejaVuSans-44" transform="translate(414.84375 0)"/>
     <use xlink:href="#DejaVuSans-5c" transform="translate(476.125 0)"/>
     <use xlink:href="#DejaVuSans-3" transform="translate(535.3125 0)"/>
     <use xlink:href="#DejaVuSans-33" transform="translate(567.09375 0)"/>
     <use xlink:href="#DejaVuSans-36" transform="translate(627.390625 0)"/>
     <use xlink:href="#DejaVuSans-38" transform="translate(690.875 0)"/>
     <use xlink:href="#DejaVuSans-c" transform="translate(764.0625 0)"/>
    </g>
   </g>
   <g id="text_23">
    <!-- +5V (relay PSU) -->
    <g transform="translate(807.129062 16.715312) scale(0.11 -0.11)">
     <use xlink:href="#DejaVuSans-e"/>
     <use xlink:href="#DejaVuSans-18" transform="translate(83.796875 0)"/>
     <use xlink:href="#DejaVuSans-39" transform="translate(147.421875 0)"/>
     <use xlink:href="#DejaVuSans-3" transform="translate(215.828125 0)"/>
     <use xlink:href="#DejaVuSans-b" transform="translate(247.609375 0)"/>
     <use xlink:href="#DejaVuSans-55" transform="translate(286.625 0)"/>
     <use xlink:href="#DejaVuSans-48" transform="translate(325.53125 0)"/>
     <use xlink:href="#DejaVuSans-4f" transform="translate(387.0625 0)"/>
     <use xlink:href="#DejaVuSans-44" transform="translate(414.84375 0)"/>
     <use xlink:href="#DejaVuSans-5c" transform="translate(476.125 0)"/>
     <use xlink:href="#DejaVuSans-3" transform="translate(535.3125 0)"/>
     <use xlink:href="#DejaVuSans-33" transform="translate(567.09375 0)"/>
     <use xlink:href="#DejaVuSans-36" transform="translate(627.390625 0)"/>
     <use xlink:href="#DejaVuSans-38" transform="translate(690.875 0)"/>
     <use xlink:href="#DejaVuSans-c" transform="translate(764.0625 0)"/>
    </g>
   </g>
   <g id="text_24">
    <!-- TURFY SIDECAR v0.1  - -  SHEET 1: POWER + VALVE PATH  - -  channel table: ch1..6 = zones 1..6, ch7 = MV/pump, ch8 spare   (Rain Bird ESP-6Si retrofit) -->
    <g transform="translate(17.283656 374.915312) scale(0.11 -0.11)">
     <defs>
      <path id="DejaVuSans-3c" d="M -13 4666 
L 666 4666 
L 1959 2747 
L 3244 4666 
L 3922 4666 
L 2272 2222 
L 2272 0 
L 1638 0 
L 1638 2222 
L -13 4666 
z
" transform="scale(0.015625)"/>
      <path id="DejaVuSans-13" d="M 2034 4250 
Q 1547 4250 1301 3770 
Q 1056 3291 1056 2328 
Q 1056 1369 1301 889 
Q 1547 409 2034 409 
Q 2525 409 2770 889 
Q 3016 1369 3016 2328 
Q 3016 3291 2770 3770 
Q 2525 4250 2034 4250 
z
M 2034 4750 
Q 2819 4750 3233 4129 
Q 3647 3509 3647 2328 
Q 3647 1150 3233 529 
Q 2819 -91 2034 -91 
Q 1250 -91 836 529 
Q 422 1150 422 2328 
Q 422 3509 836 4129 
Q 1250 4750 2034 4750 
z
" transform="scale(0.015625)"/>
      <path id="DejaVuSans-1d" d="M 750 794 
L 1409 794 
L 1409 0 
L 750 0 
L 750 794 
z
M 750 3309 
L 1409 3309 
L 1409 2516 
L 750 2516 
L 750 3309 
z
" transform="scale(0.015625)"/>
      <path id="DejaVuSans-3a" d="M 213 4666 
L 850 4666 
L 1831 722 
L 2809 4666 
L 3519 4666 
L 4500 722 
L 5478 4666 
L 6119 4666 
L 4947 0 
L 4153 0 
L 3169 4050 
L 2175 0 
L 1381 0 
L 213 4666 
z
" transform="scale(0.015625)"/>
      <path id="DejaVuSans-2f" d="M 628 4666 
L 1259 4666 
L 1259 531 
L 3531 531 
L 3531 0 
L 628 0 
L 628 4666 
z
" transform="scale(0.015625)"/>
      <path id="DejaVuSans-19" d="M 2113 2584 
Q 1688 2584 1439 2293 
Q 1191 2003 1191 1497 
Q 1191 994 1439 701 
Q 1688 409 2113 409 
Q 2538 409 2786 701 
Q 3034 994 3034 1497 
Q 3034 2003 2786 2293 
Q 2538 2584 2113 2584 
z
M 3366 4563 
L 3366 3988 
Q 3128 4100 2886 4159 
Q 2644 4219 2406 4219 
Q 1781 4219 1451 3797 
Q 1122 3375 1075 2522 
Q 1259 2794 1537 2939 
Q 1816 3084 2150 3084 
Q 2853 3084 3261 2657 
Q 3669 2231 3669 1497 
Q 3669 778 3244 343 
Q 2819 -91 2113 -91 
Q 1303 -91 875 529 
Q 447 1150 447 2328 
Q 447 3434 972 4092 
Q 1497 4750 2381 4750 
Q 2619 4750 2861 4703 
Q 3103 4656 3366 4563 
z
" transform="scale(0.015625)"/>
      <path id="DejaVuSans-20" d="M 678 2906 
L 4684 2906 
L 4684 2381 
L 678 2381 
L 678 2906 
z
M 678 1631 
L 4684 1631 
L 4684 1100 
L 678 1100 
L 678 1631 
z
" transform="scale(0.015625)"/>
      <path id="DejaVuSans-5d" d="M 353 3500 
L 3084 3500 
L 3084 2975 
L 922 459 
L 3084 459 
L 3084 0 
L 275 0 
L 275 525 
L 2438 3041 
L 353 3041 
L 353 3500 
z
" transform="scale(0.015625)"/>
      <path id="DejaVuSans-f" d="M 750 794 
L 1409 794 
L 1409 256 
L 897 -744 
L 494 -744 
L 750 256 
L 750 794 
z
" transform="scale(0.015625)"/>
      <path id="DejaVuSans-12" d="M 1625 4666 
L 2156 4666 
L 531 -594 
L 0 -594 
L 1625 4666 
z
" transform="scale(0.015625)"/>
      <path id="DejaVuSans-58" d="M 544 1381 
L 544 3500 
L 1119 3500 
L 1119 1403 
Q 1119 906 1312 657 
Q 1506 409 1894 409 
Q 2359 409 2629 706 
Q 2900 1003 2900 1516 
L 2900 3500 
L 3475 3500 
L 3475 0 
L 2900 0 
L 2900 538 
Q 2691 219 2414 64 
Q 2138 -91 1772 -91 
Q 1169 -91 856 284 
Q 544 659 544 1381 
z
M 1991 3584 
L 1991 3584 
z
" transform="scale(0.015625)"/>
      <path id="DejaVuSans-50" d="M 3328 2828 
Q 3544 3216 3844 3400 
Q 4144 3584 4550 3584 
Q 5097 3584 5394 3201 
Q 5691 2819 5691 2113 
L 5691 0 
L 5113 0 
L 5113 2094 
Q 5113 2597 4934 2840 
Q 4756 3084 4391 3084 
Q 3944 3084 3684 2787 
Q 3425 2491 3425 1978 
L 3425 0 
L 2847 0 
L 2847 2094 
Q 2847 2600 2669 2842 
Q 2491 3084 2119 3084 
Q 1678 3084 1418 2786 
Q 1159 2488 1159 1978 
L 1159 0 
L 581 0 
L 581 3500 
L 1159 3500 
L 1159 2956 
Q 1356 3278 1631 3431 
Q 1906 3584 2284 3584 
Q 2666 3584 2933 3390 
Q 3200 3197 3328 2828 
z
" transform="scale(0.015625)"/>
     </defs>
     <use xlink:href="#DejaVuSans-37"/>
     <use xlink:href="#DejaVuSans-38" transform="translate(61.078125 0)"/>
     <use xlink:href="#DejaVuSans-35" transform="translate(134.265625 0)"/>
     <use xlink:href="#DejaVuSans-29" transform="translate(203.75 0)"/>
     <use xlink:href="#DejaVuSans-3c" transform="translate(261.265625 0)"/>
     <use xlink:href="#DejaVuSans-3" transform="translate(322.34375 0)"/>
     <use xlink:href="#DejaVuSans-36" transform="translate(354.125 0)"/>
     <use xlink:href="#DejaVuSans-2c" transform="translate(417.609375 0)"/>
     <use xlink:href="#DejaVuSans-27" transform="translate(447.109375 0)"/>
     <use xlink:href="#DejaVuSans-28" transform="translate(524.109375 0)"/>
     <use xlink:href="#DejaVuSans-26" transform="translate(587.296875 0)"/>
     <use xlink:href="#DejaVuSans-24" transform="translate(657.125 0)"/>
     <use xlink:href="#DejaVuSans-35" transform="translate(725.53125 0)"/>
     <use xlink:href="#DejaVuSans-3" transform="translate(795.015625 0)"/>
     <use xlink:href="#DejaVuSans-59" transform="translate(826.796875 0)"/>
     <use xlink:href="#DejaVuSans-13" transform="translate(885.984375 0)"/>
     <use xlink:href="#DejaVuSans-11" transform="translate(949.609375 0)"/>
     <use xlink:href="#DejaVuSans-14" transform="translate(981.390625 0)"/>
     <use xlink:href="#DejaVuSans-3" transform="translate(1045.015625 0)"/>
     <use xlink:href="#DejaVuSans-3" transform="translate(1076.796875 0)"/>
     <use xlink:href="#DejaVuSans-10" transform="translate(1108.578125 0)"/>
     <use xlink:href="#DejaVuSans-10" transform="translate(1144.65625 0)"/>
     <use xlink:href="#DejaVuSans-3" transform="translate(1180.734375 0)"/>
     <use xlink:href="#DejaVuSans-3" transform="translate(1212.515625 0)"/>
     <use xlink:href="#DejaVuSans-36" transform="translate(1244.296875 0)"/>
     <use xlink:href="#DejaVuSans-2b" transform="translate(1307.78125 0)"/>
     <use xlink:href="#DejaVuSans-28" transform="translate(1382.984375 0)"/>
     <use xlink:href="#DejaVuSans-28" transform="translate(1446.171875 0)"/>
     <use xlink:href="#DejaVuSans-37" transform="translate(1509.359375 0)"/>
     <use xlink:href="#DejaVuSans-3" transform="translate(1570.4375 0)"/>
     <use xlink:href="#DejaVuSans-14" transform="translate(1602.21875 0)"/>
     <use xlink:href="#DejaVuSans-1d" transform="translate(1665.84375 0)"/>
     <use xlink:href="#DejaVuSans-3" transform="translate(1699.53125 0)"/>
     <use xlink:href="#DejaVuSans-33" transform="translate(1731.3125 0)"/>
     <use xlink:href="#DejaVuSans-32" transform="translate(1791.609375 0)"/>
     <use xlink:href="#DejaVuSans-3a" transform="translate(1870.328125 0)"/>
     <use xlink:href="#DejaVuSans-28" transform="translate(1969.203125 0)"/>
     <use xlink:href="#DejaVuSans-35" transform="translate(2032.390625 0)"/>
     <use xlink:href="#DejaVuSans-3" transform="translate(2101.875 0)"/>
     <use xlink:href="#DejaVuSans-e" transform="translate(2133.65625 0)"/>
     <use xlink:href="#DejaVuSans-3" transform="translate(2217.453125 0)"/>
     <use xlink:href="#DejaVuSans-39" transform="translate(2249.234375 0)"/>
     <use xlink:href="#DejaVuSans-24" transform="translate(2311.25 0)"/>
     <use xlink:href="#DejaVuSans-2f" transform="translate(2379.65625 0)"/>
     <use xlink:href="#DejaVuSans-39" transform="translate(2424.390625 0)"/>
     <use xlink:href="#DejaVuSans-28" transform="translate(2492.796875 0)"/>
     <use xlink:href="#DejaVuSans-3" transform="translate(2555.984375 0)"/>
     <use xlink:href="#DejaVuSans-33" transform="translate(2587.765625 0)"/>
     <use xlink:href="#DejaVuSans-24" transform="translate(2641.671875 0)"/>
     <use xlink:href="#DejaVuSans-37" transform="translate(2702.3125 0)"/>
     <use xlink:href="#DejaVuSans-2b" transform="translate(2763.390625 0)"/>
     <use xlink:href="#DejaVuSans-3" transform="translate(2838.59375 0)"/>
     <use xlink:href="#DejaVuSans-3" transform="translate(2870.375 0)"/>
     <use xlink:href="#DejaVuSans-10" transform="translate(2902.15625 0)"/>
     <use xlink:href="#DejaVuSans-10" transform="translate(2938.234375 0)"/>
     <use xlink:href="#DejaVuSans-3" transform="translate(2974.3125 0)"/>
     <use xlink:href="#DejaVuSans-3" transform="translate(3006.09375 0)"/>
     <use xlink:href="#DejaVuSans-46" transform="translate(3037.875 0)"/>
     <use xlink:href="#DejaVuSans-4b" transform="translate(3092.859375 0)"/>
     <use xlink:href="#DejaVuSans-44" transform="translate(3156.234375 0)"/>
     <use xlink:href="#DejaVuSans-51" transform="translate(3217.515625 0)"/>
     <use xlink:href="#DejaVuSans-51" transform="translate(3280.890625 0)"/>
     <use xlink:href="#DejaVuSans-48" transform="translate(3344.265625 0)"/>
     <use xlink:href="#DejaVuSans-4f" transform="translate(3405.796875 0)"/>
     <use xlink:href="#DejaVuSans-3" transform="translate(3433.578125 0)"/>
     <use xlink:href="#DejaVuSans-57" transform="translate(3465.359375 0)"/>
     <use xlink:href="#DejaVuSans-44" transform="translate(3504.5625 0)"/>
     <use xlink:href="#DejaVuSans-45" transform="translate(3565.84375 0)"/>
     <use xlink:href="#DejaVuSans-4f" transform="translate(3629.328125 0)"/>
     <use xlink:href="#DejaVuSans-48" transform="translate(3657.109375 0)"/>
     <use xlink:href="#DejaVuSans-1d" transform="translate(3718.640625 0)"/>
     <use xlink:href="#DejaVuSans-3" transform="translate(3752.328125 0)"/>
     <use xlink:href="#DejaVuSans-46" transform="translate(3784.109375 0)"/>
     <use xlink:href="#DejaVuSans-4b" transform="translate(3839.09375 0)"/>
     <use xlink:href="#DejaVuSans-14" transform="translate(3902.46875 0)"/>
     <use xlink:href="#DejaVuSans-11" transform="translate(3966.09375 0)"/>
     <use xlink:href="#DejaVuSans-11" transform="translate(3997.875 0)"/>
     <use xlink:href="#DejaVuSans-19" transform="translate(4029.65625 0)"/>
     <use xlink:href="#DejaVuSans-3" transform="translate(4093.28125 0)"/>
     <use xlink:href="#DejaVuSans-20" transform="translate(4125.0625 0)"/>
     <use xlink:href="#DejaVuSans-3" transform="translate(4208.859375 0)"/>
     <use xlink:href="#DejaVuSans-5d" transform="translate(4240.640625 0)"/>
     <use xlink:href="#DejaVuSans-52" transform="translate(4293.125 0)"/>
     <use xlink:href="#DejaVuSans-51" transform="translate(4354.3125 0)"/>
     <use xlink:href="#DejaVuSans-48" transform="translate(4417.6875 0)"/>
     <use xlink:href="#DejaVuSans-56" transform="translate(4479.21875 0)"/>
     <use xlink:href="#DejaVuSans-3" transform="translate(4531.3125 0)"/>
     <use xlink:href="#DejaVuSans-14" transform="translate(4563.09375 0)"/>
     <use xlink:href="#DejaVuSans-11" transform="translate(4626.71875 0)"/>
     <use xlink:href="#DejaVuSans-11" transform="translate(4658.5 0)"/>
     <use xlink:href="#DejaVuSans-19" transform="translate(4690.28125 0)"/>
     <use xlink:href="#DejaVuSans-f" transform="translate(4753.90625 0)"/>
     <use xlink:href="#DejaVuSans-3" transform="translate(4785.6875 0)"/>
     <use xlink:href="#DejaVuSans-46" transform="translate(4817.46875 0)"/>
     <use xlink:href="#DejaVuSans-4b" transform="translate(4872.453125 0)"/>
     <use xlink:href="#DejaVuSans-1a" transform="translate(4935.828125 0)"/>
     <use xlink:href="#DejaVuSans-3" transform="translate(4999.453125 0)"/>
     <use xlink:href="#DejaVuSans-20" transform="translate(5031.234375 0)"/>
     <use xlink:href="#DejaVuSans-3" transform="translate(5115.03125 0)"/>
     <use xlink:href="#DejaVuSans-30" transform="translate(5146.8125 0)"/>
     <use xlink:href="#DejaVuSans-39" transform="translate(5233.09375 0)"/>
     <use xlink:href="#DejaVuSans-12" transform="translate(5301.5 0)"/>
     <use xlink:href="#DejaVuSans-53" transform="translate(5335.1875 0)"/>
     <use xlink:href="#DejaVuSans-58" transform="translate(5398.671875 0)"/>
     <use xlink:href="#DejaVuSans-50" transform="translate(5462.046875 0)"/>
     <use xlink:href="#DejaVuSans-53" transform="translate(5559.453125 0)"/>
     <use xlink:href="#DejaVuSans-f" transform="translate(5622.9375 0)"/>
     <use xlink:href="#DejaVuSans-3" transform="translate(5654.71875 0)"/>
     <use xlink:href="#DejaVuSans-46" transform="translate(5686.5 0)"/>
     <use xlink:href="#DejaVuSans-4b" transform="translate(5741.484375 0)"/>
     <use xlink:href="#DejaVuSans-1b" transform="translate(5804.859375 0)"/>
     <use xlink:href="#DejaVuSans-3" transform="translate(5868.484375 0)"/>
     <use xlink:href="#DejaVuSans-56" transform="translate(5900.265625 0)"/>
     <use xlink:href="#DejaVuSans-53" transform="translate(5952.359375 0)"/>
     <use xlink:href="#DejaVuSans-44" transform="translate(6015.84375 0)"/>
     <use xlink:href="#DejaVuSans-55" transform="translate(6077.125 0)"/>
     <use xlink:href="#DejaVuSans-48" transform="translate(6116.03125 0)"/>
     <use xlink:href="#DejaVuSans-3" transform="translate(6177.5625 0)"/>
     <use xlink:href="#DejaVuSans-3" transform="translate(6209.34375 0)"/>
     <use xlink:href="#DejaVuSans-3" transform="translate(6241.125 0)"/>
     <use xlink:href="#DejaVuSans-b" transform="translate(6272.90625 0)"/>
     <use xlink:href="#DejaVuSans-35" transform="translate(6311.921875 0)"/>
     <use xlink:href="#DejaVuSans-44" transform="translate(6379.203125 0)"/>
     <use xlink:href="#DejaVuSans-4c" transform="translate(6440.484375 0)"/>
     <use xlink:href="#DejaVuSans-51" transform="translate(6468.265625 0)"/>
     <use xlink:href="#DejaVuSans-3" transform="translate(6531.640625 0)"/>
     <use xlink:href="#DejaVuSans-25" transform="translate(6563.421875 0)"/>
     <use xlink:href="#DejaVuSans-4c" transform="translate(6632.03125 0)"/>
     <use xlink:href="#DejaVuSans-55" transform="translate(6659.8125 0)"/>
     <use xlink:href="#DejaVuSans-47" transform="translate(6699.171875 0)"/>
     <use xlink:href="#DejaVuSans-3" transform="translate(6762.65625 0)"/>
     <use xlink:href="#DejaVuSans-28" transform="translate(6794.4375 0)"/>
     <use xlink:href="#DejaVuSans-36" transform="translate(6857.625 0)"/>
     <use xlink:href="#DejaVuSans-33" transform="translate(6921.109375 0)"/>
     <use xlink:href="#DejaVuSans-10" transform="translate(6979.203125 0)"/>
     <use xlink:href="#DejaVuSans-19" transform="translate(7015.28125 0)"/>
     <use xlink:href="#DejaVuSans-36" transform="translate(7078.90625 0)"/>
     <use xlink:href="#DejaVuSans-4c" transform="translate(7142.390625 0)"/>
     <use xlink:href="#DejaVuSans-3" transform="translate(7170.171875 0)"/>
     <use xlink:href="#DejaVuSans-55" transform="translate(7201.953125 0)"/>
     <use xlink:href="#DejaVuSans-48" transform="translate(7240.859375 0)"/>
     <use xlink:href="#DejaVuSans-57" transform="translate(7302.390625 0)"/>
     <use xlink:href="#DejaVuSans-55" transform="translate(7341.59375 0)"/>
     <use xlink:href="#DejaVuSans-52" transform="translate(7380.5 0)"/>
     <use xlink:href="#DejaVuSans-13af" transform="translate(7441.6875 0)"/>
     <use xlink:href="#DejaVuSans-57" transform="translate(7504.671875 0)"/>
     <use xlink:href="#DejaVuSans-c" transform="translate(7543.875 0)"/>
    </g>
   </g>
   <g id="patch_2">
    <path d="M 204.267656 180.18 
C 204.983705 180.18 205.670522 179.895511 206.176845 179.389188 
C 206.683167 178.882866 206.967656 178.196048 206.967656 177.48 
C 206.967656 176.763952 206.683167 176.077134 206.176845 175.570812 
C 205.670522 175.064489 204.983705 174.78 204.267656 174.78 
C 203.551608 174.78 202.864791 175.064489 202.358468 175.570812 
C 201.852145 176.077134 201.567656 176.763952 201.567656 177.48 
C 201.567656 178.196048 201.852145 178.882866 202.358468 179.389188 
C 202.864791 179.895511 203.551608 180.18 204.267656 180.18 
z
" clip-path="url(#p82a5a7ee80)" style="fill: #ffffff; stroke: #000000; stroke-width: 1.4; stroke-linejoin: miter"/>
   </g>
   <g id="text_25">
    <!-- Rain Bird VT1 (24VAC HOT) -->
    <g transform="translate(48.591094 180.933828) scale(0.11 -0.11)">
     <use xlink:href="#DejaVuSans-35"/>
     <use xlink:href="#DejaVuSans-44" transform="translate(67.28125 0)"/>
     <use xlink:href="#DejaVuSans-4c" transform="translate(128.5625 0)"/>
     <use xlink:href="#DejaVuSans-51" transform="translate(156.34375 0)"/>
     <use xlink:href="#DejaVuSans-3" transform="translate(219.71875 0)"/>
     <use xlink:href="#DejaVuSans-25" transform="translate(251.5 0)"/>
     <use xlink:href="#DejaVuSans-4c" transform="translate(320.109375 0)"/>
     <use xlink:href="#DejaVuSans-55" transform="translate(347.890625 0)"/>
     <use xlink:href="#DejaVuSans-47" transform="translate(387.25 0)"/>
     <use xlink:href="#DejaVuSans-3" transform="translate(450.734375 0)"/>
     <use xlink:href="#DejaVuSans-39" transform="translate(482.515625 0)"/>
     <use xlink:href="#DejaVuSans-37" transform="translate(550.921875 0)"/>
     <use xlink:href="#DejaVuSans-14" transform="translate(612 0)"/>
     <use xlink:href="#DejaVuSans-3" transform="translate(675.625 0)"/>
     <use xlink:href="#DejaVuSans-b" transform="translate(707.40625 0)"/>
     <use xlink:href="#DejaVuSans-15" transform="translate(746.421875 0)"/>
     <use xlink:href="#DejaVuSans-17" transform="translate(810.046875 0)"/>
     <use xlink:href="#DejaVuSans-39" transform="translate(873.671875 0)"/>
     <use xlink:href="#DejaVuSans-24" transform="translate(935.6875 0)"/>
     <use xlink:href="#DejaVuSans-26" transform="translate(1002.34375 0)"/>
     <use xlink:href="#DejaVuSans-3" transform="translate(1072.171875 0)"/>
     <use xlink:href="#DejaVuSans-2b" transform="translate(1103.953125 0)"/>
     <use xlink:href="#DejaVuSans-32" transform="translate(1179.15625 0)"/>
     <use xlink:href="#DejaVuSans-37" transform="translate(1257.875 0)"/>
     <use xlink:href="#DejaVuSans-c" transform="translate(1318.953125 0)"/>
    </g>
   </g>
   <g id="patch_3">
    <path d="M 391.467656 180.18 
C 392.183705 180.18 392.870522 179.895511 393.376845 179.389188 
C 393.883167 178.882866 394.167656 178.196048 394.167656 177.48 
C 394.167656 176.763952 393.883167 176.077134 393.376845 175.570812 
C 392.870522 175.064489 392.183705 174.78 391.467656 174.78 
C 390.751608 174.78 390.064791 175.064489 389.558468 175.570812 
C 389.052145 176.077134 388.767656 176.763952 388.767656 177.48 
C 388.767656 178.196048 389.052145 178.882866 389.558468 179.389188 
C 390.064791 179.895511 390.751608 180.18 391.467656 180.18 
z
" clip-path="url(#p82a5a7ee80)" style="stroke: #000000; stroke-width: 1.4; stroke-linejoin: miter"/>
   </g>
   <g id="patch_4">
    <path d="M 391.467656 338.58 
C 392.183705 338.58 392.870522 338.295511 393.376845 337.789188 
C 393.883167 337.282866 394.167656 336.596048 394.167656 335.88 
C 394.167656 335.163952 393.883167 334.477134 393.376845 333.970812 
C 392.870522 333.464489 392.183705 333.18 391.467656 333.18 
C 390.751608 333.18 390.064791 333.464489 389.558468 333.970812 
C 389.052145 334.477134 388.767656 335.163952 388.767656 335.88 
C 388.767656 336.596048 389.052145 337.282866 389.558468 337.789188 
C 390.064791 338.295511 390.751608 338.58 391.467656 338.58 
z
" clip-path="url(#p82a5a7ee80)" style="stroke: #000000; stroke-width: 1.4; stroke-linejoin: miter"/>
   </g>
   <g id="patch_5">
    <path d="M 189.867656 338.58 
C 190.583705 338.58 191.270522 338.295511 191.776845 337.789188 
C 192.283167 337.282866 192.567656 336.596048 192.567656 335.88 
C 192.567656 335.163952 192.283167 334.477134 191.776845 333.970812 
C 191.270522 333.464489 190.583705 333.18 189.867656 333.18 
C 189.151608 333.18 188.464791 333.464489 187.958468 333.970812 
C 187.452145 334.477134 187.167656 335.163952 187.167656 335.88 
C 187.167656 336.596048 187.452145 337.282866 187.958468 337.789188 
C 188.464791 338.295511 189.151608 338.58 189.867656 338.58 
z
" clip-path="url(#p82a5a7ee80)" style="fill: #ffffff; stroke: #000000; stroke-width: 1.4; stroke-linejoin: miter"/>
   </g>
   <g id="text_26">
    <!-- Rain Bird VT2 / COM (24VAC RET) -->
    <g transform="translate(0 339.333828) scale(0.11 -0.11)">
     <use xlink:href="#DejaVuSans-35"/>
     <use xlink:href="#DejaVuSans-44" transform="translate(67.28125 0)"/>
     <use xlink:href="#DejaVuSans-4c" transform="translate(128.5625 0)"/>
     <use xlink:href="#DejaVuSans-51" transform="translate(156.34375 0)"/>
     <use xlink:href="#DejaVuSans-3" transform="translate(219.71875 0)"/>
     <use xlink:href="#DejaVuSans-25" transform="translate(251.5 0)"/>
     <use xlink:href="#DejaVuSans-4c" transform="translate(320.109375 0)"/>
     <use xlink:href="#DejaVuSans-55" transform="translate(347.890625 0)"/>
     <use xlink:href="#DejaVuSans-47" transform="translate(387.25 0)"/>
     <use xlink:href="#DejaVuSans-3" transform="translate(450.734375 0)"/>
     <use xlink:href="#DejaVuSans-39" transform="translate(482.515625 0)"/>
     <use xlink:href="#DejaVuSans-37" transform="translate(550.921875 0)"/>
     <use xlink:href="#DejaVuSans-15" transform="translate(612 0)"/>
     <use xlink:href="#DejaVuSans-3" transform="translate(675.625 0)"/>
     <use xlink:href="#DejaVuSans-12" transform="translate(707.40625 0)"/>
     <use xlink:href="#DejaVuSans-3" transform="translate(741.09375 0)"/>
     <use xlink:href="#DejaVuSans-26" transform="translate(772.875 0)"/>
     <use xlink:href="#DejaVuSans-32" transform="translate(842.703125 0)"/>
     <use xlink:href="#DejaVuSans-30" transform="translate(921.421875 0)"/>
     <use xlink:href="#DejaVuSans-3" transform="translate(1007.703125 0)"/>
     <use xlink:href="#DejaVuSans-b" transform="translate(1039.484375 0)"/>
     <use xlink:href="#DejaVuSans-15" transform="translate(1078.5 0)"/>
     <use xlink:href="#DejaVuSans-17" transform="translate(1142.125 0)"/>
     <use xlink:href="#DejaVuSans-39" transform="translate(1205.75 0)"/>
     <use xlink:href="#DejaVuSans-24" transform="translate(1267.765625 0)"/>
     <use xlink:href="#DejaVuSans-26" transform="translate(1334.421875 0)"/>
     <use xlink:href="#DejaVuSans-3" transform="translate(1404.25 0)"/>
     <use xlink:href="#DejaVuSans-35" transform="translate(1436.03125 0)"/>
     <use xlink:href="#DejaVuSans-28" transform="translate(1505.515625 0)"/>
     <use xlink:href="#DejaVuSans-37" transform="translate(1568.703125 0)"/>
     <use xlink:href="#DejaVuSans-c" transform="translate(1629.78125 0)"/>
    </g>
   </g>
   <g id="patch_6">
    <path d="M 686.667656 108.18 
C 687.383705 108.18 688.070522 107.895511 688.576845 107.389188 
C 689.083167 106.882866 689.367656 106.196048 689.367656 105.48 
C 689.367656 104.763952 689.083167 104.077134 688.576845 103.570812 
C 688.070522 103.064489 687.383705 102.78 686.667656 102.78 
C 685.951608 102.78 685.264791 103.064489 684.758468 103.570812 
C 684.252145 104.077134 683.967656 104.763952 683.967656 105.48 
C 683.967656 106.196048 684.252145 106.882866 684.758468 107.389188 
C 685.264791 107.895511 685.951608 108.18 686.667656 108.18 
z
" clip-path="url(#p82a5a7ee80)" style="fill: #ffffff; stroke: #000000; stroke-width: 1.4; stroke-linejoin: miter"/>
   </g>
   <g id="text_27">
    <!-- Rain Bird ST1 -->
    <g transform="translate(606.590312 109.580938) scale(0.11 -0.11)">
     <use xlink:href="#DejaVuSans-35"/>
     <use xlink:href="#DejaVuSans-44" transform="translate(67.28125 0)"/>
     <use xlink:href="#DejaVuSans-4c" transform="translate(128.5625 0)"/>
     <use xlink:href="#DejaVuSans-51" transform="translate(156.34375 0)"/>
     <use xlink:href="#DejaVuSans-3" transform="translate(219.71875 0)"/>
     <use xlink:href="#DejaVuSans-25" transform="translate(251.5 0)"/>
     <use xlink:href="#DejaVuSans-4c" transform="translate(320.109375 0)"/>
     <use xlink:href="#DejaVuSans-55" transform="translate(347.890625 0)"/>
     <use xlink:href="#DejaVuSans-47" transform="translate(387.25 0)"/>
     <use xlink:href="#DejaVuSans-3" transform="translate(450.734375 0)"/>
     <use xlink:href="#DejaVuSans-36" transform="translate(482.515625 0)"/>
     <use xlink:href="#DejaVuSans-37" transform="translate(546 0)"/>
     <use xlink:href="#DejaVuSans-14" transform="translate(607.078125 0)"/>
    </g>
   </g>
   <g id="patch_7">
    <path d="M 1010.667656 309.78 
C 1011.383705 309.78 1012.070522 309.495511 1012.576845 308.989188 
C 1013.083167 308.482866 1013.367656 307.796048 1013.367656 307.08 
C 1013.367656 306.363952 1013.083167 305.677134 1012.576845 305.170812 
C 1012.070522 304.664489 1011.383705 304.38 1010.667656 304.38 
C 1009.951608 304.38 1009.264791 304.664489 1008.758468 305.170812 
C 1008.252145 305.677134 1007.967656 306.363952 1007.967656 307.08 
C 1007.967656 307.796048 1008.252145 308.482866 1008.758468 308.989188 
C 1009.264791 309.495511 1009.951608 309.78 1010.667656 309.78 
z
" clip-path="url(#p82a5a7ee80)" style="fill: #ffffff; stroke: #000000; stroke-width: 1.4; stroke-linejoin: miter"/>
   </g>
   <g id="text_28">
    <!-- valve COM field wire -&gt; Rain Bird COM terminal -->
    <g transform="translate(880.031484 322.980937) scale(0.11 -0.11)">
     <defs>
      <path id="DejaVuSans-21" d="M 678 3150 
L 678 3719 
L 4684 2266 
L 4684 1747 
L 678 294 
L 678 863 
L 3897 2003 
L 678 3150 
z
" transform="scale(0.015625)"/>
     </defs>
     <use xlink:href="#DejaVuSans-59"/>
     <use xlink:href="#DejaVuSans-44" transform="translate(59.1875 0)"/>
     <use xlink:href="#DejaVuSans-4f" transform="translate(120.46875 0)"/>
     <use xlink:href="#DejaVuSans-59" transform="translate(148.25 0)"/>
     <use xlink:href="#DejaVuSans-48" transform="translate(207.4375 0)"/>
     <use xlink:href="#DejaVuSans-3" transform="translate(268.96875 0)"/>
     <use xlink:href="#DejaVuSans-26" transform="translate(300.75 0)"/>
     <use xlink:href="#DejaVuSans-32" transform="translate(370.578125 0)"/>
     <use xlink:href="#DejaVuSans-30" transform="translate(449.296875 0)"/>
     <use xlink:href="#DejaVuSans-3" transform="translate(535.578125 0)"/>
     <use xlink:href="#DejaVuSans-13af" transform="translate(567.359375 0)"/>
     <use xlink:href="#DejaVuSans-48" transform="translate(630.34375 0)"/>
     <use xlink:href="#DejaVuSans-4f" transform="translate(691.875 0)"/>
     <use xlink:href="#DejaVuSans-47" transform="translate(719.65625 0)"/>
     <use xlink:href="#DejaVuSans-3" transform="translate(783.140625 0)"/>
     <use xlink:href="#DejaVuSans-5a" transform="translate(814.921875 0)"/>
     <use xlink:href="#DejaVuSans-4c" transform="translate(896.703125 0)"/>
     <use xlink:href="#DejaVuSans-55" transform="translate(924.484375 0)"/>
     <use xlink:href="#DejaVuSans-48" transform="translate(963.390625 0)"/>
     <use xlink:href="#DejaVuSans-3" transform="translate(1024.921875 0)"/>
     <use xlink:href="#DejaVuSans-10" transform="translate(1056.703125 0)"/>
     <use xlink:href="#DejaVuSans-21" transform="translate(1092.78125 0)"/>
     <use xlink:href="#DejaVuSans-3" transform="translate(1176.578125 0)"/>
     <use xlink:href="#DejaVuSans-35" transform="translate(1208.359375 0)"/>
     <use xlink:href="#DejaVuSans-44" transform="translate(1275.640625 0)"/>
     <use xlink:href="#DejaVuSans-4c" transform="translate(1336.921875 0)"/>
     <use xlink:href="#DejaVuSans-51" transform="translate(1364.703125 0)"/>
     <use xlink:href="#DejaVuSans-3" transform="translate(1428.078125 0)"/>
     <use xlink:href="#DejaVuSans-25" transform="translate(1459.859375 0)"/>
     <use xlink:href="#DejaVuSans-4c" transform="translate(1528.46875 0)"/>
     <use xlink:href="#DejaVuSans-55" transform="translate(1556.25 0)"/>
     <use xlink:href="#DejaVuSans-47" transform="translate(1595.609375 0)"/>
     <use xlink:href="#DejaVuSans-3" transform="translate(1659.09375 0)"/>
     <use xlink:href="#DejaVuSans-26" transform="translate(1690.875 0)"/>
     <use xlink:href="#DejaVuSans-32" transform="translate(1760.703125 0)"/>
     <use xlink:href="#DejaVuSans-30" transform="translate(1839.421875 0)"/>
     <use xlink:href="#DejaVuSans-3" transform="translate(1925.703125 0)"/>
     <use xlink:href="#DejaVuSans-57" transform="translate(1957.484375 0)"/>
     <use xlink:href="#DejaVuSans-48" transform="translate(1996.6875 0)"/>
     <use xlink:href="#DejaVuSans-55" transform="translate(2058.21875 0)"/>
     <use xlink:href="#DejaVuSans-50" transform="translate(2097.578125 0)"/>
     <use xlink:href="#DejaVuSans-4c" transform="translate(2194.984375 0)"/>
     <use xlink:href="#DejaVuSans-51" transform="translate(2222.765625 0)"/>
     <use xlink:href="#DejaVuSans-44" transform="translate(2286.140625 0)"/>
     <use xlink:href="#DejaVuSans-4f" transform="translate(2347.421875 0)"/>
    </g>
   </g>
   <g id="patch_8">
    <path d="M 863.067656 291.78 
C 863.783705 291.78 864.470522 291.495511 864.976845 290.989188 
C 865.483167 290.482866 865.767656 289.796048 865.767656 289.08 
C 865.767656 288.363952 865.483167 287.677134 864.976845 287.170812 
C 864.470522 286.664489 863.783705 286.38 863.067656 286.38 
C 862.351608 286.38 861.664791 286.664489 861.158468 287.170812 
C 860.652145 287.677134 860.367656 288.363952 860.367656 289.08 
C 860.367656 289.796048 860.652145 290.482866 861.158468 290.989188 
C 861.664791 291.495511 862.351608 291.78 863.067656 291.78 
z
" clip-path="url(#p82a5a7ee80)" style="fill: #ffffff; stroke: #000000; stroke-width: 1.4; stroke-linejoin: miter"/>
   </g>
   <g id="text_29">
    <!-- AUTH_BUS (sheet 2) -->
    <g transform="translate(807.181641 303.762344) scale(0.11 -0.11)">
     <use xlink:href="#DejaVuSans-24"/>
     <use xlink:href="#DejaVuSans-38" transform="translate(68.40625 0)"/>
     <use xlink:href="#DejaVuSans-37" transform="translate(141.59375 0)"/>
     <use xlink:href="#DejaVuSans-2b" transform="translate(202.671875 0)"/>
     <use xlink:href="#DejaVuSans-42" transform="translate(277.875 0)"/>
     <use xlink:href="#DejaVuSans-25" transform="translate(327.875 0)"/>
     <use xlink:href="#DejaVuSans-38" transform="translate(396.484375 0)"/>
     <use xlink:href="#DejaVuSans-36" transform="translate(469.671875 0)"/>
     <use xlink:href="#DejaVuSans-3" transform="translate(533.15625 0)"/>
     <use xlink:href="#DejaVuSans-b" transform="translate(564.9375 0)"/>
     <use xlink:href="#DejaVuSans-56" transform="translate(603.953125 0)"/>
     <use xlink:href="#DejaVuSans-4b" transform="translate(656.046875 0)"/>
     <use xlink:href="#DejaVuSans-48" transform="translate(719.421875 0)"/>
     <use xlink:href="#DejaVuSans-48" transform="translate(780.953125 0)"/>
     <use xlink:href="#DejaVuSans-57" transform="translate(842.484375 0)"/>
     <use xlink:href="#DejaVuSans-3" transform="translate(881.6875 0)"/>
     <use xlink:href="#DejaVuSans-15" transform="translate(913.46875 0)"/>
     <use xlink:href="#DejaVuSans-c" transform="translate(977.09375 0)"/>
    </g>
   </g>
   <g id="patch_9">
    <path d="M 553.467656 298.98 
C 554.183705 298.98 554.870522 298.695511 555.376845 298.189188 
C 555.883167 297.682866 556.167656 296.996048 556.167656 296.28 
C 556.167656 295.563952 555.883167 294.877134 555.376845 294.370812 
C 554.870522 293.864489 554.183705 293.58 553.467656 293.58 
C 552.751608 293.58 552.064791 293.864489 551.558468 294.370812 
C 551.052145 294.877134 550.767656 295.563952 550.767656 296.28 
C 550.767656 296.996048 551.052145 297.682866 551.558468 298.189188 
C 552.064791 298.695511 552.751608 298.98 553.467656 298.98 
z
" clip-path="url(#p82a5a7ee80)" style="fill: #ffffff; stroke: #000000; stroke-width: 1.4; stroke-linejoin: miter"/>
   </g>
   <g id="text_30">
    <!-- ZDRV1 (sheet 4) -->
    <g transform="translate(508.120156 311.533828) scale(0.11 -0.11)">
     <use xlink:href="#DejaVuSans-3d"/>
     <use xlink:href="#DejaVuSans-27" transform="translate(68.5 0)"/>
     <use xlink:href="#DejaVuSans-35" transform="translate(145.5 0)"/>
     <use xlink:href="#DejaVuSans-39" transform="translate(209.515625 0)"/>
     <use xlink:href="#DejaVuSans-14" transform="translate(277.921875 0)"/>
     <use xlink:href="#DejaVuSans-3" transform="translate(341.546875 0)"/>
     <use xlink:href="#DejaVuSans-b" transform="translate(373.328125 0)"/>
     <use xlink:href="#DejaVuSans-56" transform="translate(412.34375 0)"/>
     <use xlink:href="#DejaVuSans-4b" transform="translate(464.4375 0)"/>
     <use xlink:href="#DejaVuSans-48" transform="translate(527.8125 0)"/>
     <use xlink:href="#DejaVuSans-48" transform="translate(589.34375 0)"/>
     <use xlink:href="#DejaVuSans-57" transform="translate(650.875 0)"/>
     <use xlink:href="#DejaVuSans-3" transform="translate(690.078125 0)"/>
     <use xlink:href="#DejaVuSans-17" transform="translate(721.859375 0)"/>
     <use xlink:href="#DejaVuSans-c" transform="translate(785.484375 0)"/>
    </g>
   </g>
  </g>
 </g>
 <defs>
  <clipPath id="p82a5a7ee80">
   <rect x="9.003656" y="0" width="1217.817972" height="382.06"/>
  </clipPath>
 </defs>
</svg>
