<?xml version="1.0" encoding="UTF-8" standalone="no"?>
<!-- Created with Inkscape (http://www.inkscape.org/) -->

<svg
   width="235.25934mm"
   height="301.19077mm"
   viewBox="0 0 235.25934 301.19077"
   version="1.1"
   id="svg1"
   inkscape:version="1.4.3 (1:1.4.3+202512261035+0d15f75042)"
   sodipodi:docname="logo-bsi.svg"
   xmlns:inkscape="http://www.inkscape.org/namespaces/inkscape"
   xmlns:sodipodi="http://sodipodi.sourceforge.net/DTD/sodipodi-0.dtd"
   xmlns="http://www.w3.org/2000/svg"
   xmlns:svg="http://www.w3.org/2000/svg">
  <sodipodi:namedview
     id="namedview1"
     pagecolor="#ffffff"
     bordercolor="#000000"
     borderopacity="0.25"
     inkscape:showpageshadow="2"
     inkscape:pageopacity="0.0"
     inkscape:pagecheckerboard="0"
     inkscape:deskcolor="#d1d1d1"
     inkscape:document-units="mm"
     inkscape:zoom="0.25165631"
     inkscape:cx="812.61623"
     inkscape:cy="888.11603"
     inkscape:window-width="1920"
     inkscape:window-height="996"
     inkscape:window-x="2560"
     inkscape:window-y="47"
     inkscape:window-maximized="1"
     inkscape:current-layer="layer1" />
  <defs
     id="defs1" />
  <g
     inkscape:label="Layer 1"
     inkscape:groupmode="layer"
     id="layer1"
     transform="translate(51.59375,34.660416)">
    <path
       style="fill:#000000"
       d="M 101.86438,266.05315 C 99.14341,265.4387 92.82291,263.44308 90.92827,262.6002 82.34786,258.78297 74.3289,254.01314 68.82691,249.45388 54.92099,237.93066 45.68442,225.7156 35.83206,205.8193 c -3.35271,-6.77061 -4.52324,-9.80695 -4.52324,-11.73326 0,-1.57874 -0.66004,-3.21091 -3.03481,-7.50452 -3.48501,-6.30093 -4.84257,-10.36051 -6.52144,-19.50124 -0.50334,-2.74053 -0.75462,-5.60231 -0.77438,-8.81945 -0.0253,-4.11626 0.098,-5.22915 0.90883,-8.20147 0.51594,-1.89144 1.20976,-3.85361 1.54181,-4.36039 0.54914,-0.8381 0.62497,-0.86208 0.83869,-0.26519 0.12923,0.36092 0.34065,3.59309 0.46983,7.18261 0.44563,12.38271 2.84712,22.67813 7.15909,30.69166 3.32451,6.17841 13.50209,17.49838 21.461,23.8699 4.16024,3.33049 14.54458,10.79621 19.05,13.69579 7.76041,4.99444 16.36566,8.6482 20.36804,8.6482 3.8266,0 8.67987,-3.52664 11.49356,-8.35183 0.81174,-1.39205 1.4759,-2.69808 1.4759,-2.90228 0,-0.20421 0.40023,-0.63354 0.88941,-0.95406 0.77219,-0.50596 1.78356,-0.56189 7.67292,-0.42434 4.30144,0.10046 7.06951,0.31289 7.56516,0.58057 0.42991,0.23219 1.43811,1.57042 2.24045,2.97385 2.67952,4.68698 4.3469,6.97659 5.24734,7.20554 1.25765,0.31979 3.65333,-0.39615 7.25277,-2.16745 4.67566,-2.3009 7.9284,-4.58714 11.31716,-7.95445 3.66262,-3.63943 4.75417,-5.38195 7.88277,-12.58386 1.33421,-3.07131 4.36523,-9.63232 6.7356,-14.58002 2.37037,-4.94771 4.75091,-10.02771 5.29009,-11.28889 0.53917,-1.26118 1.63448,-3.77028 2.43401,-5.57577 5.12128,-11.56479 6.20599,-16.13121 5.92414,-24.93951 -0.18188,-5.6839 -0.15477,-5.56985 -3.4379,-14.46388 -1.07733,-2.91847 -1.18372,-3.57764 -1.31679,-8.15837 -0.11291,-3.88703 -0.006,-5.63326 0.48805,-7.93749 0.50584,-2.36147 0.62766,-4.51122 0.60716,-10.71526 -0.0311,-9.402719 -0.45911,-12.039199 -2.95305,-18.188879 -2.78647,-6.87103 -4.40253,-13.299424 -5.09843,-20.280629 -0.66374,-6.658623 -5.36729,-19.106884 -10.32414,-27.323539 -2.69639,-4.469629 -3.62578,-5.72571 -6.22351,-8.411117 -4.27826,-4.422654 -9.3438,-7.961115 -14.75333,-10.305723 -1.41298,-0.612414 -3.70466,-1.974854 -5.09262,-3.027644 -2.64893,-2.00925 -2.52518,-1.96263 -12.46949,-4.697908 -2.23132,-0.613746 -5.48569,-1.567081 -7.23194,-2.118523 -1.74625,-0.551441 -4.52438,-1.411619 -6.17361,-1.911507 -1.73452,-0.525736 -3.88708,-1.503402 -5.10617,-2.319165 -2.32795,-1.557751 -2.41668,-1.524672 -2.79392,1.04159 -0.12835,0.873125 -0.55404,2.563567 -0.94598,3.756537 -0.96596,2.94016 -1.35115,3.077687 -7.80133,2.785321 -8.63053,-0.391194 -18.30177,-1.703348 -41.82552,-5.674713 -1.07387,-0.181294 -1.14653,-0.128898 -1.14653,0.826817 v 1.020377 l -8.90764,0.237457 c -8.95198,0.238638 -11.20069,0.424983 -11.20069,0.928175 0,0.149662 2.71352,2.552581 6.03005,5.339821 3.31652,2.787239 6.34488,5.341085 6.72969,5.675213 0.3848,0.334128 0.60656,0.758103 0.4928,0.942168 -0.11375,0.184065 -3.97555,1.545295 -8.58177,3.024957 -4.60621,1.479661 -8.73959,2.841623 -9.18529,3.026581 -1.41874,0.588764 -1.58952,0.439574 -1.33133,-1.163018 0.36876,-2.288938 1.22761,-7.915325 1.62312,-10.633236 0.19458,-1.337134 0.45072,-2.845259 0.5692,-3.351389 0.4813,-2.056069 -4.46399,3.690636 -9.78018,11.365118 -1.05167,1.518195 -2.90138,4.108297 -4.11047,5.755782 -1.20909,1.647485 -2.30991,3.175941 -2.44626,3.396569 -0.13636,0.220628 -0.26231,1.8374 -0.2799,3.592828 -0.029,2.896984 -0.14085,3.401908 -1.21106,5.468411 -1.09938,2.122806 -1.16353,2.432849 -0.949,4.586111 0.41365,4.151667 2.91172,13.016921 4.31051,15.297291 1.11187,1.812616 1.26466,2.347218 1.31076,4.58611 0.0287,1.393875 -0.0772,3.438032 -0.23526,4.542573 l -0.28744,2.008254 3.81522,2.458157 c 7.94459,5.118723 7.91493,5.086183 8.40674,9.223943 0.12684,1.06715 0.76213,5.19465 1.41175,9.17222 0.64962,3.977569 1.43855,8.978199 1.75317,11.112499 0.31463,2.13431 0.952,6.18243 1.41639,8.99583 1.32032,7.99901 1.34188,8.29332 0.69869,9.5371 -0.83853,1.62155 -3.02237,2.49946 -5.19704,2.08924 -2.73351,-0.51565 -3.64577,-1.43533 -4.31775,-4.35291 -0.31808,-1.38101 -0.87552,-3.70155 -1.23876,-5.15676 -0.36324,-1.45521 -1.00526,-4.47146 -1.4267,-6.70278 -0.47979,-2.54021 -1.10238,-4.65045 -1.66531,-5.64444 -0.49447,-0.87313 -3.01729,-3.74837 -5.60625,-6.38943 l -4.70721,-4.801939 -0.005,-4.1939 c -0.005,-4.35556 -0.37228,-5.85097 -1.48818,-6.06587 -0.32654,-0.0629 -1.66168,0.69413 -2.96698,1.68226 -3.78675,2.86665 -4.30578,2.83631 -8.62267,-0.50397 -1.6326,-1.26326 -3.21194,-2.29865 -3.50966,-2.30088 -0.29771,-0.002 -0.81189,0.45403 -1.14262,1.0139 -0.52831,0.89436 -0.62984,2.74685 -0.83626,15.257639 -0.27882,16.89873 -0.18083,17.87358 2.58089,25.67809 1.06945,3.02222 2.41767,7.00306 2.99604,8.84632 3.95625,12.60847 3.916,12.51678 8.45145,19.25201 4.76371,7.0742 7.09925,12.58477 8.24961,19.46443 0.50427,3.01576 0.56815,5.53182 0.43337,17.07074 -0.16896,14.46445 -0.30674,16.03095 -2.38492,27.11559 -1.3403,7.14894 -2.20571,9.8224 -5.08169,15.69861 -2.30189,4.70324 -4.97295,9.03284 -8.79235,14.25175 -3.63592,4.9682 -4.67363,5.92565 -7.46,6.88301 -2.91499,1.00156 -8.99742,2.07192 -10.85331,1.90992 l -1.30749,-0.11412 3.02448,-2.46945 c 10.16782,-8.30187 18.42545,-20.02343 21.81068,-30.95988 1.28651,-4.15625 2.76726,-11.63595 3.36902,-17.01789 0.58231,-5.20794 0.45288,-29.14074 -0.17358,-32.09825 -1.13704,-5.36793 -3.85819,-11.88975 -6.29475,-15.08674 -3.81862,-5.01038 -6.04448,-9.14944 -7.44876,-13.85121 -1.45719,-4.87892 -5.47134,-16.74597 -6.24248,-18.45463 -1.51571,-3.35847 -2.04867,-7.1994 -2.29004,-16.50354 l -0.22979,-8.85827 -1.96738,1.37815 c -2.4037,1.6838 -3.9555,1.73889 -5.11346,0.18154 -1.16125,-1.56179 -0.92263,-3.36203 0.7951,-5.998509 0.80107,-1.22952 1.45649,-2.46491 1.45649,-2.7453 0,-0.28039 0.3175,-1.10218 0.70555,-1.82621 1.47916,-2.75979 0.65138,-3.92382 -3.24475,-4.5628 -1.93657,-0.3176 -2.71239,-0.2524 -6.01566,0.50558 -2.0858,0.47861 -3.79237,0.78481 -3.79237,0.68044 0,-0.10437 0.34715,-0.55929 0.77144,-1.01093 0.84603,-0.90055 0.71936,-1.16828 -0.94782,-2.00345 -1.03796,-0.51996 -6.44304,-5.131946 -6.49829,-5.544784 -0.0155,-0.115516 1.29536,-1.018776 2.91293,-2.007243 1.61757,-0.988467 3.69284,-2.481453 4.61173,-3.317747 l 1.67069,-1.520534 -4.61173,-4.555185 c -2.53645,-2.505351 -4.61172,-4.626814 -4.61172,-4.714361 0,-0.176108 2.96513,0.200459 4.02156,0.510733 0.6008,0.176454 0.57341,0.02369 -0.26458,-1.475639 -0.51412,-0.919858 -0.93476,-1.932456 -0.93476,-2.250216 0,-0.354123 1.50994,-1.516319 3.90102,-3.002606 l 3.90103,-2.424858 2.53717,0.736437 c 1.39544,0.405041 3.20775,0.843342 4.02736,0.974003 l 1.49019,0.237565 -0.87834,-2.248491 c -0.48308,-1.236671 -1.35211,-3.013102 -1.93116,-3.947626 -1.02894,-1.660583 -1.05289,-1.804661 -1.0555,-6.35 -0.005,-8.512083 -0.29021,-9.844305 -3.48915,-16.29253 -2.8773,-5.79988 -3.91651,-8.409909 -3.91651,-9.836516 0,-0.670533 0.32172,-0.919929 1.8044,-1.398782 0.99242,-0.320516 2.23252,-0.582756 2.75578,-0.582756 1.319,0 5.77437,1.181387 10.70335,2.838101 4.86165,1.634083 6.88824,1.775609 8.61292,0.601482 1.42506,-0.970147 1.44943,-1.451389 0.17513,-3.458711 -1.11006,-1.74861 -2.9291,-3.268314 -4.89553,-4.089941 -0.71763,-0.299845 -2.14016,-1.079561 -3.16119,-1.732703 -1.66635,-1.06595 -1.91645,-1.394054 -2.44283,-3.204753 -0.68493,-2.356068 -0.48704,-5.613915 0.4359,-7.176333 0.61722,-1.044873 3.06845,-2.474364 4.24293,-2.474364 1.59041,0 4.59007,1.231285 9.04327,3.712032 2.60449,1.450882 4.92624,2.637968 5.15945,2.637968 0.23321,0 1.08762,-0.454165 1.89869,-1.009256 0.81107,-0.555091 3.11776,-1.852512 5.12597,-2.883158 2.24332,-1.151306 3.76142,-2.156483 3.93688,-2.606716 0.15707,-0.403048 0.56028,-2.131396 0.89603,-3.840774 0.73005,-3.7168485 1.54119,-5.0401895 3.87423,-6.320603 0.96397,-0.529044 1.84046,-0.965607 1.94775,-0.970139 0.1073,-0.0045 1.60665,0.878022 3.33189,1.961233 l 3.13681,1.9694725 6.17739,-0.04286 c 3.39756,-0.02358 6.24062,-0.106106 6.31791,-0.1834 0.28689,-0.286889 -2.85657,-9.1971985 -3.3953,-9.6241615 -0.30773,-0.243884 -1.67859,-0.779292 -3.04636,-1.189795 -4.34229,-1.303236 -4.07436,-1.076173 -4.07436,-3.452878 v -2.102614 l 1.58966,-0.238384 c 1.83673,-0.275435 4.90512,0.0314 7.32612,0.732599 0.92611,0.268232 2.67236,0.58658 3.88056,0.70744 1.20819,0.12086 5.60984,0.676711 9.78144,1.235223 9.8732,1.321869 10.07812,1.337106 9.9516,0.739986 -0.39763,-1.876757 -0.4558,-6.290562 -0.10914,-8.281218 0.56685,-3.25511 0.98144,-4.01935 2.44192,-4.501352 1.63986,-0.541202 9.48055,-0.213221 13.4684,0.563391 7.5241,1.465278 25.49713,7.01887 29.41317,9.088547 3.10348,1.640229 5.26105,3.912825 6.22519,6.557048 l 0.79229,2.172932 h 2.1689 c 3.72279,0 5.42642,-0.662027 9.07567,-3.526774 1.81564,-1.425323 4.09492,-3.333931 5.06506,-4.241352 3.64703,-3.411262 5.64395,-3.913525 9.69169,-2.437645 3.26477,1.190395 3.37477,1.510062 3.29925,9.58841 -0.0497,5.313506 0.0308,6.614583 0.40935,6.614583 0.25915,0 2.27135,-0.814155 4.47155,-1.809232 7.25238,-3.280003 8.91682,-3.635396 12.04076,-2.57096 3.28762,1.120203 6.91734,6.3351225 8.94175,12.846857 0.65585,2.109583 0.82363,3.458133 0.82785,6.653681 l 0.005,4.007848 6.87885,6.796211 c 4.57049,4.515587 7.06924,7.251904 7.44623,8.154164 0.47611,1.139492 0.5471,2.562252 0.44129,8.843944 l -0.12609,7.485992 2.54027,2.138492 c 4.5319,3.815122 7.13763,7.597842 7.15337,10.384486 0.0133,2.351654 -2.03345,8.64661 -4.48616,13.797676 -1.74638,3.667677 -2.34464,5.302092 -2.32433,6.35 0.0469,2.418091 1.80074,8.856735 3.48755,12.803054 2.53528,5.93133 3.2935,9.41053 3.74467,17.183059 0.33762,5.81635 0.30966,7.30927 -0.21143,11.28888 -1.57608,12.03687 -1.56652,13.13977 0.15473,17.84549 2.52951,6.91541 2.87378,8.06883 3.36051,11.25868 0.89396,5.85861 0.50629,13.18181 -1.05396,19.90946 -0.76198,3.28562 -7.08423,17.94878 -13.77523,31.94887 -4.89891,10.25034 -6.78223,14.73667 -7.25658,17.2861 -0.72752,3.91008 -4.62239,9.63071 -11.02252,16.18941 -4.69941,4.81585 -7.63992,7.11899 -12.50417,9.79385 -6.00349,3.30132 -9.63325,4.4991 -17.19561,5.67435 l -1.76389,0.27412 -0.19915,7.05289 c -0.20921,7.4091 -0.66819,10.3873 -1.75717,11.40184 -0.36075,0.33609 -2.30682,1.281 -4.3246,2.0998 -3.15588,1.28064 -4.00885,1.48369 -6.10222,1.45259 -1.33844,-0.0199 -3.30665,-0.23332 -4.3738,-0.4743 z m 33.39268,-57.94763 c -1.00842,-0.7201 -1.73174,-0.95479 -2.82223,-0.91573 -0.80645,0.0289 -6.21261,0.1645 -12.01369,0.30136 -12.04677,0.28421 -14.86201,0.0648 -23.84843,-1.85875 -9.8457,-2.10748 -9.28514,-2.03582 -10.893,-1.39248 -2.32515,0.93034 -3.92366,-0.0921 -3.92366,-2.50956 0,-1.12175 0.59432,-1.78474 2.43781,-2.71947 1.36903,-0.69415 3.53725,-0.61041 7.61635,0.29418 9.09607,2.01717 10.09712,2.10434 26.63473,2.31954 l 15.69861,0.20427 1.48874,1.05834 c 0.81881,0.58208 1.85068,1.73403 2.29305,2.55988 0.74749,1.39546 0.76607,1.56977 0.26303,2.46695 -0.72848,1.29924 -1.3254,1.33823 -2.93131,0.19147 z m -5.17046,-24.07589 c -4.36827,-1.20072 -5.05742,-1.71002 -4.87476,-3.60258 0.14718,-1.52499 1.34268,-1.98986 3.81494,-1.48342 l 1.75678,0.35987 1.23902,-2.07995 c 0.68146,-1.14398 1.23902,-2.15853 1.23902,-2.25457 0,-0.096 0.79375,-1.96389 1.76389,-4.15077 0.97014,-2.18689 1.76389,-4.25114 1.76389,-4.58723 0,-0.92548 -1.81992,-3.38205 -5.14066,-6.93901 -3.34591,-3.5839 -4.7299,-6.0029 -5.57478,-9.74383 -0.67636,-2.99476 -0.75391,-6.84073 -0.15011,-7.44453 0.50954,-0.50954 2.36636,-0.55236 3.60079,-0.083 0.94192,0.35812 0.96022,0.40909 1.62825,4.53628 0.60056,3.71035 2.22477,6.64855 6.1729,11.1668 6.44508,7.37576 6.55846,7.83031 3.53417,14.16859 -1.05967,2.22084 -2.57513,5.5165 -3.36771,7.3237 -1.49281,3.40386 -2.7154,4.92153 -4.23063,5.25176 -0.48507,0.10572 -1.91382,-0.0914 -3.175,-0.43808 z m -31.57361,-1.4477 c -2.14368,-0.62732 -4.92706,-2.61205 -6.08062,-4.33589 -1.42951,-2.13618 -1.90794,-3.88627 -1.89828,-6.94376 0.009,-2.70958 0.67851,-4.67731 1.79612,-5.27543 1.92581,-1.03066 4.30146,0.98289 3.53575,2.99684 -0.51738,1.36082 -0.42792,3.94123 0.17722,5.11142 0.67779,1.31071 2.29589,2.52981 4.85106,3.65486 1.88288,0.82904 2.02809,0.97683 2.02307,2.05909 -0.006,1.34547 -0.19736,1.68902 -1.39601,2.5093 -0.95542,0.65384 -1.42003,0.68836 -3.00831,0.22357 z m 11.2007,-3.01611 c -0.66583,-0.29763 -0.52932,-1.4611 0.26458,-2.25499 0.73585,-0.73585 3.24519,-0.9561 5.57779,-0.48958 1.68402,0.3368 1.89698,1.99127 0.30571,2.3751 -1.30415,0.31458 -5.6823,0.57768 -6.14808,0.36947 z m -35.0132,-24.43921 c 0,-0.79921 0.23024,-0.88528 3.84618,-1.43772 1.50282,-0.2296 2.53911,-0.60852 3.09666,-1.13232 0.68264,-0.64131 3.99327,-6.61752 3.99327,-7.20849 0,-0.0907 -0.30507,-0.002 -0.67793,0.19797 -0.37287,0.19955 -2.31755,0.50695 -4.32153,0.68311 -2.00398,0.17616 -4.35797,0.50563 -5.23109,0.73217 -0.88342,0.22921 -2.29159,0.31051 -3.175,0.18333 -3.11719,-0.4488 -7.55331,-3.00378 -5.1924,-2.99056 0.43047,0.002 2.21031,0.39929 3.95519,0.88195 4.56496,1.26273 6.52887,1.16039 6.52887,-0.34023 0,-0.96195 0.53484,-1.44429 3.6819,-3.32049 2.91381,-1.73714 2.70071,-1.91865 -0.37834,-0.32224 -2.13676,1.10786 -2.24374,1.12593 -4.21634,0.71217 -1.85268,-0.3886 -2.12352,-0.36299 -3.20053,0.30264 -0.88127,0.54464 -1.46458,0.66458 -2.324,0.47784 -1.71687,-0.37306 -9.31506,-4.27038 -9.55756,-4.90235 -0.36986,-0.96383 1.55573,-0.64201 4.03466,0.67431 2.15344,1.14348 5.91805,2.28713 7.56785,2.29903 0.60807,0.004 0.70209,-0.17692 0.59184,-1.14131 -0.12779,-1.11776 -0.0751,-1.16696 2.09931,-1.9605 1.97923,-0.72232 6.3287,-2.00591 9.78372,-2.88732 0.66184,-0.16884 1.61434,-0.61084 2.11667,-0.98222 0.50233,-0.37138 1.41023,-0.93219 2.01755,-1.24624 0.62962,-0.32558 1.44031,-1.22094 1.88615,-2.08313 1.49919,-2.89922 2.65226,-3.44624 4.20841,-1.99646 0.61728,0.57508 0.76232,1.00775 0.62087,1.85208 -0.10152,0.60594 -0.36588,2.45108 -0.58746,4.10031 -0.88399,6.57942 -1.75431,9.29151 -3.84905,11.99445 -3.44031,4.43919 -6.01551,6.94316 -8.37127,8.13975 -2.10886,1.07118 -2.75388,1.22278 -5.66326,1.33111 -3.1282,0.11647 -3.28334,0.0876 -3.28334,-0.61064 z m 80.15205,-4.56609 c -0.6072,-0.39732 -0.07,-0.84241 2.18167,-1.80759 0.93522,-0.40088 2.10226,-1.04498 2.59342,-1.43132 0.89881,-0.70701 2.56175,-0.96487 2.56175,-0.39724 0,0.64091 -1.53148,2.21112 -2.76737,2.83736 -1.56378,0.79238 -3.9435,1.20838 -4.56947,0.79879 z m -8.15427,-2.43013 c -1.53351,-0.54166 -1.54389,-0.5561 -0.70556,-0.98186 0.46796,-0.23767 1.85658,-0.53236 3.08581,-0.65487 1.22924,-0.12251 2.73736,-0.43819 3.35139,-0.7015 2.49142,-1.0684 5.07297,-1.94619 6.37058,-2.16615 1.15519,-0.19581 1.29543,-0.15749 0.88195,0.24103 -0.69494,0.66976 -4.01668,2.75084 -4.40311,2.75855 -0.17704,0.004 -1.02047,0.47978 -1.87428,1.05833 -1.80172,1.22086 -4.08421,1.3728 -6.70678,0.44647 z m -1.96179,-3.53081 c -0.58736,-0.43168 -1.81079,-1.30481 -2.71873,-1.94028 -0.90795,-0.63548 -1.91044,-1.59423 -2.22777,-2.13055 -0.31732,-0.53633 -1.16196,-1.65113 -1.87697,-2.47733 -3.56369,-4.11787 -4.37693,-6.65576 -2.29981,-7.17708 0.89373,-0.22431 3.29285,0.70855 3.29285,1.28037 0,0.13261 0.67469,0.97179 1.4993,1.86485 0.82462,0.89306 1.99533,2.23329 2.60158,2.97829 1.20314,1.4785 5.83934,4.38592 8.36742,5.24732 2.46567,0.84014 3.81165,0.56779 4.53525,-0.91767 0.33079,-0.6791 0.60907,-1.72606 0.61839,-2.32657 0.0181,-1.16462 0.93283,-2.25954 1.88775,-2.25954 0.60464,0 1.65697,1.67402 1.65697,2.63588 0,0.30483 -0.4119,1.17668 -0.91534,1.93743 -0.50345,0.76075 -0.82044,1.53676 -0.70443,1.72447 0.12381,0.20032 -0.40879,0.33411 -1.28951,0.32391 -1.0299,-0.0119 -2.05359,0.29979 -3.26433,0.99396 -1.57754,0.90448 -2.09829,1.01216 -4.92929,1.01936 -2.72442,0.007 -3.31418,-0.1013 -4.23333,-0.77682 z m 4.7529,-11.88929 c -0.87312,-0.24213 -2.36047,-0.783 -3.30521,-1.20193 -2.9864,-1.32427 -8.00425,-2.52756 -10.54132,-2.52783 l -2.38125,-2.5e-4 v -2.24042 c 0,-1.23223 0.18004,-2.78004 0.40009,-3.43958 0.83709,-2.50899 3.67548,-4.52446 7.47534,-5.30805 8.72015,-1.79825 11.12334,-2.1189 13.10533,-1.74862 3.12536,0.58388 5.453,3.40888 5.46983,6.6386 0.008,1.52496 -0.61658,8.11618 -0.9037,9.53765 -0.15479,0.76633 -0.29112,0.79266 -3.94597,0.76221 -2.0821,-0.0173 -4.50001,-0.22965 -5.37314,-0.47178 z m -5.83823,-5.40571 c -0.31083,-1.82142 -0.86441,-3.96875 -1.02314,-3.96875 -0.0723,0 -1.02707,0.34276 -2.12179,0.76168 -1.63196,0.62452 -2.08313,0.98366 -2.50546,1.99444 -0.2833,0.67802 -0.46081,1.28704 -0.39448,1.35338 0.18946,0.18946 4.56058,1.10736 5.46089,1.14675 0.74444,0.0326 0.79153,-0.0713 0.58398,-1.2875 z m -74.24233,1.49371 c -3.06415,-0.7517 -4.28557,-1.39316 -6.62145,-3.47743 -2.05934,-1.83752 -3.82237,-2.68399 -5.59983,-2.68862 -0.4158,-10e-4 -0.85237,-0.25307 -0.97014,-0.55998 -0.42648,-1.1114 -0.20285,-3.24219 0.42702,-4.06871 0.35264,-0.46273 0.84043,-1.33862 1.08397,-1.94641 0.57056,-1.4239 1.98786,-2.77075 3.64341,-3.46232 1.87823,-0.78458 14.73573,-0.78552 17.75249,-0.001 2.19149,0.56969 5.84781,2.40809 7.29915,3.67002 0.46375,0.40322 1.95201,1.26452 3.30726,1.914 3.18272,1.52528 3.66701,2.27478 3.66701,5.67505 0,1.46203 -0.14657,2.65824 -0.32571,2.65824 -0.17914,0 -0.81654,0.41301 -1.41645,0.9178 -1.04792,0.88177 -1.29477,0.92285 -6.28887,1.04659 -2.85897,0.0708 -6.38876,0.28793 -7.84397,0.48243 -3.4836,0.46559 -5.74763,0.42113 -8.11389,-0.15936 z m -2.04359,-3.5357 c -0.0568,-0.38062 -0.19751,-2.16047 -0.31265,-3.95523 l -0.20934,-3.2632 h -1.37437 c -2.54338,0 -4.87949,1.55084 -4.87949,3.23928 0,1.2725 5.01752,5.05961 6.33834,4.78403 0.31164,-0.065 0.49704,-0.40611 0.43751,-0.80488 z m 63.6889,-14.14812 c -0.0985,-0.16624 -0.29423,-0.83902 -0.43508,-1.49508 -0.29682,-1.38268 0.50449,-7.85786 0.93918,-7.58921 0.38726,0.23934 0.36753,8.29342 -0.0218,8.9079 -0.1668,0.26325 -0.38383,0.34262 -0.48228,0.17639 z m -32.51596,-6.16304 c -0.31934,-0.79808 -1.47311,-2.38676 -2.56394,-3.53038 -2.01295,-2.110369 -2.20162,-2.692599 -0.74086,-2.286239 1.46411,0.40728 5.14574,5.680009 4.72733,6.770359 -0.33376,0.86975 -0.82459,0.54067 -1.42253,-0.95374 z m 31.2322,-8.262589 c -1.19439,-1.36034 -1.40577,-2.73827 -0.59715,-3.89274 0.27376,-0.39083 1.98032,-1.41834 3.79236,-2.28335 l 3.29463,-1.57275 7.08659,-0.12347 7.0866,-0.12347 1.92873,1.08851 c 1.93969,1.0947 8.01014,7.26675 7.57504,7.70184 -0.12005,0.12005 -0.9721,0.0283 -1.89345,-0.20397 -0.92134,-0.23223 -5.56455,-0.57499 -10.31823,-0.76169 -8.64121,-0.33938 -8.64371,-0.33927 -11.70805,0.53931 -4.18599,1.20018 -4.90733,1.15766 -6.24707,-0.36822 z m -78.14113,-0.84866 c -0.56433,-0.20511 -0.31453,-0.5137 1.5856,-1.95876 2.4105,-1.8332 3.82223,-2.37439 10.19676,-3.90897 2.23132,-0.53716 4.93007,-1.29106 5.99722,-1.67534 1.78623,-0.64322 2.73628,-0.69199 11.96595,-0.61428 11.55624,0.0973 11.67017,0.12338 11.67017,2.67155 0,1.19049 -0.22379,1.74918 -1.05864,2.64288 -0.65236,0.69836 -1.26491,1.05412 -1.59614,0.92701 -1.14475,-0.43928 -13.25596,-0.96317 -17.27717,-0.74736 -4.63969,0.24901 -19.72952,2.29087 -20.60506,2.78814 -0.11485,0.0652 -0.51027,0.009 -0.87869,-0.12487 z M 40.97567,79.834292 c -1.13891,-0.639948 0.10576,-0.948784 3.84772,-0.954725 5.73066,-0.0091 9.37427,-0.486874 14.35488,-1.88231 2.42535,-0.679519 6.47347,-1.811091 8.99583,-2.514604 2.52236,-0.703513 5.85611,-1.652429 7.40834,-2.108701 11.37716,-3.344292 18.32266,-3.333254 26.43873,0.04202 6.60909,2.748555 5.65549,2.615296 21.16798,2.958089 7.75105,0.171282 14.5773,0.413522 15.16944,0.538312 1.2761,0.268929 4.42801,1.90834 4.42801,2.303153 0,0.683021 -0.80793,0.630883 -2.36802,-0.152815 -1.86373,-0.936226 -3.30229,-1.032026 -22.6792,-1.510291 l -8.99583,-0.222038 -5.69769,-2.052169 c -6.35064,-2.287346 -9.97448,-3.153489 -13.19383,-3.153489 -2.28675,0 -7.67393,0.970259 -11.80015,2.125266 -1.35819,0.380184 -5.08882,1.419371 -8.29028,2.309303 -3.20146,0.889933 -6.69396,1.916327 -7.76111,2.280877 -3.17215,1.083637 -10.37552,2.09244 -15.63754,2.189974 -2.6828,0.04973 -5.10707,-0.03841 -5.38728,-0.195852 z m 103.9276,-12.414384 c -1.45521,-1.045354 -3.51896,-2.345977 -4.58611,-2.890274 l -1.94028,-0.989631 -15.16944,0.10456 -15.16945,0.10456 -4.7625,-1.615852 c -7.91836,-2.686593 -8.3395,-2.76186 -14.11111,-2.52195 -8.14517,0.338573 -17.6823,1.208308 -24.16528,2.203743 -6.42193,0.986063 -10.47446,1.237132 -10.75972,0.666605 -0.10231,-0.20462 1.00887,-0.536583 2.64583,-0.790438 1.55223,-0.240713 5.04473,-0.829695 7.76111,-1.308849 5.90637,-1.041845 24.43776,-2.461661 28.75139,-2.202839 2.45059,0.147037 4.18937,0.58166 9.514,2.378104 l 6.51538,2.198185 9.18323,-0.237214 c 15.13323,-0.39091 19.21253,-0.334728 20.94977,0.288526 2.51229,0.901317 8.87096,5.372302 8.87096,6.237459 0,0.660008 -0.96772,0.214331 -3.52778,-1.624695 z"
       id="path1" />
  </g>
</svg>
